<?xml version="1.0" standalone="no"?>
 <!DOCTYPE svg PUBLIC "-//W3C//DTD SVG 1.1//EN" 
 "http://www.w3.org/Graphics/SVG/1.1/DTD/svg11.dtd"> 
<svg xmlns="http://www.w3.org/2000/svg" version="1.1" 
    width="29.7002cm" height="21.0007cm" viewBox="0 0 116930 82680 ">
<title>SVG Picture created as DVDLaserScanner-brd.svg date 2017/06/23 17:03:23 </title>
  <desc>Picture generated by PCBNEW </desc>
<g style="fill:#000000; fill-opacity:1;stroke:#000000; stroke-opacity:1;
stroke-linecap:round; stroke-linejoin:round; "
 transform="translate(0 0) scale(1 1)">
</g>
<g style="fill:#000000; fill-opacity:0.0; 
stroke:#000000; stroke-width:-0.000393701; stroke-opacity:1; 
stroke-linecap:round; stroke-linejoin:round;">
</g>
<g style="fill:#000000; fill-opacity:0.0; 
stroke:#000000; stroke-width:39.3701; stroke-opacity:1; 
stroke-linecap:round; stroke-linejoin:round;">
</g>
<g style="fill:#000000; fill-opacity:0.0; 
stroke:#000000; stroke-width:59.0551; stroke-opacity:1; 
stroke-linecap:round; stroke-linejoin:round;">
<rect x="69685.9" y="65357.2" width="42519.7" height="12598.4" rx="0" />
</g>
<g style="fill:#000000; fill-opacity:0.0; 
stroke:#000000; stroke-width:39.3701; stroke-opacity:1; 
stroke-linecap:round; stroke-linejoin:round;">
</g>
<g style="fill:#000000; fill-opacity:0.0; 
stroke:#000000; stroke-width:59.0551; stroke-opacity:1; 
stroke-linecap:round; stroke-linejoin:round;">
<rect x="3937.01" y="3937.01" width="109056" height="74806" rx="0" />
</g>
<g style="fill:#000000; fill-opacity:0.0; 
stroke:#000000; stroke-width:39.3701; stroke-opacity:1; 
stroke-linecap:round; stroke-linejoin:round;">
</g>
<g style="fill:#000000; fill-opacity:0.0; 
stroke:#000000; stroke-width:59.0551; stroke-opacity:1; 
stroke-linecap:round; stroke-linejoin:round;">
<rect x="4724.41" y="4724.41" width="107481" height="73231.2" rx="0" />
</g>
<g style="fill:#000000; fill-opacity:0.0; 
stroke:#000000; stroke-width:39.3701; stroke-opacity:1; 
stroke-linecap:round; stroke-linejoin:round;">
</g>
<g style="fill:#000000; fill-opacity:0.0; 
stroke:#000000; stroke-width:59.0551; stroke-opacity:1; 
stroke-linecap:round; stroke-linejoin:round;">
<path d="M23622 4724
L23622 3937
" />
</g>
<g style="fill:#000000; fill-opacity:0.0; 
stroke:#000000; stroke-width:39.3701; stroke-opacity:1; 
stroke-linecap:round; stroke-linejoin:round;">
</g>
<g style="fill:#000000; fill-opacity:0.0; 
stroke:#000000; stroke-width:59.0551; stroke-opacity:1; 
stroke-linecap:round; stroke-linejoin:round;">
<path d="M43307 4724
L43307 3937
" />
</g>
<g style="fill:#000000; fill-opacity:0.0; 
stroke:#000000; stroke-width:39.3701; stroke-opacity:1; 
stroke-linecap:round; stroke-linejoin:round;">
</g>
<g style="fill:#000000; fill-opacity:0.0; 
stroke:#000000; stroke-width:59.0551; stroke-opacity:1; 
stroke-linecap:round; stroke-linejoin:round;">
<path d="M62992 4724
L62992 3937
" />
</g>
<g style="fill:#000000; fill-opacity:0.0; 
stroke:#000000; stroke-width:39.3701; stroke-opacity:1; 
stroke-linecap:round; stroke-linejoin:round;">
</g>
<g style="fill:#000000; fill-opacity:0.0; 
stroke:#000000; stroke-width:59.0551; stroke-opacity:1; 
stroke-linecap:round; stroke-linejoin:round;">
<path d="M82677 4724
L82677 3937
" />
</g>
<g style="fill:#000000; fill-opacity:0.0; 
stroke:#000000; stroke-width:39.3701; stroke-opacity:1; 
stroke-linecap:round; stroke-linejoin:round;">
</g>
<g style="fill:#000000; fill-opacity:0.0; 
stroke:#000000; stroke-width:59.0551; stroke-opacity:1; 
stroke-linecap:round; stroke-linejoin:round;">
<path d="M102362 4724
L102362 3937
" />
</g>
<g style="fill:#000000; fill-opacity:0.0; 
stroke:#000000; stroke-width:39.3701; stroke-opacity:1; 
stroke-linecap:round; stroke-linejoin:round;">
</g>
<g style="fill:#000000; fill-opacity:0.0; 
stroke:#000000; stroke-width:59.0551; stroke-opacity:1; 
stroke-linecap:round; stroke-linejoin:round;">
<path d="M14199 4562
L13906 4562
" />
<path d="M14052 4562
L14052 4050
L14004 4123
L13955 4172
L13906 4196
" />
</g>
<g style="fill:#000000; fill-opacity:0.0; 
stroke:#000000; stroke-width:39.3701; stroke-opacity:1; 
stroke-linecap:round; stroke-linejoin:round;">
</g>
<g style="fill:#000000; fill-opacity:0.0; 
stroke:#000000; stroke-width:59.0551; stroke-opacity:1; 
stroke-linecap:round; stroke-linejoin:round;">
<path d="M33591 4099
L33615 4074
L33664 4050
L33786 4050
L33835 4074
L33859 4099
L33884 4147
L33884 4196
L33859 4269
L33567 4562
L33884 4562
" />
</g>
<g style="fill:#000000; fill-opacity:0.0; 
stroke:#000000; stroke-width:39.3701; stroke-opacity:1; 
stroke-linecap:round; stroke-linejoin:round;">
</g>
<g style="fill:#000000; fill-opacity:0.0; 
stroke:#000000; stroke-width:59.0551; stroke-opacity:1; 
stroke-linecap:round; stroke-linejoin:round;">
<path d="M53252 4050
L53569 4050
L53398 4245
L53471 4245
L53520 4269
L53544 4294
L53569 4342
L53569 4464
L53544 4513
L53520 4537
L53471 4562
L53325 4562
L53276 4537
L53252 4513
" />
</g>
<g style="fill:#000000; fill-opacity:0.0; 
stroke:#000000; stroke-width:39.3701; stroke-opacity:1; 
stroke-linecap:round; stroke-linejoin:round;">
</g>
<g style="fill:#000000; fill-opacity:0.0; 
stroke:#000000; stroke-width:59.0551; stroke-opacity:1; 
stroke-linecap:round; stroke-linejoin:round;">
<path d="M73205 4221
L73205 4562
" />
<path d="M73083 4026
L72961 4391
L73278 4391
" />
</g>
<g style="fill:#000000; fill-opacity:0.0; 
stroke:#000000; stroke-width:39.3701; stroke-opacity:1; 
stroke-linecap:round; stroke-linejoin:round;">
</g>
<g style="fill:#000000; fill-opacity:0.0; 
stroke:#000000; stroke-width:59.0551; stroke-opacity:1; 
stroke-linecap:round; stroke-linejoin:round;">
<path d="M92914 4050
L92671 4050
L92646 4294
L92671 4269
L92719 4245
L92841 4245
L92890 4269
L92914 4294
L92939 4342
L92939 4464
L92914 4513
L92890 4537
L92841 4562
L92719 4562
L92671 4537
L92646 4513
" />
</g>
<g style="fill:#000000; fill-opacity:0.0; 
stroke:#000000; stroke-width:39.3701; stroke-opacity:1; 
stroke-linecap:round; stroke-linejoin:round;">
</g>
<g style="fill:#000000; fill-opacity:0.0; 
stroke:#000000; stroke-width:59.0551; stroke-opacity:1; 
stroke-linecap:round; stroke-linejoin:round;">
<path d="M112575 4050
L112477 4050
L112429 4074
L112404 4099
L112356 4172
L112331 4269
L112331 4464
L112356 4513
L112380 4537
L112429 4562
L112526 4562
L112575 4537
L112599 4513
L112624 4464
L112624 4342
L112599 4294
L112575 4269
L112526 4245
L112429 4245
L112380 4269
L112356 4294
L112331 4342
" />
</g>
<g style="fill:#000000; fill-opacity:0.0; 
stroke:#000000; stroke-width:39.3701; stroke-opacity:1; 
stroke-linecap:round; stroke-linejoin:round;">
</g>
<g style="fill:#000000; fill-opacity:0.0; 
stroke:#000000; stroke-width:59.0551; stroke-opacity:1; 
stroke-linecap:round; stroke-linejoin:round;">
<path d="M23622 77955
L23622 78742
" />
</g>
<g style="fill:#000000; fill-opacity:0.0; 
stroke:#000000; stroke-width:39.3701; stroke-opacity:1; 
stroke-linecap:round; stroke-linejoin:round;">
</g>
<g style="fill:#000000; fill-opacity:0.0; 
stroke:#000000; stroke-width:59.0551; stroke-opacity:1; 
stroke-linecap:round; stroke-linejoin:round;">
<path d="M43307 77955
L43307 78742
" />
</g>
<g style="fill:#000000; fill-opacity:0.0; 
stroke:#000000; stroke-width:39.3701; stroke-opacity:1; 
stroke-linecap:round; stroke-linejoin:round;">
</g>
<g style="fill:#000000; fill-opacity:0.0; 
stroke:#000000; stroke-width:59.0551; stroke-opacity:1; 
stroke-linecap:round; stroke-linejoin:round;">
<path d="M62992 77955
L62992 78742
" />
</g>
<g style="fill:#000000; fill-opacity:0.0; 
stroke:#000000; stroke-width:39.3701; stroke-opacity:1; 
stroke-linecap:round; stroke-linejoin:round;">
</g>
<g style="fill:#000000; fill-opacity:0.0; 
stroke:#000000; stroke-width:59.0551; stroke-opacity:1; 
stroke-linecap:round; stroke-linejoin:round;">
<path d="M82677 77955
L82677 78742
" />
</g>
<g style="fill:#000000; fill-opacity:0.0; 
stroke:#000000; stroke-width:39.3701; stroke-opacity:1; 
stroke-linecap:round; stroke-linejoin:round;">
</g>
<g style="fill:#000000; fill-opacity:0.0; 
stroke:#000000; stroke-width:59.0551; stroke-opacity:1; 
stroke-linecap:round; stroke-linejoin:round;">
<path d="M102362 77955
L102362 78742
" />
</g>
<g style="fill:#000000; fill-opacity:0.0; 
stroke:#000000; stroke-width:39.3701; stroke-opacity:1; 
stroke-linecap:round; stroke-linejoin:round;">
</g>
<g style="fill:#000000; fill-opacity:0.0; 
stroke:#000000; stroke-width:59.0551; stroke-opacity:1; 
stroke-linecap:round; stroke-linejoin:round;">
<path d="M14199 78580
L13906 78580
" />
<path d="M14052 78580
L14052 78069
L14004 78142
L13955 78190
L13906 78215
" />
</g>
<g style="fill:#000000; fill-opacity:0.0; 
stroke:#000000; stroke-width:39.3701; stroke-opacity:1; 
stroke-linecap:round; stroke-linejoin:round;">
</g>
<g style="fill:#000000; fill-opacity:0.0; 
stroke:#000000; stroke-width:59.0551; stroke-opacity:1; 
stroke-linecap:round; stroke-linejoin:round;">
<path d="M33591 78117
L33615 78093
L33664 78069
L33786 78069
L33835 78093
L33859 78117
L33884 78166
L33884 78215
L33859 78288
L33567 78580
L33884 78580
" />
</g>
<g style="fill:#000000; fill-opacity:0.0; 
stroke:#000000; stroke-width:39.3701; stroke-opacity:1; 
stroke-linecap:round; stroke-linejoin:round;">
</g>
<g style="fill:#000000; fill-opacity:0.0; 
stroke:#000000; stroke-width:59.0551; stroke-opacity:1; 
stroke-linecap:round; stroke-linejoin:round;">
<path d="M53252 78069
L53569 78069
L53398 78263
L53471 78263
L53520 78288
L53544 78312
L53569 78361
L53569 78483
L53544 78532
L53520 78556
L53471 78580
L53325 78580
L53276 78556
L53252 78532
" />
</g>
<g style="fill:#000000; fill-opacity:0.0; 
stroke:#000000; stroke-width:39.3701; stroke-opacity:1; 
stroke-linecap:round; stroke-linejoin:round;">
</g>
<g style="fill:#000000; fill-opacity:0.0; 
stroke:#000000; stroke-width:59.0551; stroke-opacity:1; 
stroke-linecap:round; stroke-linejoin:round;">
<path d="M73205 78239
L73205 78580
" />
<path d="M73083 78044
L72961 78410
L73278 78410
" />
</g>
<g style="fill:#000000; fill-opacity:0.0; 
stroke:#000000; stroke-width:39.3701; stroke-opacity:1; 
stroke-linecap:round; stroke-linejoin:round;">
</g>
<g style="fill:#000000; fill-opacity:0.0; 
stroke:#000000; stroke-width:59.0551; stroke-opacity:1; 
stroke-linecap:round; stroke-linejoin:round;">
<path d="M92914 78069
L92671 78069
L92646 78312
L92671 78288
L92719 78263
L92841 78263
L92890 78288
L92914 78312
L92939 78361
L92939 78483
L92914 78532
L92890 78556
L92841 78580
L92719 78580
L92671 78556
L92646 78532
" />
</g>
<g style="fill:#000000; fill-opacity:0.0; 
stroke:#000000; stroke-width:39.3701; stroke-opacity:1; 
stroke-linecap:round; stroke-linejoin:round;">
</g>
<g style="fill:#000000; fill-opacity:0.0; 
stroke:#000000; stroke-width:59.0551; stroke-opacity:1; 
stroke-linecap:round; stroke-linejoin:round;">
<path d="M112575 78069
L112477 78069
L112429 78093
L112404 78117
L112356 78190
L112331 78288
L112331 78483
L112356 78532
L112380 78556
L112429 78580
L112526 78580
L112575 78556
L112599 78532
L112624 78483
L112624 78361
L112599 78312
L112575 78288
L112526 78263
L112429 78263
L112380 78288
L112356 78312
L112331 78361
" />
</g>
<g style="fill:#000000; fill-opacity:0.0; 
stroke:#000000; stroke-width:39.3701; stroke-opacity:1; 
stroke-linecap:round; stroke-linejoin:round;">
</g>
<g style="fill:#000000; fill-opacity:0.0; 
stroke:#000000; stroke-width:59.0551; stroke-opacity:1; 
stroke-linecap:round; stroke-linejoin:round;">
<path d="M3937 23622
L4724 23622
" />
</g>
<g style="fill:#000000; fill-opacity:0.0; 
stroke:#000000; stroke-width:39.3701; stroke-opacity:1; 
stroke-linecap:round; stroke-linejoin:round;">
</g>
<g style="fill:#000000; fill-opacity:0.0; 
stroke:#000000; stroke-width:59.0551; stroke-opacity:1; 
stroke-linecap:round; stroke-linejoin:round;">
<path d="M3937 43307
L4724 43307
" />
</g>
<g style="fill:#000000; fill-opacity:0.0; 
stroke:#000000; stroke-width:39.3701; stroke-opacity:1; 
stroke-linecap:round; stroke-linejoin:round;">
</g>
<g style="fill:#000000; fill-opacity:0.0; 
stroke:#000000; stroke-width:59.0551; stroke-opacity:1; 
stroke-linecap:round; stroke-linejoin:round;">
<path d="M3937 62992
L4724 62992
" />
</g>
<g style="fill:#000000; fill-opacity:0.0; 
stroke:#000000; stroke-width:39.3701; stroke-opacity:1; 
stroke-linecap:round; stroke-linejoin:round;">
</g>
<g style="fill:#000000; fill-opacity:0.0; 
stroke:#000000; stroke-width:59.0551; stroke-opacity:1; 
stroke-linecap:round; stroke-linejoin:round;">
<path d="M4208 13864
L4452 13864
" />
<path d="M4160 14011
L4330 13499
L4501 14011
" />
</g>
<g style="fill:#000000; fill-opacity:0.0; 
stroke:#000000; stroke-width:39.3701; stroke-opacity:1; 
stroke-linecap:round; stroke-linejoin:round;">
</g>
<g style="fill:#000000; fill-opacity:0.0; 
stroke:#000000; stroke-width:59.0551; stroke-opacity:1; 
stroke-linecap:round; stroke-linejoin:round;">
<path d="M4367 33428
L4440 33452
L4464 33476
L4489 33525
L4489 33598
L4464 33647
L4440 33671
L4391 33696
L4196 33696
L4196 33184
L4367 33184
L4416 33208
L4440 33233
L4464 33281
L4464 33330
L4440 33379
L4416 33403
L4367 33428
L4196 33428
" />
</g>
<g style="fill:#000000; fill-opacity:0.0; 
stroke:#000000; stroke-width:39.3701; stroke-opacity:1; 
stroke-linecap:round; stroke-linejoin:round;">
</g>
<g style="fill:#000000; fill-opacity:0.0; 
stroke:#000000; stroke-width:59.0551; stroke-opacity:1; 
stroke-linecap:round; stroke-linejoin:round;">
<path d="M4489 53332
L4464 53356
L4391 53381
L4342 53381
L4269 53356
L4221 53308
L4196 53259
L4172 53161
L4172 53088
L4196 52991
L4221 52942
L4269 52893
L4342 52869
L4391 52869
L4464 52893
L4489 52918
" />
</g>
<g style="fill:#000000; fill-opacity:0.0; 
stroke:#000000; stroke-width:39.3701; stroke-opacity:1; 
stroke-linecap:round; stroke-linejoin:round;">
</g>
<g style="fill:#000000; fill-opacity:0.0; 
stroke:#000000; stroke-width:59.0551; stroke-opacity:1; 
stroke-linecap:round; stroke-linejoin:round;">
<path d="M4196 73066
L4196 72554
L4318 72554
L4391 72578
L4440 72627
L4464 72676
L4489 72773
L4489 72846
L4464 72944
L4440 72993
L4391 73041
L4318 73066
L4196 73066
" />
</g>
<g style="fill:#000000; fill-opacity:0.0; 
stroke:#000000; stroke-width:39.3701; stroke-opacity:1; 
stroke-linecap:round; stroke-linejoin:round;">
</g>
<g style="fill:#000000; fill-opacity:0.0; 
stroke:#000000; stroke-width:59.0551; stroke-opacity:1; 
stroke-linecap:round; stroke-linejoin:round;">
<path d="M112992 23622
L112205 23622
" />
</g>
<g style="fill:#000000; fill-opacity:0.0; 
stroke:#000000; stroke-width:39.3701; stroke-opacity:1; 
stroke-linecap:round; stroke-linejoin:round;">
</g>
<g style="fill:#000000; fill-opacity:0.0; 
stroke:#000000; stroke-width:59.0551; stroke-opacity:1; 
stroke-linecap:round; stroke-linejoin:round;">
<path d="M112992 43307
L112205 43307
" />
</g>
<g style="fill:#000000; fill-opacity:0.0; 
stroke:#000000; stroke-width:39.3701; stroke-opacity:1; 
stroke-linecap:round; stroke-linejoin:round;">
</g>
<g style="fill:#000000; fill-opacity:0.0; 
stroke:#000000; stroke-width:59.0551; stroke-opacity:1; 
stroke-linecap:round; stroke-linejoin:round;">
<path d="M112992 62992
L112205 62992
" />
</g>
<g style="fill:#000000; fill-opacity:0.0; 
stroke:#000000; stroke-width:39.3701; stroke-opacity:1; 
stroke-linecap:round; stroke-linejoin:round;">
</g>
<g style="fill:#000000; fill-opacity:0.0; 
stroke:#000000; stroke-width:59.0551; stroke-opacity:1; 
stroke-linecap:round; stroke-linejoin:round;">
<path d="M112477 13864
L112721 13864
" />
<path d="M112428 14011
L112599 13499
L112769 14011
" />
</g>
<g style="fill:#000000; fill-opacity:0.0; 
stroke:#000000; stroke-width:39.3701; stroke-opacity:1; 
stroke-linecap:round; stroke-linejoin:round;">
</g>
<g style="fill:#000000; fill-opacity:0.0; 
stroke:#000000; stroke-width:59.0551; stroke-opacity:1; 
stroke-linecap:round; stroke-linejoin:round;">
<path d="M112635 33428
L112708 33452
L112733 33476
L112757 33525
L112757 33598
L112733 33647
L112708 33671
L112660 33696
L112465 33696
L112465 33184
L112635 33184
L112684 33208
L112708 33233
L112733 33281
L112733 33330
L112708 33379
L112684 33403
L112635 33428
L112465 33428
" />
</g>
<g style="fill:#000000; fill-opacity:0.0; 
stroke:#000000; stroke-width:39.3701; stroke-opacity:1; 
stroke-linecap:round; stroke-linejoin:round;">
</g>
<g style="fill:#000000; fill-opacity:0.0; 
stroke:#000000; stroke-width:59.0551; stroke-opacity:1; 
stroke-linecap:round; stroke-linejoin:round;">
<path d="M112757 53332
L112733 53356
L112660 53381
L112611 53381
L112538 53356
L112489 53308
L112465 53259
L112440 53161
L112440 53088
L112465 52991
L112489 52942
L112538 52893
L112611 52869
L112660 52869
L112733 52893
L112757 52918
" />
</g>
<g style="fill:#000000; fill-opacity:0.0; 
stroke:#000000; stroke-width:39.3701; stroke-opacity:1; 
stroke-linecap:round; stroke-linejoin:round;">
</g>
<g style="fill:#000000; fill-opacity:0.0; 
stroke:#000000; stroke-width:59.0551; stroke-opacity:1; 
stroke-linecap:round; stroke-linejoin:round;">
<path d="M112465 73066
L112465 72554
L112587 72554
L112660 72578
L112708 72627
L112733 72676
L112757 72773
L112757 72846
L112733 72944
L112708 72993
L112660 73041
L112587 73066
L112465 73066
" />
</g>
<g style="fill:#000000; fill-opacity:0.0; 
stroke:#000000; stroke-width:39.3701; stroke-opacity:1; 
stroke-linecap:round; stroke-linejoin:round;">
</g>
<g style="fill:#000000; fill-opacity:0.0; 
stroke:#000000; stroke-width:59.0551; stroke-opacity:1; 
stroke-linecap:round; stroke-linejoin:round;">
<path d="M78911 76293
L78911 75703
L79051 75703
L79136 75731
L79192 75787
L79220 75843
L79248 75956
L79248 76040
L79220 76153
L79192 76209
L79136 76265
L79051 76293
L78911 76293
" />
<path d="M79754 76293
L79754 75984
L79726 75928
L79670 75899
L79557 75899
L79501 75928
" />
<path d="M79754 76265
L79698 76293
L79557 76293
L79501 76265
L79473 76209
L79473 76153
L79501 76096
L79557 76068
L79698 76068
L79754 76040
" />
<path d="M79951 75899
L80176 75899
" />
<path d="M80036 75703
L80036 76209
L80064 76265
L80120 76293
L80176 76293
" />
<path d="M80598 76265
L80542 76293
L80429 76293
L80373 76265
L80345 76209
L80345 75984
L80373 75928
L80429 75899
L80542 75899
L80598 75928
L80626 75984
L80626 76040
L80345 76096
" />
<path d="M80879 76237
L80907 76265
L80879 76293
L80851 76265
L80879 76237
L80879 76293
" />
<path d="M80879 75928
L80907 75956
L80879 75984
L80851 75956
L80879 75928
L80879 75984
" />
</g>
<g style="fill:#000000; fill-opacity:0.0; 
stroke:#000000; stroke-width:39.3701; stroke-opacity:1; 
stroke-linecap:round; stroke-linejoin:round;">
</g>
<g style="fill:#000000; fill-opacity:0.0; 
stroke:#000000; stroke-width:59.0551; stroke-opacity:1; 
stroke-linecap:round; stroke-linejoin:round;">
<path d="M69685 76577
L112205 76577
" />
</g>
<g style="fill:#000000; fill-opacity:0.0; 
stroke:#000000; stroke-width:39.3701; stroke-opacity:1; 
stroke-linecap:round; stroke-linejoin:round;">
</g>
<g style="fill:#000000; fill-opacity:0.0; 
stroke:#000000; stroke-width:59.0551; stroke-opacity:1; 
stroke-linecap:round; stroke-linejoin:round;">
<path d="M70249 77395
L70249 76805
" />
<path d="M70587 77395
L70334 77058
" />
<path d="M70587 76805
L70249 77142
" />
<path d="M70840 77395
L70840 77002
" />
<path d="M70840 76805
L70812 76833
L70840 76861
L70868 76833
L70840 76805
L70840 76861
" />
<path d="M71458 77339
L71430 77367
L71346 77395
L71290 77395
L71205 77367
L71149 77311
L71121 77255
L71093 77142
L71093 77058
L71121 76946
L71149 76889
L71205 76833
L71290 76805
L71346 76805
L71430 76833
L71458 76861
" />
<path d="M71965 77395
L71965 77086
L71937 77030
L71880 77002
L71768 77002
L71712 77030
" />
<path d="M71965 77367
L71908 77395
L71768 77395
L71712 77367
L71683 77311
L71683 77255
L71712 77199
L71768 77171
L71908 77171
L71965 77142
" />
<path d="M72499 77395
L72499 76805
" />
<path d="M72499 77367
L72443 77395
L72330 77395
L72274 77367
L72246 77339
L72218 77283
L72218 77114
L72246 77058
L72274 77030
L72330 77002
L72443 77002
L72499 77030
" />
<path d="M73230 77086
L73427 77086
" />
<path d="M73511 77395
L73230 77395
L73230 76805
L73511 76805
" />
<path d="M73764 77339
L73793 77367
L73764 77395
L73736 77367
L73764 77339
L73764 77395
" />
<path d="M74046 77395
L74046 76805
L74186 76805
L74271 76833
L74327 76889
L74355 76946
L74383 77058
L74383 77142
L74355 77255
L74327 77311
L74271 77367
L74186 77395
L74046 77395
" />
<path d="M74636 77339
L74664 77367
L74636 77395
L74608 77367
L74636 77339
L74636 77395
" />
<path d="M74889 77227
L75171 77227
" />
<path d="M74833 77395
L75030 76805
L75227 77395
" />
<path d="M75424 77339
L75452 77367
L75424 77395
L75395 77367
L75424 77339
L75424 77395
" />
<path d="M76605 77395
L76605 76805
" />
<path d="M76661 77171
L76830 77395
" />
<path d="M76830 77002
L76605 77227
" />
<path d="M77083 77395
L77083 77002
" />
<path d="M77083 76805
L77055 76833
L77083 76861
L77111 76833
L77083 76805
L77083 76861
" />
<path d="M77617 77367
L77561 77395
L77448 77395
L77392 77367
L77364 77339
L77336 77283
L77336 77114
L77364 77058
L77392 77030
L77448 77002
L77561 77002
L77617 77030
" />
<path d="M78123 77395
L78123 77086
L78095 77030
L78039 77002
L77926 77002
L77870 77030
" />
<path d="M78123 77367
L78067 77395
L77926 77395
L77870 77367
L77842 77311
L77842 77255
L77870 77199
L77926 77171
L78067 77171
L78123 77142
" />
<path d="M78658 77395
L78658 76805
" />
<path d="M78658 77367
L78601 77395
L78489 77395
L78433 77367
L78404 77339
L78376 77283
L78376 77114
L78404 77058
L78433 77030
L78489 77002
L78601 77002
L78658 77030
" />
<path d="M79389 77002
L79389 77395
" />
<path d="M79389 77058
L79417 77030
L79473 77002
L79557 77002
L79614 77030
L79642 77086
L79642 77395
" />
<path d="M80007 77395
L79951 77367
L79923 77339
L79895 77283
L79895 77114
L79923 77058
L79951 77030
L80007 77002
L80092 77002
L80148 77030
L80176 77058
L80204 77114
L80204 77283
L80176 77339
L80148 77367
L80092 77395
L80007 77395
" />
<path d="M80457 77171
L80907 77171
" />
<path d="M81132 77002
L81273 77395
L81413 77002
" />
<path d="M81892 77367
L81835 77395
L81723 77395
L81667 77367
L81638 77339
L81610 77283
L81610 77114
L81638 77058
L81667 77030
L81723 77002
L81835 77002
L81892 77030
" />
<path d="M82117 77367
L82173 77395
L82285 77395
L82341 77367
L82370 77311
L82370 77283
L82341 77227
L82285 77199
L82201 77199
L82145 77171
L82117 77114
L82117 77086
L82145 77030
L82201 77002
L82285 77002
L82341 77030
" />
<path d="M82623 77171
L83073 77171
" />
<path d="M83269 77002
L83494 77002
" />
<path d="M83354 77395
L83354 76889
L83382 76833
L83438 76805
L83494 76805
" />
<path d="M83776 77395
L83719 77367
L83691 77339
L83663 77283
L83663 77114
L83691 77058
L83719 77030
L83776 77002
L83860 77002
L83916 77030
L83944 77058
L83973 77114
L83973 77283
L83944 77339
L83916 77367
L83860 77395
L83776 77395
" />
<path d="M84479 77002
L84479 77395
" />
<path d="M84226 77002
L84226 77311
L84254 77367
L84310 77395
L84394 77395
L84451 77367
L84479 77339
" />
<path d="M84760 77002
L84760 77395
" />
<path d="M84760 77058
L84788 77030
L84844 77002
L84929 77002
L84985 77030
L85013 77086
L85013 77395
" />
<path d="M85547 77395
L85547 76805
" />
<path d="M85547 77367
L85491 77395
L85379 77395
L85322 77367
L85294 77339
L85266 77283
L85266 77114
L85294 77058
L85322 77030
L85379 77002
L85491 77002
L85547 77030
" />
<path d="M85829 77171
L86278 77171
" />
<path d="M86813 76805
L86700 76805
L86644 76833
L86616 76861
L86560 76946
L86532 77058
L86532 77283
L86560 77339
L86588 77367
L86644 77395
L86757 77395
L86813 77367
L86841 77339
L86869 77283
L86869 77142
L86841 77086
L86813 77058
L86757 77030
L86644 77030
L86588 77058
L86560 77086
L86532 77142
" />
<path d="M87066 76805
L87460 76805
L87206 77395
" />
<path d="M87628 76805
L87994 76805
L87797 77030
L87881 77030
L87938 77058
L87966 77086
L87994 77142
L87994 77283
L87966 77339
L87938 77367
L87881 77395
L87713 77395
L87656 77367
L87628 77339
" />
<path d="M88191 76805
L88556 76805
L88359 77030
L88444 77030
L88500 77058
L88528 77086
L88556 77142
L88556 77283
L88528 77339
L88500 77367
L88444 77395
L88275 77395
L88219 77367
L88191 77339
" />
<path d="M89119 77395
L88781 77395
" />
<path d="M88950 77395
L88950 76805
L88894 76889
L88838 76946
L88781 76974
" />
<path d="M89484 76805
L89541 76805
L89597 76833
L89625 76861
L89653 76917
L89681 77030
L89681 77171
L89653 77283
L89625 77339
L89597 77367
L89541 77395
L89484 77395
L89428 77367
L89400 77339
L89372 77283
L89344 77171
L89344 77030
L89372 76917
L89400 76861
L89428 76833
L89484 76805
" />
<path d="M90244 77395
L89906 77395
" />
<path d="M90075 77395
L90075 76805
L90019 76889
L89962 76946
L89906 76974
" />
<path d="M90454 76644
L90919 76644
" />
<path d="M90778 76805
L90497 76805
L90469 77086
L90497 77058
L90553 77030
L90694 77030
L90750 77058
L90778 77086
L90806 77142
L90806 77283
L90778 77339
L90750 77367
L90694 77395
L90553 77395
L90497 77367
L90469 77339
" />
<path d="M90919 76644
L91481 76644
" />
<path d="M91144 77058
L91087 77030
L91059 77002
L91031 76946
L91031 76917
L91059 76861
L91087 76833
L91144 76805
L91256 76805
L91312 76833
L91340 76861
L91368 76917
L91368 76946
L91340 77002
L91312 77030
L91256 77058
L91144 77058
L91087 77086
L91059 77114
L91031 77171
L91031 77283
L91059 77339
L91087 77367
L91144 77395
L91256 77395
L91312 77367
L91340 77339
L91368 77283
L91368 77171
L91340 77114
L91312 77086
L91256 77058
" />
<path d="M91875 77002
L91875 77395
" />
<path d="M91622 77002
L91622 77311
L91650 77367
L91706 77395
L91790 77395
L91847 77367
L91875 77339
" />
<path d="M92156 77395
L92156 76805
" />
<path d="M92156 77030
L92212 77002
L92325 77002
L92381 77030
L92409 77058
L92437 77114
L92437 77283
L92409 77339
L92381 77367
L92325 77395
L92212 77395
L92156 77367
" />
<path d="M92943 77002
L92943 77395
" />
<path d="M92690 77002
L92690 77311
L92718 77367
L92775 77395
L92859 77395
L92915 77367
L92943 77339
" />
<path d="M93224 77002
L93224 77395
" />
<path d="M93224 77058
L93253 77030
L93309 77002
L93393 77002
L93449 77030
L93478 77086
L93478 77395
" />
<path d="M93674 77002
L93899 77002
" />
<path d="M93759 76805
L93759 77311
L93787 77367
L93843 77395
L93899 77395
" />
<path d="M94349 77002
L94349 77395
" />
<path d="M94096 77002
L94096 77311
L94124 77367
L94181 77395
L94265 77395
L94321 77367
L94349 77339
" />
<path d="M94940 77395
L94602 77395
" />
<path d="M94771 77395
L94771 76805
L94715 76889
L94659 76946
L94602 76974
" />
<path d="M95446 77002
L95446 77395
" />
<path d="M95305 76777
L95165 77199
L95530 77199
" />
<path d="M95755 77339
L95784 77367
L95755 77395
L95727 77367
L95755 77339
L95755 77395
" />
<path d="M96149 76805
L96205 76805
L96262 76833
L96290 76861
L96318 76917
L96346 77030
L96346 77171
L96318 77283
L96290 77339
L96262 77367
L96205 77395
L96149 77395
L96093 77367
L96065 77339
L96037 77283
L96009 77171
L96009 77030
L96037 76917
L96065 76861
L96093 76833
L96149 76805
" />
<path d="M96852 77002
L96852 77395
" />
<path d="M96712 76777
L96571 77199
L96937 77199
" />
<path d="M97162 77339
L97190 77367
L97162 77395
L97133 77367
L97162 77339
L97162 77395
" />
<path d="M97752 77395
L97415 77395
" />
<path d="M97583 77395
L97583 76805
L97527 76889
L97471 76946
L97415 76974
" />
</g>
<g style="fill:#000000; fill-opacity:0.0; 
stroke:#000000; stroke-width:39.3701; stroke-opacity:1; 
stroke-linecap:round; stroke-linejoin:round;">
</g>
<g style="fill:#000000; fill-opacity:0.0; 
stroke:#000000; stroke-width:59.0551; stroke-opacity:1; 
stroke-linecap:round; stroke-linejoin:round;">
<path d="M69685 75396
L112205 75396
" />
</g>
<g style="fill:#000000; fill-opacity:0.0; 
stroke:#000000; stroke-width:39.3701; stroke-opacity:1; 
stroke-linecap:round; stroke-linejoin:round;">
</g>
<g style="fill:#000000; fill-opacity:0.0; 
stroke:#000000; stroke-width:118.11; stroke-opacity:1; 
stroke-linecap:round; stroke-linejoin:round;">
<path d="M104099 76293
L103902 76012
" />
<path d="M103761 76293
L103761 75703
L103986 75703
L104042 75731
L104070 75759
L104099 75815
L104099 75899
L104070 75956
L104042 75984
L103986 76012
L103761 76012
" />
<path d="M104577 76265
L104520 76293
L104408 76293
L104352 76265
L104323 76209
L104323 75984
L104352 75928
L104408 75899
L104520 75899
L104577 75928
L104605 75984
L104605 76040
L104323 76096
" />
<path d="M104802 75899
L104942 76293
L105083 75899
" />
<path d="M105308 76237
L105336 76265
L105308 76293
L105280 76265
L105308 76237
L105308 76293
" />
<path d="M105308 75928
L105336 75956
L105308 75984
L105280 75956
L105308 75928
L105308 75984
" />
</g>
<g style="fill:#000000; fill-opacity:0.0; 
stroke:#000000; stroke-width:39.3701; stroke-opacity:1; 
stroke-linecap:round; stroke-linejoin:round;">
</g>
<g style="fill:#000000; fill-opacity:0.0; 
stroke:#000000; stroke-width:59.0551; stroke-opacity:1; 
stroke-linecap:round; stroke-linejoin:round;">
<path d="M70221 76265
L70305 76293
L70446 76293
L70502 76265
L70530 76237
L70559 76181
L70559 76124
L70530 76068
L70502 76040
L70446 76012
L70334 75984
L70277 75956
L70249 75928
L70221 75871
L70221 75815
L70249 75759
L70277 75731
L70334 75703
L70474 75703
L70559 75731
" />
<path d="M70812 76293
L70812 75899
" />
<path d="M70812 75703
L70784 75731
L70812 75759
L70840 75731
L70812 75703
L70812 75759
" />
<path d="M71037 75899
L71346 75899
L71037 76293
L71346 76293
" />
<path d="M71796 76265
L71740 76293
L71627 76293
L71571 76265
L71543 76209
L71543 75984
L71571 75928
L71627 75899
L71740 75899
L71796 75928
L71824 75984
L71824 76040
L71543 76096
" />
<path d="M72077 76237
L72105 76265
L72077 76293
L72049 76265
L72077 76237
L72077 76293
" />
<path d="M72077 75928
L72105 75956
L72077 75984
L72049 75956
L72077 75928
L72077 75984
" />
<path d="M72780 76124
L73061 76124
" />
<path d="M72724 76293
L72921 75703
L73118 76293
" />
<path d="M73568 75899
L73568 76293
" />
<path d="M73427 75674
L73286 76096
L73652 76096
" />
</g>
<g style="fill:#000000; fill-opacity:0.0; 
stroke:#000000; stroke-width:39.3701; stroke-opacity:1; 
stroke-linecap:round; stroke-linejoin:round;">
</g>
<g style="fill:#000000; fill-opacity:0.0; 
stroke:#000000; stroke-width:59.0551; stroke-opacity:1; 
stroke-linecap:round; stroke-linejoin:round;">
<path d="M103714 77395
L103714 76805
" />
<path d="M104248 77395
L104248 76805
" />
<path d="M104248 77367
L104192 77395
L104079 77395
L104023 77367
L103995 77339
L103967 77283
L103967 77114
L103995 77058
L104023 77030
L104079 77002
L104192 77002
L104248 77030
" />
<path d="M104529 77339
L104557 77367
L104529 77395
L104501 77367
L104529 77339
L104529 77395
" />
<path d="M104529 77030
L104557 77058
L104529 77086
L104501 77058
L104529 77030
L104529 77086
" />
<path d="M105570 77395
L105232 77395
" />
<path d="M105401 77395
L105401 76805
L105345 76889
L105289 76946
L105232 76974
" />
<path d="M106245 76777
L105739 77536
" />
<path d="M106751 77395
L106413 77395
" />
<path d="M106582 77395
L106582 76805
L106526 76889
L106470 76946
L106413 76974
" />
</g>
<g style="fill:#000000; fill-opacity:0.0; 
stroke:#000000; stroke-width:39.3701; stroke-opacity:1; 
stroke-linecap:round; stroke-linejoin:round;">
</g>
<g style="fill:#000000; fill-opacity:0.0; 
stroke:#000000; stroke-width:59.0551; stroke-opacity:1; 
stroke-linecap:round; stroke-linejoin:round;">
<path d="M69685 73821
L112205 73821
" />
</g>
<g style="fill:#000000; fill-opacity:0.0; 
stroke:#000000; stroke-width:39.3701; stroke-opacity:1; 
stroke-linecap:round; stroke-linejoin:round;">
</g>
<g style="fill:#000000; fill-opacity:0.0; 
stroke:#000000; stroke-width:157.48; stroke-opacity:1; 
stroke-linecap:round; stroke-linejoin:round;">
<path d="M70360 74099
L70810 74099
" />
<path d="M70486 74886
L70585 74099
" />
<path d="M70974 74886
L71039 74361
" />
<path d="M71072 74099
L71030 74136
L71063 74174
L71105 74136
L71072 74099
L71063 74174
" />
<path d="M71302 74361
L71602 74361
" />
<path d="M71447 74099
L71363 74774
L71391 74849
L71461 74886
L71536 74886
" />
<path d="M71911 74886
L71841 74849
L71813 74774
L71897 74099
" />
<path d="M72516 74849
L72436 74886
L72286 74886
L72216 74849
L72187 74774
L72225 74474
L72272 74399
L72352 74361
L72501 74361
L72572 74399
L72600 74474
L72591 74549
L72206 74624
" />
<path d="M72895 74811
L72928 74849
L72886 74886
L72853 74849
L72895 74811
L72886 74886
" />
<path d="M72947 74399
L72980 74436
L72937 74474
L72905 74436
L72947 74399
L72937 74474
" />
</g>
<g style="fill:#000000; fill-opacity:0.0; 
stroke:#000000; stroke-width:39.3701; stroke-opacity:1; 
stroke-linecap:round; stroke-linejoin:round;">
</g>
<g style="fill:#000000; fill-opacity:0.0; 
stroke:#000000; stroke-width:59.0551; stroke-opacity:1; 
stroke-linecap:round; stroke-linejoin:round;">
<path d="M70446 73070
L70249 73070
" />
<path d="M70249 73380
L70249 72789
L70530 72789
" />
<path d="M70755 73380
L70755 72986
" />
<path d="M70755 72789
L70727 72817
L70755 72845
L70784 72817
L70755 72789
L70755 72845
" />
<path d="M71121 73380
L71065 73352
L71037 73295
L71037 72789
" />
<path d="M71571 73352
L71515 73380
L71402 73380
L71346 73352
L71318 73295
L71318 73070
L71346 73014
L71402 72986
L71515 72986
L71571 73014
L71599 73070
L71599 73127
L71318 73183
" />
<path d="M71852 73323
L71880 73352
L71852 73380
L71824 73352
L71852 73323
L71852 73380
" />
<path d="M71852 73014
L71880 73042
L71852 73070
L71824 73042
L71852 73014
L71852 73070
" />
<path d="M72583 73380
L72583 72789
L72724 72789
L72808 72817
L72865 72874
L72893 72930
L72921 73042
L72921 73127
L72893 73239
L72865 73295
L72808 73352
L72724 73380
L72583 73380
" />
<path d="M73090 72789
L73286 73380
L73483 72789
" />
<path d="M73680 73380
L73680 72789
L73821 72789
L73905 72817
L73961 72874
L73989 72930
L74018 73042
L74018 73127
L73989 73239
L73961 73295
L73905 73352
L73821 73380
L73680 73380
" />
<path d="M74552 73380
L74271 73380
L74271 72789
" />
<path d="M75002 73380
L75002 73070
L74974 73014
L74917 72986
L74805 72986
L74749 73014
" />
<path d="M75002 73352
L74946 73380
L74805 73380
L74749 73352
L74721 73295
L74721 73239
L74749 73183
L74805 73155
L74946 73155
L75002 73127
" />
<path d="M75255 73352
L75311 73380
L75424 73380
L75480 73352
L75508 73295
L75508 73267
L75480 73211
L75424 73183
L75339 73183
L75283 73155
L75255 73099
L75255 73070
L75283 73014
L75339 72986
L75424 72986
L75480 73014
" />
<path d="M75986 73352
L75930 73380
L75817 73380
L75761 73352
L75733 73295
L75733 73070
L75761 73014
L75817 72986
L75930 72986
L75986 73014
L76014 73070
L76014 73127
L75733 73183
" />
<path d="M76267 73380
L76267 72986
" />
<path d="M76267 73099
L76295 73042
L76323 73014
L76380 72986
L76436 72986
" />
<path d="M76605 73352
L76689 73380
L76830 73380
L76886 73352
L76914 73323
L76942 73267
L76942 73211
L76914 73155
L76886 73127
L76830 73099
L76717 73070
L76661 73042
L76633 73014
L76605 72958
L76605 72902
L76633 72845
L76661 72817
L76717 72789
L76858 72789
L76942 72817
" />
<path d="M77448 73352
L77392 73380
L77280 73380
L77223 73352
L77195 73323
L77167 73267
L77167 73099
L77195 73042
L77223 73014
L77280 72986
L77392 72986
L77448 73014
" />
<path d="M77955 73380
L77955 73070
L77926 73014
L77870 72986
L77758 72986
L77701 73014
" />
<path d="M77955 73352
L77898 73380
L77758 73380
L77701 73352
L77673 73295
L77673 73239
L77701 73183
L77758 73155
L77898 73155
L77955 73127
" />
<path d="M78236 72986
L78236 73380
" />
<path d="M78236 73042
L78264 73014
L78320 72986
L78404 72986
L78461 73014
L78489 73070
L78489 73380
" />
<path d="M78770 72986
L78770 73380
" />
<path d="M78770 73042
L78798 73014
L78854 72986
L78939 72986
L78995 73014
L79023 73070
L79023 73380
" />
<path d="M79529 73352
L79473 73380
L79361 73380
L79304 73352
L79276 73295
L79276 73070
L79304 73014
L79361 72986
L79473 72986
L79529 73014
L79557 73070
L79557 73127
L79276 73183
" />
<path d="M79811 73380
L79811 72986
" />
<path d="M79811 73099
L79839 73042
L79867 73014
L79923 72986
L79979 72986
" />
<path d="M80176 73323
L80204 73352
L80176 73380
L80148 73352
L80176 73323
L80176 73380
" />
<path d="M80457 73380
L80457 72789
" />
<path d="M80514 73155
L80682 73380
" />
<path d="M80682 72986
L80457 73211
" />
<path d="M80935 73380
L80935 72986
" />
<path d="M80935 72789
L80907 72817
L80935 72845
L80964 72817
L80935 72789
L80935 72845
" />
<path d="M81470 73352
L81413 73380
L81301 73380
L81245 73352
L81217 73323
L81188 73267
L81188 73099
L81217 73042
L81245 73014
L81301 72986
L81413 72986
L81470 73014
" />
<path d="M81976 73380
L81976 73070
L81948 73014
L81892 72986
L81779 72986
L81723 73014
" />
<path d="M81976 73352
L81920 73380
L81779 73380
L81723 73352
L81695 73295
L81695 73239
L81723 73183
L81779 73155
L81920 73155
L81976 73127
" />
<path d="M82510 73380
L82510 72789
" />
<path d="M82510 73352
L82454 73380
L82341 73380
L82285 73352
L82257 73323
L82229 73267
L82229 73099
L82257 73042
L82285 73014
L82341 72986
L82454 72986
L82510 73014
" />
<path d="M82651 73436
L83101 73436
" />
<path d="M83241 72986
L83241 73577
" />
<path d="M83241 73014
L83298 72986
L83410 72986
L83466 73014
L83494 73042
L83523 73099
L83523 73267
L83494 73323
L83466 73352
L83410 73380
L83298 73380
L83241 73352
" />
<path d="M84029 73352
L83973 73380
L83860 73380
L83804 73352
L83776 73323
L83748 73267
L83748 73099
L83776 73042
L83804 73014
L83860 72986
L83973 72986
L84029 73014
" />
<path d="M84282 73380
L84282 72789
" />
<path d="M84282 73014
L84338 72986
L84451 72986
L84507 73014
L84535 73042
L84563 73099
L84563 73267
L84535 73323
L84507 73352
L84451 73380
L84338 73380
L84282 73352
" />
</g>
<g style="fill:#000000; fill-opacity:0.0; 
stroke:#000000; stroke-width:39.3701; stroke-opacity:1; 
stroke-linecap:round; stroke-linejoin:round;">
</g>
<g style="fill:#000000; fill-opacity:0.0; 
stroke:#000000; stroke-width:59.0551; stroke-opacity:1; 
stroke-linecap:round; stroke-linejoin:round;">
<path d="M69685 71459
L112205 71459
" />
</g>
<g style="fill:#000000; fill-opacity:0.0; 
stroke:#000000; stroke-width:39.3701; stroke-opacity:1; 
stroke-linecap:round; stroke-linejoin:round;">
</g>
<g style="fill:#000000; fill-opacity:0.0; 
stroke:#000000; stroke-width:59.0551; stroke-opacity:1; 
stroke-linecap:round; stroke-linejoin:round;">
<path d="M70221 72289
L70305 72317
L70446 72317
L70502 72289
L70530 72260
L70559 72204
L70559 72148
L70530 72092
L70502 72064
L70446 72036
L70334 72007
L70277 71979
L70249 71951
L70221 71895
L70221 71839
L70249 71782
L70277 71754
L70334 71726
L70474 71726
L70559 71754
" />
<path d="M70812 72317
L70812 71726
" />
<path d="M71065 72317
L71065 72007
L71037 71951
L70980 71923
L70896 71923
L70840 71951
L70812 71979
" />
<path d="M71571 72289
L71515 72317
L71402 72317
L71346 72289
L71318 72232
L71318 72007
L71346 71951
L71402 71923
L71515 71923
L71571 71951
L71599 72007
L71599 72064
L71318 72120
" />
<path d="M72077 72289
L72021 72317
L71908 72317
L71852 72289
L71824 72232
L71824 72007
L71852 71951
L71908 71923
L72021 71923
L72077 71951
L72105 72007
L72105 72064
L71824 72120
" />
<path d="M72274 71923
L72499 71923
" />
<path d="M72358 71726
L72358 72232
L72386 72289
L72443 72317
L72499 72317
" />
<path d="M72696 72260
L72724 72289
L72696 72317
L72668 72289
L72696 72260
L72696 72317
" />
<path d="M72696 71951
L72724 71979
L72696 72007
L72668 71979
L72696 71951
L72696 72007
" />
</g>
<g style="fill:#000000; fill-opacity:0.0; 
stroke:#000000; stroke-width:39.3701; stroke-opacity:1; 
stroke-linecap:round; stroke-linejoin:round;">
</g>
<g style="fill:#000000; fill-opacity:0.0; 
stroke:#000000; stroke-width:59.0551; stroke-opacity:1; 
stroke-linecap:round; stroke-linejoin:round;">
<path d="M77559 75396
L77559 76577
" />
</g>
<g style="fill:#000000; fill-opacity:0.0; 
stroke:#000000; stroke-width:39.3701; stroke-opacity:1; 
stroke-linecap:round; stroke-linejoin:round;">
</g>
<g style="fill:#000000; fill-opacity:0.0; 
stroke:#000000; stroke-width:59.0551; stroke-opacity:1; 
stroke-linecap:round; stroke-linejoin:round;">
<path d="M102756 75396
L102756 77955
" />
</g>
<g style="fill:#000000; fill-opacity:0.0; 
stroke:#000000; stroke-width:0; stroke-opacity:1; 
stroke-linecap:round; stroke-linejoin:round;">
</g>
<g style="fill:#000000; fill-opacity:1.0; 
stroke:#000000; stroke-width:0; stroke-opacity:1; 
stroke-linecap:round; stroke-linejoin:round;">
<polyline style="fill-rule:evenodd;"
points="31771,18350
31771,16775
32598,16775
32598,18350
31771,18350
" /> 
<polyline style="fill-rule:evenodd;"
points="42204,18350
42204,16775
43031,16775
43031,18350
42204,18350
" /> 
<polyline style="fill-rule:evenodd;"
points="37539,18704
37539,18271
37657,18271
37657,18704
37539,18704
" /> 
<polyline style="fill-rule:evenodd;"
points="33011,18704
33011,18271
33129,18271
33129,18704
33011,18704
" /> 
<polyline style="fill-rule:evenodd;"
points="33208,18704
33208,18271
33326,18271
33326,18704
33208,18704
" /> 
<polyline style="fill-rule:evenodd;"
points="33405,18704
33405,18271
33523,18271
33523,18704
33405,18704
" /> 
<polyline style="fill-rule:evenodd;"
points="33602,18704
33602,18271
33720,18271
33720,18704
33602,18704
" /> 
<polyline style="fill-rule:evenodd;"
points="33799,18704
33799,18271
33917,18271
33917,18704
33799,18704
" /> 
<polyline style="fill-rule:evenodd;"
points="33996,18704
33996,18271
34114,18271
34114,18704
33996,18704
" /> 
<polyline style="fill-rule:evenodd;"
points="34192,18704
34192,18271
34311,18271
34311,18704
34192,18704
" /> 
<polyline style="fill-rule:evenodd;"
points="34389,18704
34389,18271
34507,18271
34507,18704
34389,18704
" /> 
<polyline style="fill-rule:evenodd;"
points="34586,18704
34586,18271
34704,18271
34704,18704
34586,18704
" /> 
<polyline style="fill-rule:evenodd;"
points="34783,18704
34783,18271
34901,18271
34901,18704
34783,18704
" /> 
<polyline style="fill-rule:evenodd;"
points="34980,18704
34980,18271
35098,18271
35098,18704
34980,18704
" /> 
<polyline style="fill-rule:evenodd;"
points="37145,18704
37145,18271
37263,18271
37263,18704
37145,18704
" /> 
<polyline style="fill-rule:evenodd;"
points="36948,18704
36948,18271
37066,18271
37066,18704
36948,18704
" /> 
<polyline style="fill-rule:evenodd;"
points="37342,18704
37342,18271
37460,18271
37460,18704
37342,18704
" /> 
<polyline style="fill-rule:evenodd;"
points="36751,18704
36751,18271
36870,18271
36870,18704
36751,18704
" /> 
<polyline style="fill-rule:evenodd;"
points="36555,18704
36555,18271
36673,18271
36673,18704
36555,18704
" /> 
<polyline style="fill-rule:evenodd;"
points="36358,18704
36358,18271
36476,18271
36476,18704
36358,18704
" /> 
<polyline style="fill-rule:evenodd;"
points="36161,18704
36161,18271
36279,18271
36279,18704
36161,18704
" /> 
<polyline style="fill-rule:evenodd;"
points="35964,18704
35964,18271
36082,18271
36082,18704
35964,18704
" /> 
<polyline style="fill-rule:evenodd;"
points="35767,18704
35767,18271
35885,18271
35885,18704
35767,18704
" /> 
<polyline style="fill-rule:evenodd;"
points="35570,18704
35570,18271
35688,18271
35688,18704
35570,18704
" /> 
<polyline style="fill-rule:evenodd;"
points="35177,18704
35177,18271
35295,18271
35295,18704
35177,18704
" /> 
<polyline style="fill-rule:evenodd;"
points="35374,18704
35374,18271
35492,18271
35492,18704
35374,18704
" /> 
<polyline style="fill-rule:evenodd;"
points="40098,18704
40098,18271
40216,18271
40216,18704
40098,18704
" /> 
<polyline style="fill-rule:evenodd;"
points="39901,18704
39901,18271
40019,18271
40019,18704
39901,18704
" /> 
<polyline style="fill-rule:evenodd;"
points="40295,18704
40295,18271
40413,18271
40413,18704
40295,18704
" /> 
<polyline style="fill-rule:evenodd;"
points="40492,18704
40492,18271
40610,18271
40610,18704
40492,18704
" /> 
<polyline style="fill-rule:evenodd;"
points="40688,18704
40688,18271
40807,18271
40807,18704
40688,18704
" /> 
<polyline style="fill-rule:evenodd;"
points="40885,18704
40885,18271
41003,18271
41003,18704
40885,18704
" /> 
<polyline style="fill-rule:evenodd;"
points="41082,18704
41082,18271
41200,18271
41200,18704
41082,18704
" /> 
<polyline style="fill-rule:evenodd;"
points="41279,18704
41279,18271
41397,18271
41397,18704
41279,18704
" /> 
<polyline style="fill-rule:evenodd;"
points="41476,18704
41476,18271
41594,18271
41594,18704
41476,18704
" /> 
<polyline style="fill-rule:evenodd;"
points="41673,18704
41673,18271
41791,18271
41791,18704
41673,18704
" /> 
<polyline style="fill-rule:evenodd;"
points="39704,18704
39704,18271
39822,18271
39822,18704
39704,18704
" /> 
<polyline style="fill-rule:evenodd;"
points="39507,18704
39507,18271
39625,18271
39625,18704
39507,18704
" /> 
<polyline style="fill-rule:evenodd;"
points="39311,18704
39311,18271
39429,18271
39429,18704
39311,18704
" /> 
<polyline style="fill-rule:evenodd;"
points="39114,18704
39114,18271
39232,18271
39232,18704
39114,18704
" /> 
<polyline style="fill-rule:evenodd;"
points="38917,18704
38917,18271
39035,18271
39035,18704
38917,18704
" /> 
<polyline style="fill-rule:evenodd;"
points="38720,18704
38720,18271
38838,18271
38838,18704
38720,18704
" /> 
<polyline style="fill-rule:evenodd;"
points="38523,18704
38523,18271
38641,18271
38641,18704
38523,18704
" /> 
<polyline style="fill-rule:evenodd;"
points="38326,18704
38326,18271
38444,18271
38444,18704
38326,18704
" /> 
<polyline style="fill-rule:evenodd;"
points="38129,18704
38129,18271
38248,18271
38248,18704
38129,18704
" /> 
<polyline style="fill-rule:evenodd;"
points="37933,18704
37933,18271
38051,18271
38051,18704
37933,18704
" /> 
<polyline style="fill-rule:evenodd;"
points="37736,18704
37736,18271
37854,18271
37854,18704
37736,18704
" /> 
<polyline style="fill-rule:evenodd;"
points="60649,44094
59862,44094
59862,43307
60649,43307
60649,44094
" /> 
<polyline style="fill-rule:evenodd;"
points="57362,44940
56574,44940
56574,44153
57362,44153
57362,44940
" /> 
<polyline style="fill-rule:evenodd;"
points="57342,43248
56555,43248
56555,42460
57342,42460
57342,43248
" /> 
<polyline style="fill-rule:evenodd;"
points="14153,43307
14940,43307
14940,44094
14153,44094
14153,43307
" /> 
<polyline style="fill-rule:evenodd;"
points="17440,42460
18228,42460
18228,43248
17440,43248
17440,42460
" /> 
<polyline style="fill-rule:evenodd;"
points="17460,44153
18248,44153
18248,44940
17460,44940
17460,44153
" /> 
<polyline style="fill-rule:evenodd;"
points="61732,27301
62200,27934
61567,28402
61099,27769
61732,27301
" /> 
<polyline style="fill-rule:evenodd;"
points="64368,29440
64836,30073
64203,30541
63735,29908
64368,29440
" /> 
<polyline style="fill-rule:evenodd;"
points="63018,30463
63487,31096
62854,31564
62386,30931
63018,30463
" /> 
<polyline style="fill-rule:evenodd;"
points="13703,27769
13235,28402
12602,27934
13070,27301
13703,27769
" /> 
<polyline style="fill-rule:evenodd;"
points="12428,30915
11960,31548
11327,31080
11795,30447
12428,30915
" /> 
<polyline style="fill-rule:evenodd;"
points="11056,29924
10587,30557
9954,30089
10423,29456
11056,29924
" /> 
<polyline style="fill-rule:evenodd;"
points="40270,43490
40270,42690
40530,42690
40530,43490
40270,43490
" /> 
<polyline style="fill-rule:evenodd;"
points="40770,43490
40770,42690
41030,42690
41030,43490
40770,43490
" /> 
<polyline style="fill-rule:evenodd;"
points="41270,43490
41270,42690
41530,42690
41530,43490
41270,43490
" /> 
<polyline style="fill-rule:evenodd;"
points="41770,43490
41770,42690
42030,42690
42030,43490
41770,43490
" /> 
<polyline style="fill-rule:evenodd;"
points="42270,43490
42270,42690
42530,42690
42530,43490
42270,43490
" /> 
<polyline style="fill-rule:evenodd;"
points="42770,43490
42770,42690
43030,42690
43030,43490
42770,43490
" /> 
<polyline style="fill-rule:evenodd;"
points="43270,43490
43270,42690
43530,42690
43530,43490
43270,43490
" /> 
<polyline style="fill-rule:evenodd;"
points="43270,45910
43270,45110
43530,45110
43530,45910
43270,45910
" /> 
<polyline style="fill-rule:evenodd;"
points="42770,45910
42770,45110
43030,45110
43030,45910
42770,45910
" /> 
<polyline style="fill-rule:evenodd;"
points="41770,45910
41770,45110
42030,45110
42030,45910
41770,45910
" /> 
<polyline style="fill-rule:evenodd;"
points="41270,45910
41270,45110
41530,45110
41530,45910
41270,45910
" /> 
<polyline style="fill-rule:evenodd;"
points="40770,45910
40770,45110
41030,45110
41030,45910
40770,45910
" /> 
<polyline style="fill-rule:evenodd;"
points="40270,45910
40270,45110
40530,45110
40530,45910
40270,45910
" /> 
<polyline style="fill-rule:evenodd;"
points="42270,45910
42270,45110
42530,45110
42530,45910
42270,45910
" /> 
<polyline style="fill-rule:evenodd;"
points="45570,43490
45570,42690
45830,42690
45830,43490
45570,43490
" /> 
<polyline style="fill-rule:evenodd;"
points="46070,43490
46070,42690
46330,42690
46330,43490
46070,43490
" /> 
<polyline style="fill-rule:evenodd;"
points="46570,43490
46570,42690
46830,42690
46830,43490
46570,43490
" /> 
<polyline style="fill-rule:evenodd;"
points="47070,43490
47070,42690
47330,42690
47330,43490
47070,43490
" /> 
<polyline style="fill-rule:evenodd;"
points="47570,43490
47570,42690
47830,42690
47830,43490
47570,43490
" /> 
<polyline style="fill-rule:evenodd;"
points="48070,43490
48070,42690
48330,42690
48330,43490
48070,43490
" /> 
<polyline style="fill-rule:evenodd;"
points="48570,43490
48570,42690
48830,42690
48830,43490
48570,43490
" /> 
<polyline style="fill-rule:evenodd;"
points="48570,45910
48570,45110
48830,45110
48830,45910
48570,45910
" /> 
<polyline style="fill-rule:evenodd;"
points="48070,45910
48070,45110
48330,45110
48330,45910
48070,45910
" /> 
<polyline style="fill-rule:evenodd;"
points="47070,45910
47070,45110
47330,45110
47330,45910
47070,45910
" /> 
<polyline style="fill-rule:evenodd;"
points="46570,45910
46570,45110
46830,45110
46830,45910
46570,45910
" /> 
<polyline style="fill-rule:evenodd;"
points="46070,45910
46070,45110
46330,45110
46330,45910
46070,45910
" /> 
<polyline style="fill-rule:evenodd;"
points="45570,45910
45570,45110
45830,45110
45830,45910
45570,45910
" /> 
<polyline style="fill-rule:evenodd;"
points="47570,45910
47570,45110
47830,45110
47830,45910
47570,45910
" /> 
<polyline style="fill-rule:evenodd;"
points="56602,17559
57350,17559
57350,17960
56602,17960
56602,17559
" /> 
<polyline style="fill-rule:evenodd;"
points="57901,18559
58649,18559
58649,18960
57901,18960
57901,18559
" /> 
<polyline style="fill-rule:evenodd;"
points="56602,19559
57350,19559
57350,19960
56602,19960
56602,19559
" /> 
<polyline style="fill-rule:evenodd;"
points="57901,20559
58649,20559
58649,20960
57901,20960
57901,20559
" /> 
<polyline style="fill-rule:evenodd;"
points="56602,21559
57350,21559
57350,21960
56602,21960
56602,21559
" /> 
<polyline style="fill-rule:evenodd;"
points="57901,22559
58649,22559
58649,22960
57901,22960
57901,22559
" /> 
<polyline style="fill-rule:evenodd;"
points="56602,23559
57350,23559
57350,23960
56602,23960
56602,23559
" /> 
<polyline style="fill-rule:evenodd;"
points="57901,24559
58649,24559
58649,24960
57901,24960
57901,24559
" /> 
<polyline style="fill-rule:evenodd;"
points="56602,25559
57350,25559
57350,25960
56602,25960
56602,25559
" /> 
<polyline style="fill-rule:evenodd;"
points="57901,26559
58649,26559
58649,26960
57901,26960
57901,26559
" /> 
<polyline style="fill-rule:evenodd;"
points="57901,28559
58649,28559
58649,28960
57901,28960
57901,28559
" /> 
<polyline style="fill-rule:evenodd;"
points="57901,30559
58649,30559
58649,30960
57901,30960
57901,30559
" /> 
<polyline style="fill-rule:evenodd;"
points="57901,32559
58649,32559
58649,32960
57901,32960
57901,32559
" /> 
<polyline style="fill-rule:evenodd;"
points="56602,33559
57350,33559
57350,33960
56602,33960
56602,33559
" /> 
<polyline style="fill-rule:evenodd;"
points="56602,29559
57350,29559
57350,29960
56602,29960
56602,29559
" /> 
<polyline style="fill-rule:evenodd;"
points="56602,31559
57350,31559
57350,31960
56602,31960
56602,31559
" /> 
<polyline style="fill-rule:evenodd;"
points="56602,27559
57350,27559
57350,27960
56602,27960
56602,27559
" /> 
<polyline style="fill-rule:evenodd;"
points="52649,21960
51901,21960
51901,21559
52649,21559
52649,21960
" /> 
<polyline style="fill-rule:evenodd;"
points="52649,19960
51901,19960
51901,19559
52649,19559
52649,19960
" /> 
<polyline style="fill-rule:evenodd;"
points="52649,23960
51901,23960
51901,23559
52649,23559
52649,23960
" /> 
<polyline style="fill-rule:evenodd;"
points="52649,17960
51901,17960
51901,17559
52649,17559
52649,17960
" /> 
<polyline style="fill-rule:evenodd;"
points="51350,18960
50602,18960
50602,18559
51350,18559
51350,18960
" /> 
<polyline style="fill-rule:evenodd;"
points="51350,20960
50602,20960
50602,20559
51350,20559
51350,20960
" /> 
<polyline style="fill-rule:evenodd;"
points="51350,22960
50602,22960
50602,22559
51350,22559
51350,22960
" /> 
<polyline style="fill-rule:evenodd;"
points="51350,24960
50602,24960
50602,24559
51350,24559
51350,24960
" /> 
<polyline style="fill-rule:evenodd;"
points="52649,25960
51901,25960
51901,25559
52649,25559
52649,25960
" /> 
<polyline style="fill-rule:evenodd;"
points="51350,26960
50602,26960
50602,26559
51350,26559
51350,26960
" /> 
<polyline style="fill-rule:evenodd;"
points="52649,27960
51901,27960
51901,27559
52649,27559
52649,27960
" /> 
<polyline style="fill-rule:evenodd;"
points="51350,28960
50602,28960
50602,28559
51350,28559
51350,28960
" /> 
<polyline style="fill-rule:evenodd;"
points="52649,29960
51901,29960
51901,29559
52649,29559
52649,29960
" /> 
<polyline style="fill-rule:evenodd;"
points="51350,30960
50602,30960
50602,30559
51350,30559
51350,30960
" /> 
<polyline style="fill-rule:evenodd;"
points="52649,31960
51901,31960
51901,31559
52649,31559
52649,31960
" /> 
<polyline style="fill-rule:evenodd;"
points="51350,32960
50602,32960
50602,32559
51350,32559
51350,32960
" /> 
<polyline style="fill-rule:evenodd;"
points="52649,33960
51901,33960
51901,33559
52649,33559
52649,33960
" /> 
<polyline style="fill-rule:evenodd;"
points="34195,44870
34195,45380
33604,45380
33604,44870
34195,44870
" /> 
<polyline style="fill-rule:evenodd;"
points="34195,45619
34195,46129
33604,46129
33604,45619
34195,45619
" /> 
<polyline style="fill-rule:evenodd;"
points="14020,39404
14530,39404
14530,39995
14020,39995
14020,39404
" /> 
<polyline style="fill-rule:evenodd;"
points="14769,39404
15279,39404
15279,39995
14769,39995
14769,39404
" /> 
<polyline style="fill-rule:evenodd;"
points="18620,40704
19130,40704
19130,41295
18620,41295
18620,40704
" /> 
<polyline style="fill-rule:evenodd;"
points="19369,40704
19879,40704
19879,41295
19369,41295
19369,40704
" /> 
<polyline style="fill-rule:evenodd;"
points="25645,39470
25645,39980
25054,39980
25054,39470
25645,39470
" /> 
<polyline style="fill-rule:evenodd;"
points="25645,40219
25645,40729
25054,40729
25054,40219
25645,40219
" /> 
<polyline style="fill-rule:evenodd;"
points="26745,35670
26745,36180
26154,36180
26154,35670
26745,35670
" /> 
<polyline style="fill-rule:evenodd;"
points="26745,36419
26745,36929
26154,36929
26154,36419
26745,36419
" /> 
<polyline style="fill-rule:evenodd;"
points="13020,33504
13530,33504
13530,34095
13020,34095
13020,33504
" /> 
<polyline style="fill-rule:evenodd;"
points="13769,33504
14279,33504
14279,34095
13769,34095
13769,33504
" /> 
<polyline style="fill-rule:evenodd;"
points="25420,33704
25930,33704
25930,34295
25420,34295
25420,33704
" /> 
<polyline style="fill-rule:evenodd;"
points="26169,33704
26679,33704
26679,34295
26169,34295
26169,33704
" /> 
<polyline style="fill-rule:evenodd;"
points="12320,39404
12830,39404
12830,39995
12320,39995
12320,39404
" /> 
<polyline style="fill-rule:evenodd;"
points="13069,39404
13579,39404
13579,39995
13069,39995
13069,39404
" /> 
<polyline style="fill-rule:evenodd;"
points="23220,39504
23730,39504
23730,40095
23220,40095
23220,39504
" /> 
<polyline style="fill-rule:evenodd;"
points="23969,39504
24479,39504
24479,40095
23969,40095
23969,39504
" /> 
<polyline style="fill-rule:evenodd;"
points="20654,40729
20654,40219
21245,40219
21245,40729
20654,40729
" /> 
<polyline style="fill-rule:evenodd;"
points="20654,39980
20654,39470
21245,39470
21245,39980
20654,39980
" /> 
<polyline style="fill-rule:evenodd;"
points="19779,39995
19269,39995
19269,39404
19779,39404
19779,39995
" /> 
<polyline style="fill-rule:evenodd;"
points="19030,39995
18520,39995
18520,39404
19030,39404
19030,39995
" /> 
<polyline style="fill-rule:evenodd;"
points="34195,42770
34195,43280
33604,43280
33604,42770
34195,42770
" /> 
<polyline style="fill-rule:evenodd;"
points="34195,43519
34195,44029
33604,44029
33604,43519
34195,43519
" /> 
<polyline style="fill-rule:evenodd;"
points="17870,31004
18380,31004
18380,31595
17870,31595
17870,31004
" /> 
<polyline style="fill-rule:evenodd;"
points="18619,31004
19129,31004
19129,31595
18619,31595
18619,31004
" /> 
<polyline style="fill-rule:evenodd;"
points="17870,30004
18380,30004
18380,30595
17870,30595
17870,30004
" /> 
<polyline style="fill-rule:evenodd;"
points="18619,30004
19129,30004
19129,30595
18619,30595
18619,30004
" /> 
<polyline style="fill-rule:evenodd;"
points="30429,46895
29919,46895
29919,46304
30429,46304
30429,46895
" /> 
<polyline style="fill-rule:evenodd;"
points="29680,46895
29170,46895
29170,46304
29680,46304
29680,46895
" /> 
<polyline style="fill-rule:evenodd;"
points="26400,42975
27600,42975
27600,43625
26400,43625
26400,42975
" /> 
<polyline style="fill-rule:evenodd;"
points="23300,43000
25700,43000
25700,45400
23300,45400
23300,43000
" /> 
<polyline style="fill-rule:evenodd;"
points="26400,44775
27600,44775
27600,45425
26400,45425
26400,44775
" /> 
<polyline style="fill-rule:evenodd;"
points="59504,23219
59504,22709
60095,22709
60095,23219
59504,23219
" /> 
<polyline style="fill-rule:evenodd;"
points="59504,22470
59504,21960
60095,21960
60095,22470
59504,22470
" /> 
<polyline style="fill-rule:evenodd;"
points="32829,45895
32319,45895
32319,45304
32829,45304
32829,45895
" /> 
<polyline style="fill-rule:evenodd;"
points="32080,45895
31570,45895
31570,45304
32080,45304
32080,45895
" /> 
<polyline style="fill-rule:evenodd;"
points="31570,44104
32080,44104
32080,44695
31570,44695
31570,44104
" /> 
<polyline style="fill-rule:evenodd;"
points="32319,44104
32829,44104
32829,44695
32319,44695
32319,44104
" /> 
<polyline style="fill-rule:evenodd;"
points="32829,46895
32319,46895
32319,46304
32829,46304
32829,46895
" /> 
<polyline style="fill-rule:evenodd;"
points="32080,46895
31570,46895
31570,46304
32080,46304
32080,46895
" /> 
<polyline style="fill-rule:evenodd;"
points="26770,45804
27280,45804
27280,46395
26770,46395
26770,45804
" /> 
<polyline style="fill-rule:evenodd;"
points="27519,45804
28029,45804
28029,46395
27519,46395
27519,45804
" /> 
<polyline style="fill-rule:evenodd;"
points="61004,23219
61004,22709
61595,22709
61595,23219
61004,23219
" /> 
<polyline style="fill-rule:evenodd;"
points="61004,22470
61004,21960
61595,21960
61595,22470
61004,22470
" /> 
<polyline style="fill-rule:evenodd;"
points="24870,45804
25380,45804
25380,46395
24870,46395
24870,45804
" /> 
<polyline style="fill-rule:evenodd;"
points="25619,45804
26129,45804
26129,46395
25619,46395
25619,45804
" /> 
<polyline style="fill-rule:evenodd;"
points="29080,42790
29080,43590
28820,43590
28820,42790
29080,42790
" /> 
<polyline style="fill-rule:evenodd;"
points="29580,42790
29580,43590
29320,43590
29320,42790
29580,42790
" /> 
<polyline style="fill-rule:evenodd;"
points="30080,42790
30080,43590
29820,43590
29820,42790
30080,42790
" /> 
<polyline style="fill-rule:evenodd;"
points="30580,42790
30580,43590
30320,43590
30320,42790
30580,42790
" /> 
<polyline style="fill-rule:evenodd;"
points="30580,45210
30580,46010
30320,46010
30320,45210
30580,45210
" /> 
<polyline style="fill-rule:evenodd;"
points="30080,45210
30080,46010
29820,46010
29820,45210
30080,45210
" /> 
<polyline style="fill-rule:evenodd;"
points="29580,45210
29580,46010
29320,46010
29320,45210
29580,45210
" /> 
<polyline style="fill-rule:evenodd;"
points="29080,45210
29080,46010
28820,46010
28820,45210
29080,45210
" /> 
<polyline style="fill-rule:evenodd;"
points="35070,43490
35070,42690
35330,42690
35330,43490
35070,43490
" /> 
<polyline style="fill-rule:evenodd;"
points="35570,43490
35570,42690
35830,42690
35830,43490
35570,43490
" /> 
<polyline style="fill-rule:evenodd;"
points="36070,43490
36070,42690
36330,42690
36330,43490
36070,43490
" /> 
<polyline style="fill-rule:evenodd;"
points="36570,43490
36570,42690
36830,42690
36830,43490
36570,43490
" /> 
<polyline style="fill-rule:evenodd;"
points="37070,43490
37070,42690
37330,42690
37330,43490
37070,43490
" /> 
<polyline style="fill-rule:evenodd;"
points="37570,43490
37570,42690
37830,42690
37830,43490
37570,43490
" /> 
<polyline style="fill-rule:evenodd;"
points="38070,43490
38070,42690
38330,42690
38330,43490
38070,43490
" /> 
<polyline style="fill-rule:evenodd;"
points="38070,45910
38070,45110
38330,45110
38330,45910
38070,45910
" /> 
<polyline style="fill-rule:evenodd;"
points="37570,45910
37570,45110
37830,45110
37830,45910
37570,45910
" /> 
<polyline style="fill-rule:evenodd;"
points="36570,45910
36570,45110
36830,45110
36830,45910
36570,45910
" /> 
<polyline style="fill-rule:evenodd;"
points="36070,45910
36070,45110
36330,45110
36330,45910
36070,45910
" /> 
<polyline style="fill-rule:evenodd;"
points="35570,45910
35570,45110
35830,45110
35830,45910
35570,45910
" /> 
<polyline style="fill-rule:evenodd;"
points="35070,45910
35070,45110
35330,45110
35330,45910
35070,45910
" /> 
<polyline style="fill-rule:evenodd;"
points="37070,45910
37070,45110
37330,45110
37330,45910
37070,45910
" /> 
<polyline style="fill-rule:evenodd;"
points="44150,19190
44150,18810
44650,18810
44650,19190
44150,19190
" /> 
<polyline style="fill-rule:evenodd;"
points="44150,18690
44150,18310
44650,18310
44650,18690
44150,18690
" /> 
<polyline style="fill-rule:evenodd;"
points="44150,18190
44150,17810
44650,17810
44650,18190
44150,18190
" /> 
<polyline style="fill-rule:evenodd;"
points="19829,25495
19319,25495
19319,24904
19829,24904
19829,25495
" /> 
<polyline style="fill-rule:evenodd;"
points="19080,25495
18570,25495
18570,24904
19080,24904
19080,25495
" /> 
<polyline style="fill-rule:evenodd;"
points="11700,35072
11700,34434
11900,34434
11900,35072
11700,35072
" /> 
<polyline style="fill-rule:evenodd;"
points="12200,35072
12200,34434
12400,34434
12400,35072
12200,35072
" /> 
<polyline style="fill-rule:evenodd;"
points="12700,35072
12700,34434
12900,34434
12900,35072
12700,35072
" /> 
<polyline style="fill-rule:evenodd;"
points="13200,35072
13200,34434
13400,34434
13400,35072
13200,35072
" /> 
<polyline style="fill-rule:evenodd;"
points="13700,35072
13700,34434
13900,34434
13900,35072
13700,35072
" /> 
<polyline style="fill-rule:evenodd;"
points="14200,35072
14200,34434
14400,34434
14400,35072
14200,35072
" /> 
<polyline style="fill-rule:evenodd;"
points="14700,35072
14700,34434
14900,34434
14900,35072
14700,35072
" /> 
<polyline style="fill-rule:evenodd;"
points="15200,35072
15200,34434
15400,34434
15400,35072
15200,35072
" /> 
<polyline style="fill-rule:evenodd;"
points="15200,38765
15200,38127
15400,38127
15400,38765
15200,38765
" /> 
<polyline style="fill-rule:evenodd;"
points="14700,38765
14700,38127
14900,38127
14900,38765
14700,38765
" /> 
<polyline style="fill-rule:evenodd;"
points="14200,38765
14200,38127
14400,38127
14400,38765
14200,38765
" /> 
<polyline style="fill-rule:evenodd;"
points="13700,38765
13700,38127
13900,38127
13900,38765
13700,38765
" /> 
<polyline style="fill-rule:evenodd;"
points="13200,38765
13200,38127
13400,38127
13400,38765
13200,38765
" /> 
<polyline style="fill-rule:evenodd;"
points="12700,38765
12700,38127
12900,38127
12900,38765
12700,38765
" /> 
<polyline style="fill-rule:evenodd;"
points="12200,38765
12200,38127
12400,38127
12400,38765
12200,38765
" /> 
<polyline style="fill-rule:evenodd;"
points="11685,38765
11685,38127
11914,38127
11914,38765
11685,38765
" /> 
<polyline style="fill-rule:evenodd;"
points="21100,35072
21100,34434
21300,34434
21300,35072
21100,35072
" /> 
<polyline style="fill-rule:evenodd;"
points="21600,35072
21600,34434
21800,34434
21800,35072
21600,35072
" /> 
<polyline style="fill-rule:evenodd;"
points="22100,35072
22100,34434
22300,34434
22300,35072
22100,35072
" /> 
<polyline style="fill-rule:evenodd;"
points="22600,35072
22600,34434
22800,34434
22800,35072
22600,35072
" /> 
<polyline style="fill-rule:evenodd;"
points="23100,35072
23100,34434
23300,34434
23300,35072
23100,35072
" /> 
<polyline style="fill-rule:evenodd;"
points="23600,35072
23600,34434
23800,34434
23800,35072
23600,35072
" /> 
<polyline style="fill-rule:evenodd;"
points="24100,35072
24100,34434
24300,34434
24300,35072
24100,35072
" /> 
<polyline style="fill-rule:evenodd;"
points="24600,35072
24600,34434
24800,34434
24800,35072
24600,35072
" /> 
<polyline style="fill-rule:evenodd;"
points="24600,38765
24600,38127
24800,38127
24800,38765
24600,38765
" /> 
<polyline style="fill-rule:evenodd;"
points="24100,38765
24100,38127
24300,38127
24300,38765
24100,38765
" /> 
<polyline style="fill-rule:evenodd;"
points="23600,38765
23600,38127
23800,38127
23800,38765
23600,38765
" /> 
<polyline style="fill-rule:evenodd;"
points="23100,38765
23100,38127
23300,38127
23300,38765
23100,38765
" /> 
<polyline style="fill-rule:evenodd;"
points="22600,38765
22600,38127
22800,38127
22800,38765
22600,38765
" /> 
<polyline style="fill-rule:evenodd;"
points="22100,38765
22100,38127
22300,38127
22300,38765
22100,38765
" /> 
<polyline style="fill-rule:evenodd;"
points="21600,38765
21600,38127
21800,38127
21800,38765
21600,38765
" /> 
<polyline style="fill-rule:evenodd;"
points="21085,38765
21085,38127
21314,38127
21314,38765
21085,38765
" /> 
<polyline style="fill-rule:evenodd;"
points="16400,35072
16400,34434
16600,34434
16600,35072
16400,35072
" /> 
<polyline style="fill-rule:evenodd;"
points="16900,35072
16900,34434
17100,34434
17100,35072
16900,35072
" /> 
<polyline style="fill-rule:evenodd;"
points="17400,35072
17400,34434
17600,34434
17600,35072
17400,35072
" /> 
<polyline style="fill-rule:evenodd;"
points="17900,35072
17900,34434
18100,34434
18100,35072
17900,35072
" /> 
<polyline style="fill-rule:evenodd;"
points="18400,35072
18400,34434
18600,34434
18600,35072
18400,35072
" /> 
<polyline style="fill-rule:evenodd;"
points="18900,35072
18900,34434
19100,34434
19100,35072
18900,35072
" /> 
<polyline style="fill-rule:evenodd;"
points="19400,35072
19400,34434
19600,34434
19600,35072
19400,35072
" /> 
<polyline style="fill-rule:evenodd;"
points="19900,35072
19900,34434
20100,34434
20100,35072
19900,35072
" /> 
<polyline style="fill-rule:evenodd;"
points="19900,38765
19900,38127
20100,38127
20100,38765
19900,38765
" /> 
<polyline style="fill-rule:evenodd;"
points="19400,38765
19400,38127
19600,38127
19600,38765
19400,38765
" /> 
<polyline style="fill-rule:evenodd;"
points="18900,38765
18900,38127
19100,38127
19100,38765
18900,38765
" /> 
<polyline style="fill-rule:evenodd;"
points="18400,38765
18400,38127
18600,38127
18600,38765
18400,38765
" /> 
<polyline style="fill-rule:evenodd;"
points="17900,38765
17900,38127
18100,38127
18100,38765
17900,38765
" /> 
<polyline style="fill-rule:evenodd;"
points="17400,38765
17400,38127
17600,38127
17600,38765
17400,38765
" /> 
<polyline style="fill-rule:evenodd;"
points="16900,38765
16900,38127
17100,38127
17100,38765
16900,38765
" /> 
<polyline style="fill-rule:evenodd;"
points="16385,38765
16385,38127
16614,38127
16614,38765
16385,38765
" /> 
<polyline style="fill-rule:evenodd;"
points="32964,21399
32964,20493
33177,20493
33177,21399
32964,21399
" /> 
<polyline style="fill-rule:evenodd;"
points="33161,20218
33161,19312
33374,19312
33374,20218
33161,20218
" /> 
<polyline style="fill-rule:evenodd;"
points="33358,21399
33358,20493
33570,20493
33570,21399
33358,21399
" /> 
<polyline style="fill-rule:evenodd;"
points="33555,20218
33555,19312
33767,19312
33767,20218
33555,20218
" /> 
<polyline style="fill-rule:evenodd;"
points="33751,21399
33751,20493
33964,20493
33964,21399
33751,21399
" /> 
<polyline style="fill-rule:evenodd;"
points="33948,20218
33948,19312
34161,19312
34161,20218
33948,20218
" /> 
<polyline style="fill-rule:evenodd;"
points="34145,21399
34145,20493
34358,20493
34358,21399
34145,21399
" /> 
<polyline style="fill-rule:evenodd;"
points="34342,20218
34342,19312
34555,19312
34555,20218
34342,20218
" /> 
<polyline style="fill-rule:evenodd;"
points="34539,21399
34539,20493
34751,20493
34751,21399
34539,21399
" /> 
<polyline style="fill-rule:evenodd;"
points="34736,20218
34736,19312
34948,19312
34948,20218
34736,20218
" /> 
<polyline style="fill-rule:evenodd;"
points="34933,21399
34933,20493
35145,20493
35145,21399
34933,21399
" /> 
<polyline style="fill-rule:evenodd;"
points="35129,20218
35129,19312
35342,19312
35342,20218
35129,20218
" /> 
<polyline style="fill-rule:evenodd;"
points="35326,21399
35326,20493
35539,20493
35539,21399
35326,21399
" /> 
<polyline style="fill-rule:evenodd;"
points="35523,20218
35523,19312
35736,19312
35736,20218
35523,20218
" /> 
<polyline style="fill-rule:evenodd;"
points="35720,21399
35720,20493
35933,20493
35933,21399
35720,21399
" /> 
<polyline style="fill-rule:evenodd;"
points="35917,20218
35917,19312
36129,19312
36129,20218
35917,20218
" /> 
<polyline style="fill-rule:evenodd;"
points="36114,21399
36114,20493
36326,20493
36326,21399
36114,21399
" /> 
<polyline style="fill-rule:evenodd;"
points="36311,20218
36311,19312
36523,19312
36523,20218
36311,20218
" /> 
<polyline style="fill-rule:evenodd;"
points="36507,21399
36507,20493
36720,20493
36720,21399
36507,21399
" /> 
<polyline style="fill-rule:evenodd;"
points="36704,20218
36704,19312
36917,19312
36917,20218
36704,20218
" /> 
<polyline style="fill-rule:evenodd;"
points="36901,21399
36901,20493
37114,20493
37114,21399
36901,21399
" /> 
<polyline style="fill-rule:evenodd;"
points="37098,20218
37098,19312
37311,19312
37311,20218
37098,20218
" /> 
<polyline style="fill-rule:evenodd;"
points="37295,21399
37295,20493
37507,20493
37507,21399
37295,21399
" /> 
<polyline style="fill-rule:evenodd;"
points="37492,20218
37492,19312
37704,19312
37704,20218
37492,20218
" /> 
<polyline style="fill-rule:evenodd;"
points="37688,21399
37688,20493
37901,20493
37901,21399
37688,21399
" /> 
<polyline style="fill-rule:evenodd;"
points="37885,20218
37885,19312
38098,19312
38098,20218
37885,20218
" /> 
<polyline style="fill-rule:evenodd;"
points="38082,21399
38082,20493
38295,20493
38295,21399
38082,21399
" /> 
<polyline style="fill-rule:evenodd;"
points="38279,20218
38279,19312
38492,19312
38492,20218
38279,20218
" /> 
<polyline style="fill-rule:evenodd;"
points="38476,21399
38476,20493
38688,20493
38688,21399
38476,21399
" /> 
<polyline style="fill-rule:evenodd;"
points="38673,20218
38673,19312
38885,19312
38885,20218
38673,20218
" /> 
<polyline style="fill-rule:evenodd;"
points="38870,21399
38870,20493
39082,20493
39082,21399
38870,21399
" /> 
<polyline style="fill-rule:evenodd;"
points="39066,20218
39066,19312
39279,19312
39279,20218
39066,20218
" /> 
<polyline style="fill-rule:evenodd;"
points="39263,21399
39263,20493
39476,20493
39476,21399
39263,21399
" /> 
<polyline style="fill-rule:evenodd;"
points="39460,20218
39460,19312
39673,19312
39673,20218
39460,20218
" /> 
<polyline style="fill-rule:evenodd;"
points="39657,21399
39657,20493
39870,20493
39870,21399
39657,21399
" /> 
<polyline style="fill-rule:evenodd;"
points="39854,20218
39854,19312
40066,19312
40066,20218
39854,20218
" /> 
<polyline style="fill-rule:evenodd;"
points="40051,21399
40051,20493
40263,20493
40263,21399
40051,21399
" /> 
<polyline style="fill-rule:evenodd;"
points="40248,20218
40248,19312
40460,19312
40460,20218
40248,20218
" /> 
<polyline style="fill-rule:evenodd;"
points="40444,21399
40444,20493
40657,20493
40657,21399
40444,21399
" /> 
<polyline style="fill-rule:evenodd;"
points="40641,20218
40641,19312
40854,19312
40854,20218
40641,20218
" /> 
<polyline style="fill-rule:evenodd;"
points="40838,21399
40838,20493
41051,20493
41051,21399
40838,21399
" /> 
<polyline style="fill-rule:evenodd;"
points="41035,20218
41035,19312
41248,19312
41248,20218
41035,20218
" /> 
<polyline style="fill-rule:evenodd;"
points="41232,21399
41232,20493
41444,20493
41444,21399
41232,21399
" /> 
<polyline style="fill-rule:evenodd;"
points="41429,20218
41429,19312
41641,19312
41641,20218
41429,20218
" /> 
<polyline style="fill-rule:evenodd;"
points="41625,21399
41625,20493
41838,20493
41838,21399
41625,21399
" /> 
<polyline style="fill-rule:evenodd;"
points="16704,26880
16704,26370
17295,26370
17295,26880
16704,26880
" /> 
<polyline style="fill-rule:evenodd;"
points="16704,27629
16704,27119
17295,27119
17295,27629
16704,27629
" /> 
<polyline style="fill-rule:evenodd;"
points="17295,21970
17295,22480
16704,22480
16704,21970
17295,21970
" /> 
<polyline style="fill-rule:evenodd;"
points="17295,22719
17295,23229
16704,23229
16704,22719
17295,22719
" /> 
<polyline style="fill-rule:evenodd;"
points="22104,18480
22104,17970
22695,17970
22695,18480
22104,18480
" /> 
<polyline style="fill-rule:evenodd;"
points="22104,19229
22104,18719
22695,18719
22695,19229
22104,19229
" /> 
<polyline style="fill-rule:evenodd;"
points="17519,23904
18029,23904
18029,24495
17519,24495
17519,23904
" /> 
<polyline style="fill-rule:evenodd;"
points="16770,23904
17280,23904
17280,24495
16770,24495
16770,23904
" /> 
<polyline style="fill-rule:evenodd;"
points="16704,21429
16704,20919
17295,20919
17295,21429
16704,21429
" /> 
<polyline style="fill-rule:evenodd;"
points="16704,20680
16704,20170
17295,20170
17295,20680
16704,20680
" /> 
<polyline style="fill-rule:evenodd;"
points="19629,18495
19119,18495
19119,17904
19629,17904
19629,18495
" /> 
<polyline style="fill-rule:evenodd;"
points="18880,18495
18370,18495
18370,17904
18880,17904
18880,18495
" /> 
<polyline style="fill-rule:evenodd;"
points="16295,21970
16295,22480
15704,22480
15704,21970
16295,21970
" /> 
<polyline style="fill-rule:evenodd;"
points="16295,22719
16295,23229
15704,23229
15704,22719
16295,22719
" /> 
<polyline style="fill-rule:evenodd;"
points="14704,23229
14704,22719
15295,22719
15295,23229
14704,23229
" /> 
<polyline style="fill-rule:evenodd;"
points="14704,22480
14704,21970
15295,21970
15295,22480
14704,22480
" /> 
<polyline style="fill-rule:evenodd;"
points="19080,24495
18570,24495
18570,23904
19080,23904
19080,24495
" /> 
<polyline style="fill-rule:evenodd;"
points="19829,24495
19319,24495
19319,23904
19829,23904
19829,24495
" /> 
<polyline style="fill-rule:evenodd;"
points="22170,21704
22680,21704
22680,22295
22170,22295
22170,21704
" /> 
<polyline style="fill-rule:evenodd;"
points="22919,21704
23429,21704
23429,22295
22919,22295
22919,21704
" /> 
<polyline style="fill-rule:evenodd;"
points="21629,24495
21119,24495
21119,23904
21629,23904
21629,24495
" /> 
<polyline style="fill-rule:evenodd;"
points="20880,24495
20370,24495
20370,23904
20880,23904
20880,24495
" /> 
<polyline style="fill-rule:evenodd;"
points="23429,24495
22919,24495
22919,23904
23429,23904
23429,24495
" /> 
<polyline style="fill-rule:evenodd;"
points="22680,24495
22170,24495
22170,23904
22680,23904
22680,24495
" /> 
<polyline style="fill-rule:evenodd;"
points="22680,23295
22170,23295
22170,22704
22680,22704
22680,23295
" /> 
<polyline style="fill-rule:evenodd;"
points="23429,23295
22919,23295
22919,22704
23429,22704
23429,23295
" /> 
<polyline style="fill-rule:evenodd;"
points="16770,24904
17280,24904
17280,25495
16770,25495
16770,24904
" /> 
<polyline style="fill-rule:evenodd;"
points="17519,24904
18029,24904
18029,25495
17519,25495
17519,24904
" /> 
<polyline style="fill-rule:evenodd;"
points="16295,24719
16295,25229
15704,25229
15704,24719
16295,24719
" /> 
<polyline style="fill-rule:evenodd;"
points="16295,23970
16295,24480
15704,24480
15704,23970
16295,23970
" /> 
<polyline style="fill-rule:evenodd;"
points="15704,20680
15704,20170
16295,20170
16295,20680
15704,20680
" /> 
<polyline style="fill-rule:evenodd;"
points="15704,21429
15704,20919
16295,20919
16295,21429
15704,21429
" /> 
<polyline style="fill-rule:evenodd;"
points="18880,19495
18370,19495
18370,18904
18880,18904
18880,19495
" /> 
<polyline style="fill-rule:evenodd;"
points="19629,19495
19119,19495
19119,18904
19629,18904
19629,19495
" /> 
<polyline style="fill-rule:evenodd;"
points="20919,18904
21429,18904
21429,19495
20919,19495
20919,18904
" /> 
<polyline style="fill-rule:evenodd;"
points="20170,18904
20680,18904
20680,19495
20170,19495
20170,18904
" /> 
<polyline style="fill-rule:evenodd;"
points="22104,25680
22104,25170
22695,25170
22695,25680
22104,25680
" /> 
<polyline style="fill-rule:evenodd;"
points="22104,26429
22104,25919
22695,25919
22695,26429
22104,26429
" /> 
<polyline style="fill-rule:evenodd;"
points="23695,25170
23695,25680
23104,25680
23104,25170
23695,25170
" /> 
<polyline style="fill-rule:evenodd;"
points="23695,25919
23695,26429
23104,26429
23104,25919
23695,25919
" /> 
<polyline style="fill-rule:evenodd;"
points="20680,18495
20170,18495
20170,17904
20680,17904
20680,18495
" /> 
<polyline style="fill-rule:evenodd;"
points="21429,18495
20919,18495
20919,17904
21429,17904
21429,18495
" /> 
<polyline style="fill-rule:evenodd;"
points="22680,21295
22170,21295
22170,20704
22680,20704
22680,21295
" /> 
<polyline style="fill-rule:evenodd;"
points="23429,21295
22919,21295
22919,20704
23429,20704
23429,21295
" /> 
<polyline style="fill-rule:evenodd;"
points="23429,20295
22919,20295
22919,19704
23429,19704
23429,20295
" /> 
<polyline style="fill-rule:evenodd;"
points="22680,20295
22170,20295
22170,19704
22680,19704
22680,20295
" /> 
<polyline style="fill-rule:evenodd;"
points="16240,28937
17224,28937
17224,29724
16240,29724
16240,28937
" /> 
<polyline style="fill-rule:evenodd;"
points="16240,30511
17224,30511
17224,31299
16240,31299
16240,30511
" /> 
<polyline style="fill-rule:evenodd;"
points="19970,23210
19970,22410
20230,22410
20230,23210
19970,23210
" /> 
<polyline style="fill-rule:evenodd;"
points="17970,23210
17970,22410
18230,22410
18230,23210
17970,23210
" /> 
<polyline style="fill-rule:evenodd;"
points="18470,23210
18470,22410
18730,22410
18730,23210
18470,23210
" /> 
<polyline style="fill-rule:evenodd;"
points="18970,23210
18970,22410
19230,22410
19230,23210
18970,23210
" /> 
<polyline style="fill-rule:evenodd;"
points="19470,23210
19470,22410
19730,22410
19730,23210
19470,23210
" /> 
<polyline style="fill-rule:evenodd;"
points="20470,23210
20470,22410
20730,22410
20730,23210
20470,23210
" /> 
<polyline style="fill-rule:evenodd;"
points="20970,23210
20970,22410
21230,22410
21230,23210
20970,23210
" /> 
<polyline style="fill-rule:evenodd;"
points="20970,20790
20970,19990
21230,19990
21230,20790
20970,20790
" /> 
<polyline style="fill-rule:evenodd;"
points="20470,20790
20470,19990
20730,19990
20730,20790
20470,20790
" /> 
<polyline style="fill-rule:evenodd;"
points="19970,20790
19970,19990
20230,19990
20230,20790
19970,20790
" /> 
<polyline style="fill-rule:evenodd;"
points="19470,20790
19470,19990
19730,19990
19730,20790
19470,20790
" /> 
<polyline style="fill-rule:evenodd;"
points="18970,20790
18970,19990
19230,19990
19230,20790
18970,20790
" /> 
<polyline style="fill-rule:evenodd;"
points="18470,20790
18470,19990
18730,19990
18730,20790
18470,20790
" /> 
<polyline style="fill-rule:evenodd;"
points="17970,20790
17970,19990
18230,19990
18230,20790
17970,20790
" /> 
<polyline style="fill-rule:evenodd;"
points="17970,26990
17970,26190
18230,26190
18230,26990
17970,26990
" /> 
<polyline style="fill-rule:evenodd;"
points="18470,26990
18470,26190
18730,26190
18730,26990
18470,26990
" /> 
<polyline style="fill-rule:evenodd;"
points="18970,26990
18970,26190
19230,26190
19230,26990
18970,26990
" /> 
<polyline style="fill-rule:evenodd;"
points="19470,26990
19470,26190
19730,26190
19730,26990
19470,26990
" /> 
<polyline style="fill-rule:evenodd;"
points="19970,26990
19970,26190
20230,26190
20230,26990
19970,26990
" /> 
<polyline style="fill-rule:evenodd;"
points="20470,26990
20470,26190
20730,26190
20730,26990
20470,26990
" /> 
<polyline style="fill-rule:evenodd;"
points="20970,26990
20970,26190
21230,26190
21230,26990
20970,26990
" /> 
<polyline style="fill-rule:evenodd;"
points="20970,29410
20970,28610
21230,28610
21230,29410
20970,29410
" /> 
<polyline style="fill-rule:evenodd;"
points="20470,29410
20470,28610
20730,28610
20730,29410
20470,29410
" /> 
<polyline style="fill-rule:evenodd;"
points="19470,29410
19470,28610
19730,28610
19730,29410
19470,29410
" /> 
<polyline style="fill-rule:evenodd;"
points="18970,29410
18970,28610
19230,28610
19230,29410
18970,29410
" /> 
<polyline style="fill-rule:evenodd;"
points="18470,29410
18470,28610
18730,28610
18730,29410
18470,29410
" /> 
<polyline style="fill-rule:evenodd;"
points="17970,29410
17970,28610
18230,28610
18230,29410
17970,29410
" /> 
<polyline style="fill-rule:evenodd;"
points="19970,29410
19970,28610
20230,28610
20230,29410
19970,29410
" /> 
<polyline style="fill-rule:evenodd;"
points="21909,33090
21909,31909
23090,31909
23090,33090
21909,33090
" /> 
<polyline style="fill-rule:evenodd;"
points="21909,31590
21909,30409
23090,30409
23090,31590
21909,31590
" /> 
<polyline style="fill-rule:evenodd;"
points="21909,30090
21909,28909
23090,28909
23090,30090
21909,30090
" /> 
<polyline style="fill-rule:evenodd;"
points="59504,27229
59504,26719
60095,26719
60095,27229
59504,27229
" /> 
<polyline style="fill-rule:evenodd;"
points="59504,26480
59504,25970
60095,25970
60095,26480
59504,26480
" /> 
<polyline style="fill-rule:evenodd;"
points="21704,28429
21704,27919
22295,27919
22295,28429
21704,28429
" /> 
<polyline style="fill-rule:evenodd;"
points="21704,27680
21704,27170
22295,27170
22295,27680
21704,27680
" /> 
<polyline style="fill-rule:evenodd;"
points="51793,41406
51793,40993
52206,40993
52206,41406
51793,41406
" /> 
<polyline style="fill-rule:evenodd;"
points="52293,41406
52293,40993
52706,40993
52706,41406
52293,41406
" /> 
<polyline style="fill-rule:evenodd;"
points="52793,41406
52793,40993
53206,40993
53206,41406
52793,41406
" /> 
<polyline style="fill-rule:evenodd;"
points="53293,41406
53293,40993
53706,40993
53706,41406
53293,41406
" /> 
<polyline style="fill-rule:evenodd;"
points="53793,41406
53793,40993
54206,40993
54206,41406
53793,41406
" /> 
<polyline style="fill-rule:evenodd;"
points="54293,41406
54293,40993
54706,40993
54706,41406
54293,41406
" /> 
<polyline style="fill-rule:evenodd;"
points="54793,41406
54793,40993
55206,40993
55206,41406
54793,41406
" /> 
<polyline style="fill-rule:evenodd;"
points="55293,41406
55293,40993
55706,40993
55706,41406
55293,41406
" /> 
<polyline style="fill-rule:evenodd;"
points="55793,41406
55793,40993
56206,40993
56206,41406
55793,41406
" /> 
<polyline style="fill-rule:evenodd;"
points="56293,41406
56293,40993
56706,40993
56706,41406
56293,41406
" /> 
<polyline style="fill-rule:evenodd;"
points="56793,41406
56793,40993
57206,40993
57206,41406
56793,41406
" /> 
<polyline style="fill-rule:evenodd;"
points="57293,41406
57293,40993
57706,40993
57706,41406
57293,41406
" /> 
<polyline style="fill-rule:evenodd;"
points="51793,40906
51793,40493
52206,40493
52206,40906
51793,40906
" /> 
<polyline style="fill-rule:evenodd;"
points="52293,40906
52293,40493
52706,40493
52706,40906
52293,40906
" /> 
<polyline style="fill-rule:evenodd;"
points="52793,40906
52793,40493
53206,40493
53206,40906
52793,40906
" /> 
<polyline style="fill-rule:evenodd;"
points="53293,40906
53293,40493
53706,40493
53706,40906
53293,40906
" /> 
<polyline style="fill-rule:evenodd;"
points="53793,40906
53793,40493
54206,40493
54206,40906
53793,40906
" /> 
<polyline style="fill-rule:evenodd;"
points="54293,40906
54293,40493
54706,40493
54706,40906
54293,40906
" /> 
<polyline style="fill-rule:evenodd;"
points="54793,40906
54793,40493
55206,40493
55206,40906
54793,40906
" /> 
<polyline style="fill-rule:evenodd;"
points="55293,40906
55293,40493
55706,40493
55706,40906
55293,40906
" /> 
<polyline style="fill-rule:evenodd;"
points="55793,40906
55793,40493
56206,40493
56206,40906
55793,40906
" /> 
<polyline style="fill-rule:evenodd;"
points="56293,40906
56293,40493
56706,40493
56706,40906
56293,40906
" /> 
<polyline style="fill-rule:evenodd;"
points="56793,40906
56793,40493
57206,40493
57206,40906
56793,40906
" /> 
<polyline style="fill-rule:evenodd;"
points="57293,40906
57293,40493
57706,40493
57706,40906
57293,40906
" /> 
<polyline style="fill-rule:evenodd;"
points="51793,40406
51793,39993
52206,39993
52206,40406
51793,40406
" /> 
<polyline style="fill-rule:evenodd;"
points="52293,40406
52293,39993
52706,39993
52706,40406
52293,40406
" /> 
<polyline style="fill-rule:evenodd;"
points="52793,40406
52793,39993
53206,39993
53206,40406
52793,40406
" /> 
<polyline style="fill-rule:evenodd;"
points="53293,40406
53293,39993
53706,39993
53706,40406
53293,40406
" /> 
<polyline style="fill-rule:evenodd;"
points="53793,40406
53793,39993
54206,39993
54206,40406
53793,40406
" /> 
<polyline style="fill-rule:evenodd;"
points="54293,40406
54293,39993
54706,39993
54706,40406
54293,40406
" /> 
<polyline style="fill-rule:evenodd;"
points="54793,40406
54793,39993
55206,39993
55206,40406
54793,40406
" /> 
<polyline style="fill-rule:evenodd;"
points="55293,40406
55293,39993
55706,39993
55706,40406
55293,40406
" /> 
<polyline style="fill-rule:evenodd;"
points="55793,40406
55793,39993
56206,39993
56206,40406
55793,40406
" /> 
<polyline style="fill-rule:evenodd;"
points="56293,40406
56293,39993
56706,39993
56706,40406
56293,40406
" /> 
<polyline style="fill-rule:evenodd;"
points="56793,40406
56793,39993
57206,39993
57206,40406
56793,40406
" /> 
<polyline style="fill-rule:evenodd;"
points="57293,40406
57293,39993
57706,39993
57706,40406
57293,40406
" /> 
<polyline style="fill-rule:evenodd;"
points="51793,39906
51793,39493
52206,39493
52206,39906
51793,39906
" /> 
<polyline style="fill-rule:evenodd;"
points="52293,39906
52293,39493
52706,39493
52706,39906
52293,39906
" /> 
<polyline style="fill-rule:evenodd;"
points="52793,39906
52793,39493
53206,39493
53206,39906
52793,39906
" /> 
<polyline style="fill-rule:evenodd;"
points="53293,39906
53293,39493
53706,39493
53706,39906
53293,39906
" /> 
<polyline style="fill-rule:evenodd;"
points="53793,39906
53793,39493
54206,39493
54206,39906
53793,39906
" /> 
<polyline style="fill-rule:evenodd;"
points="54293,39906
54293,39493
54706,39493
54706,39906
54293,39906
" /> 
<polyline style="fill-rule:evenodd;"
points="54793,39906
54793,39493
55206,39493
55206,39906
54793,39906
" /> 
<polyline style="fill-rule:evenodd;"
points="55293,39906
55293,39493
55706,39493
55706,39906
55293,39906
" /> 
<polyline style="fill-rule:evenodd;"
points="55793,39906
55793,39493
56206,39493
56206,39906
55793,39906
" /> 
<polyline style="fill-rule:evenodd;"
points="56293,39906
56293,39493
56706,39493
56706,39906
56293,39906
" /> 
<polyline style="fill-rule:evenodd;"
points="56793,39906
56793,39493
57206,39493
57206,39906
56793,39906
" /> 
<polyline style="fill-rule:evenodd;"
points="57293,39906
57293,39493
57706,39493
57706,39906
57293,39906
" /> 
<polyline style="fill-rule:evenodd;"
points="51793,39406
51793,38993
52206,38993
52206,39406
51793,39406
" /> 
<polyline style="fill-rule:evenodd;"
points="52293,39406
52293,38993
52706,38993
52706,39406
52293,39406
" /> 
<polyline style="fill-rule:evenodd;"
points="52793,39406
52793,38993
53206,38993
53206,39406
52793,39406
" /> 
<polyline style="fill-rule:evenodd;"
points="53293,39406
53293,38993
53706,38993
53706,39406
53293,39406
" /> 
<polyline style="fill-rule:evenodd;"
points="53793,39406
53793,38993
54206,38993
54206,39406
53793,39406
" /> 
<polyline style="fill-rule:evenodd;"
points="54293,39406
54293,38993
54706,38993
54706,39406
54293,39406
" /> 
<polyline style="fill-rule:evenodd;"
points="54793,39406
54793,38993
55206,38993
55206,39406
54793,39406
" /> 
<polyline style="fill-rule:evenodd;"
points="55293,39406
55293,38993
55706,38993
55706,39406
55293,39406
" /> 
<polyline style="fill-rule:evenodd;"
points="55793,39406
55793,38993
56206,38993
56206,39406
55793,39406
" /> 
<polyline style="fill-rule:evenodd;"
points="56293,39406
56293,38993
56706,38993
56706,39406
56293,39406
" /> 
<polyline style="fill-rule:evenodd;"
points="56793,39406
56793,38993
57206,38993
57206,39406
56793,39406
" /> 
<polyline style="fill-rule:evenodd;"
points="57293,39406
57293,38993
57706,38993
57706,39406
57293,39406
" /> 
<polyline style="fill-rule:evenodd;"
points="51793,38906
51793,38493
52206,38493
52206,38906
51793,38906
" /> 
<polyline style="fill-rule:evenodd;"
points="52293,38906
52293,38493
52706,38493
52706,38906
52293,38906
" /> 
<polyline style="fill-rule:evenodd;"
points="52793,38906
52793,38493
53206,38493
53206,38906
52793,38906
" /> 
<polyline style="fill-rule:evenodd;"
points="53293,38906
53293,38493
53706,38493
53706,38906
53293,38906
" /> 
<polyline style="fill-rule:evenodd;"
points="53793,38906
53793,38493
54206,38493
54206,38906
53793,38906
" /> 
<polyline style="fill-rule:evenodd;"
points="54293,38906
54293,38493
54706,38493
54706,38906
54293,38906
" /> 
<polyline style="fill-rule:evenodd;"
points="54793,38906
54793,38493
55206,38493
55206,38906
54793,38906
" /> 
<polyline style="fill-rule:evenodd;"
points="55293,38906
55293,38493
55706,38493
55706,38906
55293,38906
" /> 
<polyline style="fill-rule:evenodd;"
points="55793,38906
55793,38493
56206,38493
56206,38906
55793,38906
" /> 
<polyline style="fill-rule:evenodd;"
points="56293,38906
56293,38493
56706,38493
56706,38906
56293,38906
" /> 
<polyline style="fill-rule:evenodd;"
points="56793,38906
56793,38493
57206,38493
57206,38906
56793,38906
" /> 
<polyline style="fill-rule:evenodd;"
points="57293,38906
57293,38493
57706,38493
57706,38906
57293,38906
" /> 
<polyline style="fill-rule:evenodd;"
points="51793,38406
51793,37993
52206,37993
52206,38406
51793,38406
" /> 
<polyline style="fill-rule:evenodd;"
points="52293,38406
52293,37993
52706,37993
52706,38406
52293,38406
" /> 
<polyline style="fill-rule:evenodd;"
points="52793,38406
52793,37993
53206,37993
53206,38406
52793,38406
" /> 
<polyline style="fill-rule:evenodd;"
points="53293,38406
53293,37993
53706,37993
53706,38406
53293,38406
" /> 
<polyline style="fill-rule:evenodd;"
points="53793,38406
53793,37993
54206,37993
54206,38406
53793,38406
" /> 
<polyline style="fill-rule:evenodd;"
points="54293,38406
54293,37993
54706,37993
54706,38406
54293,38406
" /> 
<polyline style="fill-rule:evenodd;"
points="54793,38406
54793,37993
55206,37993
55206,38406
54793,38406
" /> 
<polyline style="fill-rule:evenodd;"
points="55293,38406
55293,37993
55706,37993
55706,38406
55293,38406
" /> 
<polyline style="fill-rule:evenodd;"
points="55793,38406
55793,37993
56206,37993
56206,38406
55793,38406
" /> 
<polyline style="fill-rule:evenodd;"
points="56293,38406
56293,37993
56706,37993
56706,38406
56293,38406
" /> 
<polyline style="fill-rule:evenodd;"
points="56793,38406
56793,37993
57206,37993
57206,38406
56793,38406
" /> 
<polyline style="fill-rule:evenodd;"
points="57293,38406
57293,37993
57706,37993
57706,38406
57293,38406
" /> 
<polyline style="fill-rule:evenodd;"
points="51793,37906
51793,37493
52206,37493
52206,37906
51793,37906
" /> 
<polyline style="fill-rule:evenodd;"
points="52293,37906
52293,37493
52706,37493
52706,37906
52293,37906
" /> 
<polyline style="fill-rule:evenodd;"
points="52793,37906
52793,37493
53206,37493
53206,37906
52793,37906
" /> 
<polyline style="fill-rule:evenodd;"
points="53293,37906
53293,37493
53706,37493
53706,37906
53293,37906
" /> 
<polyline style="fill-rule:evenodd;"
points="53793,37906
53793,37493
54206,37493
54206,37906
53793,37906
" /> 
<polyline style="fill-rule:evenodd;"
points="54293,37906
54293,37493
54706,37493
54706,37906
54293,37906
" /> 
<polyline style="fill-rule:evenodd;"
points="54793,37906
54793,37493
55206,37493
55206,37906
54793,37906
" /> 
<polyline style="fill-rule:evenodd;"
points="55293,37906
55293,37493
55706,37493
55706,37906
55293,37906
" /> 
<polyline style="fill-rule:evenodd;"
points="55793,37906
55793,37493
56206,37493
56206,37906
55793,37906
" /> 
<polyline style="fill-rule:evenodd;"
points="56293,37906
56293,37493
56706,37493
56706,37906
56293,37906
" /> 
<polyline style="fill-rule:evenodd;"
points="56793,37906
56793,37493
57206,37493
57206,37906
56793,37906
" /> 
<polyline style="fill-rule:evenodd;"
points="57293,37906
57293,37493
57706,37493
57706,37906
57293,37906
" /> 
</g>
<g style="fill:#000000; fill-opacity:0.0; 
stroke:#000000; stroke-width:39.3701; stroke-opacity:1; 
stroke-linecap:round; stroke-linejoin:round;">
<polyline fill="none;"
points="61024,15718
61026,15718
61029,15719
61033,15720
61034,15720
61036,15721
61039,15723
61042,15725
61043,15726
61044,15727
62619,17301
62620,17303
62621,17303
62622,17307
62625,17310
62625,17311
62626,17312
62626,17316
62627,17320
62627,17321
62627,17322
62627,26368
65771,30691
65773,30694
65775,30698
65775,30699
65776,30700
65776,30704
65777,30708
65777,43700
65777,43702
65777,43703
65776,43707
65775,43710
65775,43712
65774,43713
65772,43716
65770,43719
65769,43720
65768,43721
64194,45296
64193,45297
64192,45298
64188,45300
64185,45302
64184,45302
64183,45303
64179,45304
64175,45305
64174,45304
64173,45305
55522,45305
53049,47267
53045,47269
53041,47271
53041,47271
53040,47272
53036,47272
53031,47273
21771,47273
21766,47272
21762,47272
21761,47271
21761,47271
21757,47269
21753,47267
19281,45305
10629,45305
10628,45304
10627,45305
10623,45304
10619,45303
10618,45302
10617,45302
10614,45300
10610,45298
10610,45297
10609,45296
9034,43721
9033,43720
9032,43719
9030,43716
9028,43713
9028,43712
9027,43710
9026,43707
9025,43703
9025,43702
9025,43700
9025,30708
9026,30704
9026,30700
9027,30699
9027,30698
9029,30694
9031,30691
12175,26368
12175,17322
12175,17321
12175,17320
12176,17316
12176,17312
12177,17311
12177,17310
12180,17307
12182,17303
12183,17303
12183,17301
13758,15727
13759,15726
13760,15725
13763,15723
13767,15721
13768,15720
13769,15720
13773,15719
13776,15718
13778,15718
13779,15718
61023,15718
61024,15718
" /> 
<polyline fill="none;"
points="13791,15777
12234,17335
12234,26377
12233,26382
12233,26386
12232,26387
12232,26388
12230,26391
12228,26395
9084,30718
9084,43688
10642,45246
19291,45246
19295,45246
19300,45247
19301,45247
19301,45247
19305,45250
19309,45252
21781,47214
53021,47214
55493,45252
55497,45250
55501,45247
55502,45247
55502,45247
55507,45246
55511,45246
64160,45246
65718,43688
65718,30718
62574,26395
62572,26391
62570,26388
62570,26387
62570,26386
62569,26382
62568,26377
62568,17335
61011,15777
13791,15777
" /> 
<polyline fill="none;"
points="39836,33539
38991,34249
37953,34626
36849,34626
35812,34249
34966,33539
34414,32583
34222,31496
34414,30408
34966,29452
35812,28742
36849,28365
37953,28365
38991,28742
39836,29452
40388,30408
40580,31496
40388,32583
39836,33539
" /> 
<polyline fill="none;"
points="39791,29490
38961,28793
37943,28423
36859,28423
35841,28793
35011,29490
34469,30428
34281,31496
34469,32563
35011,33501
35841,34198
36859,34568
37943,34568
38961,34198
39791,33501
40333,32563
40521,31496
40333,30428
39791,29490
" /> 
</g> 
</svg>
