G04 #@! TF.GenerationSoftware,KiCad,Pcbnew,5.0.2-bee76a0~70~ubuntu18.04.1*
G04 #@! TF.CreationDate,2020-10-17T11:56:47+02:00*
G04 #@! TF.ProjectId,DVDLaserScanner,4456444c-6173-4657-9253-63616e6e6572,rev?*
G04 #@! TF.SameCoordinates,Original*
G04 #@! TF.FileFunction,Copper,L1,Top*
G04 #@! TF.FilePolarity,Positive*
%FSLAX46Y46*%
G04 Gerber Fmt 4.6, Leading zero omitted, Abs format (unit mm)*
G04 Created by KiCad (PCBNEW 5.0.2-bee76a0~70~ubuntu18.04.1) date Sa 17 Okt 2020 11:56:47 CEST*
%MOMM*%
%LPD*%
G01*
G04 APERTURE LIST*
G04 #@! TA.AperFunction,ComponentPad*
%ADD10C,3.100000*%
G04 #@! TD*
G04 #@! TA.AperFunction,ComponentPad*
%ADD11C,6.000000*%
G04 #@! TD*
G04 #@! TA.AperFunction,SMDPad,CuDef*
%ADD12R,1.500000X1.295400*%
G04 #@! TD*
G04 #@! TA.AperFunction,SMDPad,CuDef*
%ADD13R,2.100000X1.400000*%
G04 #@! TD*
G04 #@! TA.AperFunction,ViaPad*
%ADD14C,0.800000*%
G04 #@! TD*
G04 #@! TA.AperFunction,Conductor*
%ADD15C,0.400000*%
G04 #@! TD*
G04 #@! TA.AperFunction,Conductor*
%ADD16C,0.250000*%
G04 #@! TD*
G04 #@! TA.AperFunction,Conductor*
%ADD17C,0.100000*%
G04 #@! TD*
G04 APERTURE END LIST*
D10*
G04 #@! TO.P,RV4,*
G04 #@! TO.N,*
X149000000Y-111000000D03*
G04 #@! TD*
G04 #@! TO.P,RV3,*
G04 #@! TO.N,*
X41000000Y-111000000D03*
G04 #@! TD*
G04 #@! TO.P,RV2,*
G04 #@! TO.N,*
X159000000Y-74000000D03*
G04 #@! TD*
G04 #@! TO.P,RV1,*
G04 #@! TO.N,*
X31000000Y-74000000D03*
G04 #@! TD*
D11*
G04 #@! TO.P,X1,1*
G04 #@! TO.N,N/C*
X28000000Y-110000000D03*
G04 #@! TD*
G04 #@! TO.P,X2,1*
G04 #@! TO.N,N/C*
X154000000Y-45000000D03*
G04 #@! TD*
G04 #@! TO.P,X3,1*
G04 #@! TO.N,N/C*
X162000000Y-110000000D03*
G04 #@! TD*
G04 #@! TO.P,X4,1*
G04 #@! TO.N,N/C*
X36000000Y-45000000D03*
G04 #@! TD*
D12*
G04 #@! TO.P,D1,1*
G04 #@! TO.N,GND*
X151892000Y-51856600D03*
G04 #@! TO.P,D1,2*
G04 #@! TO.N,Net-(D1-Pad2)*
X151892000Y-53756600D03*
G04 #@! TD*
G04 #@! TO.P,D2,1*
G04 #@! TO.N,GND*
X155702000Y-51856600D03*
G04 #@! TO.P,D2,2*
G04 #@! TO.N,Net-(D2-Pad2)*
X155702000Y-53756600D03*
G04 #@! TD*
D13*
G04 #@! TO.P,SW1,3*
G04 #@! TO.N,N/C*
X163000000Y-89750000D03*
G04 #@! TO.P,SW1,4*
X163000000Y-94250000D03*
G04 #@! TO.P,SW1,1*
G04 #@! TO.N,Net-(SW1-Pad1)*
X153000000Y-89750000D03*
G04 #@! TO.P,SW1,2*
G04 #@! TO.N,GND*
X153000000Y-94250000D03*
G04 #@! TD*
D14*
G04 #@! TO.N,*
X65532000Y-45974000D03*
X60960000Y-43942000D03*
G04 #@! TO.N,VREF1*
X39497000Y-88392000D03*
X40259000Y-99314000D03*
G04 #@! TO.N,GND*
X124460000Y-42418000D03*
X153924000Y-51790600D03*
X118364000Y-42418000D03*
X87884000Y-42672000D03*
X103886000Y-56134000D03*
X93980000Y-55118000D03*
X49784000Y-55816500D03*
X32893000Y-95504000D03*
X31115000Y-95504000D03*
X31115000Y-93980000D03*
X32893000Y-93980000D03*
X32893000Y-91948000D03*
X31115000Y-91948000D03*
X31115000Y-90424000D03*
X32893000Y-90424000D03*
X36195000Y-95504000D03*
X37973000Y-95504000D03*
X37973000Y-93980000D03*
X36195000Y-93980000D03*
X36195000Y-91948000D03*
X37973000Y-91948000D03*
X37973000Y-90424000D03*
X36195000Y-90424000D03*
X44069000Y-95504000D03*
X42291000Y-95504000D03*
X42291000Y-93980000D03*
X44069000Y-93980000D03*
X44069000Y-91948000D03*
X42291000Y-91948000D03*
X42291000Y-90424000D03*
X44069000Y-90424000D03*
X48387000Y-90424000D03*
X50419000Y-90424000D03*
X50419000Y-91948000D03*
X48387000Y-91948000D03*
X48387000Y-93980000D03*
X50419000Y-93980000D03*
X50419000Y-95504000D03*
X48387000Y-95504000D03*
X56007000Y-95504000D03*
X54229000Y-95504000D03*
X54229000Y-93980000D03*
X56007000Y-93980000D03*
X56007000Y-91948000D03*
X54229000Y-91948000D03*
X54229000Y-90424000D03*
X56007000Y-90424000D03*
X60579000Y-95504000D03*
X62357000Y-95504000D03*
X62357000Y-93980000D03*
X60579000Y-93980000D03*
X60579000Y-91948000D03*
X62357000Y-91948000D03*
X62357000Y-90424000D03*
X60579000Y-90424000D03*
X45339000Y-100838000D03*
X105283000Y-118110000D03*
X72390000Y-116840000D03*
X70866000Y-118618000D03*
X51054000Y-76327000D03*
G04 #@! TO.N,VREF_DAC*
X106426000Y-113030000D03*
X106426000Y-114554000D03*
X103886000Y-114554000D03*
X103886000Y-113030000D03*
X119888000Y-117094000D03*
X117348000Y-113030000D03*
X117348000Y-117094000D03*
G04 #@! TO.N,Net-(R1-Pad2)*
X58166000Y-108458000D03*
X102616000Y-116586000D03*
X102616000Y-118872000D03*
X86614000Y-118618000D03*
G04 #@! TO.N,Net-(R2-Pad1)*
X38989000Y-99314000D03*
X38227000Y-86360000D03*
G04 #@! TO.N,Net-(R2-Pad2)*
X107696000Y-114554000D03*
X101092000Y-105156000D03*
G04 #@! TO.N,Net-(R3-Pad2)*
X114046000Y-115570000D03*
X114046000Y-103378000D03*
G04 #@! TO.N,Net-(R4-Pad2)*
X121158000Y-114554000D03*
X117602000Y-103378000D03*
X68961000Y-98298000D03*
X68961000Y-103378000D03*
G04 #@! TO.N,Net-(R10-Pad1)*
X51689000Y-89408000D03*
X51943000Y-98044000D03*
G04 #@! TO.N,POT1*
X129032000Y-55118000D03*
X127762000Y-49784000D03*
G04 #@! TO.N,POT2*
X149860000Y-55372000D03*
X154178000Y-71374000D03*
G04 #@! TO.N,POT4*
X155448000Y-102870000D03*
X150368000Y-47752000D03*
G04 #@! TO.N,DAC_SCK*
X127254000Y-107696000D03*
X135382000Y-107696000D03*
G04 #@! TO.N,DAC_LATCH*
X135128000Y-69088000D03*
X135128000Y-87630000D03*
G04 #@! TO.N,Net-(D1-Pad2)*
X152146000Y-54838600D03*
G04 #@! TO.N,Net-(D2-Pad2)*
X155702000Y-54838600D03*
G04 #@! TO.N,Net-(Q1-Pad1)*
X76454000Y-113792000D03*
X68834000Y-112268000D03*
G04 #@! TO.N,DAC1CS*
X105156000Y-105664000D03*
X105156000Y-108458000D03*
G04 #@! TO.N,DAC2CS*
X118618000Y-108458000D03*
X124968000Y-103632000D03*
G04 #@! TO.N,DAC3CS*
X133858000Y-61976000D03*
X133096000Y-68834000D03*
G04 #@! TO.N,Net-(SW1-Pad1)*
X152654000Y-73152000D03*
G04 #@! TO.N,Net-(JP1-Pad2)*
X77724000Y-43180000D03*
X54102000Y-63500000D03*
X61976000Y-46990000D03*
X110744000Y-45720000D03*
G04 #@! TO.N,PD_RF*
X57404000Y-69088000D03*
X60960000Y-69088000D03*
X121412000Y-64262000D03*
X136398000Y-64008000D03*
G04 #@! TO.N,Net-(C1-Pad2)*
X48260000Y-65786000D03*
X43180000Y-65786000D03*
G04 #@! TO.N,VREF*
X48260000Y-69850000D03*
X49784000Y-65532000D03*
G04 #@! TO.N,PD_BD*
X44704000Y-57658000D03*
X64516000Y-64516000D03*
G04 #@! TO.N,Net-(C5-Pad1)*
X58420000Y-48514000D03*
X55118000Y-51308000D03*
G04 #@! TO.N,PD_FE*
X61468000Y-65532000D03*
X128016000Y-65532000D03*
X118618000Y-65532000D03*
X44958000Y-67818000D03*
G04 #@! TO.N,PD_AC*
X63500000Y-63500000D03*
X39624000Y-69342000D03*
G04 #@! TO.N,RF1*
X110490000Y-47752000D03*
X105664000Y-44704000D03*
G04 #@! TO.N,T2+*
X86360000Y-44958000D03*
X68072000Y-80518000D03*
G04 #@! TO.N,T1+*
X30099000Y-99568000D03*
X31115000Y-86106000D03*
G04 #@! TO.N,F2+*
X84836000Y-44196000D03*
X73660000Y-72898000D03*
X68961000Y-96266000D03*
X67437000Y-103886000D03*
G04 #@! TO.N,VCC_BLUE*
X50292000Y-69850000D03*
X136652000Y-112268000D03*
X122936000Y-47244000D03*
X148590000Y-50038000D03*
X95758000Y-43942000D03*
X93472000Y-43942000D03*
X29337000Y-86106000D03*
X72136000Y-99822000D03*
X54864000Y-112776000D03*
X53213000Y-104648000D03*
X122428000Y-112268000D03*
X122428000Y-114554000D03*
X49784000Y-84836000D03*
X25146000Y-77978000D03*
X49784000Y-78168500D03*
X49784000Y-54102000D03*
X65659000Y-88900000D03*
X40513000Y-88138000D03*
X52705000Y-88138000D03*
X78486000Y-109220000D03*
X81788000Y-108204000D03*
X108966000Y-112268000D03*
X108966000Y-114554000D03*
X95758000Y-114300000D03*
X95758000Y-112268000D03*
X102616000Y-112268000D03*
X102616000Y-110490000D03*
X116078000Y-110490000D03*
X116078000Y-112268000D03*
G04 #@! TO.N,INTENSITY*
X82550000Y-101346000D03*
X92964000Y-68326000D03*
X92456000Y-45466000D03*
X88392000Y-115570000D03*
X82804000Y-114554000D03*
G04 #@! TO.N,Net-(R24-Pad1)*
X53594000Y-59690000D03*
X49784000Y-59690000D03*
G04 #@! TO.N,D_SIG*
X62500000Y-60500000D03*
X74000000Y-61500000D03*
G04 #@! TO.N,Net-(R32-Pad1)*
X50038000Y-47752000D03*
X53340000Y-47752000D03*
G04 #@! TO.N,OFFSET*
X88138000Y-117856000D03*
X66802000Y-81788000D03*
X79756000Y-99568000D03*
X69850000Y-84836000D03*
G04 #@! TO.N,C_SIG*
X77500000Y-51000000D03*
X78500000Y-57000000D03*
G04 #@! TO.N,SEL2*
X90932000Y-58420000D03*
X90932000Y-55118000D03*
G04 #@! TO.N,SEL1*
X92202000Y-55118000D03*
X92202000Y-58928000D03*
G04 #@! TO.N,F-*
X77978000Y-54102000D03*
X54991000Y-86360000D03*
X63881000Y-89408000D03*
X63881000Y-97790000D03*
X61849000Y-86360000D03*
X49911000Y-86614000D03*
G04 #@! TD*
D15*
G04 #@! TO.N,*
X64262000Y-45974000D02*
X65532000Y-45974000D01*
X62230000Y-43942000D02*
X64262000Y-45974000D01*
X60960000Y-43942000D02*
X62230000Y-43942000D01*
D16*
G04 #@! TO.N,VREF1*
X40259000Y-98552000D02*
X40259000Y-89154000D01*
X40259000Y-89154000D02*
X39497000Y-88392000D01*
X40259000Y-99314000D02*
X40259000Y-99060000D01*
X40259000Y-99060000D02*
X40259000Y-98552000D01*
D15*
G04 #@! TO.N,GND*
X97536000Y-42164000D02*
X88392000Y-42164000D01*
X117856000Y-42418000D02*
X117602000Y-42164000D01*
X117602000Y-42164000D02*
X97536000Y-42164000D01*
X118364000Y-42418000D02*
X124460000Y-42418000D01*
X125222000Y-41656000D02*
X124460000Y-42418000D01*
D16*
X153924000Y-51790600D02*
X153924000Y-50292000D01*
X153990000Y-51856600D02*
X153924000Y-51790600D01*
X153990000Y-51856600D02*
X155702000Y-51856600D01*
X127762000Y-41148000D02*
X127254000Y-41656000D01*
X136144000Y-41148000D02*
X127762000Y-41148000D01*
X139192000Y-44196000D02*
X136144000Y-41148000D01*
X148336000Y-44196000D02*
X139192000Y-44196000D01*
X151130000Y-46990000D02*
X148336000Y-44196000D01*
X151130000Y-47498000D02*
X151130000Y-46990000D01*
X153924000Y-50292000D02*
X151130000Y-47498000D01*
D15*
X127254000Y-41656000D02*
X125222000Y-41656000D01*
X118364000Y-42418000D02*
X117856000Y-42418000D01*
X88392000Y-42164000D02*
X87884000Y-42672000D01*
X103124000Y-55372000D02*
X103886000Y-56134000D01*
X94234000Y-55372000D02*
X103124000Y-55372000D01*
X93980000Y-55118000D02*
X94234000Y-55372000D01*
D16*
X152146000Y-51856600D02*
X155702000Y-51856600D01*
X31115000Y-95504000D02*
X32893000Y-95504000D01*
X32893000Y-93980000D02*
X31115000Y-93980000D01*
X31115000Y-91948000D02*
X32893000Y-91948000D01*
X32893000Y-90424000D02*
X31115000Y-90424000D01*
X37973000Y-95504000D02*
X36195000Y-95504000D01*
X36195000Y-93980000D02*
X37973000Y-93980000D01*
X37973000Y-91948000D02*
X36195000Y-91948000D01*
X36195000Y-90424000D02*
X37973000Y-90424000D01*
X42291000Y-95504000D02*
X44069000Y-95504000D01*
X44069000Y-93980000D02*
X42291000Y-93980000D01*
X42291000Y-91948000D02*
X44069000Y-91948000D01*
X44069000Y-90424000D02*
X42291000Y-90424000D01*
X50419000Y-90424000D02*
X48387000Y-90424000D01*
X48387000Y-91948000D02*
X50419000Y-91948000D01*
X50419000Y-93980000D02*
X48387000Y-93980000D01*
X48387000Y-95504000D02*
X50419000Y-95504000D01*
X54229000Y-95504000D02*
X56007000Y-95504000D01*
X55753000Y-94234000D02*
X54229000Y-93980000D01*
X56007000Y-93980000D02*
X55753000Y-94234000D01*
X54229000Y-91948000D02*
X56007000Y-91948000D01*
X56007000Y-90424000D02*
X54229000Y-90424000D01*
X62357000Y-95504000D02*
X60579000Y-95504000D01*
X60579000Y-93980000D02*
X62357000Y-93980000D01*
X62357000Y-91948000D02*
X60579000Y-91948000D01*
X60579000Y-90424000D02*
X62357000Y-90424000D01*
X72390000Y-116840000D02*
X72390000Y-118618000D01*
X72390000Y-118618000D02*
X70866000Y-118618000D01*
G04 #@! TO.N,VREF_DAC*
X106426000Y-113030000D02*
X106426000Y-114554000D01*
X103886000Y-113030000D02*
X103886000Y-114554000D01*
X117348000Y-114300000D02*
X118872000Y-114300000D01*
X119888000Y-115316000D02*
X119888000Y-117094000D01*
X118872000Y-114300000D02*
X119888000Y-115316000D01*
X117348000Y-113030000D02*
X117348000Y-114300000D01*
X117348000Y-114300000D02*
X117348000Y-117094000D01*
G04 #@! TO.N,Net-(R1-Pad2)*
X71120000Y-119380000D02*
X62484000Y-119380000D01*
X62484000Y-119380000D02*
X61976000Y-118872000D01*
X61976000Y-118872000D02*
X60198000Y-117094000D01*
X60198000Y-117094000D02*
X60198000Y-110490000D01*
X60198000Y-110490000D02*
X58166000Y-108458000D01*
X102616000Y-118872000D02*
X102616000Y-116586000D01*
X85852000Y-119380000D02*
X86614000Y-118618000D01*
X71120000Y-119380000D02*
X85852000Y-119380000D01*
G04 #@! TO.N,Net-(R2-Pad1)*
X38227000Y-89154000D02*
X38227000Y-86360000D01*
X38989000Y-89916000D02*
X38227000Y-89154000D01*
X38989000Y-99314000D02*
X38989000Y-89916000D01*
G04 #@! TO.N,Net-(R2-Pad2)*
X101092000Y-113284000D02*
X101092000Y-114554000D01*
X101092000Y-105156000D02*
X101092000Y-113284000D01*
X106680000Y-115570000D02*
X107696000Y-114554000D01*
X102108000Y-115570000D02*
X106680000Y-115570000D01*
X101092000Y-114554000D02*
X102108000Y-115570000D01*
G04 #@! TO.N,Net-(R3-Pad2)*
X114046000Y-103378000D02*
X114046000Y-115570000D01*
G04 #@! TO.N,Net-(R4-Pad2)*
X121158000Y-114554000D02*
X119380000Y-112776000D01*
X119380000Y-112776000D02*
X119380000Y-112014000D01*
X119380000Y-112014000D02*
X117602000Y-110236000D01*
X117602000Y-110236000D02*
X117602000Y-103378000D01*
X68961000Y-98298000D02*
X68961000Y-100076000D01*
X68961000Y-100076000D02*
X68961000Y-103378000D01*
G04 #@! TO.N,Net-(R10-Pad1)*
X51689000Y-89408000D02*
X51943000Y-89662000D01*
X51943000Y-89662000D02*
X51943000Y-98044000D01*
G04 #@! TO.N,POT1*
X128778000Y-50800000D02*
X127762000Y-49784000D01*
X128778000Y-54864000D02*
X128778000Y-50800000D01*
X129032000Y-55118000D02*
X128778000Y-54864000D01*
X127762000Y-49784000D02*
X128016000Y-50038000D01*
G04 #@! TO.N,POT2*
X149860000Y-59690000D02*
X149860000Y-55372000D01*
X153924000Y-63754000D02*
X149860000Y-59690000D01*
X153924000Y-71120000D02*
X153924000Y-63754000D01*
X154178000Y-71374000D02*
X153924000Y-71120000D01*
G04 #@! TO.N,POT4*
X156718000Y-101600000D02*
X155448000Y-102870000D01*
X156718000Y-86106000D02*
X156718000Y-101600000D01*
X154940000Y-84328000D02*
X156718000Y-86106000D01*
X154940000Y-63500000D02*
X154940000Y-84328000D01*
X150876000Y-59436000D02*
X154940000Y-63500000D01*
X150876000Y-55118000D02*
X150876000Y-59436000D01*
X150114000Y-54356000D02*
X150876000Y-55118000D01*
X150114000Y-48006000D02*
X150114000Y-54356000D01*
X150368000Y-47752000D02*
X150114000Y-48006000D01*
G04 #@! TO.N,DAC_SCK*
X127254000Y-107696000D02*
X135382000Y-107696000D01*
G04 #@! TO.N,DAC_LATCH*
X135128000Y-87630000D02*
X135128000Y-69088000D01*
G04 #@! TO.N,Net-(D1-Pad2)*
X152146000Y-54838600D02*
X152146000Y-53756600D01*
G04 #@! TO.N,Net-(D2-Pad2)*
X155702000Y-53756600D02*
X155702000Y-54838600D01*
G04 #@! TO.N,Net-(Q1-Pad1)*
X76454000Y-113792000D02*
X70358000Y-113792000D01*
X70358000Y-113792000D02*
X68834000Y-112268000D01*
G04 #@! TO.N,DAC1CS*
X105156000Y-108458000D02*
X105156000Y-105664000D01*
G04 #@! TO.N,DAC2CS*
X119634000Y-107442000D02*
X121158000Y-107442000D01*
X118618000Y-108458000D02*
X119634000Y-107442000D01*
X121158000Y-107442000D02*
X124968000Y-103632000D01*
G04 #@! TO.N,DAC3CS*
X138176000Y-67310000D02*
X138176000Y-62230000D01*
X138176000Y-62230000D02*
X137922000Y-61976000D01*
X137922000Y-61976000D02*
X133858000Y-61976000D01*
X134620000Y-67310000D02*
X138176000Y-67310000D01*
X133096000Y-68834000D02*
X134620000Y-67310000D01*
G04 #@! TO.N,Net-(SW1-Pad1)*
X153000000Y-73498000D02*
X153000000Y-89750000D01*
X152654000Y-73152000D02*
X153000000Y-73498000D01*
G04 #@! TO.N,Net-(JP1-Pad2)*
X77724000Y-43180000D02*
X78486000Y-43180000D01*
X60706000Y-50800000D02*
X60706000Y-48260000D01*
X60706000Y-50800000D02*
X60706000Y-56896000D01*
X60706000Y-56896000D02*
X54102000Y-63500000D01*
X60706000Y-48260000D02*
X61976000Y-46990000D01*
X108204000Y-43180000D02*
X108966000Y-43942000D01*
X110744000Y-45720000D02*
X108966000Y-43942000D01*
X90424000Y-43180000D02*
X108204000Y-43180000D01*
X89916000Y-43688000D02*
X90424000Y-43180000D01*
X87376000Y-43688000D02*
X89916000Y-43688000D01*
X85344000Y-41656000D02*
X87376000Y-43688000D01*
X80010000Y-41656000D02*
X85344000Y-41656000D01*
X78486000Y-43180000D02*
X80010000Y-41656000D01*
G04 #@! TO.N,PD_RF*
X60960000Y-69088000D02*
X57404000Y-69088000D01*
X136144000Y-64262000D02*
X121412000Y-64262000D01*
X136398000Y-64008000D02*
X136144000Y-64262000D01*
G04 #@! TO.N,Net-(C1-Pad2)*
X43180000Y-65786000D02*
X48260000Y-65786000D01*
G04 #@! TO.N,VREF*
X49530000Y-68580000D02*
X48260000Y-69850000D01*
X49530000Y-65786000D02*
X49530000Y-68580000D01*
X49784000Y-65532000D02*
X49530000Y-65786000D01*
G04 #@! TO.N,PD_BD*
X42164000Y-57658000D02*
X44704000Y-57658000D01*
X37084000Y-62738000D02*
X42164000Y-57658000D01*
X37084000Y-68580000D02*
X37084000Y-62738000D01*
X41148000Y-72644000D02*
X37084000Y-68580000D01*
X61722000Y-72644000D02*
X41148000Y-72644000D01*
X64262000Y-70104000D02*
X61722000Y-72644000D01*
X64262000Y-64770000D02*
X64262000Y-70104000D01*
X64516000Y-64516000D02*
X64262000Y-64770000D01*
G04 #@! TO.N,Net-(C5-Pad1)*
X57404000Y-49530000D02*
X58420000Y-48514000D01*
X56896000Y-49530000D02*
X57404000Y-49530000D01*
X55118000Y-51308000D02*
X56896000Y-49530000D01*
G04 #@! TO.N,PD_FE*
X118618000Y-65532000D02*
X128016000Y-65532000D01*
X44958000Y-68834000D02*
X44958000Y-67818000D01*
X47244000Y-71120000D02*
X44958000Y-68834000D01*
X53340000Y-71120000D02*
X47244000Y-71120000D01*
X56388000Y-68072000D02*
X53340000Y-71120000D01*
X58928000Y-68072000D02*
X56388000Y-68072000D01*
X61468000Y-65532000D02*
X58928000Y-68072000D01*
G04 #@! TO.N,PD_AC*
X42164000Y-71882000D02*
X39624000Y-69342000D01*
X60706000Y-71882000D02*
X42164000Y-71882000D01*
X63500000Y-69088000D02*
X60706000Y-71882000D01*
X63500000Y-63500000D02*
X63500000Y-69088000D01*
G04 #@! TO.N,RF1*
X107442000Y-44704000D02*
X110490000Y-47752000D01*
X105664000Y-44704000D02*
X107442000Y-44704000D01*
G04 #@! TO.N,T2+*
X86360000Y-44958000D02*
X80518000Y-44958000D01*
X80518000Y-44958000D02*
X76708000Y-48768000D01*
X76708000Y-48768000D02*
X76708000Y-71882000D01*
X76708000Y-71882000D02*
X75946000Y-72644000D01*
X68072000Y-80518000D02*
X75946000Y-72644000D01*
G04 #@! TO.N,T1+*
X30099000Y-99568000D02*
X30099000Y-87122000D01*
X31115000Y-86106000D02*
X30099000Y-87122000D01*
G04 #@! TO.N,F2+*
X75946000Y-47752000D02*
X75946000Y-48514000D01*
X79502000Y-44196000D02*
X75946000Y-47752000D01*
X84836000Y-44196000D02*
X79502000Y-44196000D01*
X73914000Y-72898000D02*
X73660000Y-72898000D01*
X75946000Y-70866000D02*
X73914000Y-72898000D01*
X75946000Y-54610000D02*
X75946000Y-70866000D01*
X75946000Y-48514000D02*
X75946000Y-54610000D01*
X67437000Y-97790000D02*
X68961000Y-96266000D01*
X67437000Y-103886000D02*
X67437000Y-101092000D01*
X67437000Y-101092000D02*
X67437000Y-97790000D01*
G04 #@! TO.N,VCC_BLUE*
X50800000Y-69342000D02*
X50292000Y-69850000D01*
X50800000Y-64262000D02*
X50800000Y-69342000D01*
X48260000Y-61722000D02*
X50800000Y-64262000D01*
X49784000Y-54102000D02*
X48260000Y-55626000D01*
D15*
X136652000Y-112268000D02*
X122428000Y-112268000D01*
X122936000Y-47244000D02*
X127254000Y-47244000D01*
X127254000Y-47244000D02*
X141732000Y-47244000D01*
X141732000Y-47244000D02*
X144526000Y-50038000D01*
X144526000Y-50038000D02*
X148590000Y-50038000D01*
X95758000Y-43942000D02*
X93472000Y-43942000D01*
X40513000Y-85852000D02*
X39243000Y-84582000D01*
X39243000Y-84582000D02*
X36703000Y-84582000D01*
X36703000Y-84582000D02*
X34671000Y-84582000D01*
X40513000Y-88138000D02*
X40513000Y-85852000D01*
X30353000Y-85090000D02*
X29337000Y-86106000D01*
X31369000Y-85090000D02*
X30353000Y-85090000D01*
X31877000Y-84582000D02*
X31369000Y-85090000D01*
X34671000Y-84582000D02*
X31877000Y-84582000D01*
X72136000Y-108458000D02*
X72136000Y-99822000D01*
X59182000Y-107188000D02*
X57658000Y-107188000D01*
X54864000Y-109982000D02*
X54864000Y-112776000D01*
X57658000Y-107188000D02*
X54864000Y-109982000D01*
X79248000Y-108458000D02*
X72136000Y-108458000D01*
X72136000Y-108458000D02*
X71882000Y-108458000D01*
X56642000Y-104648000D02*
X53213000Y-104648000D01*
X59182000Y-107188000D02*
X56642000Y-104648000D01*
X70612000Y-107188000D02*
X59182000Y-107188000D01*
X71882000Y-108458000D02*
X70612000Y-107188000D01*
X122428000Y-114554000D02*
X122428000Y-112268000D01*
D16*
X49784000Y-76454000D02*
X49784000Y-84836000D01*
X49784000Y-76454000D02*
X40132000Y-76454000D01*
X28194000Y-76454000D02*
X26670000Y-77978000D01*
X26670000Y-77978000D02*
X25146000Y-77978000D01*
D15*
X52705000Y-88138000D02*
X64897000Y-88138000D01*
X64897000Y-88138000D02*
X65659000Y-88900000D01*
X40513000Y-88138000D02*
X40259000Y-88138000D01*
X52705000Y-88138000D02*
X40513000Y-88138000D01*
X79248000Y-108458000D02*
X78486000Y-109220000D01*
X81534000Y-108458000D02*
X79248000Y-108458000D01*
X81788000Y-108204000D02*
X81534000Y-108458000D01*
D16*
X108966000Y-112268000D02*
X108966000Y-114554000D01*
X95758000Y-112268000D02*
X95758000Y-114300000D01*
X102616000Y-112268000D02*
X102616000Y-110490000D01*
X116078000Y-112268000D02*
X116078000Y-110490000D01*
X48260000Y-56578500D02*
X48260000Y-56451500D01*
X48260000Y-56578500D02*
X48260000Y-61722000D01*
X48260000Y-55626000D02*
X48260000Y-56578500D01*
X36766500Y-76454000D02*
X36766500Y-70231000D01*
X36766500Y-76454000D02*
X28194000Y-76454000D01*
X40132000Y-76454000D02*
X36766500Y-76454000D01*
X36766500Y-70231000D02*
X36068000Y-69532500D01*
X36068000Y-69532500D02*
X36068000Y-60452000D01*
X40894000Y-55626000D02*
X48260000Y-55626000D01*
X36068000Y-60452000D02*
X40894000Y-55626000D01*
G04 #@! TO.N,INTENSITY*
X92964000Y-46482000D02*
X92964000Y-45974000D01*
X92964000Y-46482000D02*
X92964000Y-59690000D01*
X92964000Y-45974000D02*
X92456000Y-45466000D01*
X92964000Y-59690000D02*
X92964000Y-68326000D01*
X83820000Y-113538000D02*
X82804000Y-114554000D01*
X83820000Y-102616000D02*
X83820000Y-113538000D01*
X82550000Y-101346000D02*
X83820000Y-102616000D01*
X88392000Y-115570000D02*
X83566000Y-115570000D01*
X83566000Y-115570000D02*
X82804000Y-114808000D01*
X82804000Y-114808000D02*
X82804000Y-114554000D01*
G04 #@! TO.N,Net-(R24-Pad1)*
X49784000Y-59690000D02*
X53594000Y-59690000D01*
G04 #@! TO.N,D_SIG*
X63000000Y-61000000D02*
X62500000Y-60500000D01*
X73500000Y-61000000D02*
X63000000Y-61000000D01*
X74000000Y-61500000D02*
X73500000Y-61000000D01*
G04 #@! TO.N,Net-(R32-Pad1)*
X53340000Y-47752000D02*
X50038000Y-47752000D01*
D15*
G04 #@! TO.N,OFFSET*
X89408000Y-112522000D02*
X89408000Y-116586000D01*
D16*
X84328000Y-99568000D02*
X84074000Y-99568000D01*
X87630000Y-102870000D02*
X84328000Y-99568000D01*
X87630000Y-110744000D02*
X87630000Y-102870000D01*
X89408000Y-112522000D02*
X87630000Y-110744000D01*
D15*
X89408000Y-116586000D02*
X88138000Y-117856000D01*
D16*
X68326000Y-83312000D02*
X69850000Y-84836000D01*
X68326000Y-83312000D02*
X66802000Y-81788000D01*
X79756000Y-99568000D02*
X84074000Y-99568000D01*
X84074000Y-99568000D02*
X78994000Y-99568000D01*
G04 #@! TO.N,C_SIG*
X79000000Y-52500000D02*
X77500000Y-51000000D01*
X79000000Y-56500000D02*
X79000000Y-52500000D01*
X78500000Y-57000000D02*
X79000000Y-56500000D01*
G04 #@! TO.N,SEL2*
X90932000Y-55118000D02*
X90932000Y-58420000D01*
G04 #@! TO.N,SEL1*
X92202000Y-55118000D02*
X92202000Y-58928000D01*
G04 #@! TO.N,F-*
X69342000Y-90170000D02*
X64643000Y-90170000D01*
X71120000Y-88392000D02*
X69342000Y-90170000D01*
X77978000Y-54102000D02*
X77470000Y-54610000D01*
X77470000Y-54610000D02*
X77470000Y-75184000D01*
X77470000Y-75184000D02*
X71120000Y-81534000D01*
X71120000Y-81534000D02*
X71120000Y-88392000D01*
X64643000Y-90170000D02*
X63881000Y-89408000D01*
X54991000Y-86360000D02*
X54991000Y-86614000D01*
X63881000Y-89408000D02*
X63881000Y-97790000D01*
X54991000Y-86614000D02*
X55245000Y-86614000D01*
X55245000Y-86614000D02*
X55499000Y-86360000D01*
X55499000Y-86360000D02*
X55753000Y-86360000D01*
X61849000Y-86360000D02*
X55753000Y-86360000D01*
X49911000Y-86614000D02*
X54991000Y-86614000D01*
G04 #@! TD*
D17*
G04 #@! TO.N,GND*
G36*
X158475000Y-44217462D02*
X158475001Y-66906374D01*
X158471265Y-66916516D01*
X158475001Y-67010452D01*
X158475001Y-67051706D01*
X158477052Y-67062016D01*
X158479565Y-67125208D01*
X158497236Y-67163492D01*
X158505462Y-67204845D01*
X158540595Y-67257425D01*
X158545002Y-67266973D01*
X158569277Y-67300352D01*
X158621497Y-67378504D01*
X158630481Y-67384507D01*
X166475000Y-78170723D01*
X166475001Y-110782537D01*
X162782539Y-114475000D01*
X141082269Y-114475000D01*
X141061177Y-114468223D01*
X140978521Y-114475000D01*
X140948294Y-114475000D01*
X140927098Y-114479216D01*
X140853018Y-114485290D01*
X140825499Y-114499425D01*
X140795155Y-114505461D01*
X140733345Y-114546761D01*
X140714130Y-114556631D01*
X140690467Y-114575411D01*
X140621496Y-114621496D01*
X140609185Y-114639921D01*
X134516984Y-119475000D01*
X103215081Y-119475000D01*
X103336595Y-119353486D01*
X103466000Y-119041075D01*
X103466000Y-118702925D01*
X103336595Y-118390514D01*
X103191000Y-118244919D01*
X103191000Y-117213081D01*
X103336595Y-117067486D01*
X103466000Y-116755075D01*
X103466000Y-116416925D01*
X103353365Y-116145000D01*
X106623377Y-116145000D01*
X106680000Y-116156263D01*
X106736623Y-116145000D01*
X106736628Y-116145000D01*
X106904354Y-116111637D01*
X107094551Y-115984551D01*
X107126629Y-115936543D01*
X107659173Y-115404000D01*
X107865075Y-115404000D01*
X108177486Y-115274595D01*
X108331000Y-115121081D01*
X108484514Y-115274595D01*
X108796925Y-115404000D01*
X109135075Y-115404000D01*
X109447486Y-115274595D01*
X109686595Y-115035486D01*
X109816000Y-114723075D01*
X109816000Y-114384925D01*
X109686595Y-114072514D01*
X109541000Y-113926919D01*
X109541000Y-112895081D01*
X109686595Y-112749486D01*
X109816000Y-112437075D01*
X109816000Y-112098925D01*
X109686595Y-111786514D01*
X109447486Y-111547405D01*
X109135075Y-111418000D01*
X108796925Y-111418000D01*
X108484514Y-111547405D01*
X108245405Y-111786514D01*
X108116000Y-112098925D01*
X108116000Y-112437075D01*
X108245405Y-112749486D01*
X108391000Y-112895081D01*
X108391001Y-113926918D01*
X108331000Y-113986919D01*
X108177486Y-113833405D01*
X107865075Y-113704000D01*
X107526925Y-113704000D01*
X107214514Y-113833405D01*
X107061000Y-113986919D01*
X107001000Y-113926919D01*
X107001000Y-113657081D01*
X107146595Y-113511486D01*
X107276000Y-113199075D01*
X107276000Y-112860925D01*
X107146595Y-112548514D01*
X106907486Y-112309405D01*
X106595075Y-112180000D01*
X106256925Y-112180000D01*
X105944514Y-112309405D01*
X105705405Y-112548514D01*
X105576000Y-112860925D01*
X105576000Y-113199075D01*
X105705405Y-113511486D01*
X105851000Y-113657081D01*
X105851001Y-113926918D01*
X105705405Y-114072514D01*
X105576000Y-114384925D01*
X105576000Y-114723075D01*
X105688635Y-114995000D01*
X104623365Y-114995000D01*
X104736000Y-114723075D01*
X104736000Y-114384925D01*
X104606595Y-114072514D01*
X104461000Y-113926919D01*
X104461000Y-113657081D01*
X104606595Y-113511486D01*
X104736000Y-113199075D01*
X104736000Y-112860925D01*
X104606595Y-112548514D01*
X104367486Y-112309405D01*
X104055075Y-112180000D01*
X103716925Y-112180000D01*
X103466000Y-112283937D01*
X103466000Y-112098925D01*
X103336595Y-111786514D01*
X103191000Y-111640919D01*
X103191000Y-111117081D01*
X103336595Y-110971486D01*
X103466000Y-110659075D01*
X103466000Y-110320925D01*
X103336595Y-110008514D01*
X103097486Y-109769405D01*
X102785075Y-109640000D01*
X102446925Y-109640000D01*
X102134514Y-109769405D01*
X101895405Y-110008514D01*
X101766000Y-110320925D01*
X101766000Y-110659075D01*
X101895405Y-110971486D01*
X102041001Y-111117082D01*
X102041000Y-111640919D01*
X101895405Y-111786514D01*
X101766000Y-112098925D01*
X101766000Y-112437075D01*
X101895405Y-112749486D01*
X102134514Y-112988595D01*
X102446925Y-113118000D01*
X102785075Y-113118000D01*
X103036000Y-113014063D01*
X103036000Y-113199075D01*
X103165405Y-113511486D01*
X103311000Y-113657081D01*
X103311001Y-113926918D01*
X103165405Y-114072514D01*
X103036000Y-114384925D01*
X103036000Y-114723075D01*
X103148635Y-114995000D01*
X102346173Y-114995000D01*
X101667000Y-114315828D01*
X101667000Y-105783081D01*
X101812595Y-105637486D01*
X101871645Y-105494925D01*
X104306000Y-105494925D01*
X104306000Y-105833075D01*
X104435405Y-106145486D01*
X104581001Y-106291082D01*
X104581000Y-107830919D01*
X104435405Y-107976514D01*
X104306000Y-108288925D01*
X104306000Y-108627075D01*
X104435405Y-108939486D01*
X104674514Y-109178595D01*
X104986925Y-109308000D01*
X105325075Y-109308000D01*
X105637486Y-109178595D01*
X105876595Y-108939486D01*
X106006000Y-108627075D01*
X106006000Y-108288925D01*
X105876595Y-107976514D01*
X105731000Y-107830919D01*
X105731000Y-106291081D01*
X105876595Y-106145486D01*
X106006000Y-105833075D01*
X106006000Y-105494925D01*
X105876595Y-105182514D01*
X105637486Y-104943405D01*
X105325075Y-104814000D01*
X104986925Y-104814000D01*
X104674514Y-104943405D01*
X104435405Y-105182514D01*
X104306000Y-105494925D01*
X101871645Y-105494925D01*
X101942000Y-105325075D01*
X101942000Y-104986925D01*
X101812595Y-104674514D01*
X101573486Y-104435405D01*
X101261075Y-104306000D01*
X100922925Y-104306000D01*
X100610514Y-104435405D01*
X100371405Y-104674514D01*
X100242000Y-104986925D01*
X100242000Y-105325075D01*
X100371405Y-105637486D01*
X100517000Y-105783081D01*
X100517001Y-113227368D01*
X100517000Y-113227373D01*
X100517001Y-114497372D01*
X100505737Y-114554000D01*
X100550363Y-114778352D01*
X100645372Y-114920544D01*
X100645373Y-114920545D01*
X100677450Y-114968551D01*
X100725455Y-115000627D01*
X101661373Y-115936546D01*
X101693449Y-115984551D01*
X101883646Y-116111637D01*
X101891784Y-116113256D01*
X101766000Y-116416925D01*
X101766000Y-116755075D01*
X101895405Y-117067486D01*
X102041001Y-117213082D01*
X102041000Y-118244919D01*
X101895405Y-118390514D01*
X101766000Y-118702925D01*
X101766000Y-119041075D01*
X101895405Y-119353486D01*
X102016919Y-119475000D01*
X86570172Y-119475000D01*
X86577172Y-119468000D01*
X86783075Y-119468000D01*
X87095486Y-119338595D01*
X87334595Y-119099486D01*
X87464000Y-118787075D01*
X87464000Y-118448925D01*
X87418148Y-118338229D01*
X87656514Y-118576595D01*
X87968925Y-118706000D01*
X88307075Y-118706000D01*
X88619486Y-118576595D01*
X88858595Y-118337486D01*
X88988000Y-118025075D01*
X88988000Y-117925238D01*
X89822351Y-117090888D01*
X89876624Y-117054624D01*
X90020286Y-116839617D01*
X90058000Y-116650018D01*
X90058000Y-116650017D01*
X90070734Y-116586001D01*
X90058000Y-116521984D01*
X90058000Y-112457982D01*
X90020286Y-112268383D01*
X89907059Y-112098925D01*
X94908000Y-112098925D01*
X94908000Y-112437075D01*
X95037405Y-112749486D01*
X95183000Y-112895081D01*
X95183001Y-113672918D01*
X95037405Y-113818514D01*
X94908000Y-114130925D01*
X94908000Y-114469075D01*
X95037405Y-114781486D01*
X95276514Y-115020595D01*
X95588925Y-115150000D01*
X95927075Y-115150000D01*
X96239486Y-115020595D01*
X96478595Y-114781486D01*
X96608000Y-114469075D01*
X96608000Y-114130925D01*
X96478595Y-113818514D01*
X96333000Y-113672919D01*
X96333000Y-112895081D01*
X96478595Y-112749486D01*
X96608000Y-112437075D01*
X96608000Y-112098925D01*
X96478595Y-111786514D01*
X96239486Y-111547405D01*
X95927075Y-111418000D01*
X95588925Y-111418000D01*
X95276514Y-111547405D01*
X95037405Y-111786514D01*
X94908000Y-112098925D01*
X89907059Y-112098925D01*
X89876624Y-112053376D01*
X89661616Y-111909714D01*
X89595794Y-111896621D01*
X88205000Y-110505828D01*
X88205000Y-103208925D01*
X113196000Y-103208925D01*
X113196000Y-103547075D01*
X113325405Y-103859486D01*
X113471000Y-104005081D01*
X113471001Y-114942918D01*
X113325405Y-115088514D01*
X113196000Y-115400925D01*
X113196000Y-115739075D01*
X113325405Y-116051486D01*
X113564514Y-116290595D01*
X113876925Y-116420000D01*
X114215075Y-116420000D01*
X114527486Y-116290595D01*
X114766595Y-116051486D01*
X114896000Y-115739075D01*
X114896000Y-115400925D01*
X114766595Y-115088514D01*
X114621000Y-114942919D01*
X114621000Y-110320925D01*
X115228000Y-110320925D01*
X115228000Y-110659075D01*
X115357405Y-110971486D01*
X115503001Y-111117082D01*
X115503000Y-111640919D01*
X115357405Y-111786514D01*
X115228000Y-112098925D01*
X115228000Y-112437075D01*
X115357405Y-112749486D01*
X115596514Y-112988595D01*
X115908925Y-113118000D01*
X116247075Y-113118000D01*
X116498000Y-113014063D01*
X116498000Y-113199075D01*
X116627405Y-113511486D01*
X116773000Y-113657081D01*
X116773001Y-114243368D01*
X116761736Y-114300000D01*
X116773000Y-114356628D01*
X116773001Y-116466918D01*
X116627405Y-116612514D01*
X116498000Y-116924925D01*
X116498000Y-117263075D01*
X116627405Y-117575486D01*
X116866514Y-117814595D01*
X117178925Y-117944000D01*
X117517075Y-117944000D01*
X117829486Y-117814595D01*
X118068595Y-117575486D01*
X118198000Y-117263075D01*
X118198000Y-116924925D01*
X118068595Y-116612514D01*
X117923000Y-116466919D01*
X117923000Y-114875000D01*
X118633828Y-114875000D01*
X119313000Y-115554173D01*
X119313001Y-116466918D01*
X119167405Y-116612514D01*
X119038000Y-116924925D01*
X119038000Y-117263075D01*
X119167405Y-117575486D01*
X119406514Y-117814595D01*
X119718925Y-117944000D01*
X120057075Y-117944000D01*
X120369486Y-117814595D01*
X120608595Y-117575486D01*
X120738000Y-117263075D01*
X120738000Y-116924925D01*
X120608595Y-116612514D01*
X120463000Y-116466919D01*
X120463000Y-115372623D01*
X120474263Y-115316000D01*
X120463000Y-115259376D01*
X120463000Y-115259372D01*
X120429637Y-115091646D01*
X120302551Y-114901449D01*
X120254546Y-114869373D01*
X119318629Y-113933457D01*
X119286551Y-113885449D01*
X119096354Y-113758363D01*
X118928628Y-113725000D01*
X118928623Y-113725000D01*
X118872000Y-113713737D01*
X118815377Y-113725000D01*
X117923000Y-113725000D01*
X117923000Y-113657081D01*
X118068595Y-113511486D01*
X118198000Y-113199075D01*
X118198000Y-112860925D01*
X118068595Y-112548514D01*
X117829486Y-112309405D01*
X117517075Y-112180000D01*
X117178925Y-112180000D01*
X116928000Y-112283937D01*
X116928000Y-112098925D01*
X116798595Y-111786514D01*
X116653000Y-111640919D01*
X116653000Y-111117081D01*
X116798595Y-110971486D01*
X116928000Y-110659075D01*
X116928000Y-110320925D01*
X116798595Y-110008514D01*
X116559486Y-109769405D01*
X116247075Y-109640000D01*
X115908925Y-109640000D01*
X115596514Y-109769405D01*
X115357405Y-110008514D01*
X115228000Y-110320925D01*
X114621000Y-110320925D01*
X114621000Y-104005081D01*
X114766595Y-103859486D01*
X114896000Y-103547075D01*
X114896000Y-103208925D01*
X116752000Y-103208925D01*
X116752000Y-103547075D01*
X116881405Y-103859486D01*
X117027001Y-104005082D01*
X117027000Y-110179377D01*
X117015737Y-110236000D01*
X117027000Y-110292623D01*
X117027000Y-110292627D01*
X117060363Y-110460353D01*
X117187449Y-110650551D01*
X117235457Y-110682629D01*
X118805000Y-112252173D01*
X118805000Y-112719377D01*
X118793737Y-112776000D01*
X118805000Y-112832623D01*
X118805000Y-112832627D01*
X118838363Y-113000353D01*
X118965449Y-113190551D01*
X119013457Y-113222629D01*
X120308000Y-114517173D01*
X120308000Y-114723075D01*
X120437405Y-115035486D01*
X120676514Y-115274595D01*
X120988925Y-115404000D01*
X121327075Y-115404000D01*
X121639486Y-115274595D01*
X121793000Y-115121081D01*
X121946514Y-115274595D01*
X122258925Y-115404000D01*
X122597075Y-115404000D01*
X122909486Y-115274595D01*
X123148595Y-115035486D01*
X123278000Y-114723075D01*
X123278000Y-114384925D01*
X123148595Y-114072514D01*
X123078000Y-114001919D01*
X123078000Y-112918000D01*
X136099919Y-112918000D01*
X136170514Y-112988595D01*
X136482925Y-113118000D01*
X136821075Y-113118000D01*
X137133486Y-112988595D01*
X137372595Y-112749486D01*
X137502000Y-112437075D01*
X137502000Y-112098925D01*
X137372595Y-111786514D01*
X137133486Y-111547405D01*
X136821075Y-111418000D01*
X136482925Y-111418000D01*
X136170514Y-111547405D01*
X136099919Y-111618000D01*
X122980081Y-111618000D01*
X122909486Y-111547405D01*
X122597075Y-111418000D01*
X122258925Y-111418000D01*
X121946514Y-111547405D01*
X121707405Y-111786514D01*
X121578000Y-112098925D01*
X121578000Y-112437075D01*
X121707405Y-112749486D01*
X121778001Y-112820082D01*
X121778000Y-113971919D01*
X121639486Y-113833405D01*
X121327075Y-113704000D01*
X121121173Y-113704000D01*
X119955000Y-112537828D01*
X119955000Y-112070624D01*
X119966263Y-112014000D01*
X119955000Y-111957376D01*
X119955000Y-111957372D01*
X119921637Y-111789646D01*
X119794551Y-111599449D01*
X119746546Y-111567373D01*
X118781348Y-110602175D01*
X147000000Y-110602175D01*
X147000000Y-111397825D01*
X147304482Y-112132909D01*
X147867091Y-112695518D01*
X148602175Y-113000000D01*
X149397825Y-113000000D01*
X150132909Y-112695518D01*
X150695518Y-112132909D01*
X151000000Y-111397825D01*
X151000000Y-110602175D01*
X150695518Y-109867091D01*
X150142179Y-109313752D01*
X158550000Y-109313752D01*
X158550000Y-110686248D01*
X159075232Y-111954268D01*
X160045732Y-112924768D01*
X161313752Y-113450000D01*
X162686248Y-113450000D01*
X163954268Y-112924768D01*
X164924768Y-111954268D01*
X165450000Y-110686248D01*
X165450000Y-109313752D01*
X164924768Y-108045732D01*
X163954268Y-107075232D01*
X162686248Y-106550000D01*
X161313752Y-106550000D01*
X160045732Y-107075232D01*
X159075232Y-108045732D01*
X158550000Y-109313752D01*
X150142179Y-109313752D01*
X150132909Y-109304482D01*
X149397825Y-109000000D01*
X148602175Y-109000000D01*
X147867091Y-109304482D01*
X147304482Y-109867091D01*
X147000000Y-110602175D01*
X118781348Y-110602175D01*
X118177000Y-109997828D01*
X118177000Y-109195365D01*
X118448925Y-109308000D01*
X118787075Y-109308000D01*
X119099486Y-109178595D01*
X119338595Y-108939486D01*
X119468000Y-108627075D01*
X119468000Y-108421172D01*
X119872173Y-108017000D01*
X121101377Y-108017000D01*
X121158000Y-108028263D01*
X121214623Y-108017000D01*
X121214628Y-108017000D01*
X121382354Y-107983637D01*
X121572551Y-107856551D01*
X121604629Y-107808543D01*
X121886247Y-107526925D01*
X126404000Y-107526925D01*
X126404000Y-107865075D01*
X126533405Y-108177486D01*
X126772514Y-108416595D01*
X127084925Y-108546000D01*
X127423075Y-108546000D01*
X127735486Y-108416595D01*
X127881081Y-108271000D01*
X134754919Y-108271000D01*
X134900514Y-108416595D01*
X135212925Y-108546000D01*
X135551075Y-108546000D01*
X135863486Y-108416595D01*
X136102595Y-108177486D01*
X136232000Y-107865075D01*
X136232000Y-107526925D01*
X136102595Y-107214514D01*
X135863486Y-106975405D01*
X135551075Y-106846000D01*
X135212925Y-106846000D01*
X134900514Y-106975405D01*
X134754919Y-107121000D01*
X127881081Y-107121000D01*
X127735486Y-106975405D01*
X127423075Y-106846000D01*
X127084925Y-106846000D01*
X126772514Y-106975405D01*
X126533405Y-107214514D01*
X126404000Y-107526925D01*
X121886247Y-107526925D01*
X124931173Y-104482000D01*
X125137075Y-104482000D01*
X125449486Y-104352595D01*
X125688595Y-104113486D01*
X125818000Y-103801075D01*
X125818000Y-103462925D01*
X125688595Y-103150514D01*
X125449486Y-102911405D01*
X125137075Y-102782000D01*
X124798925Y-102782000D01*
X124486514Y-102911405D01*
X124247405Y-103150514D01*
X124118000Y-103462925D01*
X124118000Y-103668827D01*
X120919828Y-106867000D01*
X119690623Y-106867000D01*
X119634000Y-106855737D01*
X119577376Y-106867000D01*
X119577372Y-106867000D01*
X119409646Y-106900363D01*
X119219449Y-107027449D01*
X119187373Y-107075454D01*
X118654828Y-107608000D01*
X118448925Y-107608000D01*
X118177000Y-107720635D01*
X118177000Y-104005081D01*
X118322595Y-103859486D01*
X118452000Y-103547075D01*
X118452000Y-103208925D01*
X118322595Y-102896514D01*
X118083486Y-102657405D01*
X117771075Y-102528000D01*
X117432925Y-102528000D01*
X117120514Y-102657405D01*
X116881405Y-102896514D01*
X116752000Y-103208925D01*
X114896000Y-103208925D01*
X114766595Y-102896514D01*
X114527486Y-102657405D01*
X114215075Y-102528000D01*
X113876925Y-102528000D01*
X113564514Y-102657405D01*
X113325405Y-102896514D01*
X113196000Y-103208925D01*
X88205000Y-103208925D01*
X88205000Y-102926623D01*
X88216263Y-102869999D01*
X88205000Y-102813375D01*
X88205000Y-102813372D01*
X88171637Y-102645646D01*
X88076628Y-102503455D01*
X88076627Y-102503454D01*
X88044551Y-102455449D01*
X87996546Y-102423373D01*
X84774629Y-99201457D01*
X84742551Y-99153449D01*
X84552354Y-99026363D01*
X84384628Y-98993000D01*
X84384623Y-98993000D01*
X84328000Y-98981737D01*
X84271377Y-98993000D01*
X80383081Y-98993000D01*
X80237486Y-98847405D01*
X79925075Y-98718000D01*
X79586925Y-98718000D01*
X79274514Y-98847405D01*
X79128919Y-98993000D01*
X78937372Y-98993000D01*
X78769646Y-99026363D01*
X78579449Y-99153449D01*
X78452363Y-99343646D01*
X78407736Y-99568000D01*
X78452363Y-99792354D01*
X78579449Y-99982551D01*
X78769646Y-100109637D01*
X78937372Y-100143000D01*
X79128919Y-100143000D01*
X79274514Y-100288595D01*
X79586925Y-100418000D01*
X79925075Y-100418000D01*
X80237486Y-100288595D01*
X80383081Y-100143000D01*
X84089828Y-100143000D01*
X87055001Y-103108174D01*
X87055000Y-110687377D01*
X87043737Y-110744000D01*
X87055000Y-110800623D01*
X87055000Y-110800627D01*
X87088363Y-110968353D01*
X87215449Y-111158551D01*
X87263457Y-111190629D01*
X88758000Y-112685173D01*
X88758001Y-114801569D01*
X88561075Y-114720000D01*
X88222925Y-114720000D01*
X87910514Y-114849405D01*
X87764919Y-114995000D01*
X83804173Y-114995000D01*
X83618340Y-114809167D01*
X83654000Y-114723075D01*
X83654000Y-114517172D01*
X84186546Y-113984627D01*
X84234551Y-113952551D01*
X84361637Y-113762354D01*
X84395000Y-113594628D01*
X84395000Y-113594624D01*
X84406263Y-113538000D01*
X84395000Y-113481377D01*
X84395000Y-102672623D01*
X84406263Y-102615999D01*
X84395000Y-102559373D01*
X84395000Y-102559372D01*
X84361637Y-102391646D01*
X84234551Y-102201449D01*
X84186546Y-102169373D01*
X83400000Y-101382828D01*
X83400000Y-101176925D01*
X83270595Y-100864514D01*
X83031486Y-100625405D01*
X82719075Y-100496000D01*
X82380925Y-100496000D01*
X82068514Y-100625405D01*
X81829405Y-100864514D01*
X81700000Y-101176925D01*
X81700000Y-101515075D01*
X81829405Y-101827486D01*
X82068514Y-102066595D01*
X82380925Y-102196000D01*
X82586828Y-102196000D01*
X83245000Y-102854173D01*
X83245001Y-113299826D01*
X82840828Y-113704000D01*
X82634925Y-113704000D01*
X82322514Y-113833405D01*
X82083405Y-114072514D01*
X81954000Y-114384925D01*
X81954000Y-114723075D01*
X82083405Y-115035486D01*
X82322514Y-115274595D01*
X82552818Y-115369990D01*
X83119373Y-115936546D01*
X83151449Y-115984551D01*
X83341646Y-116111637D01*
X83509372Y-116145000D01*
X83509376Y-116145000D01*
X83566000Y-116156263D01*
X83622624Y-116145000D01*
X87764919Y-116145000D01*
X87910514Y-116290595D01*
X88222925Y-116420000D01*
X88561075Y-116420000D01*
X88721008Y-116353754D01*
X88068762Y-117006000D01*
X87968925Y-117006000D01*
X87656514Y-117135405D01*
X87417405Y-117374514D01*
X87288000Y-117686925D01*
X87288000Y-118025075D01*
X87333852Y-118135771D01*
X87095486Y-117897405D01*
X86783075Y-117768000D01*
X86444925Y-117768000D01*
X86132514Y-117897405D01*
X85893405Y-118136514D01*
X85764000Y-118448925D01*
X85764000Y-118654828D01*
X85613828Y-118805000D01*
X62722173Y-118805000D01*
X62422630Y-118505458D01*
X62422628Y-118505455D01*
X60773000Y-116855828D01*
X60773000Y-112098925D01*
X67984000Y-112098925D01*
X67984000Y-112437075D01*
X68113405Y-112749486D01*
X68352514Y-112988595D01*
X68664925Y-113118000D01*
X68870828Y-113118000D01*
X69911373Y-114158546D01*
X69943449Y-114206551D01*
X69991454Y-114238627D01*
X69991455Y-114238628D01*
X70043624Y-114273486D01*
X70133646Y-114333637D01*
X70301372Y-114367000D01*
X70301375Y-114367000D01*
X70357999Y-114378263D01*
X70414623Y-114367000D01*
X75826919Y-114367000D01*
X75972514Y-114512595D01*
X76284925Y-114642000D01*
X76623075Y-114642000D01*
X76935486Y-114512595D01*
X77174595Y-114273486D01*
X77304000Y-113961075D01*
X77304000Y-113622925D01*
X77174595Y-113310514D01*
X76935486Y-113071405D01*
X76623075Y-112942000D01*
X76284925Y-112942000D01*
X75972514Y-113071405D01*
X75826919Y-113217000D01*
X70596173Y-113217000D01*
X69684000Y-112304828D01*
X69684000Y-112098925D01*
X69554595Y-111786514D01*
X69315486Y-111547405D01*
X69003075Y-111418000D01*
X68664925Y-111418000D01*
X68352514Y-111547405D01*
X68113405Y-111786514D01*
X67984000Y-112098925D01*
X60773000Y-112098925D01*
X60773000Y-110546623D01*
X60784263Y-110490000D01*
X60773000Y-110433376D01*
X60773000Y-110433372D01*
X60739637Y-110265646D01*
X60612551Y-110075449D01*
X60564546Y-110043373D01*
X59016000Y-108494828D01*
X59016000Y-108288925D01*
X58886595Y-107976514D01*
X58748081Y-107838000D01*
X59117983Y-107838000D01*
X59181999Y-107850734D01*
X59246015Y-107838000D01*
X70342763Y-107838000D01*
X71377112Y-108872351D01*
X71413376Y-108926624D01*
X71628383Y-109070286D01*
X71817982Y-109108000D01*
X71817983Y-109108000D01*
X71881999Y-109120734D01*
X71946016Y-109108000D01*
X72071982Y-109108000D01*
X72136000Y-109120734D01*
X72200017Y-109108000D01*
X77636000Y-109108000D01*
X77636000Y-109389075D01*
X77765405Y-109701486D01*
X78004514Y-109940595D01*
X78316925Y-110070000D01*
X78655075Y-110070000D01*
X78967486Y-109940595D01*
X79206595Y-109701486D01*
X79336000Y-109389075D01*
X79336000Y-109289238D01*
X79517238Y-109108000D01*
X81469984Y-109108000D01*
X81534000Y-109120734D01*
X81598016Y-109108000D01*
X81598018Y-109108000D01*
X81787617Y-109070286D01*
X81811991Y-109054000D01*
X81957075Y-109054000D01*
X82269486Y-108924595D01*
X82508595Y-108685486D01*
X82638000Y-108373075D01*
X82638000Y-108034925D01*
X82508595Y-107722514D01*
X82269486Y-107483405D01*
X81957075Y-107354000D01*
X81618925Y-107354000D01*
X81306514Y-107483405D01*
X81067405Y-107722514D01*
X81031996Y-107808000D01*
X79312018Y-107808000D01*
X79248000Y-107795266D01*
X79183982Y-107808000D01*
X72786000Y-107808000D01*
X72786000Y-100374081D01*
X72856595Y-100303486D01*
X72986000Y-99991075D01*
X72986000Y-99652925D01*
X72856595Y-99340514D01*
X72617486Y-99101405D01*
X72305075Y-98972000D01*
X71966925Y-98972000D01*
X71654514Y-99101405D01*
X71415405Y-99340514D01*
X71286000Y-99652925D01*
X71286000Y-99991075D01*
X71415405Y-100303486D01*
X71486001Y-100374082D01*
X71486000Y-107142762D01*
X71116891Y-106773654D01*
X71080624Y-106719376D01*
X70865617Y-106575714D01*
X70676018Y-106538000D01*
X70676016Y-106538000D01*
X70612000Y-106525266D01*
X70547984Y-106538000D01*
X59451239Y-106538000D01*
X57146891Y-104233654D01*
X57110624Y-104179376D01*
X56895617Y-104035714D01*
X56706018Y-103998000D01*
X56706016Y-103998000D01*
X56642000Y-103985266D01*
X56577984Y-103998000D01*
X53765081Y-103998000D01*
X53694486Y-103927405D01*
X53382075Y-103798000D01*
X53043925Y-103798000D01*
X52731514Y-103927405D01*
X52492405Y-104166514D01*
X52363000Y-104478925D01*
X52363000Y-104817075D01*
X52492405Y-105129486D01*
X52731514Y-105368595D01*
X53043925Y-105498000D01*
X53382075Y-105498000D01*
X53694486Y-105368595D01*
X53765081Y-105298000D01*
X56372763Y-105298000D01*
X57609646Y-106534884D01*
X57404382Y-106575714D01*
X57267654Y-106667073D01*
X57189376Y-106719376D01*
X57153114Y-106773647D01*
X54449654Y-109477109D01*
X54395376Y-109513376D01*
X54251714Y-109728384D01*
X54239583Y-109789372D01*
X54201266Y-109982000D01*
X54214000Y-110046017D01*
X54214001Y-112223918D01*
X54143405Y-112294514D01*
X54014000Y-112606925D01*
X54014000Y-112945075D01*
X54143405Y-113257486D01*
X54382514Y-113496595D01*
X54694925Y-113626000D01*
X55033075Y-113626000D01*
X55345486Y-113496595D01*
X55584595Y-113257486D01*
X55714000Y-112945075D01*
X55714000Y-112606925D01*
X55584595Y-112294514D01*
X55514000Y-112223919D01*
X55514000Y-110251237D01*
X57316000Y-108449238D01*
X57316000Y-108627075D01*
X57445405Y-108939486D01*
X57684514Y-109178595D01*
X57996925Y-109308000D01*
X58202828Y-109308000D01*
X59623001Y-110728174D01*
X59623000Y-117037376D01*
X59611737Y-117094000D01*
X59623000Y-117150623D01*
X59623000Y-117150627D01*
X59656363Y-117318353D01*
X59783449Y-117508551D01*
X59831457Y-117540629D01*
X61609455Y-119318628D01*
X61609458Y-119318630D01*
X61765828Y-119475000D01*
X55483016Y-119475000D01*
X49390815Y-114639920D01*
X49378504Y-114621496D01*
X49309535Y-114575412D01*
X49285869Y-114556630D01*
X49266653Y-114546760D01*
X49204845Y-114505461D01*
X49174500Y-114499425D01*
X49146981Y-114485290D01*
X49072903Y-114479216D01*
X49051706Y-114475000D01*
X49021479Y-114475000D01*
X48938823Y-114468223D01*
X48917731Y-114475000D01*
X27217462Y-114475000D01*
X23525000Y-110782539D01*
X23525000Y-109313752D01*
X24550000Y-109313752D01*
X24550000Y-110686248D01*
X25075232Y-111954268D01*
X26045732Y-112924768D01*
X27313752Y-113450000D01*
X28686248Y-113450000D01*
X29954268Y-112924768D01*
X30924768Y-111954268D01*
X31450000Y-110686248D01*
X31450000Y-110602175D01*
X39000000Y-110602175D01*
X39000000Y-111397825D01*
X39304482Y-112132909D01*
X39867091Y-112695518D01*
X40602175Y-113000000D01*
X41397825Y-113000000D01*
X42132909Y-112695518D01*
X42695518Y-112132909D01*
X43000000Y-111397825D01*
X43000000Y-110602175D01*
X42695518Y-109867091D01*
X42132909Y-109304482D01*
X41397825Y-109000000D01*
X40602175Y-109000000D01*
X39867091Y-109304482D01*
X39304482Y-109867091D01*
X39000000Y-110602175D01*
X31450000Y-110602175D01*
X31450000Y-109313752D01*
X30924768Y-108045732D01*
X29954268Y-107075232D01*
X28686248Y-106550000D01*
X27313752Y-106550000D01*
X26045732Y-107075232D01*
X25075232Y-108045732D01*
X24550000Y-109313752D01*
X23525000Y-109313752D01*
X23525000Y-103716925D01*
X66587000Y-103716925D01*
X66587000Y-104055075D01*
X66716405Y-104367486D01*
X66955514Y-104606595D01*
X67267925Y-104736000D01*
X67606075Y-104736000D01*
X67918486Y-104606595D01*
X68157595Y-104367486D01*
X68287000Y-104055075D01*
X68287000Y-103906081D01*
X68479514Y-104098595D01*
X68791925Y-104228000D01*
X69130075Y-104228000D01*
X69442486Y-104098595D01*
X69681595Y-103859486D01*
X69811000Y-103547075D01*
X69811000Y-103208925D01*
X69681595Y-102896514D01*
X69536000Y-102750919D01*
X69536000Y-98925081D01*
X69681595Y-98779486D01*
X69811000Y-98467075D01*
X69811000Y-98128925D01*
X69681595Y-97816514D01*
X69442486Y-97577405D01*
X69130075Y-97448000D01*
X68791925Y-97448000D01*
X68479514Y-97577405D01*
X68240405Y-97816514D01*
X68111000Y-98128925D01*
X68111000Y-98467075D01*
X68240405Y-98779486D01*
X68386000Y-98925081D01*
X68386001Y-100019368D01*
X68386000Y-100019373D01*
X68386001Y-102750918D01*
X68240405Y-102896514D01*
X68111000Y-103208925D01*
X68111000Y-103357919D01*
X68012000Y-103258919D01*
X68012000Y-98028172D01*
X68924173Y-97116000D01*
X69130075Y-97116000D01*
X69442486Y-96986595D01*
X69681595Y-96747486D01*
X69811000Y-96435075D01*
X69811000Y-96096925D01*
X69681595Y-95784514D01*
X69442486Y-95545405D01*
X69130075Y-95416000D01*
X68791925Y-95416000D01*
X68479514Y-95545405D01*
X68240405Y-95784514D01*
X68111000Y-96096925D01*
X68111000Y-96302827D01*
X67070455Y-97343373D01*
X67022450Y-97375449D01*
X66990374Y-97423454D01*
X66990372Y-97423456D01*
X66895363Y-97565648D01*
X66850737Y-97790000D01*
X66862001Y-97846628D01*
X66862000Y-101148627D01*
X66862001Y-101148632D01*
X66862000Y-103258919D01*
X66716405Y-103404514D01*
X66587000Y-103716925D01*
X23525000Y-103716925D01*
X23525000Y-85936925D01*
X28487000Y-85936925D01*
X28487000Y-86275075D01*
X28616405Y-86587486D01*
X28855514Y-86826595D01*
X29167925Y-86956000D01*
X29506075Y-86956000D01*
X29549319Y-86938088D01*
X29512737Y-87122000D01*
X29524001Y-87178628D01*
X29524000Y-98940919D01*
X29378405Y-99086514D01*
X29249000Y-99398925D01*
X29249000Y-99737075D01*
X29378405Y-100049486D01*
X29617514Y-100288595D01*
X29929925Y-100418000D01*
X30268075Y-100418000D01*
X30580486Y-100288595D01*
X30819595Y-100049486D01*
X30949000Y-99737075D01*
X30949000Y-99398925D01*
X30819595Y-99086514D01*
X30674000Y-98940919D01*
X30674000Y-87360172D01*
X31078173Y-86956000D01*
X31284075Y-86956000D01*
X31596486Y-86826595D01*
X31835595Y-86587486D01*
X31965000Y-86275075D01*
X31965000Y-85936925D01*
X31835595Y-85624514D01*
X31796909Y-85585828D01*
X31837624Y-85558624D01*
X31873891Y-85504347D01*
X32146238Y-85232000D01*
X38973763Y-85232000D01*
X39863001Y-86121240D01*
X39863000Y-87585919D01*
X39836377Y-87612542D01*
X39666075Y-87542000D01*
X39327925Y-87542000D01*
X39015514Y-87671405D01*
X38802000Y-87884919D01*
X38802000Y-86987081D01*
X38947595Y-86841486D01*
X39077000Y-86529075D01*
X39077000Y-86190925D01*
X38947595Y-85878514D01*
X38708486Y-85639405D01*
X38396075Y-85510000D01*
X38057925Y-85510000D01*
X37745514Y-85639405D01*
X37506405Y-85878514D01*
X37377000Y-86190925D01*
X37377000Y-86529075D01*
X37506405Y-86841486D01*
X37652001Y-86987082D01*
X37652000Y-89097376D01*
X37640737Y-89154000D01*
X37652000Y-89210623D01*
X37652000Y-89210627D01*
X37685363Y-89378353D01*
X37812449Y-89568551D01*
X37860457Y-89600629D01*
X38414001Y-90154174D01*
X38414000Y-98686919D01*
X38268405Y-98832514D01*
X38139000Y-99144925D01*
X38139000Y-99483075D01*
X38268405Y-99795486D01*
X38507514Y-100034595D01*
X38819925Y-100164000D01*
X39158075Y-100164000D01*
X39470486Y-100034595D01*
X39624000Y-99881081D01*
X39777514Y-100034595D01*
X40089925Y-100164000D01*
X40428075Y-100164000D01*
X40740486Y-100034595D01*
X40979595Y-99795486D01*
X41109000Y-99483075D01*
X41109000Y-99144925D01*
X40979595Y-98832514D01*
X40834000Y-98686919D01*
X40834000Y-89210624D01*
X40845263Y-89154000D01*
X40834000Y-89097376D01*
X40834000Y-89097372D01*
X40802336Y-88938186D01*
X40994486Y-88858595D01*
X41065081Y-88788000D01*
X51106919Y-88788000D01*
X50968405Y-88926514D01*
X50839000Y-89238925D01*
X50839000Y-89577075D01*
X50968405Y-89889486D01*
X51207514Y-90128595D01*
X51368000Y-90195071D01*
X51368001Y-97416918D01*
X51222405Y-97562514D01*
X51093000Y-97874925D01*
X51093000Y-98213075D01*
X51222405Y-98525486D01*
X51461514Y-98764595D01*
X51773925Y-98894000D01*
X52112075Y-98894000D01*
X52424486Y-98764595D01*
X52663595Y-98525486D01*
X52793000Y-98213075D01*
X52793000Y-97874925D01*
X52663595Y-97562514D01*
X52518000Y-97416919D01*
X52518000Y-89718623D01*
X52529263Y-89661999D01*
X52521010Y-89620507D01*
X52539000Y-89577075D01*
X52539000Y-89238925D01*
X52414174Y-88937569D01*
X52535925Y-88988000D01*
X52874075Y-88988000D01*
X53186486Y-88858595D01*
X53257081Y-88788000D01*
X63298919Y-88788000D01*
X63160405Y-88926514D01*
X63031000Y-89238925D01*
X63031000Y-89577075D01*
X63160405Y-89889486D01*
X63306000Y-90035081D01*
X63306001Y-97162918D01*
X63160405Y-97308514D01*
X63031000Y-97620925D01*
X63031000Y-97959075D01*
X63160405Y-98271486D01*
X63399514Y-98510595D01*
X63711925Y-98640000D01*
X64050075Y-98640000D01*
X64362486Y-98510595D01*
X64601595Y-98271486D01*
X64731000Y-97959075D01*
X64731000Y-97620925D01*
X64601595Y-97308514D01*
X64456000Y-97162919D01*
X64456000Y-94687500D01*
X151600000Y-94687500D01*
X151600000Y-95019620D01*
X151653285Y-95148259D01*
X151751741Y-95246716D01*
X151880381Y-95300000D01*
X152387500Y-95300000D01*
X152475000Y-95212500D01*
X152475000Y-94600000D01*
X153525000Y-94600000D01*
X153525000Y-95212500D01*
X153612500Y-95300000D01*
X154119619Y-95300000D01*
X154248259Y-95246716D01*
X154346715Y-95148259D01*
X154400000Y-95019620D01*
X154400000Y-94687500D01*
X154312500Y-94600000D01*
X153525000Y-94600000D01*
X152475000Y-94600000D01*
X151687500Y-94600000D01*
X151600000Y-94687500D01*
X64456000Y-94687500D01*
X64456000Y-93480380D01*
X151600000Y-93480380D01*
X151600000Y-93812500D01*
X151687500Y-93900000D01*
X152475000Y-93900000D01*
X152475000Y-93287500D01*
X153525000Y-93287500D01*
X153525000Y-93900000D01*
X154312500Y-93900000D01*
X154400000Y-93812500D01*
X154400000Y-93480380D01*
X154346715Y-93351741D01*
X154248259Y-93253284D01*
X154119619Y-93200000D01*
X153612500Y-93200000D01*
X153525000Y-93287500D01*
X152475000Y-93287500D01*
X152387500Y-93200000D01*
X151880381Y-93200000D01*
X151751741Y-93253284D01*
X151653285Y-93351741D01*
X151600000Y-93480380D01*
X64456000Y-93480380D01*
X64456000Y-90719067D01*
X64586372Y-90745000D01*
X64586376Y-90745000D01*
X64643000Y-90756263D01*
X64699624Y-90745000D01*
X69285377Y-90745000D01*
X69342000Y-90756263D01*
X69398623Y-90745000D01*
X69398628Y-90745000D01*
X69566354Y-90711637D01*
X69756551Y-90584551D01*
X69788629Y-90536543D01*
X71275172Y-89050000D01*
X151491184Y-89050000D01*
X151491184Y-90450000D01*
X151526109Y-90625581D01*
X151625568Y-90774432D01*
X151774419Y-90873891D01*
X151950000Y-90908816D01*
X154050000Y-90908816D01*
X154225581Y-90873891D01*
X154374432Y-90774432D01*
X154473891Y-90625581D01*
X154508816Y-90450000D01*
X154508816Y-89050000D01*
X154473891Y-88874419D01*
X154374432Y-88725568D01*
X154225581Y-88626109D01*
X154050000Y-88591184D01*
X153575000Y-88591184D01*
X153575000Y-73554624D01*
X153586263Y-73498000D01*
X153575000Y-73441376D01*
X153575000Y-73441372D01*
X153541637Y-73273646D01*
X153504000Y-73217318D01*
X153504000Y-72982925D01*
X153374595Y-72670514D01*
X153135486Y-72431405D01*
X152823075Y-72302000D01*
X152484925Y-72302000D01*
X152172514Y-72431405D01*
X151933405Y-72670514D01*
X151804000Y-72982925D01*
X151804000Y-73321075D01*
X151933405Y-73633486D01*
X152172514Y-73872595D01*
X152425000Y-73977178D01*
X152425001Y-88591184D01*
X151950000Y-88591184D01*
X151774419Y-88626109D01*
X151625568Y-88725568D01*
X151526109Y-88874419D01*
X151491184Y-89050000D01*
X71275172Y-89050000D01*
X71486546Y-88838627D01*
X71534551Y-88806551D01*
X71566629Y-88758544D01*
X71596630Y-88713643D01*
X71661637Y-88616354D01*
X71695000Y-88448628D01*
X71695000Y-88448624D01*
X71706263Y-88392000D01*
X71695000Y-88335376D01*
X71695000Y-81772172D01*
X73198767Y-80268405D01*
X86459216Y-80268405D01*
X86582241Y-81469134D01*
X86873222Y-82640550D01*
X87326354Y-83759280D01*
X87932596Y-84803002D01*
X88679852Y-85750892D01*
X89553212Y-86584036D01*
X90535250Y-87285810D01*
X91606371Y-87842213D01*
X92745205Y-88242143D01*
X93929028Y-88477620D01*
X95134219Y-88543946D01*
X96336733Y-88439797D01*
X97512575Y-88167251D01*
X98638284Y-87731747D01*
X99691400Y-87141974D01*
X100650910Y-86409699D01*
X101497669Y-85549534D01*
X102214782Y-84578640D01*
X102787941Y-83516390D01*
X102800683Y-83481849D01*
X117800000Y-83481849D01*
X117800000Y-84158151D01*
X118058810Y-84782973D01*
X118537027Y-85261190D01*
X119161849Y-85520000D01*
X119838151Y-85520000D01*
X120462973Y-85261190D01*
X120941190Y-84782973D01*
X121200000Y-84158151D01*
X121200000Y-83481849D01*
X120941190Y-82857027D01*
X120462973Y-82378810D01*
X119838151Y-82120000D01*
X119161849Y-82120000D01*
X118537027Y-82378810D01*
X118058810Y-82857027D01*
X117800000Y-83481849D01*
X102800683Y-83481849D01*
X103205710Y-82383979D01*
X103459752Y-81204001D01*
X103545000Y-80000000D01*
X103528138Y-79463455D01*
X103367459Y-78267183D01*
X103039826Y-77105484D01*
X102551777Y-76001540D01*
X101913050Y-74977375D01*
X101136389Y-74053425D01*
X100237291Y-73248125D01*
X99233694Y-72577544D01*
X98145624Y-72055060D01*
X96994791Y-71691099D01*
X95804156Y-71492923D01*
X94597475Y-71464486D01*
X93398827Y-71606355D01*
X92232126Y-71915701D01*
X91120651Y-72386349D01*
X90086580Y-73008911D01*
X89150545Y-73770963D01*
X88331222Y-74657302D01*
X87644959Y-75650241D01*
X87105449Y-76729970D01*
X86723457Y-77874945D01*
X86506604Y-79062320D01*
X86459216Y-80268405D01*
X73198767Y-80268405D01*
X77836546Y-75630627D01*
X77884551Y-75598551D01*
X78011637Y-75408354D01*
X78045000Y-75240628D01*
X78045000Y-75240625D01*
X78056263Y-75184001D01*
X78045000Y-75127377D01*
X78045000Y-57731566D01*
X78330925Y-57850000D01*
X78669075Y-57850000D01*
X78981486Y-57720595D01*
X79220595Y-57481486D01*
X79350000Y-57169075D01*
X79350000Y-56963173D01*
X79366546Y-56946627D01*
X79414551Y-56914551D01*
X79541637Y-56724354D01*
X79575000Y-56556628D01*
X79575000Y-56556624D01*
X79586263Y-56500000D01*
X79575000Y-56443376D01*
X79575000Y-54948925D01*
X90082000Y-54948925D01*
X90082000Y-55287075D01*
X90211405Y-55599486D01*
X90357000Y-55745081D01*
X90357001Y-57792918D01*
X90211405Y-57938514D01*
X90082000Y-58250925D01*
X90082000Y-58589075D01*
X90211405Y-58901486D01*
X90450514Y-59140595D01*
X90762925Y-59270000D01*
X91101075Y-59270000D01*
X91376391Y-59155960D01*
X91481405Y-59409486D01*
X91720514Y-59648595D01*
X92032925Y-59778000D01*
X92371075Y-59778000D01*
X92389000Y-59770575D01*
X92389001Y-67698918D01*
X92243405Y-67844514D01*
X92114000Y-68156925D01*
X92114000Y-68495075D01*
X92243405Y-68807486D01*
X92482514Y-69046595D01*
X92794925Y-69176000D01*
X93133075Y-69176000D01*
X93445486Y-69046595D01*
X93684595Y-68807486D01*
X93743645Y-68664925D01*
X132246000Y-68664925D01*
X132246000Y-69003075D01*
X132375405Y-69315486D01*
X132614514Y-69554595D01*
X132926925Y-69684000D01*
X133265075Y-69684000D01*
X133577486Y-69554595D01*
X133816595Y-69315486D01*
X133946000Y-69003075D01*
X133946000Y-68918925D01*
X134278000Y-68918925D01*
X134278000Y-69257075D01*
X134407405Y-69569486D01*
X134553001Y-69715082D01*
X134553000Y-87002919D01*
X134407405Y-87148514D01*
X134278000Y-87460925D01*
X134278000Y-87799075D01*
X134407405Y-88111486D01*
X134646514Y-88350595D01*
X134958925Y-88480000D01*
X135297075Y-88480000D01*
X135609486Y-88350595D01*
X135848595Y-88111486D01*
X135978000Y-87799075D01*
X135978000Y-87460925D01*
X135848595Y-87148514D01*
X135703000Y-87002919D01*
X135703000Y-69715081D01*
X135848595Y-69569486D01*
X135978000Y-69257075D01*
X135978000Y-68918925D01*
X135848595Y-68606514D01*
X135609486Y-68367405D01*
X135297075Y-68238000D01*
X134958925Y-68238000D01*
X134646514Y-68367405D01*
X134407405Y-68606514D01*
X134278000Y-68918925D01*
X133946000Y-68918925D01*
X133946000Y-68797172D01*
X134858173Y-67885000D01*
X138119372Y-67885000D01*
X138176000Y-67896264D01*
X138232627Y-67885000D01*
X138232628Y-67885000D01*
X138400354Y-67851637D01*
X138590551Y-67724551D01*
X138717637Y-67534354D01*
X138762264Y-67310000D01*
X138751000Y-67253372D01*
X138751000Y-62286623D01*
X138762263Y-62229999D01*
X138751000Y-62173375D01*
X138751000Y-62173372D01*
X138717637Y-62005646D01*
X138590551Y-61815449D01*
X138542543Y-61783371D01*
X138368629Y-61609457D01*
X138336551Y-61561449D01*
X138146354Y-61434363D01*
X137978628Y-61401000D01*
X137978623Y-61401000D01*
X137922000Y-61389737D01*
X137865377Y-61401000D01*
X134485081Y-61401000D01*
X134339486Y-61255405D01*
X134027075Y-61126000D01*
X133688925Y-61126000D01*
X133376514Y-61255405D01*
X133137405Y-61494514D01*
X133008000Y-61806925D01*
X133008000Y-62145075D01*
X133137405Y-62457486D01*
X133376514Y-62696595D01*
X133688925Y-62826000D01*
X134027075Y-62826000D01*
X134339486Y-62696595D01*
X134485081Y-62551000D01*
X137601001Y-62551000D01*
X137601000Y-66735000D01*
X134676623Y-66735000D01*
X134619999Y-66723737D01*
X134563375Y-66735000D01*
X134563372Y-66735000D01*
X134395646Y-66768363D01*
X134205449Y-66895449D01*
X134173373Y-66943454D01*
X133132828Y-67984000D01*
X132926925Y-67984000D01*
X132614514Y-68113405D01*
X132375405Y-68352514D01*
X132246000Y-68664925D01*
X93743645Y-68664925D01*
X93814000Y-68495075D01*
X93814000Y-68156925D01*
X93684595Y-67844514D01*
X93539000Y-67698919D01*
X93539000Y-65362925D01*
X117768000Y-65362925D01*
X117768000Y-65701075D01*
X117897405Y-66013486D01*
X118136514Y-66252595D01*
X118448925Y-66382000D01*
X118787075Y-66382000D01*
X119099486Y-66252595D01*
X119245081Y-66107000D01*
X127388919Y-66107000D01*
X127534514Y-66252595D01*
X127846925Y-66382000D01*
X128185075Y-66382000D01*
X128497486Y-66252595D01*
X128736595Y-66013486D01*
X128866000Y-65701075D01*
X128866000Y-65362925D01*
X128736595Y-65050514D01*
X128523081Y-64837000D01*
X136087377Y-64837000D01*
X136144000Y-64848263D01*
X136185493Y-64840010D01*
X136228925Y-64858000D01*
X136567075Y-64858000D01*
X136879486Y-64728595D01*
X137118595Y-64489486D01*
X137248000Y-64177075D01*
X137248000Y-63838925D01*
X137118595Y-63526514D01*
X136879486Y-63287405D01*
X136567075Y-63158000D01*
X136228925Y-63158000D01*
X135916514Y-63287405D01*
X135677405Y-63526514D01*
X135610929Y-63687000D01*
X122039081Y-63687000D01*
X121893486Y-63541405D01*
X121581075Y-63412000D01*
X121242925Y-63412000D01*
X120930514Y-63541405D01*
X120691405Y-63780514D01*
X120562000Y-64092925D01*
X120562000Y-64431075D01*
X120691405Y-64743486D01*
X120904919Y-64957000D01*
X119245081Y-64957000D01*
X119099486Y-64811405D01*
X118787075Y-64682000D01*
X118448925Y-64682000D01*
X118136514Y-64811405D01*
X117897405Y-65050514D01*
X117768000Y-65362925D01*
X93539000Y-65362925D01*
X93539000Y-55112121D01*
X120050000Y-55112121D01*
X120050000Y-55887879D01*
X120346870Y-56604586D01*
X120895414Y-57153130D01*
X121612121Y-57450000D01*
X122387879Y-57450000D01*
X123104586Y-57153130D01*
X123653130Y-56604586D01*
X123950000Y-55887879D01*
X123950000Y-55112121D01*
X123653130Y-54395414D01*
X123104586Y-53846870D01*
X122387879Y-53550000D01*
X121612121Y-53550000D01*
X120895414Y-53846870D01*
X120346870Y-54395414D01*
X120050000Y-55112121D01*
X93539000Y-55112121D01*
X93539000Y-49614925D01*
X126912000Y-49614925D01*
X126912000Y-49953075D01*
X127041405Y-50265486D01*
X127280514Y-50504595D01*
X127592925Y-50634000D01*
X127798828Y-50634000D01*
X128203001Y-51038174D01*
X128203000Y-54807376D01*
X128191737Y-54864000D01*
X128199990Y-54905493D01*
X128182000Y-54948925D01*
X128182000Y-55287075D01*
X128311405Y-55599486D01*
X128550514Y-55838595D01*
X128862925Y-55968000D01*
X129201075Y-55968000D01*
X129513486Y-55838595D01*
X129752595Y-55599486D01*
X129882000Y-55287075D01*
X129882000Y-55202925D01*
X149010000Y-55202925D01*
X149010000Y-55541075D01*
X149139405Y-55853486D01*
X149285001Y-55999082D01*
X149285000Y-59633376D01*
X149273737Y-59690000D01*
X149285000Y-59746623D01*
X149285000Y-59746627D01*
X149318363Y-59914353D01*
X149445449Y-60104551D01*
X149493457Y-60136629D01*
X153349001Y-63992174D01*
X153349000Y-71063377D01*
X153337737Y-71120000D01*
X153345990Y-71161493D01*
X153328000Y-71204925D01*
X153328000Y-71543075D01*
X153457405Y-71855486D01*
X153696514Y-72094595D01*
X154008925Y-72224000D01*
X154347075Y-72224000D01*
X154365000Y-72216575D01*
X154365001Y-84271372D01*
X154353737Y-84328000D01*
X154398363Y-84552352D01*
X154493372Y-84694544D01*
X154493374Y-84694546D01*
X154525450Y-84742551D01*
X154573455Y-84774627D01*
X156143000Y-86344173D01*
X156143001Y-101361826D01*
X155484828Y-102020000D01*
X155278925Y-102020000D01*
X154966514Y-102149405D01*
X154727405Y-102388514D01*
X154598000Y-102700925D01*
X154598000Y-103039075D01*
X154727405Y-103351486D01*
X154966514Y-103590595D01*
X155278925Y-103720000D01*
X155617075Y-103720000D01*
X155929486Y-103590595D01*
X156168595Y-103351486D01*
X156298000Y-103039075D01*
X156298000Y-102833172D01*
X157084546Y-102046627D01*
X157132551Y-102014551D01*
X157259637Y-101824354D01*
X157293000Y-101656628D01*
X157293000Y-101656625D01*
X157304263Y-101600001D01*
X157293000Y-101543377D01*
X157293000Y-93550000D01*
X161491184Y-93550000D01*
X161491184Y-94950000D01*
X161526109Y-95125581D01*
X161625568Y-95274432D01*
X161774419Y-95373891D01*
X161950000Y-95408816D01*
X164050000Y-95408816D01*
X164225581Y-95373891D01*
X164374432Y-95274432D01*
X164473891Y-95125581D01*
X164508816Y-94950000D01*
X164508816Y-93550000D01*
X164473891Y-93374419D01*
X164374432Y-93225568D01*
X164225581Y-93126109D01*
X164050000Y-93091184D01*
X161950000Y-93091184D01*
X161774419Y-93126109D01*
X161625568Y-93225568D01*
X161526109Y-93374419D01*
X161491184Y-93550000D01*
X157293000Y-93550000D01*
X157293000Y-89050000D01*
X161491184Y-89050000D01*
X161491184Y-90450000D01*
X161526109Y-90625581D01*
X161625568Y-90774432D01*
X161774419Y-90873891D01*
X161950000Y-90908816D01*
X164050000Y-90908816D01*
X164225581Y-90873891D01*
X164374432Y-90774432D01*
X164473891Y-90625581D01*
X164508816Y-90450000D01*
X164508816Y-89050000D01*
X164473891Y-88874419D01*
X164374432Y-88725568D01*
X164225581Y-88626109D01*
X164050000Y-88591184D01*
X161950000Y-88591184D01*
X161774419Y-88626109D01*
X161625568Y-88725568D01*
X161526109Y-88874419D01*
X161491184Y-89050000D01*
X157293000Y-89050000D01*
X157293000Y-86162624D01*
X157304263Y-86106000D01*
X157293000Y-86049376D01*
X157293000Y-86049372D01*
X157259637Y-85881646D01*
X157181028Y-85764000D01*
X157164628Y-85739455D01*
X157164627Y-85739454D01*
X157132551Y-85691449D01*
X157084546Y-85659373D01*
X155515000Y-84089828D01*
X155515000Y-73602175D01*
X157000000Y-73602175D01*
X157000000Y-74397825D01*
X157304482Y-75132909D01*
X157867091Y-75695518D01*
X158602175Y-76000000D01*
X159397825Y-76000000D01*
X160132909Y-75695518D01*
X160695518Y-75132909D01*
X161000000Y-74397825D01*
X161000000Y-73602175D01*
X160695518Y-72867091D01*
X160132909Y-72304482D01*
X159397825Y-72000000D01*
X158602175Y-72000000D01*
X157867091Y-72304482D01*
X157304482Y-72867091D01*
X157000000Y-73602175D01*
X155515000Y-73602175D01*
X155515000Y-63556624D01*
X155526263Y-63500000D01*
X155515000Y-63443376D01*
X155515000Y-63443372D01*
X155481637Y-63275646D01*
X155399387Y-63152551D01*
X155386628Y-63133455D01*
X155386627Y-63133454D01*
X155354551Y-63085449D01*
X155306546Y-63053373D01*
X151451000Y-59197828D01*
X151451000Y-55345681D01*
X151664514Y-55559195D01*
X151976925Y-55688600D01*
X152315075Y-55688600D01*
X152627486Y-55559195D01*
X152866595Y-55320086D01*
X152996000Y-55007675D01*
X152996000Y-54684480D01*
X153065891Y-54579881D01*
X153100816Y-54404300D01*
X153100816Y-53108900D01*
X153065891Y-52933319D01*
X153013092Y-52854300D01*
X153342002Y-52854300D01*
X153342002Y-52504300D01*
X154251998Y-52504300D01*
X154251998Y-52854300D01*
X154580908Y-52854300D01*
X154528109Y-52933319D01*
X154493184Y-53108900D01*
X154493184Y-54404300D01*
X154528109Y-54579881D01*
X154627568Y-54728732D01*
X154776419Y-54828191D01*
X154852000Y-54843225D01*
X154852000Y-55007675D01*
X154981405Y-55320086D01*
X155220514Y-55559195D01*
X155532925Y-55688600D01*
X155871075Y-55688600D01*
X156183486Y-55559195D01*
X156422595Y-55320086D01*
X156552000Y-55007675D01*
X156552000Y-54843225D01*
X156627581Y-54828191D01*
X156776432Y-54728732D01*
X156875891Y-54579881D01*
X156910816Y-54404300D01*
X156910816Y-53108900D01*
X156875891Y-52933319D01*
X156823092Y-52854300D01*
X157152002Y-52854300D01*
X157152002Y-52504300D01*
X156802000Y-52504300D01*
X156802000Y-52267950D01*
X156714500Y-52180450D01*
X156077000Y-52180450D01*
X156077000Y-52504300D01*
X155327000Y-52504300D01*
X155327000Y-52180450D01*
X154689500Y-52180450D01*
X154602000Y-52267950D01*
X154602000Y-52504300D01*
X154251998Y-52504300D01*
X153342002Y-52504300D01*
X152992000Y-52504300D01*
X152992000Y-52267950D01*
X152904500Y-52180450D01*
X152267000Y-52180450D01*
X152267000Y-52504300D01*
X151517000Y-52504300D01*
X151517000Y-52180450D01*
X150879500Y-52180450D01*
X150792000Y-52267950D01*
X150792000Y-52504300D01*
X150689000Y-52504300D01*
X150689000Y-51139280D01*
X150792000Y-51139280D01*
X150792000Y-51445250D01*
X150879500Y-51532750D01*
X151517000Y-51532750D01*
X151517000Y-50946400D01*
X152267000Y-50946400D01*
X152267000Y-51532750D01*
X152904500Y-51532750D01*
X152992000Y-51445250D01*
X152992000Y-51139280D01*
X154602000Y-51139280D01*
X154602000Y-51445250D01*
X154689500Y-51532750D01*
X155327000Y-51532750D01*
X155327000Y-50946400D01*
X156077000Y-50946400D01*
X156077000Y-51532750D01*
X156714500Y-51532750D01*
X156802000Y-51445250D01*
X156802000Y-51139280D01*
X156748715Y-51010641D01*
X156650259Y-50912184D01*
X156521619Y-50858900D01*
X156164500Y-50858900D01*
X156077000Y-50946400D01*
X155327000Y-50946400D01*
X155239500Y-50858900D01*
X154882381Y-50858900D01*
X154753741Y-50912184D01*
X154655285Y-51010641D01*
X154602000Y-51139280D01*
X152992000Y-51139280D01*
X152938715Y-51010641D01*
X152840259Y-50912184D01*
X152711619Y-50858900D01*
X152354500Y-50858900D01*
X152267000Y-50946400D01*
X151517000Y-50946400D01*
X151429500Y-50858900D01*
X151072381Y-50858900D01*
X150943741Y-50912184D01*
X150845285Y-51010641D01*
X150792000Y-51139280D01*
X150689000Y-51139280D01*
X150689000Y-48539071D01*
X150849486Y-48472595D01*
X151088595Y-48233486D01*
X151218000Y-47921075D01*
X151218000Y-47582925D01*
X151088595Y-47270514D01*
X150849486Y-47031405D01*
X150537075Y-46902000D01*
X150198925Y-46902000D01*
X149886514Y-47031405D01*
X149647405Y-47270514D01*
X149518000Y-47582925D01*
X149518000Y-47921075D01*
X149535990Y-47964507D01*
X149527737Y-48006000D01*
X149539000Y-48062624D01*
X149539001Y-54299372D01*
X149527737Y-54356000D01*
X149570665Y-54571814D01*
X149378514Y-54651405D01*
X149139405Y-54890514D01*
X149010000Y-55202925D01*
X129882000Y-55202925D01*
X129882000Y-54948925D01*
X129752595Y-54636514D01*
X129513486Y-54397405D01*
X129353000Y-54330929D01*
X129353000Y-50856623D01*
X129364263Y-50800000D01*
X129353000Y-50743376D01*
X129353000Y-50743372D01*
X129319637Y-50575646D01*
X129192551Y-50385449D01*
X129144546Y-50353373D01*
X128612000Y-49820828D01*
X128612000Y-49614925D01*
X128482595Y-49302514D01*
X128243486Y-49063405D01*
X127931075Y-48934000D01*
X127592925Y-48934000D01*
X127280514Y-49063405D01*
X127041405Y-49302514D01*
X126912000Y-49614925D01*
X93539000Y-49614925D01*
X93539000Y-46030623D01*
X93550263Y-45973999D01*
X93539000Y-45917375D01*
X93539000Y-45917372D01*
X93505637Y-45749646D01*
X93378551Y-45559449D01*
X93330546Y-45527373D01*
X93306000Y-45502827D01*
X93306000Y-45296925D01*
X93176595Y-44984514D01*
X92937486Y-44745405D01*
X92625075Y-44616000D01*
X92286925Y-44616000D01*
X91974514Y-44745405D01*
X91735405Y-44984514D01*
X91606000Y-45296925D01*
X91606000Y-45635075D01*
X91735405Y-45947486D01*
X91974514Y-46186595D01*
X92286925Y-46316000D01*
X92389000Y-46316000D01*
X92389000Y-46425373D01*
X92389001Y-54275425D01*
X92371075Y-54268000D01*
X92032925Y-54268000D01*
X91720514Y-54397405D01*
X91567000Y-54550919D01*
X91413486Y-54397405D01*
X91101075Y-54268000D01*
X90762925Y-54268000D01*
X90450514Y-54397405D01*
X90211405Y-54636514D01*
X90082000Y-54948925D01*
X79575000Y-54948925D01*
X79575000Y-52556623D01*
X79586263Y-52499999D01*
X79575000Y-52443375D01*
X79575000Y-52443372D01*
X79541637Y-52275646D01*
X79414551Y-52085449D01*
X79366546Y-52053373D01*
X78350000Y-51036828D01*
X78350000Y-50830925D01*
X78220595Y-50518514D01*
X77981486Y-50279405D01*
X77669075Y-50150000D01*
X77330925Y-50150000D01*
X77283000Y-50169851D01*
X77283000Y-49006172D01*
X80756173Y-45533000D01*
X85732919Y-45533000D01*
X85878514Y-45678595D01*
X86190925Y-45808000D01*
X86529075Y-45808000D01*
X86841486Y-45678595D01*
X87080595Y-45439486D01*
X87210000Y-45127075D01*
X87210000Y-44788925D01*
X87080595Y-44476514D01*
X86841486Y-44237405D01*
X86529075Y-44108000D01*
X86190925Y-44108000D01*
X85878514Y-44237405D01*
X85732919Y-44383000D01*
X85678575Y-44383000D01*
X85686000Y-44365075D01*
X85686000Y-44026925D01*
X85556595Y-43714514D01*
X85317486Y-43475405D01*
X85005075Y-43346000D01*
X84666925Y-43346000D01*
X84354514Y-43475405D01*
X84208919Y-43621000D01*
X79558623Y-43621000D01*
X79501999Y-43609737D01*
X79445375Y-43621000D01*
X79445372Y-43621000D01*
X79277646Y-43654363D01*
X79176964Y-43721637D01*
X79087449Y-43781449D01*
X79055373Y-43829454D01*
X75579457Y-47305371D01*
X75531449Y-47337449D01*
X75404363Y-47527647D01*
X75371000Y-47695373D01*
X75371000Y-47695377D01*
X75359737Y-47752000D01*
X75371000Y-47808623D01*
X75371000Y-48457373D01*
X75371001Y-54553368D01*
X75371000Y-54553373D01*
X75371001Y-70627826D01*
X73915167Y-72083661D01*
X73829075Y-72048000D01*
X73490925Y-72048000D01*
X73178514Y-72177405D01*
X72939405Y-72416514D01*
X72810000Y-72728925D01*
X72810000Y-73067075D01*
X72939405Y-73379486D01*
X73178514Y-73618595D01*
X73490925Y-73748000D01*
X73829075Y-73748000D01*
X74141486Y-73618595D01*
X74380595Y-73379486D01*
X74475990Y-73149182D01*
X76133001Y-71492172D01*
X76133001Y-71643826D01*
X75579458Y-72197370D01*
X75579455Y-72197372D01*
X68108828Y-79668000D01*
X67902925Y-79668000D01*
X67590514Y-79797405D01*
X67351405Y-80036514D01*
X67222000Y-80348925D01*
X67222000Y-80687075D01*
X67351405Y-80999486D01*
X67590514Y-81238595D01*
X67902925Y-81368000D01*
X68241075Y-81368000D01*
X68553486Y-81238595D01*
X68792595Y-80999486D01*
X68922000Y-80687075D01*
X68922000Y-80481172D01*
X76392628Y-73010545D01*
X76392630Y-73010542D01*
X76895001Y-72508172D01*
X76895001Y-74945826D01*
X70753457Y-81087371D01*
X70705449Y-81119449D01*
X70578363Y-81309647D01*
X70545000Y-81477373D01*
X70545000Y-81477377D01*
X70533737Y-81534000D01*
X70545000Y-81590623D01*
X70545000Y-84328919D01*
X70331486Y-84115405D01*
X70019075Y-83986000D01*
X69813173Y-83986000D01*
X68772630Y-82945458D01*
X68772628Y-82945455D01*
X67652000Y-81824828D01*
X67652000Y-81618925D01*
X67522595Y-81306514D01*
X67283486Y-81067405D01*
X66971075Y-80938000D01*
X66632925Y-80938000D01*
X66320514Y-81067405D01*
X66081405Y-81306514D01*
X65952000Y-81618925D01*
X65952000Y-81957075D01*
X66081405Y-82269486D01*
X66320514Y-82508595D01*
X66632925Y-82638000D01*
X66838828Y-82638000D01*
X67959455Y-83758628D01*
X67959458Y-83758630D01*
X69000000Y-84799173D01*
X69000000Y-85005075D01*
X69129405Y-85317486D01*
X69368514Y-85556595D01*
X69680925Y-85686000D01*
X70019075Y-85686000D01*
X70331486Y-85556595D01*
X70545001Y-85343080D01*
X70545001Y-88153826D01*
X69103828Y-89595000D01*
X66166081Y-89595000D01*
X66379595Y-89381486D01*
X66509000Y-89069075D01*
X66509000Y-88730925D01*
X66379595Y-88418514D01*
X66140486Y-88179405D01*
X65828075Y-88050000D01*
X65728238Y-88050000D01*
X65401891Y-87723654D01*
X65365624Y-87669376D01*
X65150617Y-87525714D01*
X64961018Y-87488000D01*
X64961016Y-87488000D01*
X64897000Y-87475266D01*
X64832984Y-87488000D01*
X53257081Y-87488000D01*
X53186486Y-87417405D01*
X52874075Y-87288000D01*
X52535925Y-87288000D01*
X52223514Y-87417405D01*
X52152919Y-87488000D01*
X41163000Y-87488000D01*
X41163000Y-86444925D01*
X49061000Y-86444925D01*
X49061000Y-86783075D01*
X49190405Y-87095486D01*
X49429514Y-87334595D01*
X49741925Y-87464000D01*
X50080075Y-87464000D01*
X50392486Y-87334595D01*
X50538081Y-87189000D01*
X54771227Y-87189000D01*
X54821925Y-87210000D01*
X55160075Y-87210000D01*
X55203507Y-87192010D01*
X55245000Y-87200263D01*
X55301623Y-87189000D01*
X55301628Y-87189000D01*
X55469354Y-87155637D01*
X55659551Y-87028551D01*
X55691629Y-86980543D01*
X55737172Y-86935000D01*
X61221919Y-86935000D01*
X61367514Y-87080595D01*
X61679925Y-87210000D01*
X62018075Y-87210000D01*
X62330486Y-87080595D01*
X62569595Y-86841486D01*
X62699000Y-86529075D01*
X62699000Y-86190925D01*
X62569595Y-85878514D01*
X62330486Y-85639405D01*
X62018075Y-85510000D01*
X61679925Y-85510000D01*
X61367514Y-85639405D01*
X61221919Y-85785000D01*
X55618081Y-85785000D01*
X55472486Y-85639405D01*
X55160075Y-85510000D01*
X54821925Y-85510000D01*
X54509514Y-85639405D01*
X54270405Y-85878514D01*
X54203929Y-86039000D01*
X50538081Y-86039000D01*
X50392486Y-85893405D01*
X50080075Y-85764000D01*
X49741925Y-85764000D01*
X49429514Y-85893405D01*
X49190405Y-86132514D01*
X49061000Y-86444925D01*
X41163000Y-86444925D01*
X41163000Y-85916016D01*
X41175734Y-85851999D01*
X41160166Y-85773736D01*
X41125286Y-85598383D01*
X40981624Y-85383376D01*
X40927351Y-85347112D01*
X39747891Y-84167654D01*
X39711624Y-84113376D01*
X39496617Y-83969714D01*
X39307018Y-83932000D01*
X39307016Y-83932000D01*
X39243000Y-83919266D01*
X39178984Y-83932000D01*
X31941015Y-83932000D01*
X31876999Y-83919266D01*
X31812983Y-83932000D01*
X31812982Y-83932000D01*
X31623383Y-83969714D01*
X31408376Y-84113376D01*
X31372112Y-84167649D01*
X31099762Y-84440000D01*
X30417016Y-84440000D01*
X30353000Y-84427266D01*
X30288983Y-84440000D01*
X30288982Y-84440000D01*
X30099383Y-84477714D01*
X29884376Y-84621376D01*
X29848110Y-84675652D01*
X29267763Y-85256000D01*
X29167925Y-85256000D01*
X28855514Y-85385405D01*
X28616405Y-85624514D01*
X28487000Y-85936925D01*
X23525000Y-85936925D01*
X23525000Y-78170720D01*
X23788123Y-77808925D01*
X24296000Y-77808925D01*
X24296000Y-78147075D01*
X24425405Y-78459486D01*
X24664514Y-78698595D01*
X24976925Y-78828000D01*
X25315075Y-78828000D01*
X25627486Y-78698595D01*
X25773081Y-78553000D01*
X26613377Y-78553000D01*
X26670000Y-78564263D01*
X26726623Y-78553000D01*
X26726628Y-78553000D01*
X26894354Y-78519637D01*
X27084551Y-78392551D01*
X27116629Y-78344543D01*
X28432173Y-77029000D01*
X36709872Y-77029000D01*
X36766500Y-77040264D01*
X36823127Y-77029000D01*
X49209000Y-77029000D01*
X49209000Y-77541419D01*
X49063405Y-77687014D01*
X48934000Y-77999425D01*
X48934000Y-78337575D01*
X49063405Y-78649986D01*
X49209000Y-78795581D01*
X49209001Y-84208918D01*
X49063405Y-84354514D01*
X48934000Y-84666925D01*
X48934000Y-85005075D01*
X49063405Y-85317486D01*
X49302514Y-85556595D01*
X49614925Y-85686000D01*
X49953075Y-85686000D01*
X50265486Y-85556595D01*
X50504595Y-85317486D01*
X50634000Y-85005075D01*
X50634000Y-84666925D01*
X50504595Y-84354514D01*
X50359000Y-84208919D01*
X50359000Y-78795581D01*
X50504595Y-78649986D01*
X50634000Y-78337575D01*
X50634000Y-77999425D01*
X50504595Y-77687014D01*
X50359000Y-77541419D01*
X50359000Y-76510627D01*
X50370264Y-76454000D01*
X50325637Y-76229646D01*
X50198551Y-76039449D01*
X50008354Y-75912363D01*
X49840628Y-75879000D01*
X49840627Y-75879000D01*
X49784000Y-75867736D01*
X49727372Y-75879000D01*
X37341500Y-75879000D01*
X37341500Y-70287623D01*
X37352763Y-70230999D01*
X37341500Y-70174375D01*
X37341500Y-70174372D01*
X37308137Y-70006646D01*
X37255764Y-69928264D01*
X37213128Y-69864455D01*
X37213127Y-69864454D01*
X37181051Y-69816449D01*
X37133046Y-69784373D01*
X36643000Y-69294328D01*
X36643000Y-68954967D01*
X36669449Y-68994551D01*
X36717457Y-69026629D01*
X40701372Y-73010545D01*
X40733449Y-73058551D01*
X40923646Y-73185637D01*
X41091372Y-73219000D01*
X41091376Y-73219000D01*
X41148000Y-73230263D01*
X41204624Y-73219000D01*
X61665377Y-73219000D01*
X61722000Y-73230263D01*
X61778623Y-73219000D01*
X61778628Y-73219000D01*
X61946354Y-73185637D01*
X62136551Y-73058551D01*
X62168629Y-73010543D01*
X64628546Y-70550627D01*
X64676551Y-70518551D01*
X64718780Y-70455352D01*
X64803637Y-70328354D01*
X64809948Y-70296628D01*
X64837000Y-70160628D01*
X64837000Y-70160625D01*
X64848263Y-70104001D01*
X64837000Y-70047377D01*
X64837000Y-65303071D01*
X64997486Y-65236595D01*
X65236595Y-64997486D01*
X65366000Y-64685075D01*
X65366000Y-64346925D01*
X65236595Y-64034514D01*
X64997486Y-63795405D01*
X64685075Y-63666000D01*
X64350000Y-63666000D01*
X64350000Y-63330925D01*
X64220595Y-63018514D01*
X63981486Y-62779405D01*
X63669075Y-62650000D01*
X63330925Y-62650000D01*
X63018514Y-62779405D01*
X62779405Y-63018514D01*
X62650000Y-63330925D01*
X62650000Y-63669075D01*
X62779405Y-63981486D01*
X62925000Y-64127081D01*
X62925001Y-68849826D01*
X60467828Y-71307000D01*
X53966172Y-71307000D01*
X56626173Y-68647000D01*
X56666635Y-68647000D01*
X56554000Y-68918925D01*
X56554000Y-69257075D01*
X56683405Y-69569486D01*
X56922514Y-69808595D01*
X57234925Y-69938000D01*
X57573075Y-69938000D01*
X57885486Y-69808595D01*
X58031081Y-69663000D01*
X60332919Y-69663000D01*
X60478514Y-69808595D01*
X60790925Y-69938000D01*
X61129075Y-69938000D01*
X61441486Y-69808595D01*
X61680595Y-69569486D01*
X61810000Y-69257075D01*
X61810000Y-68918925D01*
X61680595Y-68606514D01*
X61441486Y-68367405D01*
X61129075Y-68238000D01*
X60790925Y-68238000D01*
X60478514Y-68367405D01*
X60332919Y-68513000D01*
X59302967Y-68513000D01*
X59342551Y-68486551D01*
X59374629Y-68438543D01*
X61431173Y-66382000D01*
X61637075Y-66382000D01*
X61949486Y-66252595D01*
X62188595Y-66013486D01*
X62318000Y-65701075D01*
X62318000Y-65362925D01*
X62188595Y-65050514D01*
X61949486Y-64811405D01*
X61637075Y-64682000D01*
X61298925Y-64682000D01*
X60986514Y-64811405D01*
X60747405Y-65050514D01*
X60618000Y-65362925D01*
X60618000Y-65568827D01*
X58689828Y-67497000D01*
X56444624Y-67497000D01*
X56388000Y-67485737D01*
X56331376Y-67497000D01*
X56331372Y-67497000D01*
X56163646Y-67530363D01*
X55973449Y-67657449D01*
X55941373Y-67705454D01*
X53101828Y-70545000D01*
X50799081Y-70545000D01*
X51012595Y-70331486D01*
X51142000Y-70019075D01*
X51142000Y-69813173D01*
X51166546Y-69788627D01*
X51214551Y-69756551D01*
X51246629Y-69708544D01*
X51341637Y-69566354D01*
X51348371Y-69532500D01*
X51375000Y-69398628D01*
X51375000Y-69398625D01*
X51386263Y-69342001D01*
X51375000Y-69285377D01*
X51375000Y-64318623D01*
X51386263Y-64261999D01*
X51375000Y-64205373D01*
X51375000Y-64205372D01*
X51341637Y-64037646D01*
X51280821Y-63946628D01*
X51246628Y-63895455D01*
X51246627Y-63895454D01*
X51214551Y-63847449D01*
X51166546Y-63815373D01*
X50682098Y-63330925D01*
X53252000Y-63330925D01*
X53252000Y-63669075D01*
X53381405Y-63981486D01*
X53620514Y-64220595D01*
X53932925Y-64350000D01*
X54271075Y-64350000D01*
X54583486Y-64220595D01*
X54822595Y-63981486D01*
X54952000Y-63669075D01*
X54952000Y-63463172D01*
X58084247Y-60330925D01*
X61650000Y-60330925D01*
X61650000Y-60669075D01*
X61779405Y-60981486D01*
X62018514Y-61220595D01*
X62330925Y-61350000D01*
X62536827Y-61350000D01*
X62553373Y-61366546D01*
X62585449Y-61414551D01*
X62775646Y-61541637D01*
X62943372Y-61575000D01*
X62943376Y-61575000D01*
X63000000Y-61586263D01*
X63056624Y-61575000D01*
X73150000Y-61575000D01*
X73150000Y-61669075D01*
X73279405Y-61981486D01*
X73518514Y-62220595D01*
X73830925Y-62350000D01*
X74169075Y-62350000D01*
X74481486Y-62220595D01*
X74720595Y-61981486D01*
X74850000Y-61669075D01*
X74850000Y-61330925D01*
X74720595Y-61018514D01*
X74481486Y-60779405D01*
X74169075Y-60650000D01*
X73963172Y-60650000D01*
X73946629Y-60633457D01*
X73914551Y-60585449D01*
X73724354Y-60458363D01*
X73556628Y-60425000D01*
X73556623Y-60425000D01*
X73500000Y-60413737D01*
X73443377Y-60425000D01*
X63350000Y-60425000D01*
X63350000Y-60330925D01*
X63220595Y-60018514D01*
X62981486Y-59779405D01*
X62669075Y-59650000D01*
X62330925Y-59650000D01*
X62018514Y-59779405D01*
X61779405Y-60018514D01*
X61650000Y-60330925D01*
X58084247Y-60330925D01*
X61072546Y-57342627D01*
X61120551Y-57310551D01*
X61165388Y-57243449D01*
X61247637Y-57120354D01*
X61255067Y-57083000D01*
X61281000Y-56952628D01*
X61281000Y-56952625D01*
X61292263Y-56896001D01*
X61281000Y-56839377D01*
X61281000Y-55112121D01*
X66050000Y-55112121D01*
X66050000Y-55887879D01*
X66346870Y-56604586D01*
X66895414Y-57153130D01*
X67612121Y-57450000D01*
X68387879Y-57450000D01*
X69104586Y-57153130D01*
X69653130Y-56604586D01*
X69950000Y-55887879D01*
X69950000Y-55112121D01*
X69653130Y-54395414D01*
X69104586Y-53846870D01*
X68387879Y-53550000D01*
X67612121Y-53550000D01*
X66895414Y-53846870D01*
X66346870Y-54395414D01*
X66050000Y-55112121D01*
X61281000Y-55112121D01*
X61281000Y-48498172D01*
X61939173Y-47840000D01*
X62145075Y-47840000D01*
X62457486Y-47710595D01*
X62696595Y-47471486D01*
X62826000Y-47159075D01*
X62826000Y-46820925D01*
X62696595Y-46508514D01*
X62457486Y-46269405D01*
X62145075Y-46140000D01*
X61806925Y-46140000D01*
X61494514Y-46269405D01*
X61255405Y-46508514D01*
X61126000Y-46820925D01*
X61126000Y-47026827D01*
X60339455Y-47813373D01*
X60291450Y-47845449D01*
X60259374Y-47893454D01*
X60259372Y-47893456D01*
X60164363Y-48035648D01*
X60119737Y-48260000D01*
X60131001Y-48316628D01*
X60131000Y-50743372D01*
X60131000Y-50743373D01*
X60131001Y-56657826D01*
X54138828Y-62650000D01*
X53932925Y-62650000D01*
X53620514Y-62779405D01*
X53381405Y-63018514D01*
X53252000Y-63330925D01*
X50682098Y-63330925D01*
X48835000Y-61483828D01*
X48835000Y-59520925D01*
X48934000Y-59520925D01*
X48934000Y-59859075D01*
X49063405Y-60171486D01*
X49302514Y-60410595D01*
X49614925Y-60540000D01*
X49953075Y-60540000D01*
X50265486Y-60410595D01*
X50411081Y-60265000D01*
X52966919Y-60265000D01*
X53112514Y-60410595D01*
X53424925Y-60540000D01*
X53763075Y-60540000D01*
X54075486Y-60410595D01*
X54314595Y-60171486D01*
X54444000Y-59859075D01*
X54444000Y-59520925D01*
X54314595Y-59208514D01*
X54075486Y-58969405D01*
X53763075Y-58840000D01*
X53424925Y-58840000D01*
X53112514Y-58969405D01*
X52966919Y-59115000D01*
X50411081Y-59115000D01*
X50265486Y-58969405D01*
X49953075Y-58840000D01*
X49614925Y-58840000D01*
X49302514Y-58969405D01*
X49063405Y-59208514D01*
X48934000Y-59520925D01*
X48835000Y-59520925D01*
X48835000Y-55864172D01*
X49747173Y-54952000D01*
X49953075Y-54952000D01*
X50265486Y-54822595D01*
X50504595Y-54583486D01*
X50634000Y-54271075D01*
X50634000Y-53932925D01*
X50504595Y-53620514D01*
X50265486Y-53381405D01*
X49953075Y-53252000D01*
X49614925Y-53252000D01*
X49302514Y-53381405D01*
X49063405Y-53620514D01*
X48934000Y-53932925D01*
X48934000Y-54138827D01*
X48021828Y-55051000D01*
X40950624Y-55051000D01*
X40894000Y-55039737D01*
X40837376Y-55051000D01*
X40837372Y-55051000D01*
X40669646Y-55084363D01*
X40479449Y-55211449D01*
X40447373Y-55259454D01*
X35701455Y-60005373D01*
X35653450Y-60037449D01*
X35621374Y-60085454D01*
X35621372Y-60085456D01*
X35526363Y-60227648D01*
X35481737Y-60452000D01*
X35493001Y-60508628D01*
X35493000Y-69475877D01*
X35481737Y-69532500D01*
X35493000Y-69589123D01*
X35493000Y-69589127D01*
X35526363Y-69756853D01*
X35653449Y-69947051D01*
X35701457Y-69979129D01*
X36191501Y-70469174D01*
X36191500Y-75879000D01*
X31689945Y-75879000D01*
X32132909Y-75695518D01*
X32695518Y-75132909D01*
X33000000Y-74397825D01*
X33000000Y-73602175D01*
X32695518Y-72867091D01*
X32132909Y-72304482D01*
X31397825Y-72000000D01*
X30602175Y-72000000D01*
X29867091Y-72304482D01*
X29304482Y-72867091D01*
X29000000Y-73602175D01*
X29000000Y-74397825D01*
X29304482Y-75132909D01*
X29867091Y-75695518D01*
X30310055Y-75879000D01*
X28250623Y-75879000D01*
X28193999Y-75867737D01*
X28137375Y-75879000D01*
X28137372Y-75879000D01*
X27969646Y-75912363D01*
X27836184Y-76001540D01*
X27779449Y-76039449D01*
X27747373Y-76087454D01*
X26431828Y-77403000D01*
X25773081Y-77403000D01*
X25627486Y-77257405D01*
X25315075Y-77128000D01*
X24976925Y-77128000D01*
X24664514Y-77257405D01*
X24425405Y-77496514D01*
X24296000Y-77808925D01*
X23788123Y-77808925D01*
X31369519Y-67384508D01*
X31378504Y-67378504D01*
X31430727Y-67300347D01*
X31454998Y-67266974D01*
X31459404Y-67257428D01*
X31494539Y-67204845D01*
X31502765Y-67163489D01*
X31520435Y-67125208D01*
X31522948Y-67062022D01*
X31525000Y-67051706D01*
X31525000Y-67010427D01*
X31528735Y-66916516D01*
X31525000Y-66906377D01*
X31525000Y-51138925D01*
X54268000Y-51138925D01*
X54268000Y-51477075D01*
X54397405Y-51789486D01*
X54636514Y-52028595D01*
X54948925Y-52158000D01*
X55287075Y-52158000D01*
X55599486Y-52028595D01*
X55838595Y-51789486D01*
X55968000Y-51477075D01*
X55968000Y-51271172D01*
X57134173Y-50105000D01*
X57347377Y-50105000D01*
X57404000Y-50116263D01*
X57460623Y-50105000D01*
X57460628Y-50105000D01*
X57628354Y-50071637D01*
X57818551Y-49944551D01*
X57850629Y-49896543D01*
X58383173Y-49364000D01*
X58589075Y-49364000D01*
X58901486Y-49234595D01*
X59140595Y-48995486D01*
X59270000Y-48683075D01*
X59270000Y-48344925D01*
X59140595Y-48032514D01*
X58901486Y-47793405D01*
X58589075Y-47664000D01*
X58250925Y-47664000D01*
X57938514Y-47793405D01*
X57699405Y-48032514D01*
X57570000Y-48344925D01*
X57570000Y-48550827D01*
X57165828Y-48955000D01*
X56952624Y-48955000D01*
X56896000Y-48943737D01*
X56839376Y-48955000D01*
X56839372Y-48955000D01*
X56671646Y-48988363D01*
X56481449Y-49115449D01*
X56449373Y-49163454D01*
X55154828Y-50458000D01*
X54948925Y-50458000D01*
X54636514Y-50587405D01*
X54397405Y-50826514D01*
X54268000Y-51138925D01*
X31525000Y-51138925D01*
X31525000Y-44313752D01*
X32550000Y-44313752D01*
X32550000Y-45686248D01*
X33075232Y-46954268D01*
X34045732Y-47924768D01*
X35313752Y-48450000D01*
X36686248Y-48450000D01*
X37954268Y-47924768D01*
X38296111Y-47582925D01*
X49188000Y-47582925D01*
X49188000Y-47921075D01*
X49317405Y-48233486D01*
X49556514Y-48472595D01*
X49868925Y-48602000D01*
X50207075Y-48602000D01*
X50519486Y-48472595D01*
X50665081Y-48327000D01*
X52712919Y-48327000D01*
X52858514Y-48472595D01*
X53170925Y-48602000D01*
X53509075Y-48602000D01*
X53821486Y-48472595D01*
X54060595Y-48233486D01*
X54190000Y-47921075D01*
X54190000Y-47582925D01*
X54060595Y-47270514D01*
X53821486Y-47031405D01*
X53509075Y-46902000D01*
X53170925Y-46902000D01*
X52858514Y-47031405D01*
X52712919Y-47177000D01*
X50665081Y-47177000D01*
X50519486Y-47031405D01*
X50207075Y-46902000D01*
X49868925Y-46902000D01*
X49556514Y-47031405D01*
X49317405Y-47270514D01*
X49188000Y-47582925D01*
X38296111Y-47582925D01*
X38924768Y-46954268D01*
X39450000Y-45686248D01*
X39450000Y-44313752D01*
X39225982Y-43772925D01*
X60110000Y-43772925D01*
X60110000Y-44111075D01*
X60239405Y-44423486D01*
X60478514Y-44662595D01*
X60790925Y-44792000D01*
X61129075Y-44792000D01*
X61441486Y-44662595D01*
X61512081Y-44592000D01*
X61960763Y-44592000D01*
X63757111Y-46388349D01*
X63793376Y-46442624D01*
X64008383Y-46586286D01*
X64197982Y-46624000D01*
X64197983Y-46624000D01*
X64262000Y-46636734D01*
X64326016Y-46624000D01*
X64979919Y-46624000D01*
X65050514Y-46694595D01*
X65362925Y-46824000D01*
X65701075Y-46824000D01*
X66013486Y-46694595D01*
X66252595Y-46455486D01*
X66382000Y-46143075D01*
X66382000Y-45804925D01*
X66252595Y-45492514D01*
X66013486Y-45253405D01*
X65701075Y-45124000D01*
X65362925Y-45124000D01*
X65050514Y-45253405D01*
X64979919Y-45324000D01*
X64531238Y-45324000D01*
X62734891Y-43527654D01*
X62698624Y-43473376D01*
X62483617Y-43329714D01*
X62294018Y-43292000D01*
X62294016Y-43292000D01*
X62230000Y-43279266D01*
X62165984Y-43292000D01*
X61512081Y-43292000D01*
X61441486Y-43221405D01*
X61129075Y-43092000D01*
X60790925Y-43092000D01*
X60478514Y-43221405D01*
X60239405Y-43460514D01*
X60110000Y-43772925D01*
X39225982Y-43772925D01*
X38924768Y-43045732D01*
X38889961Y-43010925D01*
X76874000Y-43010925D01*
X76874000Y-43349075D01*
X77003405Y-43661486D01*
X77242514Y-43900595D01*
X77554925Y-44030000D01*
X77893075Y-44030000D01*
X78205486Y-43900595D01*
X78351081Y-43755000D01*
X78429377Y-43755000D01*
X78486000Y-43766263D01*
X78542623Y-43755000D01*
X78542628Y-43755000D01*
X78710354Y-43721637D01*
X78900551Y-43594551D01*
X78932629Y-43546543D01*
X80248173Y-42231000D01*
X85105828Y-42231000D01*
X86929373Y-44054546D01*
X86961449Y-44102551D01*
X87151646Y-44229637D01*
X87319372Y-44263000D01*
X87319376Y-44263000D01*
X87376000Y-44274263D01*
X87432623Y-44263000D01*
X89859377Y-44263000D01*
X89916000Y-44274263D01*
X89972623Y-44263000D01*
X89972628Y-44263000D01*
X90140354Y-44229637D01*
X90330551Y-44102551D01*
X90362629Y-44054543D01*
X90662173Y-43755000D01*
X92629425Y-43755000D01*
X92622000Y-43772925D01*
X92622000Y-44111075D01*
X92751405Y-44423486D01*
X92990514Y-44662595D01*
X93302925Y-44792000D01*
X93641075Y-44792000D01*
X93953486Y-44662595D01*
X94024081Y-44592000D01*
X95205919Y-44592000D01*
X95276514Y-44662595D01*
X95588925Y-44792000D01*
X95927075Y-44792000D01*
X96239486Y-44662595D01*
X96367156Y-44534925D01*
X104814000Y-44534925D01*
X104814000Y-44873075D01*
X104943405Y-45185486D01*
X105182514Y-45424595D01*
X105494925Y-45554000D01*
X105833075Y-45554000D01*
X106145486Y-45424595D01*
X106291081Y-45279000D01*
X107203828Y-45279000D01*
X109640000Y-47715173D01*
X109640000Y-47921075D01*
X109769405Y-48233486D01*
X110008514Y-48472595D01*
X110320925Y-48602000D01*
X110659075Y-48602000D01*
X110971486Y-48472595D01*
X111210595Y-48233486D01*
X111340000Y-47921075D01*
X111340000Y-47582925D01*
X111210595Y-47270514D01*
X111015006Y-47074925D01*
X122086000Y-47074925D01*
X122086000Y-47413075D01*
X122215405Y-47725486D01*
X122454514Y-47964595D01*
X122766925Y-48094000D01*
X123105075Y-48094000D01*
X123417486Y-47964595D01*
X123488081Y-47894000D01*
X141462763Y-47894000D01*
X144021113Y-50452351D01*
X144057376Y-50506624D01*
X144111648Y-50542887D01*
X144272382Y-50650286D01*
X144526000Y-50700734D01*
X144590018Y-50688000D01*
X148037919Y-50688000D01*
X148108514Y-50758595D01*
X148420925Y-50888000D01*
X148759075Y-50888000D01*
X149071486Y-50758595D01*
X149310595Y-50519486D01*
X149440000Y-50207075D01*
X149440000Y-49868925D01*
X149310595Y-49556514D01*
X149071486Y-49317405D01*
X148759075Y-49188000D01*
X148420925Y-49188000D01*
X148108514Y-49317405D01*
X148037919Y-49388000D01*
X144795239Y-49388000D01*
X142236891Y-46829654D01*
X142200624Y-46775376D01*
X141985617Y-46631714D01*
X141796018Y-46594000D01*
X141796016Y-46594000D01*
X141732000Y-46581266D01*
X141667984Y-46594000D01*
X123488081Y-46594000D01*
X123417486Y-46523405D01*
X123105075Y-46394000D01*
X122766925Y-46394000D01*
X122454514Y-46523405D01*
X122215405Y-46762514D01*
X122086000Y-47074925D01*
X111015006Y-47074925D01*
X110971486Y-47031405D01*
X110659075Y-46902000D01*
X110453173Y-46902000D01*
X107888629Y-44337457D01*
X107856551Y-44289449D01*
X107666354Y-44162363D01*
X107498628Y-44129000D01*
X107498623Y-44129000D01*
X107442000Y-44117737D01*
X107385377Y-44129000D01*
X106291081Y-44129000D01*
X106145486Y-43983405D01*
X105833075Y-43854000D01*
X105494925Y-43854000D01*
X105182514Y-43983405D01*
X104943405Y-44222514D01*
X104814000Y-44534925D01*
X96367156Y-44534925D01*
X96478595Y-44423486D01*
X96608000Y-44111075D01*
X96608000Y-43772925D01*
X96600575Y-43755000D01*
X107965828Y-43755000D01*
X108599455Y-44388628D01*
X108599458Y-44388630D01*
X109894000Y-45683173D01*
X109894000Y-45889075D01*
X110023405Y-46201486D01*
X110262514Y-46440595D01*
X110574925Y-46570000D01*
X110913075Y-46570000D01*
X111225486Y-46440595D01*
X111464595Y-46201486D01*
X111594000Y-45889075D01*
X111594000Y-45550925D01*
X111464595Y-45238514D01*
X111225486Y-44999405D01*
X110913075Y-44870000D01*
X110707173Y-44870000D01*
X110150925Y-44313752D01*
X150550000Y-44313752D01*
X150550000Y-45686248D01*
X151075232Y-46954268D01*
X152045732Y-47924768D01*
X153313752Y-48450000D01*
X154686248Y-48450000D01*
X155954268Y-47924768D01*
X156924768Y-46954268D01*
X157450000Y-45686248D01*
X157450000Y-44313752D01*
X156924768Y-43045732D01*
X155954268Y-42075232D01*
X154686248Y-41550000D01*
X153313752Y-41550000D01*
X152045732Y-42075232D01*
X151075232Y-43045732D01*
X150550000Y-44313752D01*
X110150925Y-44313752D01*
X109412630Y-43575458D01*
X109412628Y-43575455D01*
X108650628Y-42813456D01*
X108618551Y-42765449D01*
X108428354Y-42638363D01*
X108260628Y-42605000D01*
X108260623Y-42605000D01*
X108204000Y-42593737D01*
X108147377Y-42605000D01*
X90480623Y-42605000D01*
X90423999Y-42593737D01*
X90367375Y-42605000D01*
X90367372Y-42605000D01*
X90199646Y-42638363D01*
X90009449Y-42765449D01*
X89977373Y-42813454D01*
X89677828Y-43113000D01*
X87614173Y-43113000D01*
X85790629Y-41289457D01*
X85758551Y-41241449D01*
X85568354Y-41114363D01*
X85400628Y-41081000D01*
X85400623Y-41081000D01*
X85344000Y-41069737D01*
X85287377Y-41081000D01*
X80066623Y-41081000D01*
X80009999Y-41069737D01*
X79953375Y-41081000D01*
X79953372Y-41081000D01*
X79785646Y-41114363D01*
X79595449Y-41241449D01*
X79563373Y-41289454D01*
X78299454Y-42553373D01*
X78205486Y-42459405D01*
X77893075Y-42330000D01*
X77554925Y-42330000D01*
X77242514Y-42459405D01*
X77003405Y-42698514D01*
X76874000Y-43010925D01*
X38889961Y-43010925D01*
X37954268Y-42075232D01*
X36686248Y-41550000D01*
X35313752Y-41550000D01*
X34045732Y-42075232D01*
X33075232Y-43045732D01*
X32550000Y-44313752D01*
X31525000Y-44313752D01*
X31525000Y-44217461D01*
X35217462Y-40525000D01*
X154782539Y-40525000D01*
X158475000Y-44217462D01*
X158475000Y-44217462D01*
G37*
X158475000Y-44217462D02*
X158475001Y-66906374D01*
X158471265Y-66916516D01*
X158475001Y-67010452D01*
X158475001Y-67051706D01*
X158477052Y-67062016D01*
X158479565Y-67125208D01*
X158497236Y-67163492D01*
X158505462Y-67204845D01*
X158540595Y-67257425D01*
X158545002Y-67266973D01*
X158569277Y-67300352D01*
X158621497Y-67378504D01*
X158630481Y-67384507D01*
X166475000Y-78170723D01*
X166475001Y-110782537D01*
X162782539Y-114475000D01*
X141082269Y-114475000D01*
X141061177Y-114468223D01*
X140978521Y-114475000D01*
X140948294Y-114475000D01*
X140927098Y-114479216D01*
X140853018Y-114485290D01*
X140825499Y-114499425D01*
X140795155Y-114505461D01*
X140733345Y-114546761D01*
X140714130Y-114556631D01*
X140690467Y-114575411D01*
X140621496Y-114621496D01*
X140609185Y-114639921D01*
X134516984Y-119475000D01*
X103215081Y-119475000D01*
X103336595Y-119353486D01*
X103466000Y-119041075D01*
X103466000Y-118702925D01*
X103336595Y-118390514D01*
X103191000Y-118244919D01*
X103191000Y-117213081D01*
X103336595Y-117067486D01*
X103466000Y-116755075D01*
X103466000Y-116416925D01*
X103353365Y-116145000D01*
X106623377Y-116145000D01*
X106680000Y-116156263D01*
X106736623Y-116145000D01*
X106736628Y-116145000D01*
X106904354Y-116111637D01*
X107094551Y-115984551D01*
X107126629Y-115936543D01*
X107659173Y-115404000D01*
X107865075Y-115404000D01*
X108177486Y-115274595D01*
X108331000Y-115121081D01*
X108484514Y-115274595D01*
X108796925Y-115404000D01*
X109135075Y-115404000D01*
X109447486Y-115274595D01*
X109686595Y-115035486D01*
X109816000Y-114723075D01*
X109816000Y-114384925D01*
X109686595Y-114072514D01*
X109541000Y-113926919D01*
X109541000Y-112895081D01*
X109686595Y-112749486D01*
X109816000Y-112437075D01*
X109816000Y-112098925D01*
X109686595Y-111786514D01*
X109447486Y-111547405D01*
X109135075Y-111418000D01*
X108796925Y-111418000D01*
X108484514Y-111547405D01*
X108245405Y-111786514D01*
X108116000Y-112098925D01*
X108116000Y-112437075D01*
X108245405Y-112749486D01*
X108391000Y-112895081D01*
X108391001Y-113926918D01*
X108331000Y-113986919D01*
X108177486Y-113833405D01*
X107865075Y-113704000D01*
X107526925Y-113704000D01*
X107214514Y-113833405D01*
X107061000Y-113986919D01*
X107001000Y-113926919D01*
X107001000Y-113657081D01*
X107146595Y-113511486D01*
X107276000Y-113199075D01*
X107276000Y-112860925D01*
X107146595Y-112548514D01*
X106907486Y-112309405D01*
X106595075Y-112180000D01*
X106256925Y-112180000D01*
X105944514Y-112309405D01*
X105705405Y-112548514D01*
X105576000Y-112860925D01*
X105576000Y-113199075D01*
X105705405Y-113511486D01*
X105851000Y-113657081D01*
X105851001Y-113926918D01*
X105705405Y-114072514D01*
X105576000Y-114384925D01*
X105576000Y-114723075D01*
X105688635Y-114995000D01*
X104623365Y-114995000D01*
X104736000Y-114723075D01*
X104736000Y-114384925D01*
X104606595Y-114072514D01*
X104461000Y-113926919D01*
X104461000Y-113657081D01*
X104606595Y-113511486D01*
X104736000Y-113199075D01*
X104736000Y-112860925D01*
X104606595Y-112548514D01*
X104367486Y-112309405D01*
X104055075Y-112180000D01*
X103716925Y-112180000D01*
X103466000Y-112283937D01*
X103466000Y-112098925D01*
X103336595Y-111786514D01*
X103191000Y-111640919D01*
X103191000Y-111117081D01*
X103336595Y-110971486D01*
X103466000Y-110659075D01*
X103466000Y-110320925D01*
X103336595Y-110008514D01*
X103097486Y-109769405D01*
X102785075Y-109640000D01*
X102446925Y-109640000D01*
X102134514Y-109769405D01*
X101895405Y-110008514D01*
X101766000Y-110320925D01*
X101766000Y-110659075D01*
X101895405Y-110971486D01*
X102041001Y-111117082D01*
X102041000Y-111640919D01*
X101895405Y-111786514D01*
X101766000Y-112098925D01*
X101766000Y-112437075D01*
X101895405Y-112749486D01*
X102134514Y-112988595D01*
X102446925Y-113118000D01*
X102785075Y-113118000D01*
X103036000Y-113014063D01*
X103036000Y-113199075D01*
X103165405Y-113511486D01*
X103311000Y-113657081D01*
X103311001Y-113926918D01*
X103165405Y-114072514D01*
X103036000Y-114384925D01*
X103036000Y-114723075D01*
X103148635Y-114995000D01*
X102346173Y-114995000D01*
X101667000Y-114315828D01*
X101667000Y-105783081D01*
X101812595Y-105637486D01*
X101871645Y-105494925D01*
X104306000Y-105494925D01*
X104306000Y-105833075D01*
X104435405Y-106145486D01*
X104581001Y-106291082D01*
X104581000Y-107830919D01*
X104435405Y-107976514D01*
X104306000Y-108288925D01*
X104306000Y-108627075D01*
X104435405Y-108939486D01*
X104674514Y-109178595D01*
X104986925Y-109308000D01*
X105325075Y-109308000D01*
X105637486Y-109178595D01*
X105876595Y-108939486D01*
X106006000Y-108627075D01*
X106006000Y-108288925D01*
X105876595Y-107976514D01*
X105731000Y-107830919D01*
X105731000Y-106291081D01*
X105876595Y-106145486D01*
X106006000Y-105833075D01*
X106006000Y-105494925D01*
X105876595Y-105182514D01*
X105637486Y-104943405D01*
X105325075Y-104814000D01*
X104986925Y-104814000D01*
X104674514Y-104943405D01*
X104435405Y-105182514D01*
X104306000Y-105494925D01*
X101871645Y-105494925D01*
X101942000Y-105325075D01*
X101942000Y-104986925D01*
X101812595Y-104674514D01*
X101573486Y-104435405D01*
X101261075Y-104306000D01*
X100922925Y-104306000D01*
X100610514Y-104435405D01*
X100371405Y-104674514D01*
X100242000Y-104986925D01*
X100242000Y-105325075D01*
X100371405Y-105637486D01*
X100517000Y-105783081D01*
X100517001Y-113227368D01*
X100517000Y-113227373D01*
X100517001Y-114497372D01*
X100505737Y-114554000D01*
X100550363Y-114778352D01*
X100645372Y-114920544D01*
X100645373Y-114920545D01*
X100677450Y-114968551D01*
X100725455Y-115000627D01*
X101661373Y-115936546D01*
X101693449Y-115984551D01*
X101883646Y-116111637D01*
X101891784Y-116113256D01*
X101766000Y-116416925D01*
X101766000Y-116755075D01*
X101895405Y-117067486D01*
X102041001Y-117213082D01*
X102041000Y-118244919D01*
X101895405Y-118390514D01*
X101766000Y-118702925D01*
X101766000Y-119041075D01*
X101895405Y-119353486D01*
X102016919Y-119475000D01*
X86570172Y-119475000D01*
X86577172Y-119468000D01*
X86783075Y-119468000D01*
X87095486Y-119338595D01*
X87334595Y-119099486D01*
X87464000Y-118787075D01*
X87464000Y-118448925D01*
X87418148Y-118338229D01*
X87656514Y-118576595D01*
X87968925Y-118706000D01*
X88307075Y-118706000D01*
X88619486Y-118576595D01*
X88858595Y-118337486D01*
X88988000Y-118025075D01*
X88988000Y-117925238D01*
X89822351Y-117090888D01*
X89876624Y-117054624D01*
X90020286Y-116839617D01*
X90058000Y-116650018D01*
X90058000Y-116650017D01*
X90070734Y-116586001D01*
X90058000Y-116521984D01*
X90058000Y-112457982D01*
X90020286Y-112268383D01*
X89907059Y-112098925D01*
X94908000Y-112098925D01*
X94908000Y-112437075D01*
X95037405Y-112749486D01*
X95183000Y-112895081D01*
X95183001Y-113672918D01*
X95037405Y-113818514D01*
X94908000Y-114130925D01*
X94908000Y-114469075D01*
X95037405Y-114781486D01*
X95276514Y-115020595D01*
X95588925Y-115150000D01*
X95927075Y-115150000D01*
X96239486Y-115020595D01*
X96478595Y-114781486D01*
X96608000Y-114469075D01*
X96608000Y-114130925D01*
X96478595Y-113818514D01*
X96333000Y-113672919D01*
X96333000Y-112895081D01*
X96478595Y-112749486D01*
X96608000Y-112437075D01*
X96608000Y-112098925D01*
X96478595Y-111786514D01*
X96239486Y-111547405D01*
X95927075Y-111418000D01*
X95588925Y-111418000D01*
X95276514Y-111547405D01*
X95037405Y-111786514D01*
X94908000Y-112098925D01*
X89907059Y-112098925D01*
X89876624Y-112053376D01*
X89661616Y-111909714D01*
X89595794Y-111896621D01*
X88205000Y-110505828D01*
X88205000Y-103208925D01*
X113196000Y-103208925D01*
X113196000Y-103547075D01*
X113325405Y-103859486D01*
X113471000Y-104005081D01*
X113471001Y-114942918D01*
X113325405Y-115088514D01*
X113196000Y-115400925D01*
X113196000Y-115739075D01*
X113325405Y-116051486D01*
X113564514Y-116290595D01*
X113876925Y-116420000D01*
X114215075Y-116420000D01*
X114527486Y-116290595D01*
X114766595Y-116051486D01*
X114896000Y-115739075D01*
X114896000Y-115400925D01*
X114766595Y-115088514D01*
X114621000Y-114942919D01*
X114621000Y-110320925D01*
X115228000Y-110320925D01*
X115228000Y-110659075D01*
X115357405Y-110971486D01*
X115503001Y-111117082D01*
X115503000Y-111640919D01*
X115357405Y-111786514D01*
X115228000Y-112098925D01*
X115228000Y-112437075D01*
X115357405Y-112749486D01*
X115596514Y-112988595D01*
X115908925Y-113118000D01*
X116247075Y-113118000D01*
X116498000Y-113014063D01*
X116498000Y-113199075D01*
X116627405Y-113511486D01*
X116773000Y-113657081D01*
X116773001Y-114243368D01*
X116761736Y-114300000D01*
X116773000Y-114356628D01*
X116773001Y-116466918D01*
X116627405Y-116612514D01*
X116498000Y-116924925D01*
X116498000Y-117263075D01*
X116627405Y-117575486D01*
X116866514Y-117814595D01*
X117178925Y-117944000D01*
X117517075Y-117944000D01*
X117829486Y-117814595D01*
X118068595Y-117575486D01*
X118198000Y-117263075D01*
X118198000Y-116924925D01*
X118068595Y-116612514D01*
X117923000Y-116466919D01*
X117923000Y-114875000D01*
X118633828Y-114875000D01*
X119313000Y-115554173D01*
X119313001Y-116466918D01*
X119167405Y-116612514D01*
X119038000Y-116924925D01*
X119038000Y-117263075D01*
X119167405Y-117575486D01*
X119406514Y-117814595D01*
X119718925Y-117944000D01*
X120057075Y-117944000D01*
X120369486Y-117814595D01*
X120608595Y-117575486D01*
X120738000Y-117263075D01*
X120738000Y-116924925D01*
X120608595Y-116612514D01*
X120463000Y-116466919D01*
X120463000Y-115372623D01*
X120474263Y-115316000D01*
X120463000Y-115259376D01*
X120463000Y-115259372D01*
X120429637Y-115091646D01*
X120302551Y-114901449D01*
X120254546Y-114869373D01*
X119318629Y-113933457D01*
X119286551Y-113885449D01*
X119096354Y-113758363D01*
X118928628Y-113725000D01*
X118928623Y-113725000D01*
X118872000Y-113713737D01*
X118815377Y-113725000D01*
X117923000Y-113725000D01*
X117923000Y-113657081D01*
X118068595Y-113511486D01*
X118198000Y-113199075D01*
X118198000Y-112860925D01*
X118068595Y-112548514D01*
X117829486Y-112309405D01*
X117517075Y-112180000D01*
X117178925Y-112180000D01*
X116928000Y-112283937D01*
X116928000Y-112098925D01*
X116798595Y-111786514D01*
X116653000Y-111640919D01*
X116653000Y-111117081D01*
X116798595Y-110971486D01*
X116928000Y-110659075D01*
X116928000Y-110320925D01*
X116798595Y-110008514D01*
X116559486Y-109769405D01*
X116247075Y-109640000D01*
X115908925Y-109640000D01*
X115596514Y-109769405D01*
X115357405Y-110008514D01*
X115228000Y-110320925D01*
X114621000Y-110320925D01*
X114621000Y-104005081D01*
X114766595Y-103859486D01*
X114896000Y-103547075D01*
X114896000Y-103208925D01*
X116752000Y-103208925D01*
X116752000Y-103547075D01*
X116881405Y-103859486D01*
X117027001Y-104005082D01*
X117027000Y-110179377D01*
X117015737Y-110236000D01*
X117027000Y-110292623D01*
X117027000Y-110292627D01*
X117060363Y-110460353D01*
X117187449Y-110650551D01*
X117235457Y-110682629D01*
X118805000Y-112252173D01*
X118805000Y-112719377D01*
X118793737Y-112776000D01*
X118805000Y-112832623D01*
X118805000Y-112832627D01*
X118838363Y-113000353D01*
X118965449Y-113190551D01*
X119013457Y-113222629D01*
X120308000Y-114517173D01*
X120308000Y-114723075D01*
X120437405Y-115035486D01*
X120676514Y-115274595D01*
X120988925Y-115404000D01*
X121327075Y-115404000D01*
X121639486Y-115274595D01*
X121793000Y-115121081D01*
X121946514Y-115274595D01*
X122258925Y-115404000D01*
X122597075Y-115404000D01*
X122909486Y-115274595D01*
X123148595Y-115035486D01*
X123278000Y-114723075D01*
X123278000Y-114384925D01*
X123148595Y-114072514D01*
X123078000Y-114001919D01*
X123078000Y-112918000D01*
X136099919Y-112918000D01*
X136170514Y-112988595D01*
X136482925Y-113118000D01*
X136821075Y-113118000D01*
X137133486Y-112988595D01*
X137372595Y-112749486D01*
X137502000Y-112437075D01*
X137502000Y-112098925D01*
X137372595Y-111786514D01*
X137133486Y-111547405D01*
X136821075Y-111418000D01*
X136482925Y-111418000D01*
X136170514Y-111547405D01*
X136099919Y-111618000D01*
X122980081Y-111618000D01*
X122909486Y-111547405D01*
X122597075Y-111418000D01*
X122258925Y-111418000D01*
X121946514Y-111547405D01*
X121707405Y-111786514D01*
X121578000Y-112098925D01*
X121578000Y-112437075D01*
X121707405Y-112749486D01*
X121778001Y-112820082D01*
X121778000Y-113971919D01*
X121639486Y-113833405D01*
X121327075Y-113704000D01*
X121121173Y-113704000D01*
X119955000Y-112537828D01*
X119955000Y-112070624D01*
X119966263Y-112014000D01*
X119955000Y-111957376D01*
X119955000Y-111957372D01*
X119921637Y-111789646D01*
X119794551Y-111599449D01*
X119746546Y-111567373D01*
X118781348Y-110602175D01*
X147000000Y-110602175D01*
X147000000Y-111397825D01*
X147304482Y-112132909D01*
X147867091Y-112695518D01*
X148602175Y-113000000D01*
X149397825Y-113000000D01*
X150132909Y-112695518D01*
X150695518Y-112132909D01*
X151000000Y-111397825D01*
X151000000Y-110602175D01*
X150695518Y-109867091D01*
X150142179Y-109313752D01*
X158550000Y-109313752D01*
X158550000Y-110686248D01*
X159075232Y-111954268D01*
X160045732Y-112924768D01*
X161313752Y-113450000D01*
X162686248Y-113450000D01*
X163954268Y-112924768D01*
X164924768Y-111954268D01*
X165450000Y-110686248D01*
X165450000Y-109313752D01*
X164924768Y-108045732D01*
X163954268Y-107075232D01*
X162686248Y-106550000D01*
X161313752Y-106550000D01*
X160045732Y-107075232D01*
X159075232Y-108045732D01*
X158550000Y-109313752D01*
X150142179Y-109313752D01*
X150132909Y-109304482D01*
X149397825Y-109000000D01*
X148602175Y-109000000D01*
X147867091Y-109304482D01*
X147304482Y-109867091D01*
X147000000Y-110602175D01*
X118781348Y-110602175D01*
X118177000Y-109997828D01*
X118177000Y-109195365D01*
X118448925Y-109308000D01*
X118787075Y-109308000D01*
X119099486Y-109178595D01*
X119338595Y-108939486D01*
X119468000Y-108627075D01*
X119468000Y-108421172D01*
X119872173Y-108017000D01*
X121101377Y-108017000D01*
X121158000Y-108028263D01*
X121214623Y-108017000D01*
X121214628Y-108017000D01*
X121382354Y-107983637D01*
X121572551Y-107856551D01*
X121604629Y-107808543D01*
X121886247Y-107526925D01*
X126404000Y-107526925D01*
X126404000Y-107865075D01*
X126533405Y-108177486D01*
X126772514Y-108416595D01*
X127084925Y-108546000D01*
X127423075Y-108546000D01*
X127735486Y-108416595D01*
X127881081Y-108271000D01*
X134754919Y-108271000D01*
X134900514Y-108416595D01*
X135212925Y-108546000D01*
X135551075Y-108546000D01*
X135863486Y-108416595D01*
X136102595Y-108177486D01*
X136232000Y-107865075D01*
X136232000Y-107526925D01*
X136102595Y-107214514D01*
X135863486Y-106975405D01*
X135551075Y-106846000D01*
X135212925Y-106846000D01*
X134900514Y-106975405D01*
X134754919Y-107121000D01*
X127881081Y-107121000D01*
X127735486Y-106975405D01*
X127423075Y-106846000D01*
X127084925Y-106846000D01*
X126772514Y-106975405D01*
X126533405Y-107214514D01*
X126404000Y-107526925D01*
X121886247Y-107526925D01*
X124931173Y-104482000D01*
X125137075Y-104482000D01*
X125449486Y-104352595D01*
X125688595Y-104113486D01*
X125818000Y-103801075D01*
X125818000Y-103462925D01*
X125688595Y-103150514D01*
X125449486Y-102911405D01*
X125137075Y-102782000D01*
X124798925Y-102782000D01*
X124486514Y-102911405D01*
X124247405Y-103150514D01*
X124118000Y-103462925D01*
X124118000Y-103668827D01*
X120919828Y-106867000D01*
X119690623Y-106867000D01*
X119634000Y-106855737D01*
X119577376Y-106867000D01*
X119577372Y-106867000D01*
X119409646Y-106900363D01*
X119219449Y-107027449D01*
X119187373Y-107075454D01*
X118654828Y-107608000D01*
X118448925Y-107608000D01*
X118177000Y-107720635D01*
X118177000Y-104005081D01*
X118322595Y-103859486D01*
X118452000Y-103547075D01*
X118452000Y-103208925D01*
X118322595Y-102896514D01*
X118083486Y-102657405D01*
X117771075Y-102528000D01*
X117432925Y-102528000D01*
X117120514Y-102657405D01*
X116881405Y-102896514D01*
X116752000Y-103208925D01*
X114896000Y-103208925D01*
X114766595Y-102896514D01*
X114527486Y-102657405D01*
X114215075Y-102528000D01*
X113876925Y-102528000D01*
X113564514Y-102657405D01*
X113325405Y-102896514D01*
X113196000Y-103208925D01*
X88205000Y-103208925D01*
X88205000Y-102926623D01*
X88216263Y-102869999D01*
X88205000Y-102813375D01*
X88205000Y-102813372D01*
X88171637Y-102645646D01*
X88076628Y-102503455D01*
X88076627Y-102503454D01*
X88044551Y-102455449D01*
X87996546Y-102423373D01*
X84774629Y-99201457D01*
X84742551Y-99153449D01*
X84552354Y-99026363D01*
X84384628Y-98993000D01*
X84384623Y-98993000D01*
X84328000Y-98981737D01*
X84271377Y-98993000D01*
X80383081Y-98993000D01*
X80237486Y-98847405D01*
X79925075Y-98718000D01*
X79586925Y-98718000D01*
X79274514Y-98847405D01*
X79128919Y-98993000D01*
X78937372Y-98993000D01*
X78769646Y-99026363D01*
X78579449Y-99153449D01*
X78452363Y-99343646D01*
X78407736Y-99568000D01*
X78452363Y-99792354D01*
X78579449Y-99982551D01*
X78769646Y-100109637D01*
X78937372Y-100143000D01*
X79128919Y-100143000D01*
X79274514Y-100288595D01*
X79586925Y-100418000D01*
X79925075Y-100418000D01*
X80237486Y-100288595D01*
X80383081Y-100143000D01*
X84089828Y-100143000D01*
X87055001Y-103108174D01*
X87055000Y-110687377D01*
X87043737Y-110744000D01*
X87055000Y-110800623D01*
X87055000Y-110800627D01*
X87088363Y-110968353D01*
X87215449Y-111158551D01*
X87263457Y-111190629D01*
X88758000Y-112685173D01*
X88758001Y-114801569D01*
X88561075Y-114720000D01*
X88222925Y-114720000D01*
X87910514Y-114849405D01*
X87764919Y-114995000D01*
X83804173Y-114995000D01*
X83618340Y-114809167D01*
X83654000Y-114723075D01*
X83654000Y-114517172D01*
X84186546Y-113984627D01*
X84234551Y-113952551D01*
X84361637Y-113762354D01*
X84395000Y-113594628D01*
X84395000Y-113594624D01*
X84406263Y-113538000D01*
X84395000Y-113481377D01*
X84395000Y-102672623D01*
X84406263Y-102615999D01*
X84395000Y-102559373D01*
X84395000Y-102559372D01*
X84361637Y-102391646D01*
X84234551Y-102201449D01*
X84186546Y-102169373D01*
X83400000Y-101382828D01*
X83400000Y-101176925D01*
X83270595Y-100864514D01*
X83031486Y-100625405D01*
X82719075Y-100496000D01*
X82380925Y-100496000D01*
X82068514Y-100625405D01*
X81829405Y-100864514D01*
X81700000Y-101176925D01*
X81700000Y-101515075D01*
X81829405Y-101827486D01*
X82068514Y-102066595D01*
X82380925Y-102196000D01*
X82586828Y-102196000D01*
X83245000Y-102854173D01*
X83245001Y-113299826D01*
X82840828Y-113704000D01*
X82634925Y-113704000D01*
X82322514Y-113833405D01*
X82083405Y-114072514D01*
X81954000Y-114384925D01*
X81954000Y-114723075D01*
X82083405Y-115035486D01*
X82322514Y-115274595D01*
X82552818Y-115369990D01*
X83119373Y-115936546D01*
X83151449Y-115984551D01*
X83341646Y-116111637D01*
X83509372Y-116145000D01*
X83509376Y-116145000D01*
X83566000Y-116156263D01*
X83622624Y-116145000D01*
X87764919Y-116145000D01*
X87910514Y-116290595D01*
X88222925Y-116420000D01*
X88561075Y-116420000D01*
X88721008Y-116353754D01*
X88068762Y-117006000D01*
X87968925Y-117006000D01*
X87656514Y-117135405D01*
X87417405Y-117374514D01*
X87288000Y-117686925D01*
X87288000Y-118025075D01*
X87333852Y-118135771D01*
X87095486Y-117897405D01*
X86783075Y-117768000D01*
X86444925Y-117768000D01*
X86132514Y-117897405D01*
X85893405Y-118136514D01*
X85764000Y-118448925D01*
X85764000Y-118654828D01*
X85613828Y-118805000D01*
X62722173Y-118805000D01*
X62422630Y-118505458D01*
X62422628Y-118505455D01*
X60773000Y-116855828D01*
X60773000Y-112098925D01*
X67984000Y-112098925D01*
X67984000Y-112437075D01*
X68113405Y-112749486D01*
X68352514Y-112988595D01*
X68664925Y-113118000D01*
X68870828Y-113118000D01*
X69911373Y-114158546D01*
X69943449Y-114206551D01*
X69991454Y-114238627D01*
X69991455Y-114238628D01*
X70043624Y-114273486D01*
X70133646Y-114333637D01*
X70301372Y-114367000D01*
X70301375Y-114367000D01*
X70357999Y-114378263D01*
X70414623Y-114367000D01*
X75826919Y-114367000D01*
X75972514Y-114512595D01*
X76284925Y-114642000D01*
X76623075Y-114642000D01*
X76935486Y-114512595D01*
X77174595Y-114273486D01*
X77304000Y-113961075D01*
X77304000Y-113622925D01*
X77174595Y-113310514D01*
X76935486Y-113071405D01*
X76623075Y-112942000D01*
X76284925Y-112942000D01*
X75972514Y-113071405D01*
X75826919Y-113217000D01*
X70596173Y-113217000D01*
X69684000Y-112304828D01*
X69684000Y-112098925D01*
X69554595Y-111786514D01*
X69315486Y-111547405D01*
X69003075Y-111418000D01*
X68664925Y-111418000D01*
X68352514Y-111547405D01*
X68113405Y-111786514D01*
X67984000Y-112098925D01*
X60773000Y-112098925D01*
X60773000Y-110546623D01*
X60784263Y-110490000D01*
X60773000Y-110433376D01*
X60773000Y-110433372D01*
X60739637Y-110265646D01*
X60612551Y-110075449D01*
X60564546Y-110043373D01*
X59016000Y-108494828D01*
X59016000Y-108288925D01*
X58886595Y-107976514D01*
X58748081Y-107838000D01*
X59117983Y-107838000D01*
X59181999Y-107850734D01*
X59246015Y-107838000D01*
X70342763Y-107838000D01*
X71377112Y-108872351D01*
X71413376Y-108926624D01*
X71628383Y-109070286D01*
X71817982Y-109108000D01*
X71817983Y-109108000D01*
X71881999Y-109120734D01*
X71946016Y-109108000D01*
X72071982Y-109108000D01*
X72136000Y-109120734D01*
X72200017Y-109108000D01*
X77636000Y-109108000D01*
X77636000Y-109389075D01*
X77765405Y-109701486D01*
X78004514Y-109940595D01*
X78316925Y-110070000D01*
X78655075Y-110070000D01*
X78967486Y-109940595D01*
X79206595Y-109701486D01*
X79336000Y-109389075D01*
X79336000Y-109289238D01*
X79517238Y-109108000D01*
X81469984Y-109108000D01*
X81534000Y-109120734D01*
X81598016Y-109108000D01*
X81598018Y-109108000D01*
X81787617Y-109070286D01*
X81811991Y-109054000D01*
X81957075Y-109054000D01*
X82269486Y-108924595D01*
X82508595Y-108685486D01*
X82638000Y-108373075D01*
X82638000Y-108034925D01*
X82508595Y-107722514D01*
X82269486Y-107483405D01*
X81957075Y-107354000D01*
X81618925Y-107354000D01*
X81306514Y-107483405D01*
X81067405Y-107722514D01*
X81031996Y-107808000D01*
X79312018Y-107808000D01*
X79248000Y-107795266D01*
X79183982Y-107808000D01*
X72786000Y-107808000D01*
X72786000Y-100374081D01*
X72856595Y-100303486D01*
X72986000Y-99991075D01*
X72986000Y-99652925D01*
X72856595Y-99340514D01*
X72617486Y-99101405D01*
X72305075Y-98972000D01*
X71966925Y-98972000D01*
X71654514Y-99101405D01*
X71415405Y-99340514D01*
X71286000Y-99652925D01*
X71286000Y-99991075D01*
X71415405Y-100303486D01*
X71486001Y-100374082D01*
X71486000Y-107142762D01*
X71116891Y-106773654D01*
X71080624Y-106719376D01*
X70865617Y-106575714D01*
X70676018Y-106538000D01*
X70676016Y-106538000D01*
X70612000Y-106525266D01*
X70547984Y-106538000D01*
X59451239Y-106538000D01*
X57146891Y-104233654D01*
X57110624Y-104179376D01*
X56895617Y-104035714D01*
X56706018Y-103998000D01*
X56706016Y-103998000D01*
X56642000Y-103985266D01*
X56577984Y-103998000D01*
X53765081Y-103998000D01*
X53694486Y-103927405D01*
X53382075Y-103798000D01*
X53043925Y-103798000D01*
X52731514Y-103927405D01*
X52492405Y-104166514D01*
X52363000Y-104478925D01*
X52363000Y-104817075D01*
X52492405Y-105129486D01*
X52731514Y-105368595D01*
X53043925Y-105498000D01*
X53382075Y-105498000D01*
X53694486Y-105368595D01*
X53765081Y-105298000D01*
X56372763Y-105298000D01*
X57609646Y-106534884D01*
X57404382Y-106575714D01*
X57267654Y-106667073D01*
X57189376Y-106719376D01*
X57153114Y-106773647D01*
X54449654Y-109477109D01*
X54395376Y-109513376D01*
X54251714Y-109728384D01*
X54239583Y-109789372D01*
X54201266Y-109982000D01*
X54214000Y-110046017D01*
X54214001Y-112223918D01*
X54143405Y-112294514D01*
X54014000Y-112606925D01*
X54014000Y-112945075D01*
X54143405Y-113257486D01*
X54382514Y-113496595D01*
X54694925Y-113626000D01*
X55033075Y-113626000D01*
X55345486Y-113496595D01*
X55584595Y-113257486D01*
X55714000Y-112945075D01*
X55714000Y-112606925D01*
X55584595Y-112294514D01*
X55514000Y-112223919D01*
X55514000Y-110251237D01*
X57316000Y-108449238D01*
X57316000Y-108627075D01*
X57445405Y-108939486D01*
X57684514Y-109178595D01*
X57996925Y-109308000D01*
X58202828Y-109308000D01*
X59623001Y-110728174D01*
X59623000Y-117037376D01*
X59611737Y-117094000D01*
X59623000Y-117150623D01*
X59623000Y-117150627D01*
X59656363Y-117318353D01*
X59783449Y-117508551D01*
X59831457Y-117540629D01*
X61609455Y-119318628D01*
X61609458Y-119318630D01*
X61765828Y-119475000D01*
X55483016Y-119475000D01*
X49390815Y-114639920D01*
X49378504Y-114621496D01*
X49309535Y-114575412D01*
X49285869Y-114556630D01*
X49266653Y-114546760D01*
X49204845Y-114505461D01*
X49174500Y-114499425D01*
X49146981Y-114485290D01*
X49072903Y-114479216D01*
X49051706Y-114475000D01*
X49021479Y-114475000D01*
X48938823Y-114468223D01*
X48917731Y-114475000D01*
X27217462Y-114475000D01*
X23525000Y-110782539D01*
X23525000Y-109313752D01*
X24550000Y-109313752D01*
X24550000Y-110686248D01*
X25075232Y-111954268D01*
X26045732Y-112924768D01*
X27313752Y-113450000D01*
X28686248Y-113450000D01*
X29954268Y-112924768D01*
X30924768Y-111954268D01*
X31450000Y-110686248D01*
X31450000Y-110602175D01*
X39000000Y-110602175D01*
X39000000Y-111397825D01*
X39304482Y-112132909D01*
X39867091Y-112695518D01*
X40602175Y-113000000D01*
X41397825Y-113000000D01*
X42132909Y-112695518D01*
X42695518Y-112132909D01*
X43000000Y-111397825D01*
X43000000Y-110602175D01*
X42695518Y-109867091D01*
X42132909Y-109304482D01*
X41397825Y-109000000D01*
X40602175Y-109000000D01*
X39867091Y-109304482D01*
X39304482Y-109867091D01*
X39000000Y-110602175D01*
X31450000Y-110602175D01*
X31450000Y-109313752D01*
X30924768Y-108045732D01*
X29954268Y-107075232D01*
X28686248Y-106550000D01*
X27313752Y-106550000D01*
X26045732Y-107075232D01*
X25075232Y-108045732D01*
X24550000Y-109313752D01*
X23525000Y-109313752D01*
X23525000Y-103716925D01*
X66587000Y-103716925D01*
X66587000Y-104055075D01*
X66716405Y-104367486D01*
X66955514Y-104606595D01*
X67267925Y-104736000D01*
X67606075Y-104736000D01*
X67918486Y-104606595D01*
X68157595Y-104367486D01*
X68287000Y-104055075D01*
X68287000Y-103906081D01*
X68479514Y-104098595D01*
X68791925Y-104228000D01*
X69130075Y-104228000D01*
X69442486Y-104098595D01*
X69681595Y-103859486D01*
X69811000Y-103547075D01*
X69811000Y-103208925D01*
X69681595Y-102896514D01*
X69536000Y-102750919D01*
X69536000Y-98925081D01*
X69681595Y-98779486D01*
X69811000Y-98467075D01*
X69811000Y-98128925D01*
X69681595Y-97816514D01*
X69442486Y-97577405D01*
X69130075Y-97448000D01*
X68791925Y-97448000D01*
X68479514Y-97577405D01*
X68240405Y-97816514D01*
X68111000Y-98128925D01*
X68111000Y-98467075D01*
X68240405Y-98779486D01*
X68386000Y-98925081D01*
X68386001Y-100019368D01*
X68386000Y-100019373D01*
X68386001Y-102750918D01*
X68240405Y-102896514D01*
X68111000Y-103208925D01*
X68111000Y-103357919D01*
X68012000Y-103258919D01*
X68012000Y-98028172D01*
X68924173Y-97116000D01*
X69130075Y-97116000D01*
X69442486Y-96986595D01*
X69681595Y-96747486D01*
X69811000Y-96435075D01*
X69811000Y-96096925D01*
X69681595Y-95784514D01*
X69442486Y-95545405D01*
X69130075Y-95416000D01*
X68791925Y-95416000D01*
X68479514Y-95545405D01*
X68240405Y-95784514D01*
X68111000Y-96096925D01*
X68111000Y-96302827D01*
X67070455Y-97343373D01*
X67022450Y-97375449D01*
X66990374Y-97423454D01*
X66990372Y-97423456D01*
X66895363Y-97565648D01*
X66850737Y-97790000D01*
X66862001Y-97846628D01*
X66862000Y-101148627D01*
X66862001Y-101148632D01*
X66862000Y-103258919D01*
X66716405Y-103404514D01*
X66587000Y-103716925D01*
X23525000Y-103716925D01*
X23525000Y-85936925D01*
X28487000Y-85936925D01*
X28487000Y-86275075D01*
X28616405Y-86587486D01*
X28855514Y-86826595D01*
X29167925Y-86956000D01*
X29506075Y-86956000D01*
X29549319Y-86938088D01*
X29512737Y-87122000D01*
X29524001Y-87178628D01*
X29524000Y-98940919D01*
X29378405Y-99086514D01*
X29249000Y-99398925D01*
X29249000Y-99737075D01*
X29378405Y-100049486D01*
X29617514Y-100288595D01*
X29929925Y-100418000D01*
X30268075Y-100418000D01*
X30580486Y-100288595D01*
X30819595Y-100049486D01*
X30949000Y-99737075D01*
X30949000Y-99398925D01*
X30819595Y-99086514D01*
X30674000Y-98940919D01*
X30674000Y-87360172D01*
X31078173Y-86956000D01*
X31284075Y-86956000D01*
X31596486Y-86826595D01*
X31835595Y-86587486D01*
X31965000Y-86275075D01*
X31965000Y-85936925D01*
X31835595Y-85624514D01*
X31796909Y-85585828D01*
X31837624Y-85558624D01*
X31873891Y-85504347D01*
X32146238Y-85232000D01*
X38973763Y-85232000D01*
X39863001Y-86121240D01*
X39863000Y-87585919D01*
X39836377Y-87612542D01*
X39666075Y-87542000D01*
X39327925Y-87542000D01*
X39015514Y-87671405D01*
X38802000Y-87884919D01*
X38802000Y-86987081D01*
X38947595Y-86841486D01*
X39077000Y-86529075D01*
X39077000Y-86190925D01*
X38947595Y-85878514D01*
X38708486Y-85639405D01*
X38396075Y-85510000D01*
X38057925Y-85510000D01*
X37745514Y-85639405D01*
X37506405Y-85878514D01*
X37377000Y-86190925D01*
X37377000Y-86529075D01*
X37506405Y-86841486D01*
X37652001Y-86987082D01*
X37652000Y-89097376D01*
X37640737Y-89154000D01*
X37652000Y-89210623D01*
X37652000Y-89210627D01*
X37685363Y-89378353D01*
X37812449Y-89568551D01*
X37860457Y-89600629D01*
X38414001Y-90154174D01*
X38414000Y-98686919D01*
X38268405Y-98832514D01*
X38139000Y-99144925D01*
X38139000Y-99483075D01*
X38268405Y-99795486D01*
X38507514Y-100034595D01*
X38819925Y-100164000D01*
X39158075Y-100164000D01*
X39470486Y-100034595D01*
X39624000Y-99881081D01*
X39777514Y-100034595D01*
X40089925Y-100164000D01*
X40428075Y-100164000D01*
X40740486Y-100034595D01*
X40979595Y-99795486D01*
X41109000Y-99483075D01*
X41109000Y-99144925D01*
X40979595Y-98832514D01*
X40834000Y-98686919D01*
X40834000Y-89210624D01*
X40845263Y-89154000D01*
X40834000Y-89097376D01*
X40834000Y-89097372D01*
X40802336Y-88938186D01*
X40994486Y-88858595D01*
X41065081Y-88788000D01*
X51106919Y-88788000D01*
X50968405Y-88926514D01*
X50839000Y-89238925D01*
X50839000Y-89577075D01*
X50968405Y-89889486D01*
X51207514Y-90128595D01*
X51368000Y-90195071D01*
X51368001Y-97416918D01*
X51222405Y-97562514D01*
X51093000Y-97874925D01*
X51093000Y-98213075D01*
X51222405Y-98525486D01*
X51461514Y-98764595D01*
X51773925Y-98894000D01*
X52112075Y-98894000D01*
X52424486Y-98764595D01*
X52663595Y-98525486D01*
X52793000Y-98213075D01*
X52793000Y-97874925D01*
X52663595Y-97562514D01*
X52518000Y-97416919D01*
X52518000Y-89718623D01*
X52529263Y-89661999D01*
X52521010Y-89620507D01*
X52539000Y-89577075D01*
X52539000Y-89238925D01*
X52414174Y-88937569D01*
X52535925Y-88988000D01*
X52874075Y-88988000D01*
X53186486Y-88858595D01*
X53257081Y-88788000D01*
X63298919Y-88788000D01*
X63160405Y-88926514D01*
X63031000Y-89238925D01*
X63031000Y-89577075D01*
X63160405Y-89889486D01*
X63306000Y-90035081D01*
X63306001Y-97162918D01*
X63160405Y-97308514D01*
X63031000Y-97620925D01*
X63031000Y-97959075D01*
X63160405Y-98271486D01*
X63399514Y-98510595D01*
X63711925Y-98640000D01*
X64050075Y-98640000D01*
X64362486Y-98510595D01*
X64601595Y-98271486D01*
X64731000Y-97959075D01*
X64731000Y-97620925D01*
X64601595Y-97308514D01*
X64456000Y-97162919D01*
X64456000Y-94687500D01*
X151600000Y-94687500D01*
X151600000Y-95019620D01*
X151653285Y-95148259D01*
X151751741Y-95246716D01*
X151880381Y-95300000D01*
X152387500Y-95300000D01*
X152475000Y-95212500D01*
X152475000Y-94600000D01*
X153525000Y-94600000D01*
X153525000Y-95212500D01*
X153612500Y-95300000D01*
X154119619Y-95300000D01*
X154248259Y-95246716D01*
X154346715Y-95148259D01*
X154400000Y-95019620D01*
X154400000Y-94687500D01*
X154312500Y-94600000D01*
X153525000Y-94600000D01*
X152475000Y-94600000D01*
X151687500Y-94600000D01*
X151600000Y-94687500D01*
X64456000Y-94687500D01*
X64456000Y-93480380D01*
X151600000Y-93480380D01*
X151600000Y-93812500D01*
X151687500Y-93900000D01*
X152475000Y-93900000D01*
X152475000Y-93287500D01*
X153525000Y-93287500D01*
X153525000Y-93900000D01*
X154312500Y-93900000D01*
X154400000Y-93812500D01*
X154400000Y-93480380D01*
X154346715Y-93351741D01*
X154248259Y-93253284D01*
X154119619Y-93200000D01*
X153612500Y-93200000D01*
X153525000Y-93287500D01*
X152475000Y-93287500D01*
X152387500Y-93200000D01*
X151880381Y-93200000D01*
X151751741Y-93253284D01*
X151653285Y-93351741D01*
X151600000Y-93480380D01*
X64456000Y-93480380D01*
X64456000Y-90719067D01*
X64586372Y-90745000D01*
X64586376Y-90745000D01*
X64643000Y-90756263D01*
X64699624Y-90745000D01*
X69285377Y-90745000D01*
X69342000Y-90756263D01*
X69398623Y-90745000D01*
X69398628Y-90745000D01*
X69566354Y-90711637D01*
X69756551Y-90584551D01*
X69788629Y-90536543D01*
X71275172Y-89050000D01*
X151491184Y-89050000D01*
X151491184Y-90450000D01*
X151526109Y-90625581D01*
X151625568Y-90774432D01*
X151774419Y-90873891D01*
X151950000Y-90908816D01*
X154050000Y-90908816D01*
X154225581Y-90873891D01*
X154374432Y-90774432D01*
X154473891Y-90625581D01*
X154508816Y-90450000D01*
X154508816Y-89050000D01*
X154473891Y-88874419D01*
X154374432Y-88725568D01*
X154225581Y-88626109D01*
X154050000Y-88591184D01*
X153575000Y-88591184D01*
X153575000Y-73554624D01*
X153586263Y-73498000D01*
X153575000Y-73441376D01*
X153575000Y-73441372D01*
X153541637Y-73273646D01*
X153504000Y-73217318D01*
X153504000Y-72982925D01*
X153374595Y-72670514D01*
X153135486Y-72431405D01*
X152823075Y-72302000D01*
X152484925Y-72302000D01*
X152172514Y-72431405D01*
X151933405Y-72670514D01*
X151804000Y-72982925D01*
X151804000Y-73321075D01*
X151933405Y-73633486D01*
X152172514Y-73872595D01*
X152425000Y-73977178D01*
X152425001Y-88591184D01*
X151950000Y-88591184D01*
X151774419Y-88626109D01*
X151625568Y-88725568D01*
X151526109Y-88874419D01*
X151491184Y-89050000D01*
X71275172Y-89050000D01*
X71486546Y-88838627D01*
X71534551Y-88806551D01*
X71566629Y-88758544D01*
X71596630Y-88713643D01*
X71661637Y-88616354D01*
X71695000Y-88448628D01*
X71695000Y-88448624D01*
X71706263Y-88392000D01*
X71695000Y-88335376D01*
X71695000Y-81772172D01*
X73198767Y-80268405D01*
X86459216Y-80268405D01*
X86582241Y-81469134D01*
X86873222Y-82640550D01*
X87326354Y-83759280D01*
X87932596Y-84803002D01*
X88679852Y-85750892D01*
X89553212Y-86584036D01*
X90535250Y-87285810D01*
X91606371Y-87842213D01*
X92745205Y-88242143D01*
X93929028Y-88477620D01*
X95134219Y-88543946D01*
X96336733Y-88439797D01*
X97512575Y-88167251D01*
X98638284Y-87731747D01*
X99691400Y-87141974D01*
X100650910Y-86409699D01*
X101497669Y-85549534D01*
X102214782Y-84578640D01*
X102787941Y-83516390D01*
X102800683Y-83481849D01*
X117800000Y-83481849D01*
X117800000Y-84158151D01*
X118058810Y-84782973D01*
X118537027Y-85261190D01*
X119161849Y-85520000D01*
X119838151Y-85520000D01*
X120462973Y-85261190D01*
X120941190Y-84782973D01*
X121200000Y-84158151D01*
X121200000Y-83481849D01*
X120941190Y-82857027D01*
X120462973Y-82378810D01*
X119838151Y-82120000D01*
X119161849Y-82120000D01*
X118537027Y-82378810D01*
X118058810Y-82857027D01*
X117800000Y-83481849D01*
X102800683Y-83481849D01*
X103205710Y-82383979D01*
X103459752Y-81204001D01*
X103545000Y-80000000D01*
X103528138Y-79463455D01*
X103367459Y-78267183D01*
X103039826Y-77105484D01*
X102551777Y-76001540D01*
X101913050Y-74977375D01*
X101136389Y-74053425D01*
X100237291Y-73248125D01*
X99233694Y-72577544D01*
X98145624Y-72055060D01*
X96994791Y-71691099D01*
X95804156Y-71492923D01*
X94597475Y-71464486D01*
X93398827Y-71606355D01*
X92232126Y-71915701D01*
X91120651Y-72386349D01*
X90086580Y-73008911D01*
X89150545Y-73770963D01*
X88331222Y-74657302D01*
X87644959Y-75650241D01*
X87105449Y-76729970D01*
X86723457Y-77874945D01*
X86506604Y-79062320D01*
X86459216Y-80268405D01*
X73198767Y-80268405D01*
X77836546Y-75630627D01*
X77884551Y-75598551D01*
X78011637Y-75408354D01*
X78045000Y-75240628D01*
X78045000Y-75240625D01*
X78056263Y-75184001D01*
X78045000Y-75127377D01*
X78045000Y-57731566D01*
X78330925Y-57850000D01*
X78669075Y-57850000D01*
X78981486Y-57720595D01*
X79220595Y-57481486D01*
X79350000Y-57169075D01*
X79350000Y-56963173D01*
X79366546Y-56946627D01*
X79414551Y-56914551D01*
X79541637Y-56724354D01*
X79575000Y-56556628D01*
X79575000Y-56556624D01*
X79586263Y-56500000D01*
X79575000Y-56443376D01*
X79575000Y-54948925D01*
X90082000Y-54948925D01*
X90082000Y-55287075D01*
X90211405Y-55599486D01*
X90357000Y-55745081D01*
X90357001Y-57792918D01*
X90211405Y-57938514D01*
X90082000Y-58250925D01*
X90082000Y-58589075D01*
X90211405Y-58901486D01*
X90450514Y-59140595D01*
X90762925Y-59270000D01*
X91101075Y-59270000D01*
X91376391Y-59155960D01*
X91481405Y-59409486D01*
X91720514Y-59648595D01*
X92032925Y-59778000D01*
X92371075Y-59778000D01*
X92389000Y-59770575D01*
X92389001Y-67698918D01*
X92243405Y-67844514D01*
X92114000Y-68156925D01*
X92114000Y-68495075D01*
X92243405Y-68807486D01*
X92482514Y-69046595D01*
X92794925Y-69176000D01*
X93133075Y-69176000D01*
X93445486Y-69046595D01*
X93684595Y-68807486D01*
X93743645Y-68664925D01*
X132246000Y-68664925D01*
X132246000Y-69003075D01*
X132375405Y-69315486D01*
X132614514Y-69554595D01*
X132926925Y-69684000D01*
X133265075Y-69684000D01*
X133577486Y-69554595D01*
X133816595Y-69315486D01*
X133946000Y-69003075D01*
X133946000Y-68918925D01*
X134278000Y-68918925D01*
X134278000Y-69257075D01*
X134407405Y-69569486D01*
X134553001Y-69715082D01*
X134553000Y-87002919D01*
X134407405Y-87148514D01*
X134278000Y-87460925D01*
X134278000Y-87799075D01*
X134407405Y-88111486D01*
X134646514Y-88350595D01*
X134958925Y-88480000D01*
X135297075Y-88480000D01*
X135609486Y-88350595D01*
X135848595Y-88111486D01*
X135978000Y-87799075D01*
X135978000Y-87460925D01*
X135848595Y-87148514D01*
X135703000Y-87002919D01*
X135703000Y-69715081D01*
X135848595Y-69569486D01*
X135978000Y-69257075D01*
X135978000Y-68918925D01*
X135848595Y-68606514D01*
X135609486Y-68367405D01*
X135297075Y-68238000D01*
X134958925Y-68238000D01*
X134646514Y-68367405D01*
X134407405Y-68606514D01*
X134278000Y-68918925D01*
X133946000Y-68918925D01*
X133946000Y-68797172D01*
X134858173Y-67885000D01*
X138119372Y-67885000D01*
X138176000Y-67896264D01*
X138232627Y-67885000D01*
X138232628Y-67885000D01*
X138400354Y-67851637D01*
X138590551Y-67724551D01*
X138717637Y-67534354D01*
X138762264Y-67310000D01*
X138751000Y-67253372D01*
X138751000Y-62286623D01*
X138762263Y-62229999D01*
X138751000Y-62173375D01*
X138751000Y-62173372D01*
X138717637Y-62005646D01*
X138590551Y-61815449D01*
X138542543Y-61783371D01*
X138368629Y-61609457D01*
X138336551Y-61561449D01*
X138146354Y-61434363D01*
X137978628Y-61401000D01*
X137978623Y-61401000D01*
X137922000Y-61389737D01*
X137865377Y-61401000D01*
X134485081Y-61401000D01*
X134339486Y-61255405D01*
X134027075Y-61126000D01*
X133688925Y-61126000D01*
X133376514Y-61255405D01*
X133137405Y-61494514D01*
X133008000Y-61806925D01*
X133008000Y-62145075D01*
X133137405Y-62457486D01*
X133376514Y-62696595D01*
X133688925Y-62826000D01*
X134027075Y-62826000D01*
X134339486Y-62696595D01*
X134485081Y-62551000D01*
X137601001Y-62551000D01*
X137601000Y-66735000D01*
X134676623Y-66735000D01*
X134619999Y-66723737D01*
X134563375Y-66735000D01*
X134563372Y-66735000D01*
X134395646Y-66768363D01*
X134205449Y-66895449D01*
X134173373Y-66943454D01*
X133132828Y-67984000D01*
X132926925Y-67984000D01*
X132614514Y-68113405D01*
X132375405Y-68352514D01*
X132246000Y-68664925D01*
X93743645Y-68664925D01*
X93814000Y-68495075D01*
X93814000Y-68156925D01*
X93684595Y-67844514D01*
X93539000Y-67698919D01*
X93539000Y-65362925D01*
X117768000Y-65362925D01*
X117768000Y-65701075D01*
X117897405Y-66013486D01*
X118136514Y-66252595D01*
X118448925Y-66382000D01*
X118787075Y-66382000D01*
X119099486Y-66252595D01*
X119245081Y-66107000D01*
X127388919Y-66107000D01*
X127534514Y-66252595D01*
X127846925Y-66382000D01*
X128185075Y-66382000D01*
X128497486Y-66252595D01*
X128736595Y-66013486D01*
X128866000Y-65701075D01*
X128866000Y-65362925D01*
X128736595Y-65050514D01*
X128523081Y-64837000D01*
X136087377Y-64837000D01*
X136144000Y-64848263D01*
X136185493Y-64840010D01*
X136228925Y-64858000D01*
X136567075Y-64858000D01*
X136879486Y-64728595D01*
X137118595Y-64489486D01*
X137248000Y-64177075D01*
X137248000Y-63838925D01*
X137118595Y-63526514D01*
X136879486Y-63287405D01*
X136567075Y-63158000D01*
X136228925Y-63158000D01*
X135916514Y-63287405D01*
X135677405Y-63526514D01*
X135610929Y-63687000D01*
X122039081Y-63687000D01*
X121893486Y-63541405D01*
X121581075Y-63412000D01*
X121242925Y-63412000D01*
X120930514Y-63541405D01*
X120691405Y-63780514D01*
X120562000Y-64092925D01*
X120562000Y-64431075D01*
X120691405Y-64743486D01*
X120904919Y-64957000D01*
X119245081Y-64957000D01*
X119099486Y-64811405D01*
X118787075Y-64682000D01*
X118448925Y-64682000D01*
X118136514Y-64811405D01*
X117897405Y-65050514D01*
X117768000Y-65362925D01*
X93539000Y-65362925D01*
X93539000Y-55112121D01*
X120050000Y-55112121D01*
X120050000Y-55887879D01*
X120346870Y-56604586D01*
X120895414Y-57153130D01*
X121612121Y-57450000D01*
X122387879Y-57450000D01*
X123104586Y-57153130D01*
X123653130Y-56604586D01*
X123950000Y-55887879D01*
X123950000Y-55112121D01*
X123653130Y-54395414D01*
X123104586Y-53846870D01*
X122387879Y-53550000D01*
X121612121Y-53550000D01*
X120895414Y-53846870D01*
X120346870Y-54395414D01*
X120050000Y-55112121D01*
X93539000Y-55112121D01*
X93539000Y-49614925D01*
X126912000Y-49614925D01*
X126912000Y-49953075D01*
X127041405Y-50265486D01*
X127280514Y-50504595D01*
X127592925Y-50634000D01*
X127798828Y-50634000D01*
X128203001Y-51038174D01*
X128203000Y-54807376D01*
X128191737Y-54864000D01*
X128199990Y-54905493D01*
X128182000Y-54948925D01*
X128182000Y-55287075D01*
X128311405Y-55599486D01*
X128550514Y-55838595D01*
X128862925Y-55968000D01*
X129201075Y-55968000D01*
X129513486Y-55838595D01*
X129752595Y-55599486D01*
X129882000Y-55287075D01*
X129882000Y-55202925D01*
X149010000Y-55202925D01*
X149010000Y-55541075D01*
X149139405Y-55853486D01*
X149285001Y-55999082D01*
X149285000Y-59633376D01*
X149273737Y-59690000D01*
X149285000Y-59746623D01*
X149285000Y-59746627D01*
X149318363Y-59914353D01*
X149445449Y-60104551D01*
X149493457Y-60136629D01*
X153349001Y-63992174D01*
X153349000Y-71063377D01*
X153337737Y-71120000D01*
X153345990Y-71161493D01*
X153328000Y-71204925D01*
X153328000Y-71543075D01*
X153457405Y-71855486D01*
X153696514Y-72094595D01*
X154008925Y-72224000D01*
X154347075Y-72224000D01*
X154365000Y-72216575D01*
X154365001Y-84271372D01*
X154353737Y-84328000D01*
X154398363Y-84552352D01*
X154493372Y-84694544D01*
X154493374Y-84694546D01*
X154525450Y-84742551D01*
X154573455Y-84774627D01*
X156143000Y-86344173D01*
X156143001Y-101361826D01*
X155484828Y-102020000D01*
X155278925Y-102020000D01*
X154966514Y-102149405D01*
X154727405Y-102388514D01*
X154598000Y-102700925D01*
X154598000Y-103039075D01*
X154727405Y-103351486D01*
X154966514Y-103590595D01*
X155278925Y-103720000D01*
X155617075Y-103720000D01*
X155929486Y-103590595D01*
X156168595Y-103351486D01*
X156298000Y-103039075D01*
X156298000Y-102833172D01*
X157084546Y-102046627D01*
X157132551Y-102014551D01*
X157259637Y-101824354D01*
X157293000Y-101656628D01*
X157293000Y-101656625D01*
X157304263Y-101600001D01*
X157293000Y-101543377D01*
X157293000Y-93550000D01*
X161491184Y-93550000D01*
X161491184Y-94950000D01*
X161526109Y-95125581D01*
X161625568Y-95274432D01*
X161774419Y-95373891D01*
X161950000Y-95408816D01*
X164050000Y-95408816D01*
X164225581Y-95373891D01*
X164374432Y-95274432D01*
X164473891Y-95125581D01*
X164508816Y-94950000D01*
X164508816Y-93550000D01*
X164473891Y-93374419D01*
X164374432Y-93225568D01*
X164225581Y-93126109D01*
X164050000Y-93091184D01*
X161950000Y-93091184D01*
X161774419Y-93126109D01*
X161625568Y-93225568D01*
X161526109Y-93374419D01*
X161491184Y-93550000D01*
X157293000Y-93550000D01*
X157293000Y-89050000D01*
X161491184Y-89050000D01*
X161491184Y-90450000D01*
X161526109Y-90625581D01*
X161625568Y-90774432D01*
X161774419Y-90873891D01*
X161950000Y-90908816D01*
X164050000Y-90908816D01*
X164225581Y-90873891D01*
X164374432Y-90774432D01*
X164473891Y-90625581D01*
X164508816Y-90450000D01*
X164508816Y-89050000D01*
X164473891Y-88874419D01*
X164374432Y-88725568D01*
X164225581Y-88626109D01*
X164050000Y-88591184D01*
X161950000Y-88591184D01*
X161774419Y-88626109D01*
X161625568Y-88725568D01*
X161526109Y-88874419D01*
X161491184Y-89050000D01*
X157293000Y-89050000D01*
X157293000Y-86162624D01*
X157304263Y-86106000D01*
X157293000Y-86049376D01*
X157293000Y-86049372D01*
X157259637Y-85881646D01*
X157181028Y-85764000D01*
X157164628Y-85739455D01*
X157164627Y-85739454D01*
X157132551Y-85691449D01*
X157084546Y-85659373D01*
X155515000Y-84089828D01*
X155515000Y-73602175D01*
X157000000Y-73602175D01*
X157000000Y-74397825D01*
X157304482Y-75132909D01*
X157867091Y-75695518D01*
X158602175Y-76000000D01*
X159397825Y-76000000D01*
X160132909Y-75695518D01*
X160695518Y-75132909D01*
X161000000Y-74397825D01*
X161000000Y-73602175D01*
X160695518Y-72867091D01*
X160132909Y-72304482D01*
X159397825Y-72000000D01*
X158602175Y-72000000D01*
X157867091Y-72304482D01*
X157304482Y-72867091D01*
X157000000Y-73602175D01*
X155515000Y-73602175D01*
X155515000Y-63556624D01*
X155526263Y-63500000D01*
X155515000Y-63443376D01*
X155515000Y-63443372D01*
X155481637Y-63275646D01*
X155399387Y-63152551D01*
X155386628Y-63133455D01*
X155386627Y-63133454D01*
X155354551Y-63085449D01*
X155306546Y-63053373D01*
X151451000Y-59197828D01*
X151451000Y-55345681D01*
X151664514Y-55559195D01*
X151976925Y-55688600D01*
X152315075Y-55688600D01*
X152627486Y-55559195D01*
X152866595Y-55320086D01*
X152996000Y-55007675D01*
X152996000Y-54684480D01*
X153065891Y-54579881D01*
X153100816Y-54404300D01*
X153100816Y-53108900D01*
X153065891Y-52933319D01*
X153013092Y-52854300D01*
X153342002Y-52854300D01*
X153342002Y-52504300D01*
X154251998Y-52504300D01*
X154251998Y-52854300D01*
X154580908Y-52854300D01*
X154528109Y-52933319D01*
X154493184Y-53108900D01*
X154493184Y-54404300D01*
X154528109Y-54579881D01*
X154627568Y-54728732D01*
X154776419Y-54828191D01*
X154852000Y-54843225D01*
X154852000Y-55007675D01*
X154981405Y-55320086D01*
X155220514Y-55559195D01*
X155532925Y-55688600D01*
X155871075Y-55688600D01*
X156183486Y-55559195D01*
X156422595Y-55320086D01*
X156552000Y-55007675D01*
X156552000Y-54843225D01*
X156627581Y-54828191D01*
X156776432Y-54728732D01*
X156875891Y-54579881D01*
X156910816Y-54404300D01*
X156910816Y-53108900D01*
X156875891Y-52933319D01*
X156823092Y-52854300D01*
X157152002Y-52854300D01*
X157152002Y-52504300D01*
X156802000Y-52504300D01*
X156802000Y-52267950D01*
X156714500Y-52180450D01*
X156077000Y-52180450D01*
X156077000Y-52504300D01*
X155327000Y-52504300D01*
X155327000Y-52180450D01*
X154689500Y-52180450D01*
X154602000Y-52267950D01*
X154602000Y-52504300D01*
X154251998Y-52504300D01*
X153342002Y-52504300D01*
X152992000Y-52504300D01*
X152992000Y-52267950D01*
X152904500Y-52180450D01*
X152267000Y-52180450D01*
X152267000Y-52504300D01*
X151517000Y-52504300D01*
X151517000Y-52180450D01*
X150879500Y-52180450D01*
X150792000Y-52267950D01*
X150792000Y-52504300D01*
X150689000Y-52504300D01*
X150689000Y-51139280D01*
X150792000Y-51139280D01*
X150792000Y-51445250D01*
X150879500Y-51532750D01*
X151517000Y-51532750D01*
X151517000Y-50946400D01*
X152267000Y-50946400D01*
X152267000Y-51532750D01*
X152904500Y-51532750D01*
X152992000Y-51445250D01*
X152992000Y-51139280D01*
X154602000Y-51139280D01*
X154602000Y-51445250D01*
X154689500Y-51532750D01*
X155327000Y-51532750D01*
X155327000Y-50946400D01*
X156077000Y-50946400D01*
X156077000Y-51532750D01*
X156714500Y-51532750D01*
X156802000Y-51445250D01*
X156802000Y-51139280D01*
X156748715Y-51010641D01*
X156650259Y-50912184D01*
X156521619Y-50858900D01*
X156164500Y-50858900D01*
X156077000Y-50946400D01*
X155327000Y-50946400D01*
X155239500Y-50858900D01*
X154882381Y-50858900D01*
X154753741Y-50912184D01*
X154655285Y-51010641D01*
X154602000Y-51139280D01*
X152992000Y-51139280D01*
X152938715Y-51010641D01*
X152840259Y-50912184D01*
X152711619Y-50858900D01*
X152354500Y-50858900D01*
X152267000Y-50946400D01*
X151517000Y-50946400D01*
X151429500Y-50858900D01*
X151072381Y-50858900D01*
X150943741Y-50912184D01*
X150845285Y-51010641D01*
X150792000Y-51139280D01*
X150689000Y-51139280D01*
X150689000Y-48539071D01*
X150849486Y-48472595D01*
X151088595Y-48233486D01*
X151218000Y-47921075D01*
X151218000Y-47582925D01*
X151088595Y-47270514D01*
X150849486Y-47031405D01*
X150537075Y-46902000D01*
X150198925Y-46902000D01*
X149886514Y-47031405D01*
X149647405Y-47270514D01*
X149518000Y-47582925D01*
X149518000Y-47921075D01*
X149535990Y-47964507D01*
X149527737Y-48006000D01*
X149539000Y-48062624D01*
X149539001Y-54299372D01*
X149527737Y-54356000D01*
X149570665Y-54571814D01*
X149378514Y-54651405D01*
X149139405Y-54890514D01*
X149010000Y-55202925D01*
X129882000Y-55202925D01*
X129882000Y-54948925D01*
X129752595Y-54636514D01*
X129513486Y-54397405D01*
X129353000Y-54330929D01*
X129353000Y-50856623D01*
X129364263Y-50800000D01*
X129353000Y-50743376D01*
X129353000Y-50743372D01*
X129319637Y-50575646D01*
X129192551Y-50385449D01*
X129144546Y-50353373D01*
X128612000Y-49820828D01*
X128612000Y-49614925D01*
X128482595Y-49302514D01*
X128243486Y-49063405D01*
X127931075Y-48934000D01*
X127592925Y-48934000D01*
X127280514Y-49063405D01*
X127041405Y-49302514D01*
X126912000Y-49614925D01*
X93539000Y-49614925D01*
X93539000Y-46030623D01*
X93550263Y-45973999D01*
X93539000Y-45917375D01*
X93539000Y-45917372D01*
X93505637Y-45749646D01*
X93378551Y-45559449D01*
X93330546Y-45527373D01*
X93306000Y-45502827D01*
X93306000Y-45296925D01*
X93176595Y-44984514D01*
X92937486Y-44745405D01*
X92625075Y-44616000D01*
X92286925Y-44616000D01*
X91974514Y-44745405D01*
X91735405Y-44984514D01*
X91606000Y-45296925D01*
X91606000Y-45635075D01*
X91735405Y-45947486D01*
X91974514Y-46186595D01*
X92286925Y-46316000D01*
X92389000Y-46316000D01*
X92389000Y-46425373D01*
X92389001Y-54275425D01*
X92371075Y-54268000D01*
X92032925Y-54268000D01*
X91720514Y-54397405D01*
X91567000Y-54550919D01*
X91413486Y-54397405D01*
X91101075Y-54268000D01*
X90762925Y-54268000D01*
X90450514Y-54397405D01*
X90211405Y-54636514D01*
X90082000Y-54948925D01*
X79575000Y-54948925D01*
X79575000Y-52556623D01*
X79586263Y-52499999D01*
X79575000Y-52443375D01*
X79575000Y-52443372D01*
X79541637Y-52275646D01*
X79414551Y-52085449D01*
X79366546Y-52053373D01*
X78350000Y-51036828D01*
X78350000Y-50830925D01*
X78220595Y-50518514D01*
X77981486Y-50279405D01*
X77669075Y-50150000D01*
X77330925Y-50150000D01*
X77283000Y-50169851D01*
X77283000Y-49006172D01*
X80756173Y-45533000D01*
X85732919Y-45533000D01*
X85878514Y-45678595D01*
X86190925Y-45808000D01*
X86529075Y-45808000D01*
X86841486Y-45678595D01*
X87080595Y-45439486D01*
X87210000Y-45127075D01*
X87210000Y-44788925D01*
X87080595Y-44476514D01*
X86841486Y-44237405D01*
X86529075Y-44108000D01*
X86190925Y-44108000D01*
X85878514Y-44237405D01*
X85732919Y-44383000D01*
X85678575Y-44383000D01*
X85686000Y-44365075D01*
X85686000Y-44026925D01*
X85556595Y-43714514D01*
X85317486Y-43475405D01*
X85005075Y-43346000D01*
X84666925Y-43346000D01*
X84354514Y-43475405D01*
X84208919Y-43621000D01*
X79558623Y-43621000D01*
X79501999Y-43609737D01*
X79445375Y-43621000D01*
X79445372Y-43621000D01*
X79277646Y-43654363D01*
X79176964Y-43721637D01*
X79087449Y-43781449D01*
X79055373Y-43829454D01*
X75579457Y-47305371D01*
X75531449Y-47337449D01*
X75404363Y-47527647D01*
X75371000Y-47695373D01*
X75371000Y-47695377D01*
X75359737Y-47752000D01*
X75371000Y-47808623D01*
X75371000Y-48457373D01*
X75371001Y-54553368D01*
X75371000Y-54553373D01*
X75371001Y-70627826D01*
X73915167Y-72083661D01*
X73829075Y-72048000D01*
X73490925Y-72048000D01*
X73178514Y-72177405D01*
X72939405Y-72416514D01*
X72810000Y-72728925D01*
X72810000Y-73067075D01*
X72939405Y-73379486D01*
X73178514Y-73618595D01*
X73490925Y-73748000D01*
X73829075Y-73748000D01*
X74141486Y-73618595D01*
X74380595Y-73379486D01*
X74475990Y-73149182D01*
X76133001Y-71492172D01*
X76133001Y-71643826D01*
X75579458Y-72197370D01*
X75579455Y-72197372D01*
X68108828Y-79668000D01*
X67902925Y-79668000D01*
X67590514Y-79797405D01*
X67351405Y-80036514D01*
X67222000Y-80348925D01*
X67222000Y-80687075D01*
X67351405Y-80999486D01*
X67590514Y-81238595D01*
X67902925Y-81368000D01*
X68241075Y-81368000D01*
X68553486Y-81238595D01*
X68792595Y-80999486D01*
X68922000Y-80687075D01*
X68922000Y-80481172D01*
X76392628Y-73010545D01*
X76392630Y-73010542D01*
X76895001Y-72508172D01*
X76895001Y-74945826D01*
X70753457Y-81087371D01*
X70705449Y-81119449D01*
X70578363Y-81309647D01*
X70545000Y-81477373D01*
X70545000Y-81477377D01*
X70533737Y-81534000D01*
X70545000Y-81590623D01*
X70545000Y-84328919D01*
X70331486Y-84115405D01*
X70019075Y-83986000D01*
X69813173Y-83986000D01*
X68772630Y-82945458D01*
X68772628Y-82945455D01*
X67652000Y-81824828D01*
X67652000Y-81618925D01*
X67522595Y-81306514D01*
X67283486Y-81067405D01*
X66971075Y-80938000D01*
X66632925Y-80938000D01*
X66320514Y-81067405D01*
X66081405Y-81306514D01*
X65952000Y-81618925D01*
X65952000Y-81957075D01*
X66081405Y-82269486D01*
X66320514Y-82508595D01*
X66632925Y-82638000D01*
X66838828Y-82638000D01*
X67959455Y-83758628D01*
X67959458Y-83758630D01*
X69000000Y-84799173D01*
X69000000Y-85005075D01*
X69129405Y-85317486D01*
X69368514Y-85556595D01*
X69680925Y-85686000D01*
X70019075Y-85686000D01*
X70331486Y-85556595D01*
X70545001Y-85343080D01*
X70545001Y-88153826D01*
X69103828Y-89595000D01*
X66166081Y-89595000D01*
X66379595Y-89381486D01*
X66509000Y-89069075D01*
X66509000Y-88730925D01*
X66379595Y-88418514D01*
X66140486Y-88179405D01*
X65828075Y-88050000D01*
X65728238Y-88050000D01*
X65401891Y-87723654D01*
X65365624Y-87669376D01*
X65150617Y-87525714D01*
X64961018Y-87488000D01*
X64961016Y-87488000D01*
X64897000Y-87475266D01*
X64832984Y-87488000D01*
X53257081Y-87488000D01*
X53186486Y-87417405D01*
X52874075Y-87288000D01*
X52535925Y-87288000D01*
X52223514Y-87417405D01*
X52152919Y-87488000D01*
X41163000Y-87488000D01*
X41163000Y-86444925D01*
X49061000Y-86444925D01*
X49061000Y-86783075D01*
X49190405Y-87095486D01*
X49429514Y-87334595D01*
X49741925Y-87464000D01*
X50080075Y-87464000D01*
X50392486Y-87334595D01*
X50538081Y-87189000D01*
X54771227Y-87189000D01*
X54821925Y-87210000D01*
X55160075Y-87210000D01*
X55203507Y-87192010D01*
X55245000Y-87200263D01*
X55301623Y-87189000D01*
X55301628Y-87189000D01*
X55469354Y-87155637D01*
X55659551Y-87028551D01*
X55691629Y-86980543D01*
X55737172Y-86935000D01*
X61221919Y-86935000D01*
X61367514Y-87080595D01*
X61679925Y-87210000D01*
X62018075Y-87210000D01*
X62330486Y-87080595D01*
X62569595Y-86841486D01*
X62699000Y-86529075D01*
X62699000Y-86190925D01*
X62569595Y-85878514D01*
X62330486Y-85639405D01*
X62018075Y-85510000D01*
X61679925Y-85510000D01*
X61367514Y-85639405D01*
X61221919Y-85785000D01*
X55618081Y-85785000D01*
X55472486Y-85639405D01*
X55160075Y-85510000D01*
X54821925Y-85510000D01*
X54509514Y-85639405D01*
X54270405Y-85878514D01*
X54203929Y-86039000D01*
X50538081Y-86039000D01*
X50392486Y-85893405D01*
X50080075Y-85764000D01*
X49741925Y-85764000D01*
X49429514Y-85893405D01*
X49190405Y-86132514D01*
X49061000Y-86444925D01*
X41163000Y-86444925D01*
X41163000Y-85916016D01*
X41175734Y-85851999D01*
X41160166Y-85773736D01*
X41125286Y-85598383D01*
X40981624Y-85383376D01*
X40927351Y-85347112D01*
X39747891Y-84167654D01*
X39711624Y-84113376D01*
X39496617Y-83969714D01*
X39307018Y-83932000D01*
X39307016Y-83932000D01*
X39243000Y-83919266D01*
X39178984Y-83932000D01*
X31941015Y-83932000D01*
X31876999Y-83919266D01*
X31812983Y-83932000D01*
X31812982Y-83932000D01*
X31623383Y-83969714D01*
X31408376Y-84113376D01*
X31372112Y-84167649D01*
X31099762Y-84440000D01*
X30417016Y-84440000D01*
X30353000Y-84427266D01*
X30288983Y-84440000D01*
X30288982Y-84440000D01*
X30099383Y-84477714D01*
X29884376Y-84621376D01*
X29848110Y-84675652D01*
X29267763Y-85256000D01*
X29167925Y-85256000D01*
X28855514Y-85385405D01*
X28616405Y-85624514D01*
X28487000Y-85936925D01*
X23525000Y-85936925D01*
X23525000Y-78170720D01*
X23788123Y-77808925D01*
X24296000Y-77808925D01*
X24296000Y-78147075D01*
X24425405Y-78459486D01*
X24664514Y-78698595D01*
X24976925Y-78828000D01*
X25315075Y-78828000D01*
X25627486Y-78698595D01*
X25773081Y-78553000D01*
X26613377Y-78553000D01*
X26670000Y-78564263D01*
X26726623Y-78553000D01*
X26726628Y-78553000D01*
X26894354Y-78519637D01*
X27084551Y-78392551D01*
X27116629Y-78344543D01*
X28432173Y-77029000D01*
X36709872Y-77029000D01*
X36766500Y-77040264D01*
X36823127Y-77029000D01*
X49209000Y-77029000D01*
X49209000Y-77541419D01*
X49063405Y-77687014D01*
X48934000Y-77999425D01*
X48934000Y-78337575D01*
X49063405Y-78649986D01*
X49209000Y-78795581D01*
X49209001Y-84208918D01*
X49063405Y-84354514D01*
X48934000Y-84666925D01*
X48934000Y-85005075D01*
X49063405Y-85317486D01*
X49302514Y-85556595D01*
X49614925Y-85686000D01*
X49953075Y-85686000D01*
X50265486Y-85556595D01*
X50504595Y-85317486D01*
X50634000Y-85005075D01*
X50634000Y-84666925D01*
X50504595Y-84354514D01*
X50359000Y-84208919D01*
X50359000Y-78795581D01*
X50504595Y-78649986D01*
X50634000Y-78337575D01*
X50634000Y-77999425D01*
X50504595Y-77687014D01*
X50359000Y-77541419D01*
X50359000Y-76510627D01*
X50370264Y-76454000D01*
X50325637Y-76229646D01*
X50198551Y-76039449D01*
X50008354Y-75912363D01*
X49840628Y-75879000D01*
X49840627Y-75879000D01*
X49784000Y-75867736D01*
X49727372Y-75879000D01*
X37341500Y-75879000D01*
X37341500Y-70287623D01*
X37352763Y-70230999D01*
X37341500Y-70174375D01*
X37341500Y-70174372D01*
X37308137Y-70006646D01*
X37255764Y-69928264D01*
X37213128Y-69864455D01*
X37213127Y-69864454D01*
X37181051Y-69816449D01*
X37133046Y-69784373D01*
X36643000Y-69294328D01*
X36643000Y-68954967D01*
X36669449Y-68994551D01*
X36717457Y-69026629D01*
X40701372Y-73010545D01*
X40733449Y-73058551D01*
X40923646Y-73185637D01*
X41091372Y-73219000D01*
X41091376Y-73219000D01*
X41148000Y-73230263D01*
X41204624Y-73219000D01*
X61665377Y-73219000D01*
X61722000Y-73230263D01*
X61778623Y-73219000D01*
X61778628Y-73219000D01*
X61946354Y-73185637D01*
X62136551Y-73058551D01*
X62168629Y-73010543D01*
X64628546Y-70550627D01*
X64676551Y-70518551D01*
X64718780Y-70455352D01*
X64803637Y-70328354D01*
X64809948Y-70296628D01*
X64837000Y-70160628D01*
X64837000Y-70160625D01*
X64848263Y-70104001D01*
X64837000Y-70047377D01*
X64837000Y-65303071D01*
X64997486Y-65236595D01*
X65236595Y-64997486D01*
X65366000Y-64685075D01*
X65366000Y-64346925D01*
X65236595Y-64034514D01*
X64997486Y-63795405D01*
X64685075Y-63666000D01*
X64350000Y-63666000D01*
X64350000Y-63330925D01*
X64220595Y-63018514D01*
X63981486Y-62779405D01*
X63669075Y-62650000D01*
X63330925Y-62650000D01*
X63018514Y-62779405D01*
X62779405Y-63018514D01*
X62650000Y-63330925D01*
X62650000Y-63669075D01*
X62779405Y-63981486D01*
X62925000Y-64127081D01*
X62925001Y-68849826D01*
X60467828Y-71307000D01*
X53966172Y-71307000D01*
X56626173Y-68647000D01*
X56666635Y-68647000D01*
X56554000Y-68918925D01*
X56554000Y-69257075D01*
X56683405Y-69569486D01*
X56922514Y-69808595D01*
X57234925Y-69938000D01*
X57573075Y-69938000D01*
X57885486Y-69808595D01*
X58031081Y-69663000D01*
X60332919Y-69663000D01*
X60478514Y-69808595D01*
X60790925Y-69938000D01*
X61129075Y-69938000D01*
X61441486Y-69808595D01*
X61680595Y-69569486D01*
X61810000Y-69257075D01*
X61810000Y-68918925D01*
X61680595Y-68606514D01*
X61441486Y-68367405D01*
X61129075Y-68238000D01*
X60790925Y-68238000D01*
X60478514Y-68367405D01*
X60332919Y-68513000D01*
X59302967Y-68513000D01*
X59342551Y-68486551D01*
X59374629Y-68438543D01*
X61431173Y-66382000D01*
X61637075Y-66382000D01*
X61949486Y-66252595D01*
X62188595Y-66013486D01*
X62318000Y-65701075D01*
X62318000Y-65362925D01*
X62188595Y-65050514D01*
X61949486Y-64811405D01*
X61637075Y-64682000D01*
X61298925Y-64682000D01*
X60986514Y-64811405D01*
X60747405Y-65050514D01*
X60618000Y-65362925D01*
X60618000Y-65568827D01*
X58689828Y-67497000D01*
X56444624Y-67497000D01*
X56388000Y-67485737D01*
X56331376Y-67497000D01*
X56331372Y-67497000D01*
X56163646Y-67530363D01*
X55973449Y-67657449D01*
X55941373Y-67705454D01*
X53101828Y-70545000D01*
X50799081Y-70545000D01*
X51012595Y-70331486D01*
X51142000Y-70019075D01*
X51142000Y-69813173D01*
X51166546Y-69788627D01*
X51214551Y-69756551D01*
X51246629Y-69708544D01*
X51341637Y-69566354D01*
X51348371Y-69532500D01*
X51375000Y-69398628D01*
X51375000Y-69398625D01*
X51386263Y-69342001D01*
X51375000Y-69285377D01*
X51375000Y-64318623D01*
X51386263Y-64261999D01*
X51375000Y-64205373D01*
X51375000Y-64205372D01*
X51341637Y-64037646D01*
X51280821Y-63946628D01*
X51246628Y-63895455D01*
X51246627Y-63895454D01*
X51214551Y-63847449D01*
X51166546Y-63815373D01*
X50682098Y-63330925D01*
X53252000Y-63330925D01*
X53252000Y-63669075D01*
X53381405Y-63981486D01*
X53620514Y-64220595D01*
X53932925Y-64350000D01*
X54271075Y-64350000D01*
X54583486Y-64220595D01*
X54822595Y-63981486D01*
X54952000Y-63669075D01*
X54952000Y-63463172D01*
X58084247Y-60330925D01*
X61650000Y-60330925D01*
X61650000Y-60669075D01*
X61779405Y-60981486D01*
X62018514Y-61220595D01*
X62330925Y-61350000D01*
X62536827Y-61350000D01*
X62553373Y-61366546D01*
X62585449Y-61414551D01*
X62775646Y-61541637D01*
X62943372Y-61575000D01*
X62943376Y-61575000D01*
X63000000Y-61586263D01*
X63056624Y-61575000D01*
X73150000Y-61575000D01*
X73150000Y-61669075D01*
X73279405Y-61981486D01*
X73518514Y-62220595D01*
X73830925Y-62350000D01*
X74169075Y-62350000D01*
X74481486Y-62220595D01*
X74720595Y-61981486D01*
X74850000Y-61669075D01*
X74850000Y-61330925D01*
X74720595Y-61018514D01*
X74481486Y-60779405D01*
X74169075Y-60650000D01*
X73963172Y-60650000D01*
X73946629Y-60633457D01*
X73914551Y-60585449D01*
X73724354Y-60458363D01*
X73556628Y-60425000D01*
X73556623Y-60425000D01*
X73500000Y-60413737D01*
X73443377Y-60425000D01*
X63350000Y-60425000D01*
X63350000Y-60330925D01*
X63220595Y-60018514D01*
X62981486Y-59779405D01*
X62669075Y-59650000D01*
X62330925Y-59650000D01*
X62018514Y-59779405D01*
X61779405Y-60018514D01*
X61650000Y-60330925D01*
X58084247Y-60330925D01*
X61072546Y-57342627D01*
X61120551Y-57310551D01*
X61165388Y-57243449D01*
X61247637Y-57120354D01*
X61255067Y-57083000D01*
X61281000Y-56952628D01*
X61281000Y-56952625D01*
X61292263Y-56896001D01*
X61281000Y-56839377D01*
X61281000Y-55112121D01*
X66050000Y-55112121D01*
X66050000Y-55887879D01*
X66346870Y-56604586D01*
X66895414Y-57153130D01*
X67612121Y-57450000D01*
X68387879Y-57450000D01*
X69104586Y-57153130D01*
X69653130Y-56604586D01*
X69950000Y-55887879D01*
X69950000Y-55112121D01*
X69653130Y-54395414D01*
X69104586Y-53846870D01*
X68387879Y-53550000D01*
X67612121Y-53550000D01*
X66895414Y-53846870D01*
X66346870Y-54395414D01*
X66050000Y-55112121D01*
X61281000Y-55112121D01*
X61281000Y-48498172D01*
X61939173Y-47840000D01*
X62145075Y-47840000D01*
X62457486Y-47710595D01*
X62696595Y-47471486D01*
X62826000Y-47159075D01*
X62826000Y-46820925D01*
X62696595Y-46508514D01*
X62457486Y-46269405D01*
X62145075Y-46140000D01*
X61806925Y-46140000D01*
X61494514Y-46269405D01*
X61255405Y-46508514D01*
X61126000Y-46820925D01*
X61126000Y-47026827D01*
X60339455Y-47813373D01*
X60291450Y-47845449D01*
X60259374Y-47893454D01*
X60259372Y-47893456D01*
X60164363Y-48035648D01*
X60119737Y-48260000D01*
X60131001Y-48316628D01*
X60131000Y-50743372D01*
X60131000Y-50743373D01*
X60131001Y-56657826D01*
X54138828Y-62650000D01*
X53932925Y-62650000D01*
X53620514Y-62779405D01*
X53381405Y-63018514D01*
X53252000Y-63330925D01*
X50682098Y-63330925D01*
X48835000Y-61483828D01*
X48835000Y-59520925D01*
X48934000Y-59520925D01*
X48934000Y-59859075D01*
X49063405Y-60171486D01*
X49302514Y-60410595D01*
X49614925Y-60540000D01*
X49953075Y-60540000D01*
X50265486Y-60410595D01*
X50411081Y-60265000D01*
X52966919Y-60265000D01*
X53112514Y-60410595D01*
X53424925Y-60540000D01*
X53763075Y-60540000D01*
X54075486Y-60410595D01*
X54314595Y-60171486D01*
X54444000Y-59859075D01*
X54444000Y-59520925D01*
X54314595Y-59208514D01*
X54075486Y-58969405D01*
X53763075Y-58840000D01*
X53424925Y-58840000D01*
X53112514Y-58969405D01*
X52966919Y-59115000D01*
X50411081Y-59115000D01*
X50265486Y-58969405D01*
X49953075Y-58840000D01*
X49614925Y-58840000D01*
X49302514Y-58969405D01*
X49063405Y-59208514D01*
X48934000Y-59520925D01*
X48835000Y-59520925D01*
X48835000Y-55864172D01*
X49747173Y-54952000D01*
X49953075Y-54952000D01*
X50265486Y-54822595D01*
X50504595Y-54583486D01*
X50634000Y-54271075D01*
X50634000Y-53932925D01*
X50504595Y-53620514D01*
X50265486Y-53381405D01*
X49953075Y-53252000D01*
X49614925Y-53252000D01*
X49302514Y-53381405D01*
X49063405Y-53620514D01*
X48934000Y-53932925D01*
X48934000Y-54138827D01*
X48021828Y-55051000D01*
X40950624Y-55051000D01*
X40894000Y-55039737D01*
X40837376Y-55051000D01*
X40837372Y-55051000D01*
X40669646Y-55084363D01*
X40479449Y-55211449D01*
X40447373Y-55259454D01*
X35701455Y-60005373D01*
X35653450Y-60037449D01*
X35621374Y-60085454D01*
X35621372Y-60085456D01*
X35526363Y-60227648D01*
X35481737Y-60452000D01*
X35493001Y-60508628D01*
X35493000Y-69475877D01*
X35481737Y-69532500D01*
X35493000Y-69589123D01*
X35493000Y-69589127D01*
X35526363Y-69756853D01*
X35653449Y-69947051D01*
X35701457Y-69979129D01*
X36191501Y-70469174D01*
X36191500Y-75879000D01*
X31689945Y-75879000D01*
X32132909Y-75695518D01*
X32695518Y-75132909D01*
X33000000Y-74397825D01*
X33000000Y-73602175D01*
X32695518Y-72867091D01*
X32132909Y-72304482D01*
X31397825Y-72000000D01*
X30602175Y-72000000D01*
X29867091Y-72304482D01*
X29304482Y-72867091D01*
X29000000Y-73602175D01*
X29000000Y-74397825D01*
X29304482Y-75132909D01*
X29867091Y-75695518D01*
X30310055Y-75879000D01*
X28250623Y-75879000D01*
X28193999Y-75867737D01*
X28137375Y-75879000D01*
X28137372Y-75879000D01*
X27969646Y-75912363D01*
X27836184Y-76001540D01*
X27779449Y-76039449D01*
X27747373Y-76087454D01*
X26431828Y-77403000D01*
X25773081Y-77403000D01*
X25627486Y-77257405D01*
X25315075Y-77128000D01*
X24976925Y-77128000D01*
X24664514Y-77257405D01*
X24425405Y-77496514D01*
X24296000Y-77808925D01*
X23788123Y-77808925D01*
X31369519Y-67384508D01*
X31378504Y-67378504D01*
X31430727Y-67300347D01*
X31454998Y-67266974D01*
X31459404Y-67257428D01*
X31494539Y-67204845D01*
X31502765Y-67163489D01*
X31520435Y-67125208D01*
X31522948Y-67062022D01*
X31525000Y-67051706D01*
X31525000Y-67010427D01*
X31528735Y-66916516D01*
X31525000Y-66906377D01*
X31525000Y-51138925D01*
X54268000Y-51138925D01*
X54268000Y-51477075D01*
X54397405Y-51789486D01*
X54636514Y-52028595D01*
X54948925Y-52158000D01*
X55287075Y-52158000D01*
X55599486Y-52028595D01*
X55838595Y-51789486D01*
X55968000Y-51477075D01*
X55968000Y-51271172D01*
X57134173Y-50105000D01*
X57347377Y-50105000D01*
X57404000Y-50116263D01*
X57460623Y-50105000D01*
X57460628Y-50105000D01*
X57628354Y-50071637D01*
X57818551Y-49944551D01*
X57850629Y-49896543D01*
X58383173Y-49364000D01*
X58589075Y-49364000D01*
X58901486Y-49234595D01*
X59140595Y-48995486D01*
X59270000Y-48683075D01*
X59270000Y-48344925D01*
X59140595Y-48032514D01*
X58901486Y-47793405D01*
X58589075Y-47664000D01*
X58250925Y-47664000D01*
X57938514Y-47793405D01*
X57699405Y-48032514D01*
X57570000Y-48344925D01*
X57570000Y-48550827D01*
X57165828Y-48955000D01*
X56952624Y-48955000D01*
X56896000Y-48943737D01*
X56839376Y-48955000D01*
X56839372Y-48955000D01*
X56671646Y-48988363D01*
X56481449Y-49115449D01*
X56449373Y-49163454D01*
X55154828Y-50458000D01*
X54948925Y-50458000D01*
X54636514Y-50587405D01*
X54397405Y-50826514D01*
X54268000Y-51138925D01*
X31525000Y-51138925D01*
X31525000Y-44313752D01*
X32550000Y-44313752D01*
X32550000Y-45686248D01*
X33075232Y-46954268D01*
X34045732Y-47924768D01*
X35313752Y-48450000D01*
X36686248Y-48450000D01*
X37954268Y-47924768D01*
X38296111Y-47582925D01*
X49188000Y-47582925D01*
X49188000Y-47921075D01*
X49317405Y-48233486D01*
X49556514Y-48472595D01*
X49868925Y-48602000D01*
X50207075Y-48602000D01*
X50519486Y-48472595D01*
X50665081Y-48327000D01*
X52712919Y-48327000D01*
X52858514Y-48472595D01*
X53170925Y-48602000D01*
X53509075Y-48602000D01*
X53821486Y-48472595D01*
X54060595Y-48233486D01*
X54190000Y-47921075D01*
X54190000Y-47582925D01*
X54060595Y-47270514D01*
X53821486Y-47031405D01*
X53509075Y-46902000D01*
X53170925Y-46902000D01*
X52858514Y-47031405D01*
X52712919Y-47177000D01*
X50665081Y-47177000D01*
X50519486Y-47031405D01*
X50207075Y-46902000D01*
X49868925Y-46902000D01*
X49556514Y-47031405D01*
X49317405Y-47270514D01*
X49188000Y-47582925D01*
X38296111Y-47582925D01*
X38924768Y-46954268D01*
X39450000Y-45686248D01*
X39450000Y-44313752D01*
X39225982Y-43772925D01*
X60110000Y-43772925D01*
X60110000Y-44111075D01*
X60239405Y-44423486D01*
X60478514Y-44662595D01*
X60790925Y-44792000D01*
X61129075Y-44792000D01*
X61441486Y-44662595D01*
X61512081Y-44592000D01*
X61960763Y-44592000D01*
X63757111Y-46388349D01*
X63793376Y-46442624D01*
X64008383Y-46586286D01*
X64197982Y-46624000D01*
X64197983Y-46624000D01*
X64262000Y-46636734D01*
X64326016Y-46624000D01*
X64979919Y-46624000D01*
X65050514Y-46694595D01*
X65362925Y-46824000D01*
X65701075Y-46824000D01*
X66013486Y-46694595D01*
X66252595Y-46455486D01*
X66382000Y-46143075D01*
X66382000Y-45804925D01*
X66252595Y-45492514D01*
X66013486Y-45253405D01*
X65701075Y-45124000D01*
X65362925Y-45124000D01*
X65050514Y-45253405D01*
X64979919Y-45324000D01*
X64531238Y-45324000D01*
X62734891Y-43527654D01*
X62698624Y-43473376D01*
X62483617Y-43329714D01*
X62294018Y-43292000D01*
X62294016Y-43292000D01*
X62230000Y-43279266D01*
X62165984Y-43292000D01*
X61512081Y-43292000D01*
X61441486Y-43221405D01*
X61129075Y-43092000D01*
X60790925Y-43092000D01*
X60478514Y-43221405D01*
X60239405Y-43460514D01*
X60110000Y-43772925D01*
X39225982Y-43772925D01*
X38924768Y-43045732D01*
X38889961Y-43010925D01*
X76874000Y-43010925D01*
X76874000Y-43349075D01*
X77003405Y-43661486D01*
X77242514Y-43900595D01*
X77554925Y-44030000D01*
X77893075Y-44030000D01*
X78205486Y-43900595D01*
X78351081Y-43755000D01*
X78429377Y-43755000D01*
X78486000Y-43766263D01*
X78542623Y-43755000D01*
X78542628Y-43755000D01*
X78710354Y-43721637D01*
X78900551Y-43594551D01*
X78932629Y-43546543D01*
X80248173Y-42231000D01*
X85105828Y-42231000D01*
X86929373Y-44054546D01*
X86961449Y-44102551D01*
X87151646Y-44229637D01*
X87319372Y-44263000D01*
X87319376Y-44263000D01*
X87376000Y-44274263D01*
X87432623Y-44263000D01*
X89859377Y-44263000D01*
X89916000Y-44274263D01*
X89972623Y-44263000D01*
X89972628Y-44263000D01*
X90140354Y-44229637D01*
X90330551Y-44102551D01*
X90362629Y-44054543D01*
X90662173Y-43755000D01*
X92629425Y-43755000D01*
X92622000Y-43772925D01*
X92622000Y-44111075D01*
X92751405Y-44423486D01*
X92990514Y-44662595D01*
X93302925Y-44792000D01*
X93641075Y-44792000D01*
X93953486Y-44662595D01*
X94024081Y-44592000D01*
X95205919Y-44592000D01*
X95276514Y-44662595D01*
X95588925Y-44792000D01*
X95927075Y-44792000D01*
X96239486Y-44662595D01*
X96367156Y-44534925D01*
X104814000Y-44534925D01*
X104814000Y-44873075D01*
X104943405Y-45185486D01*
X105182514Y-45424595D01*
X105494925Y-45554000D01*
X105833075Y-45554000D01*
X106145486Y-45424595D01*
X106291081Y-45279000D01*
X107203828Y-45279000D01*
X109640000Y-47715173D01*
X109640000Y-47921075D01*
X109769405Y-48233486D01*
X110008514Y-48472595D01*
X110320925Y-48602000D01*
X110659075Y-48602000D01*
X110971486Y-48472595D01*
X111210595Y-48233486D01*
X111340000Y-47921075D01*
X111340000Y-47582925D01*
X111210595Y-47270514D01*
X111015006Y-47074925D01*
X122086000Y-47074925D01*
X122086000Y-47413075D01*
X122215405Y-47725486D01*
X122454514Y-47964595D01*
X122766925Y-48094000D01*
X123105075Y-48094000D01*
X123417486Y-47964595D01*
X123488081Y-47894000D01*
X141462763Y-47894000D01*
X144021113Y-50452351D01*
X144057376Y-50506624D01*
X144111648Y-50542887D01*
X144272382Y-50650286D01*
X144526000Y-50700734D01*
X144590018Y-50688000D01*
X148037919Y-50688000D01*
X148108514Y-50758595D01*
X148420925Y-50888000D01*
X148759075Y-50888000D01*
X149071486Y-50758595D01*
X149310595Y-50519486D01*
X149440000Y-50207075D01*
X149440000Y-49868925D01*
X149310595Y-49556514D01*
X149071486Y-49317405D01*
X148759075Y-49188000D01*
X148420925Y-49188000D01*
X148108514Y-49317405D01*
X148037919Y-49388000D01*
X144795239Y-49388000D01*
X142236891Y-46829654D01*
X142200624Y-46775376D01*
X141985617Y-46631714D01*
X141796018Y-46594000D01*
X141796016Y-46594000D01*
X141732000Y-46581266D01*
X141667984Y-46594000D01*
X123488081Y-46594000D01*
X123417486Y-46523405D01*
X123105075Y-46394000D01*
X122766925Y-46394000D01*
X122454514Y-46523405D01*
X122215405Y-46762514D01*
X122086000Y-47074925D01*
X111015006Y-47074925D01*
X110971486Y-47031405D01*
X110659075Y-46902000D01*
X110453173Y-46902000D01*
X107888629Y-44337457D01*
X107856551Y-44289449D01*
X107666354Y-44162363D01*
X107498628Y-44129000D01*
X107498623Y-44129000D01*
X107442000Y-44117737D01*
X107385377Y-44129000D01*
X106291081Y-44129000D01*
X106145486Y-43983405D01*
X105833075Y-43854000D01*
X105494925Y-43854000D01*
X105182514Y-43983405D01*
X104943405Y-44222514D01*
X104814000Y-44534925D01*
X96367156Y-44534925D01*
X96478595Y-44423486D01*
X96608000Y-44111075D01*
X96608000Y-43772925D01*
X96600575Y-43755000D01*
X107965828Y-43755000D01*
X108599455Y-44388628D01*
X108599458Y-44388630D01*
X109894000Y-45683173D01*
X109894000Y-45889075D01*
X110023405Y-46201486D01*
X110262514Y-46440595D01*
X110574925Y-46570000D01*
X110913075Y-46570000D01*
X111225486Y-46440595D01*
X111464595Y-46201486D01*
X111594000Y-45889075D01*
X111594000Y-45550925D01*
X111464595Y-45238514D01*
X111225486Y-44999405D01*
X110913075Y-44870000D01*
X110707173Y-44870000D01*
X110150925Y-44313752D01*
X150550000Y-44313752D01*
X150550000Y-45686248D01*
X151075232Y-46954268D01*
X152045732Y-47924768D01*
X153313752Y-48450000D01*
X154686248Y-48450000D01*
X155954268Y-47924768D01*
X156924768Y-46954268D01*
X157450000Y-45686248D01*
X157450000Y-44313752D01*
X156924768Y-43045732D01*
X155954268Y-42075232D01*
X154686248Y-41550000D01*
X153313752Y-41550000D01*
X152045732Y-42075232D01*
X151075232Y-43045732D01*
X150550000Y-44313752D01*
X110150925Y-44313752D01*
X109412630Y-43575458D01*
X109412628Y-43575455D01*
X108650628Y-42813456D01*
X108618551Y-42765449D01*
X108428354Y-42638363D01*
X108260628Y-42605000D01*
X108260623Y-42605000D01*
X108204000Y-42593737D01*
X108147377Y-42605000D01*
X90480623Y-42605000D01*
X90423999Y-42593737D01*
X90367375Y-42605000D01*
X90367372Y-42605000D01*
X90199646Y-42638363D01*
X90009449Y-42765449D01*
X89977373Y-42813454D01*
X89677828Y-43113000D01*
X87614173Y-43113000D01*
X85790629Y-41289457D01*
X85758551Y-41241449D01*
X85568354Y-41114363D01*
X85400628Y-41081000D01*
X85400623Y-41081000D01*
X85344000Y-41069737D01*
X85287377Y-41081000D01*
X80066623Y-41081000D01*
X80009999Y-41069737D01*
X79953375Y-41081000D01*
X79953372Y-41081000D01*
X79785646Y-41114363D01*
X79595449Y-41241449D01*
X79563373Y-41289454D01*
X78299454Y-42553373D01*
X78205486Y-42459405D01*
X77893075Y-42330000D01*
X77554925Y-42330000D01*
X77242514Y-42459405D01*
X77003405Y-42698514D01*
X76874000Y-43010925D01*
X38889961Y-43010925D01*
X37954268Y-42075232D01*
X36686248Y-41550000D01*
X35313752Y-41550000D01*
X34045732Y-42075232D01*
X33075232Y-43045732D01*
X32550000Y-44313752D01*
X31525000Y-44313752D01*
X31525000Y-44217461D01*
X35217462Y-40525000D01*
X154782539Y-40525000D01*
X158475000Y-44217462D01*
G04 #@! TD*
M02*
