G04 #@! TF.GenerationSoftware,KiCad,Pcbnew,5.0.2-bee76a0~70~ubuntu18.04.1*
G04 #@! TF.CreationDate,2020-10-17T11:56:47+02:00*
G04 #@! TF.ProjectId,DVDLaserScanner,4456444c-6173-4657-9253-63616e6e6572,rev?*
G04 #@! TF.SameCoordinates,Original*
G04 #@! TF.FileFunction,Soldermask,Top*
G04 #@! TF.FilePolarity,Negative*
%FSLAX46Y46*%
G04 Gerber Fmt 4.6, Leading zero omitted, Abs format (unit mm)*
G04 Created by KiCad (PCBNEW 5.0.2-bee76a0~70~ubuntu18.04.1) date Sa 17 Okt 2020 11:56:47 CEST*
%MOMM*%
%LPD*%
G01*
G04 APERTURE LIST*
%ADD10C,0.100000*%
G04 APERTURE END LIST*
D10*
G36*
X28933405Y-106922974D02*
X29515767Y-107164196D01*
X30039884Y-107514400D01*
X30485600Y-107960116D01*
X30835804Y-108484233D01*
X31077026Y-109066595D01*
X31200000Y-109684826D01*
X31200000Y-110315174D01*
X31077026Y-110933405D01*
X30835804Y-111515767D01*
X30485600Y-112039884D01*
X30039884Y-112485600D01*
X29515767Y-112835804D01*
X28933405Y-113077026D01*
X28315174Y-113200000D01*
X27684826Y-113200000D01*
X27066595Y-113077026D01*
X26484233Y-112835804D01*
X25960116Y-112485600D01*
X25514400Y-112039884D01*
X25164196Y-111515767D01*
X24922974Y-110933405D01*
X24800000Y-110315174D01*
X24800000Y-109684826D01*
X24922974Y-109066595D01*
X25164196Y-108484233D01*
X25514400Y-107960116D01*
X25960116Y-107514400D01*
X26484233Y-107164196D01*
X27066595Y-106922974D01*
X27684826Y-106800000D01*
X28315174Y-106800000D01*
X28933405Y-106922974D01*
X28933405Y-106922974D01*
G37*
G36*
X162933405Y-106922974D02*
X163515767Y-107164196D01*
X164039884Y-107514400D01*
X164485600Y-107960116D01*
X164835804Y-108484233D01*
X165077026Y-109066595D01*
X165200000Y-109684826D01*
X165200000Y-110315174D01*
X165077026Y-110933405D01*
X164835804Y-111515767D01*
X164485600Y-112039884D01*
X164039884Y-112485600D01*
X163515767Y-112835804D01*
X162933405Y-113077026D01*
X162315174Y-113200000D01*
X161684826Y-113200000D01*
X161066595Y-113077026D01*
X160484233Y-112835804D01*
X159960116Y-112485600D01*
X159514400Y-112039884D01*
X159164196Y-111515767D01*
X158922974Y-110933405D01*
X158800000Y-110315174D01*
X158800000Y-109684826D01*
X158922974Y-109066595D01*
X159164196Y-108484233D01*
X159514400Y-107960116D01*
X159960116Y-107514400D01*
X160484233Y-107164196D01*
X161066595Y-106922974D01*
X161684826Y-106800000D01*
X162315174Y-106800000D01*
X162933405Y-106922974D01*
X162933405Y-106922974D01*
G37*
G36*
X41510456Y-109317251D02*
X41828936Y-109449170D01*
X42115560Y-109640686D01*
X42359314Y-109884440D01*
X42550830Y-110171064D01*
X42682749Y-110489544D01*
X42750000Y-110827640D01*
X42750000Y-111172360D01*
X42682749Y-111510456D01*
X42550830Y-111828936D01*
X42359314Y-112115560D01*
X42115560Y-112359314D01*
X41828936Y-112550830D01*
X41510456Y-112682749D01*
X41172360Y-112750000D01*
X40827640Y-112750000D01*
X40489544Y-112682749D01*
X40171064Y-112550830D01*
X39884440Y-112359314D01*
X39640686Y-112115560D01*
X39449170Y-111828936D01*
X39317251Y-111510456D01*
X39250000Y-111172360D01*
X39250000Y-110827640D01*
X39317251Y-110489544D01*
X39449170Y-110171064D01*
X39640686Y-109884440D01*
X39884440Y-109640686D01*
X40171064Y-109449170D01*
X40489544Y-109317251D01*
X40827640Y-109250000D01*
X41172360Y-109250000D01*
X41510456Y-109317251D01*
X41510456Y-109317251D01*
G37*
G36*
X149510456Y-109317251D02*
X149828936Y-109449170D01*
X150115560Y-109640686D01*
X150359314Y-109884440D01*
X150550830Y-110171064D01*
X150682749Y-110489544D01*
X150750000Y-110827640D01*
X150750000Y-111172360D01*
X150682749Y-111510456D01*
X150550830Y-111828936D01*
X150359314Y-112115560D01*
X150115560Y-112359314D01*
X149828936Y-112550830D01*
X149510456Y-112682749D01*
X149172360Y-112750000D01*
X148827640Y-112750000D01*
X148489544Y-112682749D01*
X148171064Y-112550830D01*
X147884440Y-112359314D01*
X147640686Y-112115560D01*
X147449170Y-111828936D01*
X147317251Y-111510456D01*
X147250000Y-111172360D01*
X147250000Y-110827640D01*
X147317251Y-110489544D01*
X147449170Y-110171064D01*
X147640686Y-109884440D01*
X147884440Y-109640686D01*
X148171064Y-109449170D01*
X148489544Y-109317251D01*
X148827640Y-109250000D01*
X149172360Y-109250000D01*
X149510456Y-109317251D01*
X149510456Y-109317251D01*
G37*
G36*
X154250000Y-95150000D02*
X151750000Y-95150000D01*
X151750000Y-93350000D01*
X154250000Y-93350000D01*
X154250000Y-95150000D01*
X154250000Y-95150000D01*
G37*
G36*
X164250000Y-95150000D02*
X161750000Y-95150000D01*
X161750000Y-93350000D01*
X164250000Y-93350000D01*
X164250000Y-95150000D01*
X164250000Y-95150000D01*
G37*
G36*
X164250000Y-90650000D02*
X161750000Y-90650000D01*
X161750000Y-88850000D01*
X164250000Y-88850000D01*
X164250000Y-90650000D01*
X164250000Y-90650000D01*
G37*
G36*
X154250000Y-90650000D02*
X151750000Y-90650000D01*
X151750000Y-88850000D01*
X154250000Y-88850000D01*
X154250000Y-90650000D01*
X154250000Y-90650000D01*
G37*
G36*
X159510456Y-72317251D02*
X159828936Y-72449170D01*
X160115560Y-72640686D01*
X160359314Y-72884440D01*
X160550830Y-73171064D01*
X160682749Y-73489544D01*
X160750000Y-73827640D01*
X160750000Y-74172360D01*
X160682749Y-74510456D01*
X160550830Y-74828936D01*
X160359314Y-75115560D01*
X160115560Y-75359314D01*
X159828936Y-75550830D01*
X159510456Y-75682749D01*
X159172360Y-75750000D01*
X158827640Y-75750000D01*
X158489544Y-75682749D01*
X158171064Y-75550830D01*
X157884440Y-75359314D01*
X157640686Y-75115560D01*
X157449170Y-74828936D01*
X157317251Y-74510456D01*
X157250000Y-74172360D01*
X157250000Y-73827640D01*
X157317251Y-73489544D01*
X157449170Y-73171064D01*
X157640686Y-72884440D01*
X157884440Y-72640686D01*
X158171064Y-72449170D01*
X158489544Y-72317251D01*
X158827640Y-72250000D01*
X159172360Y-72250000D01*
X159510456Y-72317251D01*
X159510456Y-72317251D01*
G37*
G36*
X31510456Y-72317251D02*
X31828936Y-72449170D01*
X32115560Y-72640686D01*
X32359314Y-72884440D01*
X32550830Y-73171064D01*
X32682749Y-73489544D01*
X32750000Y-73827640D01*
X32750000Y-74172360D01*
X32682749Y-74510456D01*
X32550830Y-74828936D01*
X32359314Y-75115560D01*
X32115560Y-75359314D01*
X31828936Y-75550830D01*
X31510456Y-75682749D01*
X31172360Y-75750000D01*
X30827640Y-75750000D01*
X30489544Y-75682749D01*
X30171064Y-75550830D01*
X29884440Y-75359314D01*
X29640686Y-75115560D01*
X29449170Y-74828936D01*
X29317251Y-74510456D01*
X29250000Y-74172360D01*
X29250000Y-73827640D01*
X29317251Y-73489544D01*
X29449170Y-73171064D01*
X29640686Y-72884440D01*
X29884440Y-72640686D01*
X30171064Y-72449170D01*
X30489544Y-72317251D01*
X30827640Y-72250000D01*
X31172360Y-72250000D01*
X31510456Y-72317251D01*
X31510456Y-72317251D01*
G37*
G36*
X152842000Y-54604300D02*
X150942000Y-54604300D01*
X150942000Y-51008900D01*
X152842000Y-51008900D01*
X152842000Y-54604300D01*
X152842000Y-54604300D01*
G37*
G36*
X156652000Y-54604300D02*
X154752000Y-54604300D01*
X154752000Y-51008900D01*
X156652000Y-51008900D01*
X156652000Y-54604300D01*
X156652000Y-54604300D01*
G37*
G36*
X36933405Y-41922974D02*
X37515767Y-42164196D01*
X38039884Y-42514400D01*
X38485600Y-42960116D01*
X38835804Y-43484233D01*
X39077026Y-44066595D01*
X39200000Y-44684826D01*
X39200000Y-45315174D01*
X39077026Y-45933405D01*
X38835804Y-46515767D01*
X38485600Y-47039884D01*
X38039884Y-47485600D01*
X37515767Y-47835804D01*
X36933405Y-48077026D01*
X36315174Y-48200000D01*
X35684826Y-48200000D01*
X35066595Y-48077026D01*
X34484233Y-47835804D01*
X33960116Y-47485600D01*
X33514400Y-47039884D01*
X33164196Y-46515767D01*
X32922974Y-45933405D01*
X32800000Y-45315174D01*
X32800000Y-44684826D01*
X32922974Y-44066595D01*
X33164196Y-43484233D01*
X33514400Y-42960116D01*
X33960116Y-42514400D01*
X34484233Y-42164196D01*
X35066595Y-41922974D01*
X35684826Y-41800000D01*
X36315174Y-41800000D01*
X36933405Y-41922974D01*
X36933405Y-41922974D01*
G37*
G36*
X154933405Y-41922974D02*
X155515767Y-42164196D01*
X156039884Y-42514400D01*
X156485600Y-42960116D01*
X156835804Y-43484233D01*
X157077026Y-44066595D01*
X157200000Y-44684826D01*
X157200000Y-45315174D01*
X157077026Y-45933405D01*
X156835804Y-46515767D01*
X156485600Y-47039884D01*
X156039884Y-47485600D01*
X155515767Y-47835804D01*
X154933405Y-48077026D01*
X154315174Y-48200000D01*
X153684826Y-48200000D01*
X153066595Y-48077026D01*
X152484233Y-47835804D01*
X151960116Y-47485600D01*
X151514400Y-47039884D01*
X151164196Y-46515767D01*
X150922974Y-45933405D01*
X150800000Y-45315174D01*
X150800000Y-44684826D01*
X150922974Y-44066595D01*
X151164196Y-43484233D01*
X151514400Y-42960116D01*
X151960116Y-42514400D01*
X152484233Y-42164196D01*
X153066595Y-41922974D01*
X153684826Y-41800000D01*
X154315174Y-41800000D01*
X154933405Y-41922974D01*
X154933405Y-41922974D01*
G37*
M02*
