M48
;DRILL file {KiCad 5.0.2-bee76a0~70~ubuntu18.04.1} date Sa 17 Okt 2020 11:59:01 CEST
;FORMAT={-:-/ absolute / inch / decimal}
FMAT,2
INCH,TZ
T1C0.0157
T2C0.0984
T3C0.1181
T4C0.1220
T5C0.1260
%
G90
G05
T1
X0.99Y-3.07
X1.155Y-3.39
X1.185Y-3.92
X1.225Y-3.39
X1.225Y-3.56
X1.225Y-3.62
X1.225Y-3.7
X1.225Y-3.76
X1.295Y-3.56
X1.295Y-3.62
X1.295Y-3.7
X1.295Y-3.76
X1.425Y-3.56
X1.425Y-3.62
X1.425Y-3.7
X1.425Y-3.76
X1.495Y-3.56
X1.495Y-3.62
X1.495Y-3.7
X1.495Y-3.76
X1.505Y-3.4
X1.535Y-3.91
X1.555Y-3.48
X1.56Y-2.73
X1.585Y-3.91
X1.595Y-3.47
X1.665Y-3.56
X1.665Y-3.62
X1.665Y-3.7
X1.665Y-3.76
X1.7Y-2.59
X1.735Y-3.56
X1.735Y-3.62
X1.735Y-3.7
X1.735Y-3.76
X1.76Y-2.27
X1.77Y-2.67
X1.785Y-3.97
X1.9Y-2.59
X1.9Y-2.75
X1.905Y-3.56
X1.905Y-3.62
X1.905Y-3.7
X1.905Y-3.76
X1.96Y-2.13
X1.96Y-2.1975
X1.96Y-2.35
X1.96Y-2.58
X1.96Y-3.0775
X1.96Y-3.34
X1.965Y-3.41
X1.97Y-1.88
X1.98Y-2.75
X1.985Y-3.56
X1.985Y-3.62
X1.985Y-3.7
X1.985Y-3.76
X2.01Y-3.005
X2.035Y-3.52
X2.045Y-3.86
X2.075Y-3.47
X2.095Y-4.12
X2.1Y-1.88
X2.11Y-2.35
X2.13Y-2.5
X2.135Y-3.56
X2.135Y-3.62
X2.135Y-3.7
X2.135Y-3.76
X2.16Y-4.44
X2.165Y-3.4
X2.17Y-2.02
X2.205Y-3.56
X2.205Y-3.62
X2.205Y-3.7
X2.205Y-3.76
X2.26Y-2.72
X2.29Y-4.27
X2.3Y-1.91
X2.385Y-3.56
X2.385Y-3.62
X2.385Y-3.7
X2.385Y-3.76
X2.4Y-1.73
X2.4Y-2.72
X2.42Y-2.58
X2.435Y-3.4
X2.44Y-1.85
X2.455Y-3.56
X2.455Y-3.62
X2.455Y-3.7
X2.455Y-3.76
X2.4606Y-2.3819
X2.5Y-2.5
X2.515Y-3.52
X2.515Y-3.85
X2.54Y-2.54
X2.58Y-1.81
X2.585Y-3.5
X2.63Y-3.22
X2.655Y-4.09
X2.68Y-3.17
X2.71Y-4.42
X2.715Y-3.79
X2.715Y-3.87
X2.715Y-4.07
X2.75Y-3.34
X2.79Y-4.67
X2.84Y-3.93
X2.85Y-4.6
X2.9Y-2.87
X2.9134Y-2.4213
X3.01Y-4.48
X3.0512Y-2.0079
X3.06Y-1.7
X3.07Y-2.13
X3.09Y-4.3
X3.0906Y-2.2441
X3.14Y-3.92
X3.22Y-4.26
X3.25Y-3.99
X3.26Y-4.51
X3.34Y-1.74
X3.4Y-1.77
X3.41Y-4.67
X3.46Y-1.68
X3.47Y-4.64
X3.48Y-4.55
X3.58Y-2.17
X3.58Y-2.3
X3.63Y-2.17
X3.63Y-2.32
X3.64Y-1.79
X3.66Y-2.69
X3.68Y-1.73
X3.7Y-2.17
X3.77Y-1.73
X3.77Y-4.42
X3.77Y-4.5
X3.98Y-4.14
X4.04Y-4.35
X4.04Y-4.42
X4.04Y-4.59
X4.04Y-4.68
X4.09Y-2.21
X4.09Y-4.45
X4.09Y-4.51
X4.14Y-4.16
X4.14Y-4.27
X4.145Y-4.65
X4.16Y-1.76
X4.19Y-4.45
X4.19Y-4.51
X4.24Y-4.51
X4.29Y-4.42
X4.29Y-4.51
X4.35Y-1.88
X4.36Y-1.8
X4.49Y-4.07
X4.49Y-4.55
X4.57Y-4.35
X4.57Y-4.42
X4.62Y-4.45
X4.62Y-4.61
X4.63Y-4.07
X4.66Y-1.67
X4.67Y-2.58
X4.67Y-4.27
X4.72Y-4.61
X4.77Y-4.51
X4.78Y-2.53
X4.82Y-4.42
X4.82Y-4.51
X4.84Y-1.86
X4.9Y-1.67
X4.92Y-4.08
X5.01Y-4.24
X5.03Y-1.96
X5.04Y-2.58
X5.08Y-2.17
X5.24Y-2.71
X5.27Y-2.44
X5.32Y-2.72
X5.32Y-3.45
X5.33Y-4.24
X5.37Y-2.52
X5.38Y-4.42
X5.85Y-1.97
X5.9Y-2.18
X5.92Y-1.88
X5.99Y-2.159
X6.01Y-2.88
X6.06Y-2.039
X6.07Y-2.81
X6.12Y-4.05
X6.13Y-2.159
T2
X4.7047Y-3.3
T3
X2.6772Y-2.185
X4.8031Y-2.185
T4
X5.8661Y-4.3701
X1.6142Y-4.3701
X6.2598Y-2.9134
X1.2205Y-2.9134
T5
X1.1024Y-4.3307
X1.4173Y-1.7717
X6.063Y-1.7717
X6.378Y-4.3307
T0
M30
