G04 #@! TF.GenerationSoftware,KiCad,Pcbnew,no-vcs-found-ddec803~58~ubuntu14.04.1*
G04 #@! TF.CreationDate,2017-06-12T14:50:18+02:00*
G04 #@! TF.ProjectId,DVDLaserScanner,4456444C617365725363616E6E65722E,rev?*
G04 #@! TF.FileFunction,Legend,Bot*
G04 #@! TF.FilePolarity,Positive*
%FSLAX46Y46*%
G04 Gerber Fmt 4.6, Leading zero omitted, Abs format (unit mm)*
G04 Created by KiCad (PCBNEW no-vcs-found-ddec803~58~ubuntu14.04.1) date Mon Jun 12 14:50:18 2017*
%MOMM*%
%LPD*%
G01*
G04 APERTURE LIST*
%ADD10C,0.100000*%
%ADD11C,0.300000*%
%ADD12C,0.150000*%
%ADD13C,0.050000*%
%ADD14C,0.010000*%
G04 APERTURE END LIST*
D10*
D11*
X59563142Y-74108571D02*
X60420285Y-74108571D01*
X59991714Y-75608571D02*
X59991714Y-74108571D01*
X61706000Y-75608571D02*
X60848857Y-75608571D01*
X61277428Y-75608571D02*
X61277428Y-74108571D01*
X61134571Y-74322857D01*
X60991714Y-74465714D01*
X60848857Y-74537142D01*
X60206000Y-78632857D02*
X59706000Y-78632857D01*
X59706000Y-79418571D02*
X59706000Y-77918571D01*
X60420285Y-77918571D01*
X61777428Y-79418571D02*
X60920285Y-79418571D01*
X61348857Y-79418571D02*
X61348857Y-77918571D01*
X61206000Y-78132857D01*
X61063142Y-78275714D01*
X60920285Y-78347142D01*
X60610857Y-83228571D02*
X60110857Y-82514285D01*
X59753714Y-83228571D02*
X59753714Y-81728571D01*
X60325142Y-81728571D01*
X60468000Y-81800000D01*
X60539428Y-81871428D01*
X60610857Y-82014285D01*
X60610857Y-82228571D01*
X60539428Y-82371428D01*
X60468000Y-82442857D01*
X60325142Y-82514285D01*
X59753714Y-82514285D01*
X61253714Y-82442857D02*
X61753714Y-82442857D01*
X61968000Y-83228571D02*
X61253714Y-83228571D01*
X61253714Y-81728571D01*
X61968000Y-81728571D01*
X63110857Y-82442857D02*
X62610857Y-82442857D01*
X62610857Y-83228571D02*
X62610857Y-81728571D01*
X63325142Y-81728571D01*
D12*
X81750000Y-43309000D02*
X81750000Y-46609000D01*
X108250000Y-43309000D02*
X81750000Y-43309000D01*
X108250000Y-46609000D02*
X108250000Y-43309000D01*
X108250000Y-46609000D02*
X81750000Y-46609000D01*
X108250000Y-42109000D02*
X108250000Y-42909000D01*
X81750000Y-42109000D02*
X108250000Y-42109000D01*
X81750000Y-42909000D02*
X81750000Y-42109000D01*
X108250000Y-42909000D02*
X81750000Y-42909000D01*
X145750000Y-114250000D02*
X152250000Y-114250000D01*
X145750000Y-107750000D02*
X145750000Y-114250000D01*
X152250000Y-107750000D02*
X145750000Y-107750000D01*
X152250000Y-114250000D02*
X152250000Y-107750000D01*
X156500000Y-111000000D02*
G75*
G03X156500000Y-111000000I-7500000J0D01*
G01*
X44250000Y-107750000D02*
X37750000Y-107750000D01*
X44250000Y-114250000D02*
X44250000Y-107750000D01*
X37750000Y-114250000D02*
X44250000Y-114250000D01*
X37750000Y-107750000D02*
X37750000Y-114250000D01*
X48500000Y-111000000D02*
G75*
G03X48500000Y-111000000I-7500000J0D01*
G01*
X163545709Y-74679361D02*
X159679361Y-69454291D01*
X158320639Y-78545709D02*
X163545709Y-74679361D01*
X154454291Y-73320639D02*
X158320639Y-78545709D01*
X159679361Y-69454291D02*
X154454291Y-73320639D01*
X166500000Y-74000000D02*
G75*
G03X166500000Y-74000000I-7500000J0D01*
G01*
X31679361Y-78545709D02*
X35545709Y-73320639D01*
X26454291Y-74679361D02*
X31679361Y-78545709D01*
X30320639Y-69454291D02*
X26454291Y-74679361D01*
X35545709Y-73320639D02*
X30320639Y-69454291D01*
X38500000Y-74000000D02*
G75*
G03X38500000Y-74000000I-7500000J0D01*
G01*
X102904591Y-111249000D02*
G75*
G03X102904591Y-111249000I-288591J0D01*
G01*
X110871000Y-114477800D02*
X110871000Y-110566200D01*
X110871000Y-110566200D02*
X101981000Y-110566200D01*
X101981000Y-114477800D02*
X101981000Y-110566200D01*
X101981000Y-114477800D02*
X110871000Y-114477800D01*
X101981000Y-113030000D02*
X101981000Y-111760000D01*
X116366591Y-111249000D02*
G75*
G03X116366591Y-111249000I-288591J0D01*
G01*
X124333000Y-114477800D02*
X124333000Y-110566200D01*
X124333000Y-110566200D02*
X115443000Y-110566200D01*
X115443000Y-114477800D02*
X115443000Y-110566200D01*
X115443000Y-114477800D02*
X124333000Y-114477800D01*
X115443000Y-113030000D02*
X115443000Y-111760000D01*
D13*
X129880000Y-41430400D02*
X129880000Y-89430400D01*
X147620000Y-89430400D02*
X147620000Y-41430400D01*
X132380000Y-41430400D02*
X132380000Y-89430400D01*
X145120000Y-89430400D02*
X145120000Y-41430400D01*
D12*
X142560000Y-40030400D02*
X142560000Y-43840400D01*
X134940000Y-40030400D02*
X134940000Y-43840400D01*
X142560000Y-40030400D02*
X134940000Y-40030400D01*
X134940000Y-43840400D02*
X142560000Y-43840400D01*
X129750000Y-41430400D02*
X147750000Y-41430400D01*
X129750000Y-89430400D02*
X129750000Y-41430400D01*
X147750000Y-89430400D02*
X147750000Y-41430400D01*
X147750000Y-89430400D02*
X129750000Y-89430400D01*
D13*
X86918400Y-115316000D02*
X86918400Y-115824000D01*
X85293600Y-115316000D02*
X85293600Y-115824000D01*
X36957000Y-100025600D02*
X37465000Y-100025600D01*
X36957000Y-101650400D02*
X37465000Y-101650400D01*
X48641000Y-103327600D02*
X49149000Y-103327600D01*
X48641000Y-104952400D02*
X49149000Y-104952400D01*
X65201400Y-101600000D02*
X65201400Y-102108000D01*
X63576600Y-101600000D02*
X63576600Y-102108000D01*
X67995400Y-91948000D02*
X67995400Y-92456000D01*
X66370600Y-91948000D02*
X66370600Y-92456000D01*
X34417000Y-85039600D02*
X34925000Y-85039600D01*
X34417000Y-86664400D02*
X34925000Y-86664400D01*
X65913000Y-85547600D02*
X66421000Y-85547600D01*
X65913000Y-87172400D02*
X66421000Y-87172400D01*
X32639000Y-100025600D02*
X33147000Y-100025600D01*
X32639000Y-101650400D02*
X33147000Y-101650400D01*
X60325000Y-100279600D02*
X60833000Y-100279600D01*
X60325000Y-101904400D02*
X60833000Y-101904400D01*
X52400600Y-102108000D02*
X52400600Y-101600000D01*
X54025400Y-102108000D02*
X54025400Y-101600000D01*
X48895000Y-101650400D02*
X48387000Y-101650400D01*
X48895000Y-100025600D02*
X48387000Y-100025600D01*
X86918400Y-109982000D02*
X86918400Y-110490000D01*
X85293600Y-109982000D02*
X85293600Y-110490000D01*
X46736000Y-78689600D02*
X47244000Y-78689600D01*
X46736000Y-80314400D02*
X47244000Y-80314400D01*
X46736000Y-76149600D02*
X47244000Y-76149600D01*
X46736000Y-77774400D02*
X47244000Y-77774400D01*
X75946000Y-119176400D02*
X75438000Y-119176400D01*
X75946000Y-117551600D02*
X75438000Y-117551600D01*
D12*
X67056000Y-113665000D02*
X70231000Y-113665000D01*
X70231000Y-113665000D02*
X70231000Y-115443000D01*
X70231000Y-115443000D02*
X67056000Y-115443000D01*
X67056000Y-109093000D02*
X70231000Y-109093000D01*
X70231000Y-109093000D02*
X70231000Y-110871000D01*
X70231000Y-110871000D02*
X67056000Y-110871000D01*
X60960000Y-115697000D02*
X67056000Y-115697000D01*
X67056000Y-115697000D02*
X67056000Y-108839000D01*
X67056000Y-108839000D02*
X59182000Y-108839000D01*
X59055000Y-108839000D02*
X59055000Y-115697000D01*
X59182000Y-115697000D02*
X60960000Y-115697000D01*
D13*
X151079600Y-57632600D02*
X151079600Y-57124600D01*
X152704400Y-57632600D02*
X152704400Y-57124600D01*
X82042000Y-116636400D02*
X81534000Y-116636400D01*
X82042000Y-115011600D02*
X81534000Y-115011600D01*
X81534000Y-111963600D02*
X82042000Y-111963600D01*
X81534000Y-113588400D02*
X82042000Y-113588400D01*
X82042000Y-119176400D02*
X81534000Y-119176400D01*
X82042000Y-117551600D02*
X81534000Y-117551600D01*
X69342000Y-116281600D02*
X69850000Y-116281600D01*
X69342000Y-117906400D02*
X69850000Y-117906400D01*
X154889600Y-57632600D02*
X154889600Y-57124600D01*
X156514400Y-57632600D02*
X156514400Y-57124600D01*
X64516000Y-116281600D02*
X65024000Y-116281600D01*
X64516000Y-117906400D02*
X65024000Y-117906400D01*
D12*
X77597000Y-114046000D02*
G75*
G03X77597000Y-114046000I-254000J0D01*
G01*
X77978000Y-110820200D02*
X77978000Y-114731800D01*
X72898000Y-110820200D02*
X72898000Y-114731800D01*
X77978000Y-110820200D02*
X72898000Y-110820200D01*
X72898000Y-114731800D02*
X77978000Y-114731800D01*
X89696591Y-111249000D02*
G75*
G03X89696591Y-111249000I-288591J0D01*
G01*
X97663000Y-114477800D02*
X97663000Y-110566200D01*
X97663000Y-110566200D02*
X88773000Y-110566200D01*
X88773000Y-114477800D02*
X88773000Y-110566200D01*
X88773000Y-114477800D02*
X97663000Y-114477800D01*
X88773000Y-113030000D02*
X88773000Y-111760000D01*
X111887000Y-48895000D02*
X111887000Y-45085000D01*
X111887000Y-45085000D02*
X113665000Y-45085000D01*
X113665000Y-45085000D02*
X113665000Y-48895000D01*
X111887000Y-48895000D02*
X113665000Y-48895000D01*
D13*
X49022000Y-64820400D02*
X48514000Y-64820400D01*
X49022000Y-63195600D02*
X48514000Y-63195600D01*
D12*
X28956000Y-89027000D02*
X28956000Y-96901000D01*
X39878000Y-96901000D02*
X39878000Y-89027000D01*
X28956000Y-96901000D02*
X39878000Y-96901000D01*
X39878000Y-89027000D02*
X28956000Y-89027000D01*
X28956000Y-93472000D02*
X29718000Y-93472000D01*
X29718000Y-93472000D02*
X29718000Y-92456000D01*
X29718000Y-92456000D02*
X28956000Y-92456000D01*
X52832000Y-89027000D02*
X52832000Y-96901000D01*
X63754000Y-96901000D02*
X63754000Y-89027000D01*
X52832000Y-96901000D02*
X63754000Y-96901000D01*
X63754000Y-89027000D02*
X52832000Y-89027000D01*
X52832000Y-93472000D02*
X53594000Y-93472000D01*
X53594000Y-93472000D02*
X53594000Y-92456000D01*
X53594000Y-92456000D02*
X52832000Y-92456000D01*
X40894000Y-89027000D02*
X40894000Y-96901000D01*
X51816000Y-96901000D02*
X51816000Y-89027000D01*
X40894000Y-96901000D02*
X51816000Y-96901000D01*
X51816000Y-89027000D02*
X40894000Y-89027000D01*
X40894000Y-93472000D02*
X41656000Y-93472000D01*
X41656000Y-93472000D02*
X41656000Y-92456000D01*
X41656000Y-92456000D02*
X40894000Y-92456000D01*
D13*
X43992400Y-68834000D02*
X43992400Y-68326000D01*
X42367600Y-68834000D02*
X42367600Y-68326000D01*
X43992400Y-57150000D02*
X43992400Y-57658000D01*
X42367600Y-57150000D02*
X42367600Y-57658000D01*
X57708400Y-47498000D02*
X57708400Y-46990000D01*
X56083600Y-47498000D02*
X56083600Y-46990000D01*
X43942000Y-62280400D02*
X44450000Y-62280400D01*
X43942000Y-60655600D02*
X44450000Y-60655600D01*
X42367600Y-53086000D02*
X42367600Y-52578000D01*
X43992400Y-53086000D02*
X43992400Y-52578000D01*
X48514000Y-47040400D02*
X48006000Y-47040400D01*
X48514000Y-45415600D02*
X48006000Y-45415600D01*
X41452400Y-57150000D02*
X41452400Y-57658000D01*
X39827600Y-57150000D02*
X39827600Y-57658000D01*
X37287600Y-57658000D02*
X37287600Y-57150000D01*
X38912400Y-57658000D02*
X38912400Y-57150000D01*
X49022000Y-60655600D02*
X48514000Y-60655600D01*
X49022000Y-62280400D02*
X48514000Y-62280400D01*
X57658000Y-55067600D02*
X58166000Y-55067600D01*
X57658000Y-56692400D02*
X58166000Y-56692400D01*
X53594000Y-62280400D02*
X53086000Y-62280400D01*
X53594000Y-60655600D02*
X53086000Y-60655600D01*
X58166000Y-62280400D02*
X57658000Y-62280400D01*
X58166000Y-60655600D02*
X57658000Y-60655600D01*
X58166000Y-57607600D02*
X57658000Y-57607600D01*
X58166000Y-59232400D02*
X57658000Y-59232400D01*
X43942000Y-63195600D02*
X44450000Y-63195600D01*
X43942000Y-64820400D02*
X44450000Y-64820400D01*
X39827600Y-62230000D02*
X39827600Y-62738000D01*
X41452400Y-62230000D02*
X41452400Y-62738000D01*
X41452400Y-53086000D02*
X41452400Y-52578000D01*
X39827600Y-53086000D02*
X39827600Y-52578000D01*
X48514000Y-47955600D02*
X48006000Y-47955600D01*
X48514000Y-49580400D02*
X48006000Y-49580400D01*
X52578000Y-49580400D02*
X53086000Y-49580400D01*
X52578000Y-47955600D02*
X53086000Y-47955600D01*
X57708400Y-65786000D02*
X57708400Y-65278000D01*
X56083600Y-65786000D02*
X56083600Y-65278000D01*
X60248400Y-65278000D02*
X60248400Y-65786000D01*
X58623600Y-65278000D02*
X58623600Y-65786000D01*
X53086000Y-45415600D02*
X52578000Y-45415600D01*
X53086000Y-47040400D02*
X52578000Y-47040400D01*
X58166000Y-52527600D02*
X57658000Y-52527600D01*
X58166000Y-54152400D02*
X57658000Y-54152400D01*
X58166000Y-51612400D02*
X57658000Y-51612400D01*
X58166000Y-49987600D02*
X57658000Y-49987600D01*
D12*
X41025000Y-77500000D02*
X41025000Y-75500000D01*
X43975000Y-75500000D02*
X43975000Y-77500000D01*
X45339000Y-55372000D02*
X45339000Y-54102000D01*
X45339000Y-56819800D02*
X54229000Y-56819800D01*
X45339000Y-56819800D02*
X45339000Y-52908200D01*
X54229000Y-52908200D02*
X45339000Y-52908200D01*
X54229000Y-56819800D02*
X54229000Y-52908200D01*
X46262591Y-53591000D02*
G75*
G03X46262591Y-53591000I-288591J0D01*
G01*
X46262591Y-69339000D02*
G75*
G03X46262591Y-69339000I-288591J0D01*
G01*
X54229000Y-72567800D02*
X54229000Y-68656200D01*
X54229000Y-68656200D02*
X45339000Y-68656200D01*
X45339000Y-72567800D02*
X45339000Y-68656200D01*
X45339000Y-72567800D02*
X54229000Y-72567800D01*
X45339000Y-71120000D02*
X45339000Y-69850000D01*
D14*
G36*
X67925989Y-76775542D02*
X67943721Y-76739961D01*
X68114775Y-76404667D01*
X69212000Y-76404667D01*
X69212000Y-77590000D01*
X69720000Y-77590000D01*
X69720000Y-75981333D01*
X69042667Y-75981333D01*
X69042667Y-75727333D01*
X69720000Y-75727333D01*
X69720000Y-74372667D01*
X69042667Y-74372667D01*
X69042667Y-75727333D01*
X69042667Y-75981333D01*
X68788667Y-75981333D01*
X68788667Y-74118667D01*
X69212000Y-74118667D01*
X69462780Y-74113348D01*
X69589074Y-74078441D01*
X69635724Y-73985520D01*
X69646105Y-73843500D01*
X69655332Y-73645338D01*
X69671765Y-73327025D01*
X69692829Y-72937461D01*
X69709605Y-72637000D01*
X69762333Y-71705667D01*
X70037500Y-71679136D01*
X70312666Y-71652605D01*
X70312666Y-70895969D01*
X70312667Y-70139333D01*
X70799500Y-70138402D01*
X71238184Y-70131252D01*
X71549276Y-70098281D01*
X71774425Y-70019243D01*
X71955279Y-69873892D01*
X72133489Y-69641981D01*
X72277221Y-69420062D01*
X72667415Y-68802047D01*
X73576572Y-68740079D01*
X73998563Y-68715266D01*
X74295493Y-68711162D01*
X74510752Y-68731234D01*
X74687734Y-68778947D01*
X74833364Y-68840491D01*
X75089641Y-68934436D01*
X75314780Y-68975037D01*
X75371500Y-68972547D01*
X75480783Y-68937564D01*
X75537960Y-68848494D01*
X75559427Y-68661915D01*
X75562000Y-68468124D01*
X75565074Y-68347760D01*
X75578948Y-68227046D01*
X75610598Y-68090858D01*
X75667000Y-67924072D01*
X75755130Y-67711564D01*
X75881965Y-67438210D01*
X76054480Y-67088885D01*
X76279651Y-66648466D01*
X76564455Y-66101829D01*
X76915868Y-65433849D01*
X77276500Y-64751136D01*
X78991000Y-61508247D01*
X82582760Y-61484624D01*
X86174521Y-61461000D01*
X86812639Y-59733202D01*
X87450758Y-58005403D01*
X90375212Y-58058855D01*
X93299667Y-58112307D01*
X97355596Y-59589913D01*
X98152290Y-59881872D01*
X98906417Y-60161534D01*
X99601837Y-60422683D01*
X100222408Y-60659106D01*
X100751991Y-60864587D01*
X101174444Y-61032910D01*
X101473626Y-61157862D01*
X101633398Y-61233227D01*
X101649001Y-61243094D01*
X101711200Y-61285606D01*
X101782648Y-61320639D01*
X101879275Y-61348915D01*
X102017012Y-61371158D01*
X102211790Y-61388091D01*
X102479539Y-61400437D01*
X102836189Y-61408919D01*
X103297672Y-61414260D01*
X103879918Y-61417182D01*
X104598857Y-61418410D01*
X105470421Y-61418667D01*
X109147907Y-61418667D01*
X109204934Y-64022167D01*
X109261962Y-66625667D01*
X109719530Y-67049000D01*
X109975553Y-67302226D01*
X110133184Y-67513639D01*
X110229816Y-67742593D01*
X110279636Y-67938000D01*
X110352772Y-68217645D01*
X110431041Y-68438205D01*
X110475600Y-68520922D01*
X110579770Y-68612411D01*
X110793772Y-68774195D01*
X111086151Y-68983226D01*
X111417013Y-69210758D01*
X111804558Y-69479941D01*
X112191144Y-69761266D01*
X112525876Y-70017045D01*
X112716413Y-70173003D01*
X113167827Y-70562667D01*
X117133333Y-70562667D01*
X117133333Y-68022667D01*
X123652667Y-68022667D01*
X123652667Y-76317721D01*
X124287667Y-76908085D01*
X125505071Y-76910376D01*
X126722476Y-76912667D01*
X127050482Y-76616333D01*
X127223273Y-76468287D01*
X127371218Y-76380129D01*
X127546867Y-76336366D01*
X127802771Y-76321504D01*
X128055577Y-76320000D01*
X128732667Y-76320000D01*
X128732667Y-78690667D01*
X128194150Y-78690667D01*
X127684850Y-78676968D01*
X127283553Y-78637929D01*
X127008565Y-78576634D01*
X126878191Y-78496169D01*
X126870000Y-78467492D01*
X126838208Y-78421531D01*
X126728352Y-78388987D01*
X126518713Y-78367884D01*
X126187573Y-78356248D01*
X125713212Y-78352104D01*
X125600000Y-78352000D01*
X124330000Y-78352000D01*
X124330000Y-79114000D01*
X128817333Y-79114000D01*
X128817935Y-80108833D01*
X128823083Y-80573621D01*
X128836510Y-81042885D01*
X128855988Y-81452731D01*
X128872512Y-81675167D01*
X128926486Y-82246667D01*
X131865333Y-82246667D01*
X131865333Y-85241795D01*
X132225167Y-85712731D01*
X132420562Y-85983649D01*
X132525575Y-86184366D01*
X132562710Y-86370895D01*
X132558965Y-86543500D01*
X132533979Y-86769121D01*
X132474962Y-86872856D01*
X132340203Y-86901976D01*
X132241465Y-86903333D01*
X131950000Y-86903333D01*
X131950000Y-87546508D01*
X131954152Y-87878387D01*
X131979295Y-88098710D01*
X132044461Y-88265241D01*
X132168683Y-88435746D01*
X132288667Y-88574428D01*
X132483456Y-88812920D01*
X132585191Y-89005377D01*
X132623086Y-89222914D01*
X132627333Y-89398809D01*
X132617259Y-89658786D01*
X132591482Y-89843830D01*
X132570889Y-89894889D01*
X132454697Y-89933632D01*
X132248986Y-89951235D01*
X132232222Y-89951333D01*
X131950000Y-89951333D01*
X131950000Y-92237333D01*
X131547833Y-92242300D01*
X131309481Y-92249035D01*
X130949056Y-92263837D01*
X130513514Y-92284594D01*
X130049810Y-92309191D01*
X130001566Y-92311901D01*
X128857466Y-92376535D01*
X126720813Y-93619268D01*
X126102490Y-93978143D01*
X125610966Y-94260420D01*
X125227035Y-94475270D01*
X124931493Y-94631864D01*
X124705135Y-94739374D01*
X124528754Y-94806970D01*
X124383145Y-94843824D01*
X124249104Y-94859107D01*
X124118414Y-94862000D01*
X123652667Y-94862000D01*
X123652667Y-94608000D01*
X124088660Y-94608000D01*
X124224099Y-94603243D01*
X124359104Y-94582801D01*
X124512896Y-94537420D01*
X124704693Y-94457844D01*
X124953715Y-94334817D01*
X125279180Y-94159085D01*
X125700307Y-93921393D01*
X126236317Y-93612485D01*
X126627234Y-93385517D01*
X128729815Y-92163034D01*
X129768407Y-92112395D01*
X130221187Y-92088334D01*
X130658821Y-92061612D01*
X131027693Y-92035698D01*
X131251500Y-92016453D01*
X131696000Y-91971149D01*
X131696000Y-89784001D01*
X132030015Y-89730590D01*
X132255302Y-89675180D01*
X132363023Y-89579445D01*
X132398329Y-89454423D01*
X132428277Y-89272978D01*
X132445314Y-89187879D01*
X132400215Y-89107164D01*
X132269730Y-88937095D01*
X132081846Y-88714096D01*
X132077000Y-88708552D01*
X131696000Y-88273011D01*
X131696000Y-86649333D01*
X131986628Y-86649333D01*
X132229518Y-86612556D01*
X132335934Y-86497909D01*
X132305964Y-86298927D01*
X132139698Y-86009139D01*
X131998013Y-85818644D01*
X131611333Y-85326462D01*
X131611333Y-82416000D01*
X128648000Y-82416000D01*
X128646703Y-80955500D01*
X128642204Y-80469098D01*
X128630550Y-80037633D01*
X128613168Y-79691341D01*
X128591483Y-79460455D01*
X128572414Y-79379794D01*
X128521223Y-79344185D01*
X128406881Y-79317532D01*
X128211621Y-79299179D01*
X127917675Y-79288468D01*
X127507276Y-79284742D01*
X126962657Y-79287346D01*
X126287710Y-79295319D01*
X124076000Y-79326050D01*
X124076000Y-78098000D01*
X125600000Y-78098000D01*
X126141794Y-78098802D01*
X126537245Y-78102911D01*
X126809342Y-78112881D01*
X126981076Y-78131267D01*
X127075434Y-78160623D01*
X127115406Y-78203503D01*
X127123981Y-78262462D01*
X127124000Y-78267333D01*
X127138141Y-78351703D01*
X127203272Y-78402267D01*
X127353454Y-78427542D01*
X127622749Y-78436044D01*
X127801333Y-78436667D01*
X128478667Y-78436667D01*
X128478667Y-76574000D01*
X127985906Y-76574000D01*
X127683762Y-76586052D01*
X127472722Y-76640474D01*
X127275223Y-76764662D01*
X127146947Y-76870333D01*
X126800749Y-77166667D01*
X124211061Y-77166667D01*
X123652667Y-76625449D01*
X123652667Y-83770667D01*
X130426000Y-83770667D01*
X130424703Y-84088167D01*
X130399989Y-84376202D01*
X130313344Y-84546302D01*
X130150833Y-84642019D01*
X130070703Y-84701152D01*
X130025128Y-84829643D01*
X130005533Y-85065107D01*
X130002667Y-85292010D01*
X130002667Y-85887333D01*
X123822000Y-85887333D01*
X123822000Y-85633333D01*
X129748667Y-85633333D01*
X129748667Y-85080905D01*
X129753997Y-84780051D01*
X129779839Y-84604256D01*
X129840967Y-84509344D01*
X129952155Y-84451135D01*
X129960333Y-84448000D01*
X130136997Y-84312280D01*
X130172000Y-84174386D01*
X130172000Y-83981248D01*
X123822000Y-83981248D01*
X123822000Y-85633333D01*
X123822000Y-85887333D01*
X123652667Y-85887333D01*
X123652667Y-88255964D01*
X126848833Y-88278149D01*
X130045000Y-88300333D01*
X130044634Y-89125833D01*
X130044267Y-89951333D01*
X130277467Y-89951333D01*
X130415623Y-89962480D01*
X130484528Y-90024963D01*
X130508182Y-90182350D01*
X130510667Y-90374667D01*
X130510667Y-90798000D01*
X123822000Y-90798000D01*
X123822000Y-90628667D01*
X130256667Y-90628667D01*
X130256667Y-90374667D01*
X130234959Y-90194160D01*
X130137463Y-90127848D01*
X130023833Y-90120851D01*
X129791000Y-90121036D01*
X129817790Y-89274185D01*
X129844579Y-88427333D01*
X123822000Y-88427333D01*
X123822000Y-90628667D01*
X123822000Y-90798000D01*
X123652667Y-90798000D01*
X123652667Y-94608000D01*
X123652667Y-94862000D01*
X123652667Y-102143333D01*
X117302667Y-102143333D01*
X117302667Y-101974000D01*
X123398667Y-101974000D01*
X123398667Y-97232667D01*
X117302667Y-97232667D01*
X117302667Y-97063333D01*
X123398667Y-97063333D01*
X123398667Y-93338000D01*
X117302667Y-93338000D01*
X117302667Y-93084000D01*
X123398667Y-93084000D01*
X123398667Y-74796000D01*
X117302667Y-74796000D01*
X117302667Y-74542000D01*
X123398667Y-74542000D01*
X123398667Y-70816667D01*
X117302667Y-70816667D01*
X117302667Y-70562667D01*
X123398667Y-70562667D01*
X123398667Y-68192000D01*
X117302667Y-68192000D01*
X117302667Y-70562667D01*
X117302667Y-70816667D01*
X117302667Y-74542000D01*
X117302667Y-74796000D01*
X117302667Y-93084000D01*
X117302667Y-93338000D01*
X117302667Y-97063333D01*
X117302667Y-97232667D01*
X117302667Y-101974000D01*
X117302667Y-102143333D01*
X115270667Y-102143333D01*
X115270667Y-101974000D01*
X117133333Y-101974000D01*
X117133333Y-97232667D01*
X117133333Y-97063333D01*
X117133333Y-93338000D01*
X114424000Y-93338000D01*
X114424000Y-88173333D01*
X109682667Y-88173333D01*
X109682667Y-88935333D01*
X112730667Y-88935333D01*
X112730667Y-93253333D01*
X110698667Y-93253333D01*
X110698667Y-94184667D01*
X115440000Y-94184667D01*
X115440000Y-96132000D01*
X113238667Y-96132000D01*
X112562989Y-96130905D01*
X112038375Y-96126918D01*
X111646568Y-96118985D01*
X111369308Y-96106054D01*
X111188336Y-96087070D01*
X111085394Y-96060980D01*
X111042223Y-96026731D01*
X111037333Y-96005000D01*
X111056535Y-95965329D01*
X111126540Y-95934700D01*
X111265952Y-95911999D01*
X111493371Y-95896109D01*
X111827399Y-95885913D01*
X112286638Y-95880297D01*
X112889691Y-95878143D01*
X113154000Y-95878000D01*
X115270667Y-95878000D01*
X115270667Y-94354000D01*
X110529333Y-94354000D01*
X110529333Y-93084000D01*
X112476667Y-93084000D01*
X112476667Y-89104667D01*
X109428667Y-89104667D01*
X109428667Y-87919333D01*
X108328000Y-87919333D01*
X108328000Y-88454056D01*
X106790427Y-88398361D01*
X106465333Y-88388155D01*
X106465333Y-88173333D01*
X107269667Y-88173333D01*
X107642285Y-88171864D01*
X107877289Y-88161889D01*
X108006397Y-88135064D01*
X108061326Y-88083040D01*
X108073796Y-87997470D01*
X108074000Y-87961667D01*
X108074000Y-87750000D01*
X109565375Y-87750000D01*
X110103627Y-87749073D01*
X110502596Y-87743923D01*
X110792333Y-87731000D01*
X111002886Y-87706752D01*
X111164306Y-87667628D01*
X111306642Y-87610078D01*
X111459945Y-87530550D01*
X111470375Y-87524878D01*
X111884000Y-87299755D01*
X111884000Y-80952229D01*
X111883900Y-79763541D01*
X111883382Y-78731640D01*
X111882121Y-77843981D01*
X111879792Y-77088017D01*
X111876068Y-76451204D01*
X111870624Y-75920995D01*
X111863134Y-75484845D01*
X111853272Y-75130207D01*
X111840714Y-74844536D01*
X111825132Y-74615286D01*
X111806202Y-74429912D01*
X111783598Y-74275866D01*
X111756995Y-74140605D01*
X111726065Y-74011581D01*
X111701382Y-73917185D01*
X111592477Y-73545422D01*
X111479198Y-73277157D01*
X111327436Y-73049187D01*
X111103079Y-72798308D01*
X111090441Y-72785167D01*
X110662118Y-72340667D01*
X108525674Y-72340667D01*
X107981354Y-71663333D01*
X107217296Y-71663333D01*
X106794093Y-71673391D01*
X106515424Y-71705725D01*
X106357564Y-71763579D01*
X106332286Y-71784286D01*
X106296447Y-71846762D01*
X106268152Y-71966023D01*
X106246595Y-72159454D01*
X106230968Y-72444442D01*
X106220466Y-72838374D01*
X106214281Y-73358635D01*
X106211607Y-74022612D01*
X106211333Y-74391324D01*
X106211333Y-76877410D01*
X105830333Y-77251333D01*
X105449333Y-77625257D01*
X105449333Y-81786301D01*
X106465333Y-82791699D01*
X106465333Y-88173333D01*
X106465333Y-88388155D01*
X106168542Y-88378836D01*
X105483948Y-88362301D01*
X104803569Y-88350071D01*
X104194327Y-88343460D01*
X103954094Y-88342667D01*
X102655333Y-88342667D01*
X102655333Y-85125333D01*
X98760667Y-85125333D01*
X98760667Y-74880667D01*
X102232000Y-74880667D01*
X102232000Y-72425333D01*
X90802000Y-72425333D01*
X90802000Y-87389302D01*
X90272833Y-87489026D01*
X89599468Y-87674064D01*
X89021883Y-87951352D01*
X88565328Y-88307155D01*
X88386982Y-88514749D01*
X88078245Y-88935333D01*
X87090622Y-88936490D01*
X86678676Y-88941546D01*
X86312375Y-88954384D01*
X86034722Y-88972988D01*
X85898219Y-88992432D01*
X85806667Y-89005827D01*
X85806667Y-88681333D01*
X86886167Y-88678716D01*
X87965667Y-88676098D01*
X88255226Y-88291849D01*
X88641602Y-87908148D01*
X89169540Y-87598108D01*
X89845875Y-87357858D01*
X89955333Y-87328925D01*
X90505667Y-87188885D01*
X90548915Y-72171333D01*
X102486000Y-72171333D01*
X102486000Y-75134667D01*
X98930000Y-75134667D01*
X98930000Y-84871333D01*
X102909333Y-84871333D01*
X102909333Y-88173333D01*
X106211333Y-88173333D01*
X106211333Y-82876366D01*
X105195333Y-81870968D01*
X105195333Y-77541301D01*
X105618667Y-77124333D01*
X106042000Y-76707366D01*
X106042000Y-71663333D01*
X85468000Y-71663333D01*
X85468000Y-74457333D01*
X87330667Y-74457333D01*
X87330667Y-77075152D01*
X88029167Y-77099743D01*
X88727667Y-77124333D01*
X88749889Y-80193500D01*
X88772112Y-83262667D01*
X87330667Y-83262667D01*
X87330667Y-83093333D01*
X88516000Y-83093333D01*
X88516000Y-77336000D01*
X87330667Y-77336000D01*
X87330667Y-83093333D01*
X87330667Y-83262667D01*
X87330667Y-86226000D01*
X85806667Y-86226000D01*
X85806667Y-88681333D01*
X85806667Y-89005827D01*
X85754393Y-89013476D01*
X85733416Y-88948652D01*
X85747395Y-88906609D01*
X85755576Y-88789504D01*
X85719343Y-88766000D01*
X85688528Y-88684374D01*
X85664032Y-88451494D01*
X85646909Y-88085358D01*
X85638216Y-87603965D01*
X85637333Y-87369000D01*
X85637333Y-85972000D01*
X87076667Y-85972000D01*
X87076667Y-74711333D01*
X85214000Y-74711333D01*
X85214000Y-71396993D01*
X96650530Y-71424330D01*
X108087061Y-71451667D01*
X108668945Y-72086667D01*
X110746301Y-72086667D01*
X111227278Y-72573500D01*
X111454405Y-72811712D01*
X111610251Y-73010081D01*
X111722418Y-73220047D01*
X111818511Y-73493050D01*
X111923667Y-73871240D01*
X112139078Y-74682146D01*
X112117372Y-81066261D01*
X112095667Y-87450377D01*
X111714667Y-87663688D01*
X111333667Y-87877000D01*
X114593333Y-87922990D01*
X114593333Y-93084000D01*
X117133333Y-93084000D01*
X117133333Y-74802848D01*
X116434833Y-74778258D01*
X115948000Y-74761119D01*
X115948000Y-74542000D01*
X117133333Y-74542000D01*
X117133333Y-70816667D01*
X115948000Y-70816667D01*
X115948000Y-74542000D01*
X115948000Y-74761119D01*
X115736333Y-74753667D01*
X115690879Y-70816667D01*
X113085083Y-70816667D01*
X112460288Y-70287500D01*
X112110318Y-70006374D01*
X111683085Y-69685578D01*
X111245363Y-69374478D01*
X111018212Y-69221363D01*
X110200929Y-68684393D01*
X110073033Y-68123695D01*
X109992884Y-67815458D01*
X109897482Y-67596834D01*
X109748625Y-67405652D01*
X109508111Y-67179742D01*
X109475235Y-67150819D01*
X109005333Y-66738639D01*
X109005074Y-65623820D01*
X109001347Y-65131994D01*
X108991273Y-64534427D01*
X108976224Y-63894537D01*
X108957571Y-63275740D01*
X108949356Y-63046945D01*
X108893896Y-61584890D01*
X106981115Y-61607612D01*
X105068333Y-61630333D01*
X105044903Y-62879167D01*
X105021473Y-64128000D01*
X107145846Y-64128000D01*
X107123089Y-66054167D01*
X107100333Y-67980333D01*
X80388000Y-67980333D01*
X80388000Y-67768667D01*
X106888667Y-67768667D01*
X106888667Y-64297333D01*
X81996667Y-64297333D01*
X81996667Y-64043333D01*
X104856667Y-64043333D01*
X104856667Y-61672667D01*
X94252167Y-61673105D01*
X94005593Y-61673194D01*
X94005593Y-61503333D01*
X95322536Y-61503079D01*
X96479796Y-61502211D01*
X97487023Y-61500570D01*
X98353866Y-61497996D01*
X99089975Y-61494331D01*
X99705000Y-61489415D01*
X100208590Y-61483090D01*
X100610396Y-61475197D01*
X100920066Y-61465576D01*
X101147252Y-61454068D01*
X101301601Y-61440515D01*
X101392765Y-61424757D01*
X101430393Y-61406636D01*
X101424134Y-61385992D01*
X101417924Y-61381165D01*
X101305750Y-61328647D01*
X101050358Y-61224501D01*
X100667731Y-61074799D01*
X100173850Y-60885609D01*
X99584699Y-60663003D01*
X98916259Y-60413050D01*
X98184514Y-60141820D01*
X97405445Y-59855383D01*
X97271585Y-59806396D01*
X93299667Y-58353795D01*
X90466809Y-58281144D01*
X89792943Y-58264375D01*
X89175764Y-58250005D01*
X88634959Y-58238415D01*
X88190211Y-58229985D01*
X87861207Y-58225098D01*
X87667632Y-58224134D01*
X87623168Y-58226079D01*
X87592178Y-58307147D01*
X87511847Y-58523399D01*
X87390972Y-58850980D01*
X87238352Y-59266034D01*
X87062784Y-59744707D01*
X87015613Y-59873500D01*
X86418842Y-61503333D01*
X94005593Y-61503333D01*
X94005593Y-61673194D01*
X92909074Y-61673595D01*
X91602067Y-61674918D01*
X90342351Y-61677020D01*
X89141132Y-61679846D01*
X88009618Y-61683343D01*
X86959013Y-61687457D01*
X86000525Y-61692133D01*
X85145360Y-61697317D01*
X84404725Y-61702956D01*
X83789826Y-61708995D01*
X83311868Y-61715381D01*
X82982059Y-61722059D01*
X82822167Y-61728208D01*
X81996666Y-61782873D01*
X81996667Y-62913103D01*
X81996667Y-64043333D01*
X81996667Y-64297333D01*
X80388000Y-64297333D01*
X80388000Y-67768667D01*
X80388000Y-67980333D01*
X80176333Y-67980333D01*
X80153577Y-66054167D01*
X80130821Y-64128000D01*
X81742667Y-64128000D01*
X81742667Y-61757333D01*
X79145007Y-61757333D01*
X77501670Y-64855989D01*
X77097224Y-65619239D01*
X76764991Y-66249107D01*
X76497641Y-66761702D01*
X76287846Y-67173129D01*
X76128274Y-67499496D01*
X76011597Y-67756910D01*
X75930483Y-67961478D01*
X75877605Y-68129307D01*
X75845630Y-68276503D01*
X75827231Y-68419173D01*
X75816000Y-68560156D01*
X75773667Y-69165667D01*
X75371281Y-69191481D01*
X74997649Y-69172154D01*
X74780942Y-69085648D01*
X74623888Y-69016310D01*
X74373597Y-68974683D01*
X73999295Y-68956732D01*
X73786328Y-68955297D01*
X73426952Y-68962066D01*
X73128914Y-68979165D01*
X72934706Y-69003590D01*
X72887924Y-69018797D01*
X72795264Y-69118334D01*
X72650874Y-69309774D01*
X72485725Y-69547223D01*
X72330790Y-69784787D01*
X72217039Y-69976572D01*
X72175333Y-70074703D01*
X72257214Y-70087877D01*
X72491714Y-70100149D01*
X72862121Y-70111242D01*
X73351721Y-70120879D01*
X73943803Y-70128781D01*
X74621654Y-70134673D01*
X75368560Y-70138276D01*
X76070000Y-70139333D01*
X79964667Y-70139333D01*
X79964667Y-91814000D01*
X81933167Y-91812844D01*
X82503510Y-91810442D01*
X83025094Y-91804341D01*
X83471384Y-91795164D01*
X83815843Y-91783535D01*
X84031938Y-91770079D01*
X84086126Y-91762216D01*
X84228830Y-91667953D01*
X84312317Y-91455739D01*
X84326401Y-91382372D01*
X84382217Y-91052000D01*
X85463617Y-91052000D01*
X86315305Y-90289429D01*
X86796637Y-89882447D01*
X87274609Y-89534223D01*
X87782171Y-89226918D01*
X88352270Y-88942696D01*
X89017857Y-88663720D01*
X89811879Y-88372153D01*
X89937709Y-88328436D01*
X91169324Y-87902998D01*
X95875162Y-87936627D01*
X100581000Y-87970255D01*
X101639333Y-88605292D01*
X102697667Y-89240328D01*
X102723978Y-89650559D01*
X102821222Y-90094824D01*
X102957972Y-90333074D01*
X103097179Y-90490151D01*
X103250454Y-90580459D01*
X103477040Y-90630149D01*
X103680578Y-90652050D01*
X103993688Y-90693475D01*
X104187246Y-90759572D01*
X104310930Y-90869019D01*
X104330822Y-90896538D01*
X104416446Y-90993878D01*
X104610563Y-91197820D01*
X104901051Y-91496114D01*
X105275787Y-91876512D01*
X105722648Y-92326765D01*
X106229511Y-92834623D01*
X106784253Y-93387838D01*
X107374752Y-93974160D01*
X107476571Y-94075008D01*
X110487000Y-97055683D01*
X113810167Y-97059508D01*
X117133333Y-97063333D01*
X117133333Y-97232667D01*
X115270667Y-97232667D01*
X115270667Y-101974000D01*
X115270667Y-102143333D01*
X115016667Y-102143333D01*
X115016667Y-97211876D01*
X112709500Y-97267393D01*
X110402333Y-97322911D01*
X107150776Y-94102789D01*
X103899218Y-90882667D01*
X103499141Y-90882667D01*
X103259468Y-90871112D01*
X103093287Y-90814122D01*
X102937344Y-90678209D01*
X102792532Y-90508584D01*
X102600078Y-90242652D01*
X102507386Y-90012478D01*
X102484192Y-89767751D01*
X102482384Y-89401000D01*
X101447025Y-88795276D01*
X100411667Y-88189552D01*
X95845582Y-88152803D01*
X91279498Y-88116055D01*
X89967884Y-88571302D01*
X89216001Y-88842454D01*
X88594269Y-89093498D01*
X88068096Y-89343492D01*
X87602891Y-89611493D01*
X87164064Y-89916562D01*
X86717024Y-90277754D01*
X86456707Y-90505816D01*
X85562430Y-91306000D01*
X84558309Y-91306000D01*
X84454373Y-91955976D01*
X81899395Y-92011988D01*
X81129212Y-92027263D01*
X80298286Y-92040952D01*
X79454303Y-92052459D01*
X78644950Y-92061188D01*
X77917916Y-92066544D01*
X77414711Y-92068000D01*
X75485006Y-92068000D01*
X75428678Y-92368256D01*
X75372350Y-92668511D01*
X74899147Y-92643422D01*
X74891160Y-92642773D01*
X74891160Y-92491333D01*
X75051311Y-92478884D01*
X75146398Y-92413929D01*
X75210803Y-92255057D01*
X75260208Y-92046833D01*
X75311226Y-91814000D01*
X79795333Y-91814000D01*
X79795333Y-70419689D01*
X75673430Y-70371151D01*
X74574517Y-70360297D01*
X73611822Y-70355143D01*
X72790997Y-70355644D01*
X72117694Y-70361751D01*
X71597565Y-70373419D01*
X71236260Y-70390600D01*
X71059097Y-70409353D01*
X70566667Y-70496093D01*
X70566667Y-71663333D01*
X76832000Y-71663333D01*
X76832000Y-86480000D01*
X73784000Y-86480000D01*
X73784000Y-91898667D01*
X74155577Y-91898667D01*
X74388255Y-91907663D01*
X74505657Y-91959610D01*
X74561753Y-92091947D01*
X74582747Y-92195000D01*
X74639230Y-92395704D01*
X74739692Y-92477581D01*
X74891160Y-92491333D01*
X74891160Y-92642773D01*
X74625070Y-92621117D01*
X74474754Y-92577673D01*
X74402626Y-92492448D01*
X74376504Y-92406667D01*
X74345982Y-92309115D01*
X74287254Y-92246076D01*
X74167019Y-92208534D01*
X73951976Y-92187473D01*
X73608824Y-92173877D01*
X73505198Y-92170768D01*
X72937333Y-92154025D01*
X72937333Y-91898667D01*
X73530000Y-91898667D01*
X73530000Y-86226000D01*
X76578000Y-86226000D01*
X76578000Y-71917333D01*
X76154667Y-71917333D01*
X76154667Y-79791333D01*
X69889333Y-79791333D01*
X69889333Y-79622000D01*
X75900667Y-79622000D01*
X75900667Y-71917333D01*
X73415420Y-71917333D01*
X72753970Y-71919195D01*
X72121973Y-71924452D01*
X71546608Y-71932612D01*
X71055052Y-71943183D01*
X70674482Y-71955675D01*
X70432075Y-71969594D01*
X70409753Y-71971728D01*
X69889333Y-72026123D01*
X69889333Y-79622000D01*
X69889333Y-79791333D01*
X69720000Y-79791333D01*
X69720000Y-77788661D01*
X69212000Y-77863219D01*
X69212000Y-84024667D01*
X70228000Y-84024667D01*
X70226367Y-84426833D01*
X70201885Y-84765900D01*
X70142439Y-85135180D01*
X70115351Y-85252333D01*
X70005968Y-85675667D01*
X69042666Y-85726451D01*
X69042666Y-86399559D01*
X69042667Y-87072667D01*
X71320993Y-87072667D01*
X71373760Y-87390167D01*
X71420283Y-87649300D01*
X71479278Y-87806113D01*
X71588860Y-87886277D01*
X71787141Y-87915465D01*
X72112235Y-87919349D01*
X72159380Y-87919333D01*
X72826074Y-87919333D01*
X72881704Y-89329856D01*
X72900971Y-89854422D01*
X72917345Y-90368898D01*
X72929561Y-90828129D01*
X72936359Y-91186959D01*
X72937333Y-91319522D01*
X72937333Y-91898667D01*
X72937333Y-92154025D01*
X72683333Y-92146535D01*
X72683333Y-88173333D01*
X71256184Y-88173333D01*
X71198003Y-87707667D01*
X71139822Y-87242000D01*
X68788667Y-87242000D01*
X68788667Y-85548667D01*
X69787777Y-85548667D01*
X69895898Y-85104167D01*
X69968241Y-84744339D01*
X69991884Y-84474839D01*
X69964228Y-84328739D01*
X69957374Y-84321102D01*
X69865822Y-84294441D01*
X69666195Y-84254802D01*
X69571833Y-84238564D01*
X69212000Y-84179116D01*
X69212000Y-85040667D01*
X68628392Y-85040667D01*
X68365333Y-85036665D01*
X68365333Y-84532667D01*
X69042667Y-84532667D01*
X69042667Y-76658667D01*
X68365333Y-76658667D01*
X68365333Y-84532667D01*
X68365333Y-85036665D01*
X68304025Y-85035732D01*
X68108242Y-84997749D01*
X68000303Y-84891947D01*
X67939466Y-84683557D01*
X67896841Y-84416337D01*
X67876328Y-84109725D01*
X67932526Y-83889452D01*
X67974697Y-83815825D01*
X68012121Y-83740990D01*
X68042158Y-83631051D01*
X68065590Y-83468403D01*
X68083197Y-83235439D01*
X68095763Y-82914552D01*
X68104068Y-82488137D01*
X68108894Y-81938587D01*
X68111024Y-81248296D01*
X68111333Y-80738768D01*
X68110965Y-79965326D01*
X68109198Y-79343509D01*
X68105041Y-78855609D01*
X68097501Y-78483916D01*
X68087518Y-78255040D01*
X68087518Y-77458627D01*
X68109165Y-77322083D01*
X68110037Y-77272500D01*
X68102173Y-77085074D01*
X68081282Y-76998090D01*
X68078875Y-76997333D01*
X68024252Y-77067555D01*
X68000286Y-77223444D01*
X68015119Y-77382839D01*
X68035747Y-77432461D01*
X68087518Y-77458627D01*
X68087518Y-78255040D01*
X68085585Y-78210722D01*
X68068302Y-78018319D01*
X68044659Y-77889000D01*
X68013663Y-77805054D01*
X67974323Y-77748775D01*
X67942000Y-77717000D01*
X67799880Y-77479522D01*
X67794554Y-77159847D01*
X67925989Y-76775542D01*
X67925989Y-76775542D01*
G37*
X67925989Y-76775542D02*
X67943721Y-76739961D01*
X68114775Y-76404667D01*
X69212000Y-76404667D01*
X69212000Y-77590000D01*
X69720000Y-77590000D01*
X69720000Y-75981333D01*
X69042667Y-75981333D01*
X69042667Y-75727333D01*
X69720000Y-75727333D01*
X69720000Y-74372667D01*
X69042667Y-74372667D01*
X69042667Y-75727333D01*
X69042667Y-75981333D01*
X68788667Y-75981333D01*
X68788667Y-74118667D01*
X69212000Y-74118667D01*
X69462780Y-74113348D01*
X69589074Y-74078441D01*
X69635724Y-73985520D01*
X69646105Y-73843500D01*
X69655332Y-73645338D01*
X69671765Y-73327025D01*
X69692829Y-72937461D01*
X69709605Y-72637000D01*
X69762333Y-71705667D01*
X70037500Y-71679136D01*
X70312666Y-71652605D01*
X70312666Y-70895969D01*
X70312667Y-70139333D01*
X70799500Y-70138402D01*
X71238184Y-70131252D01*
X71549276Y-70098281D01*
X71774425Y-70019243D01*
X71955279Y-69873892D01*
X72133489Y-69641981D01*
X72277221Y-69420062D01*
X72667415Y-68802047D01*
X73576572Y-68740079D01*
X73998563Y-68715266D01*
X74295493Y-68711162D01*
X74510752Y-68731234D01*
X74687734Y-68778947D01*
X74833364Y-68840491D01*
X75089641Y-68934436D01*
X75314780Y-68975037D01*
X75371500Y-68972547D01*
X75480783Y-68937564D01*
X75537960Y-68848494D01*
X75559427Y-68661915D01*
X75562000Y-68468124D01*
X75565074Y-68347760D01*
X75578948Y-68227046D01*
X75610598Y-68090858D01*
X75667000Y-67924072D01*
X75755130Y-67711564D01*
X75881965Y-67438210D01*
X76054480Y-67088885D01*
X76279651Y-66648466D01*
X76564455Y-66101829D01*
X76915868Y-65433849D01*
X77276500Y-64751136D01*
X78991000Y-61508247D01*
X82582760Y-61484624D01*
X86174521Y-61461000D01*
X86812639Y-59733202D01*
X87450758Y-58005403D01*
X90375212Y-58058855D01*
X93299667Y-58112307D01*
X97355596Y-59589913D01*
X98152290Y-59881872D01*
X98906417Y-60161534D01*
X99601837Y-60422683D01*
X100222408Y-60659106D01*
X100751991Y-60864587D01*
X101174444Y-61032910D01*
X101473626Y-61157862D01*
X101633398Y-61233227D01*
X101649001Y-61243094D01*
X101711200Y-61285606D01*
X101782648Y-61320639D01*
X101879275Y-61348915D01*
X102017012Y-61371158D01*
X102211790Y-61388091D01*
X102479539Y-61400437D01*
X102836189Y-61408919D01*
X103297672Y-61414260D01*
X103879918Y-61417182D01*
X104598857Y-61418410D01*
X105470421Y-61418667D01*
X109147907Y-61418667D01*
X109204934Y-64022167D01*
X109261962Y-66625667D01*
X109719530Y-67049000D01*
X109975553Y-67302226D01*
X110133184Y-67513639D01*
X110229816Y-67742593D01*
X110279636Y-67938000D01*
X110352772Y-68217645D01*
X110431041Y-68438205D01*
X110475600Y-68520922D01*
X110579770Y-68612411D01*
X110793772Y-68774195D01*
X111086151Y-68983226D01*
X111417013Y-69210758D01*
X111804558Y-69479941D01*
X112191144Y-69761266D01*
X112525876Y-70017045D01*
X112716413Y-70173003D01*
X113167827Y-70562667D01*
X117133333Y-70562667D01*
X117133333Y-68022667D01*
X123652667Y-68022667D01*
X123652667Y-76317721D01*
X124287667Y-76908085D01*
X125505071Y-76910376D01*
X126722476Y-76912667D01*
X127050482Y-76616333D01*
X127223273Y-76468287D01*
X127371218Y-76380129D01*
X127546867Y-76336366D01*
X127802771Y-76321504D01*
X128055577Y-76320000D01*
X128732667Y-76320000D01*
X128732667Y-78690667D01*
X128194150Y-78690667D01*
X127684850Y-78676968D01*
X127283553Y-78637929D01*
X127008565Y-78576634D01*
X126878191Y-78496169D01*
X126870000Y-78467492D01*
X126838208Y-78421531D01*
X126728352Y-78388987D01*
X126518713Y-78367884D01*
X126187573Y-78356248D01*
X125713212Y-78352104D01*
X125600000Y-78352000D01*
X124330000Y-78352000D01*
X124330000Y-79114000D01*
X128817333Y-79114000D01*
X128817935Y-80108833D01*
X128823083Y-80573621D01*
X128836510Y-81042885D01*
X128855988Y-81452731D01*
X128872512Y-81675167D01*
X128926486Y-82246667D01*
X131865333Y-82246667D01*
X131865333Y-85241795D01*
X132225167Y-85712731D01*
X132420562Y-85983649D01*
X132525575Y-86184366D01*
X132562710Y-86370895D01*
X132558965Y-86543500D01*
X132533979Y-86769121D01*
X132474962Y-86872856D01*
X132340203Y-86901976D01*
X132241465Y-86903333D01*
X131950000Y-86903333D01*
X131950000Y-87546508D01*
X131954152Y-87878387D01*
X131979295Y-88098710D01*
X132044461Y-88265241D01*
X132168683Y-88435746D01*
X132288667Y-88574428D01*
X132483456Y-88812920D01*
X132585191Y-89005377D01*
X132623086Y-89222914D01*
X132627333Y-89398809D01*
X132617259Y-89658786D01*
X132591482Y-89843830D01*
X132570889Y-89894889D01*
X132454697Y-89933632D01*
X132248986Y-89951235D01*
X132232222Y-89951333D01*
X131950000Y-89951333D01*
X131950000Y-92237333D01*
X131547833Y-92242300D01*
X131309481Y-92249035D01*
X130949056Y-92263837D01*
X130513514Y-92284594D01*
X130049810Y-92309191D01*
X130001566Y-92311901D01*
X128857466Y-92376535D01*
X126720813Y-93619268D01*
X126102490Y-93978143D01*
X125610966Y-94260420D01*
X125227035Y-94475270D01*
X124931493Y-94631864D01*
X124705135Y-94739374D01*
X124528754Y-94806970D01*
X124383145Y-94843824D01*
X124249104Y-94859107D01*
X124118414Y-94862000D01*
X123652667Y-94862000D01*
X123652667Y-94608000D01*
X124088660Y-94608000D01*
X124224099Y-94603243D01*
X124359104Y-94582801D01*
X124512896Y-94537420D01*
X124704693Y-94457844D01*
X124953715Y-94334817D01*
X125279180Y-94159085D01*
X125700307Y-93921393D01*
X126236317Y-93612485D01*
X126627234Y-93385517D01*
X128729815Y-92163034D01*
X129768407Y-92112395D01*
X130221187Y-92088334D01*
X130658821Y-92061612D01*
X131027693Y-92035698D01*
X131251500Y-92016453D01*
X131696000Y-91971149D01*
X131696000Y-89784001D01*
X132030015Y-89730590D01*
X132255302Y-89675180D01*
X132363023Y-89579445D01*
X132398329Y-89454423D01*
X132428277Y-89272978D01*
X132445314Y-89187879D01*
X132400215Y-89107164D01*
X132269730Y-88937095D01*
X132081846Y-88714096D01*
X132077000Y-88708552D01*
X131696000Y-88273011D01*
X131696000Y-86649333D01*
X131986628Y-86649333D01*
X132229518Y-86612556D01*
X132335934Y-86497909D01*
X132305964Y-86298927D01*
X132139698Y-86009139D01*
X131998013Y-85818644D01*
X131611333Y-85326462D01*
X131611333Y-82416000D01*
X128648000Y-82416000D01*
X128646703Y-80955500D01*
X128642204Y-80469098D01*
X128630550Y-80037633D01*
X128613168Y-79691341D01*
X128591483Y-79460455D01*
X128572414Y-79379794D01*
X128521223Y-79344185D01*
X128406881Y-79317532D01*
X128211621Y-79299179D01*
X127917675Y-79288468D01*
X127507276Y-79284742D01*
X126962657Y-79287346D01*
X126287710Y-79295319D01*
X124076000Y-79326050D01*
X124076000Y-78098000D01*
X125600000Y-78098000D01*
X126141794Y-78098802D01*
X126537245Y-78102911D01*
X126809342Y-78112881D01*
X126981076Y-78131267D01*
X127075434Y-78160623D01*
X127115406Y-78203503D01*
X127123981Y-78262462D01*
X127124000Y-78267333D01*
X127138141Y-78351703D01*
X127203272Y-78402267D01*
X127353454Y-78427542D01*
X127622749Y-78436044D01*
X127801333Y-78436667D01*
X128478667Y-78436667D01*
X128478667Y-76574000D01*
X127985906Y-76574000D01*
X127683762Y-76586052D01*
X127472722Y-76640474D01*
X127275223Y-76764662D01*
X127146947Y-76870333D01*
X126800749Y-77166667D01*
X124211061Y-77166667D01*
X123652667Y-76625449D01*
X123652667Y-83770667D01*
X130426000Y-83770667D01*
X130424703Y-84088167D01*
X130399989Y-84376202D01*
X130313344Y-84546302D01*
X130150833Y-84642019D01*
X130070703Y-84701152D01*
X130025128Y-84829643D01*
X130005533Y-85065107D01*
X130002667Y-85292010D01*
X130002667Y-85887333D01*
X123822000Y-85887333D01*
X123822000Y-85633333D01*
X129748667Y-85633333D01*
X129748667Y-85080905D01*
X129753997Y-84780051D01*
X129779839Y-84604256D01*
X129840967Y-84509344D01*
X129952155Y-84451135D01*
X129960333Y-84448000D01*
X130136997Y-84312280D01*
X130172000Y-84174386D01*
X130172000Y-83981248D01*
X123822000Y-83981248D01*
X123822000Y-85633333D01*
X123822000Y-85887333D01*
X123652667Y-85887333D01*
X123652667Y-88255964D01*
X126848833Y-88278149D01*
X130045000Y-88300333D01*
X130044634Y-89125833D01*
X130044267Y-89951333D01*
X130277467Y-89951333D01*
X130415623Y-89962480D01*
X130484528Y-90024963D01*
X130508182Y-90182350D01*
X130510667Y-90374667D01*
X130510667Y-90798000D01*
X123822000Y-90798000D01*
X123822000Y-90628667D01*
X130256667Y-90628667D01*
X130256667Y-90374667D01*
X130234959Y-90194160D01*
X130137463Y-90127848D01*
X130023833Y-90120851D01*
X129791000Y-90121036D01*
X129817790Y-89274185D01*
X129844579Y-88427333D01*
X123822000Y-88427333D01*
X123822000Y-90628667D01*
X123822000Y-90798000D01*
X123652667Y-90798000D01*
X123652667Y-94608000D01*
X123652667Y-94862000D01*
X123652667Y-102143333D01*
X117302667Y-102143333D01*
X117302667Y-101974000D01*
X123398667Y-101974000D01*
X123398667Y-97232667D01*
X117302667Y-97232667D01*
X117302667Y-97063333D01*
X123398667Y-97063333D01*
X123398667Y-93338000D01*
X117302667Y-93338000D01*
X117302667Y-93084000D01*
X123398667Y-93084000D01*
X123398667Y-74796000D01*
X117302667Y-74796000D01*
X117302667Y-74542000D01*
X123398667Y-74542000D01*
X123398667Y-70816667D01*
X117302667Y-70816667D01*
X117302667Y-70562667D01*
X123398667Y-70562667D01*
X123398667Y-68192000D01*
X117302667Y-68192000D01*
X117302667Y-70562667D01*
X117302667Y-70816667D01*
X117302667Y-74542000D01*
X117302667Y-74796000D01*
X117302667Y-93084000D01*
X117302667Y-93338000D01*
X117302667Y-97063333D01*
X117302667Y-97232667D01*
X117302667Y-101974000D01*
X117302667Y-102143333D01*
X115270667Y-102143333D01*
X115270667Y-101974000D01*
X117133333Y-101974000D01*
X117133333Y-97232667D01*
X117133333Y-97063333D01*
X117133333Y-93338000D01*
X114424000Y-93338000D01*
X114424000Y-88173333D01*
X109682667Y-88173333D01*
X109682667Y-88935333D01*
X112730667Y-88935333D01*
X112730667Y-93253333D01*
X110698667Y-93253333D01*
X110698667Y-94184667D01*
X115440000Y-94184667D01*
X115440000Y-96132000D01*
X113238667Y-96132000D01*
X112562989Y-96130905D01*
X112038375Y-96126918D01*
X111646568Y-96118985D01*
X111369308Y-96106054D01*
X111188336Y-96087070D01*
X111085394Y-96060980D01*
X111042223Y-96026731D01*
X111037333Y-96005000D01*
X111056535Y-95965329D01*
X111126540Y-95934700D01*
X111265952Y-95911999D01*
X111493371Y-95896109D01*
X111827399Y-95885913D01*
X112286638Y-95880297D01*
X112889691Y-95878143D01*
X113154000Y-95878000D01*
X115270667Y-95878000D01*
X115270667Y-94354000D01*
X110529333Y-94354000D01*
X110529333Y-93084000D01*
X112476667Y-93084000D01*
X112476667Y-89104667D01*
X109428667Y-89104667D01*
X109428667Y-87919333D01*
X108328000Y-87919333D01*
X108328000Y-88454056D01*
X106790427Y-88398361D01*
X106465333Y-88388155D01*
X106465333Y-88173333D01*
X107269667Y-88173333D01*
X107642285Y-88171864D01*
X107877289Y-88161889D01*
X108006397Y-88135064D01*
X108061326Y-88083040D01*
X108073796Y-87997470D01*
X108074000Y-87961667D01*
X108074000Y-87750000D01*
X109565375Y-87750000D01*
X110103627Y-87749073D01*
X110502596Y-87743923D01*
X110792333Y-87731000D01*
X111002886Y-87706752D01*
X111164306Y-87667628D01*
X111306642Y-87610078D01*
X111459945Y-87530550D01*
X111470375Y-87524878D01*
X111884000Y-87299755D01*
X111884000Y-80952229D01*
X111883900Y-79763541D01*
X111883382Y-78731640D01*
X111882121Y-77843981D01*
X111879792Y-77088017D01*
X111876068Y-76451204D01*
X111870624Y-75920995D01*
X111863134Y-75484845D01*
X111853272Y-75130207D01*
X111840714Y-74844536D01*
X111825132Y-74615286D01*
X111806202Y-74429912D01*
X111783598Y-74275866D01*
X111756995Y-74140605D01*
X111726065Y-74011581D01*
X111701382Y-73917185D01*
X111592477Y-73545422D01*
X111479198Y-73277157D01*
X111327436Y-73049187D01*
X111103079Y-72798308D01*
X111090441Y-72785167D01*
X110662118Y-72340667D01*
X108525674Y-72340667D01*
X107981354Y-71663333D01*
X107217296Y-71663333D01*
X106794093Y-71673391D01*
X106515424Y-71705725D01*
X106357564Y-71763579D01*
X106332286Y-71784286D01*
X106296447Y-71846762D01*
X106268152Y-71966023D01*
X106246595Y-72159454D01*
X106230968Y-72444442D01*
X106220466Y-72838374D01*
X106214281Y-73358635D01*
X106211607Y-74022612D01*
X106211333Y-74391324D01*
X106211333Y-76877410D01*
X105830333Y-77251333D01*
X105449333Y-77625257D01*
X105449333Y-81786301D01*
X106465333Y-82791699D01*
X106465333Y-88173333D01*
X106465333Y-88388155D01*
X106168542Y-88378836D01*
X105483948Y-88362301D01*
X104803569Y-88350071D01*
X104194327Y-88343460D01*
X103954094Y-88342667D01*
X102655333Y-88342667D01*
X102655333Y-85125333D01*
X98760667Y-85125333D01*
X98760667Y-74880667D01*
X102232000Y-74880667D01*
X102232000Y-72425333D01*
X90802000Y-72425333D01*
X90802000Y-87389302D01*
X90272833Y-87489026D01*
X89599468Y-87674064D01*
X89021883Y-87951352D01*
X88565328Y-88307155D01*
X88386982Y-88514749D01*
X88078245Y-88935333D01*
X87090622Y-88936490D01*
X86678676Y-88941546D01*
X86312375Y-88954384D01*
X86034722Y-88972988D01*
X85898219Y-88992432D01*
X85806667Y-89005827D01*
X85806667Y-88681333D01*
X86886167Y-88678716D01*
X87965667Y-88676098D01*
X88255226Y-88291849D01*
X88641602Y-87908148D01*
X89169540Y-87598108D01*
X89845875Y-87357858D01*
X89955333Y-87328925D01*
X90505667Y-87188885D01*
X90548915Y-72171333D01*
X102486000Y-72171333D01*
X102486000Y-75134667D01*
X98930000Y-75134667D01*
X98930000Y-84871333D01*
X102909333Y-84871333D01*
X102909333Y-88173333D01*
X106211333Y-88173333D01*
X106211333Y-82876366D01*
X105195333Y-81870968D01*
X105195333Y-77541301D01*
X105618667Y-77124333D01*
X106042000Y-76707366D01*
X106042000Y-71663333D01*
X85468000Y-71663333D01*
X85468000Y-74457333D01*
X87330667Y-74457333D01*
X87330667Y-77075152D01*
X88029167Y-77099743D01*
X88727667Y-77124333D01*
X88749889Y-80193500D01*
X88772112Y-83262667D01*
X87330667Y-83262667D01*
X87330667Y-83093333D01*
X88516000Y-83093333D01*
X88516000Y-77336000D01*
X87330667Y-77336000D01*
X87330667Y-83093333D01*
X87330667Y-83262667D01*
X87330667Y-86226000D01*
X85806667Y-86226000D01*
X85806667Y-88681333D01*
X85806667Y-89005827D01*
X85754393Y-89013476D01*
X85733416Y-88948652D01*
X85747395Y-88906609D01*
X85755576Y-88789504D01*
X85719343Y-88766000D01*
X85688528Y-88684374D01*
X85664032Y-88451494D01*
X85646909Y-88085358D01*
X85638216Y-87603965D01*
X85637333Y-87369000D01*
X85637333Y-85972000D01*
X87076667Y-85972000D01*
X87076667Y-74711333D01*
X85214000Y-74711333D01*
X85214000Y-71396993D01*
X96650530Y-71424330D01*
X108087061Y-71451667D01*
X108668945Y-72086667D01*
X110746301Y-72086667D01*
X111227278Y-72573500D01*
X111454405Y-72811712D01*
X111610251Y-73010081D01*
X111722418Y-73220047D01*
X111818511Y-73493050D01*
X111923667Y-73871240D01*
X112139078Y-74682146D01*
X112117372Y-81066261D01*
X112095667Y-87450377D01*
X111714667Y-87663688D01*
X111333667Y-87877000D01*
X114593333Y-87922990D01*
X114593333Y-93084000D01*
X117133333Y-93084000D01*
X117133333Y-74802848D01*
X116434833Y-74778258D01*
X115948000Y-74761119D01*
X115948000Y-74542000D01*
X117133333Y-74542000D01*
X117133333Y-70816667D01*
X115948000Y-70816667D01*
X115948000Y-74542000D01*
X115948000Y-74761119D01*
X115736333Y-74753667D01*
X115690879Y-70816667D01*
X113085083Y-70816667D01*
X112460288Y-70287500D01*
X112110318Y-70006374D01*
X111683085Y-69685578D01*
X111245363Y-69374478D01*
X111018212Y-69221363D01*
X110200929Y-68684393D01*
X110073033Y-68123695D01*
X109992884Y-67815458D01*
X109897482Y-67596834D01*
X109748625Y-67405652D01*
X109508111Y-67179742D01*
X109475235Y-67150819D01*
X109005333Y-66738639D01*
X109005074Y-65623820D01*
X109001347Y-65131994D01*
X108991273Y-64534427D01*
X108976224Y-63894537D01*
X108957571Y-63275740D01*
X108949356Y-63046945D01*
X108893896Y-61584890D01*
X106981115Y-61607612D01*
X105068333Y-61630333D01*
X105044903Y-62879167D01*
X105021473Y-64128000D01*
X107145846Y-64128000D01*
X107123089Y-66054167D01*
X107100333Y-67980333D01*
X80388000Y-67980333D01*
X80388000Y-67768667D01*
X106888667Y-67768667D01*
X106888667Y-64297333D01*
X81996667Y-64297333D01*
X81996667Y-64043333D01*
X104856667Y-64043333D01*
X104856667Y-61672667D01*
X94252167Y-61673105D01*
X94005593Y-61673194D01*
X94005593Y-61503333D01*
X95322536Y-61503079D01*
X96479796Y-61502211D01*
X97487023Y-61500570D01*
X98353866Y-61497996D01*
X99089975Y-61494331D01*
X99705000Y-61489415D01*
X100208590Y-61483090D01*
X100610396Y-61475197D01*
X100920066Y-61465576D01*
X101147252Y-61454068D01*
X101301601Y-61440515D01*
X101392765Y-61424757D01*
X101430393Y-61406636D01*
X101424134Y-61385992D01*
X101417924Y-61381165D01*
X101305750Y-61328647D01*
X101050358Y-61224501D01*
X100667731Y-61074799D01*
X100173850Y-60885609D01*
X99584699Y-60663003D01*
X98916259Y-60413050D01*
X98184514Y-60141820D01*
X97405445Y-59855383D01*
X97271585Y-59806396D01*
X93299667Y-58353795D01*
X90466809Y-58281144D01*
X89792943Y-58264375D01*
X89175764Y-58250005D01*
X88634959Y-58238415D01*
X88190211Y-58229985D01*
X87861207Y-58225098D01*
X87667632Y-58224134D01*
X87623168Y-58226079D01*
X87592178Y-58307147D01*
X87511847Y-58523399D01*
X87390972Y-58850980D01*
X87238352Y-59266034D01*
X87062784Y-59744707D01*
X87015613Y-59873500D01*
X86418842Y-61503333D01*
X94005593Y-61503333D01*
X94005593Y-61673194D01*
X92909074Y-61673595D01*
X91602067Y-61674918D01*
X90342351Y-61677020D01*
X89141132Y-61679846D01*
X88009618Y-61683343D01*
X86959013Y-61687457D01*
X86000525Y-61692133D01*
X85145360Y-61697317D01*
X84404725Y-61702956D01*
X83789826Y-61708995D01*
X83311868Y-61715381D01*
X82982059Y-61722059D01*
X82822167Y-61728208D01*
X81996666Y-61782873D01*
X81996667Y-62913103D01*
X81996667Y-64043333D01*
X81996667Y-64297333D01*
X80388000Y-64297333D01*
X80388000Y-67768667D01*
X80388000Y-67980333D01*
X80176333Y-67980333D01*
X80153577Y-66054167D01*
X80130821Y-64128000D01*
X81742667Y-64128000D01*
X81742667Y-61757333D01*
X79145007Y-61757333D01*
X77501670Y-64855989D01*
X77097224Y-65619239D01*
X76764991Y-66249107D01*
X76497641Y-66761702D01*
X76287846Y-67173129D01*
X76128274Y-67499496D01*
X76011597Y-67756910D01*
X75930483Y-67961478D01*
X75877605Y-68129307D01*
X75845630Y-68276503D01*
X75827231Y-68419173D01*
X75816000Y-68560156D01*
X75773667Y-69165667D01*
X75371281Y-69191481D01*
X74997649Y-69172154D01*
X74780942Y-69085648D01*
X74623888Y-69016310D01*
X74373597Y-68974683D01*
X73999295Y-68956732D01*
X73786328Y-68955297D01*
X73426952Y-68962066D01*
X73128914Y-68979165D01*
X72934706Y-69003590D01*
X72887924Y-69018797D01*
X72795264Y-69118334D01*
X72650874Y-69309774D01*
X72485725Y-69547223D01*
X72330790Y-69784787D01*
X72217039Y-69976572D01*
X72175333Y-70074703D01*
X72257214Y-70087877D01*
X72491714Y-70100149D01*
X72862121Y-70111242D01*
X73351721Y-70120879D01*
X73943803Y-70128781D01*
X74621654Y-70134673D01*
X75368560Y-70138276D01*
X76070000Y-70139333D01*
X79964667Y-70139333D01*
X79964667Y-91814000D01*
X81933167Y-91812844D01*
X82503510Y-91810442D01*
X83025094Y-91804341D01*
X83471384Y-91795164D01*
X83815843Y-91783535D01*
X84031938Y-91770079D01*
X84086126Y-91762216D01*
X84228830Y-91667953D01*
X84312317Y-91455739D01*
X84326401Y-91382372D01*
X84382217Y-91052000D01*
X85463617Y-91052000D01*
X86315305Y-90289429D01*
X86796637Y-89882447D01*
X87274609Y-89534223D01*
X87782171Y-89226918D01*
X88352270Y-88942696D01*
X89017857Y-88663720D01*
X89811879Y-88372153D01*
X89937709Y-88328436D01*
X91169324Y-87902998D01*
X95875162Y-87936627D01*
X100581000Y-87970255D01*
X101639333Y-88605292D01*
X102697667Y-89240328D01*
X102723978Y-89650559D01*
X102821222Y-90094824D01*
X102957972Y-90333074D01*
X103097179Y-90490151D01*
X103250454Y-90580459D01*
X103477040Y-90630149D01*
X103680578Y-90652050D01*
X103993688Y-90693475D01*
X104187246Y-90759572D01*
X104310930Y-90869019D01*
X104330822Y-90896538D01*
X104416446Y-90993878D01*
X104610563Y-91197820D01*
X104901051Y-91496114D01*
X105275787Y-91876512D01*
X105722648Y-92326765D01*
X106229511Y-92834623D01*
X106784253Y-93387838D01*
X107374752Y-93974160D01*
X107476571Y-94075008D01*
X110487000Y-97055683D01*
X113810167Y-97059508D01*
X117133333Y-97063333D01*
X117133333Y-97232667D01*
X115270667Y-97232667D01*
X115270667Y-101974000D01*
X115270667Y-102143333D01*
X115016667Y-102143333D01*
X115016667Y-97211876D01*
X112709500Y-97267393D01*
X110402333Y-97322911D01*
X107150776Y-94102789D01*
X103899218Y-90882667D01*
X103499141Y-90882667D01*
X103259468Y-90871112D01*
X103093287Y-90814122D01*
X102937344Y-90678209D01*
X102792532Y-90508584D01*
X102600078Y-90242652D01*
X102507386Y-90012478D01*
X102484192Y-89767751D01*
X102482384Y-89401000D01*
X101447025Y-88795276D01*
X100411667Y-88189552D01*
X95845582Y-88152803D01*
X91279498Y-88116055D01*
X89967884Y-88571302D01*
X89216001Y-88842454D01*
X88594269Y-89093498D01*
X88068096Y-89343492D01*
X87602891Y-89611493D01*
X87164064Y-89916562D01*
X86717024Y-90277754D01*
X86456707Y-90505816D01*
X85562430Y-91306000D01*
X84558309Y-91306000D01*
X84454373Y-91955976D01*
X81899395Y-92011988D01*
X81129212Y-92027263D01*
X80298286Y-92040952D01*
X79454303Y-92052459D01*
X78644950Y-92061188D01*
X77917916Y-92066544D01*
X77414711Y-92068000D01*
X75485006Y-92068000D01*
X75428678Y-92368256D01*
X75372350Y-92668511D01*
X74899147Y-92643422D01*
X74891160Y-92642773D01*
X74891160Y-92491333D01*
X75051311Y-92478884D01*
X75146398Y-92413929D01*
X75210803Y-92255057D01*
X75260208Y-92046833D01*
X75311226Y-91814000D01*
X79795333Y-91814000D01*
X79795333Y-70419689D01*
X75673430Y-70371151D01*
X74574517Y-70360297D01*
X73611822Y-70355143D01*
X72790997Y-70355644D01*
X72117694Y-70361751D01*
X71597565Y-70373419D01*
X71236260Y-70390600D01*
X71059097Y-70409353D01*
X70566667Y-70496093D01*
X70566667Y-71663333D01*
X76832000Y-71663333D01*
X76832000Y-86480000D01*
X73784000Y-86480000D01*
X73784000Y-91898667D01*
X74155577Y-91898667D01*
X74388255Y-91907663D01*
X74505657Y-91959610D01*
X74561753Y-92091947D01*
X74582747Y-92195000D01*
X74639230Y-92395704D01*
X74739692Y-92477581D01*
X74891160Y-92491333D01*
X74891160Y-92642773D01*
X74625070Y-92621117D01*
X74474754Y-92577673D01*
X74402626Y-92492448D01*
X74376504Y-92406667D01*
X74345982Y-92309115D01*
X74287254Y-92246076D01*
X74167019Y-92208534D01*
X73951976Y-92187473D01*
X73608824Y-92173877D01*
X73505198Y-92170768D01*
X72937333Y-92154025D01*
X72937333Y-91898667D01*
X73530000Y-91898667D01*
X73530000Y-86226000D01*
X76578000Y-86226000D01*
X76578000Y-71917333D01*
X76154667Y-71917333D01*
X76154667Y-79791333D01*
X69889333Y-79791333D01*
X69889333Y-79622000D01*
X75900667Y-79622000D01*
X75900667Y-71917333D01*
X73415420Y-71917333D01*
X72753970Y-71919195D01*
X72121973Y-71924452D01*
X71546608Y-71932612D01*
X71055052Y-71943183D01*
X70674482Y-71955675D01*
X70432075Y-71969594D01*
X70409753Y-71971728D01*
X69889333Y-72026123D01*
X69889333Y-79622000D01*
X69889333Y-79791333D01*
X69720000Y-79791333D01*
X69720000Y-77788661D01*
X69212000Y-77863219D01*
X69212000Y-84024667D01*
X70228000Y-84024667D01*
X70226367Y-84426833D01*
X70201885Y-84765900D01*
X70142439Y-85135180D01*
X70115351Y-85252333D01*
X70005968Y-85675667D01*
X69042666Y-85726451D01*
X69042666Y-86399559D01*
X69042667Y-87072667D01*
X71320993Y-87072667D01*
X71373760Y-87390167D01*
X71420283Y-87649300D01*
X71479278Y-87806113D01*
X71588860Y-87886277D01*
X71787141Y-87915465D01*
X72112235Y-87919349D01*
X72159380Y-87919333D01*
X72826074Y-87919333D01*
X72881704Y-89329856D01*
X72900971Y-89854422D01*
X72917345Y-90368898D01*
X72929561Y-90828129D01*
X72936359Y-91186959D01*
X72937333Y-91319522D01*
X72937333Y-91898667D01*
X72937333Y-92154025D01*
X72683333Y-92146535D01*
X72683333Y-88173333D01*
X71256184Y-88173333D01*
X71198003Y-87707667D01*
X71139822Y-87242000D01*
X68788667Y-87242000D01*
X68788667Y-85548667D01*
X69787777Y-85548667D01*
X69895898Y-85104167D01*
X69968241Y-84744339D01*
X69991884Y-84474839D01*
X69964228Y-84328739D01*
X69957374Y-84321102D01*
X69865822Y-84294441D01*
X69666195Y-84254802D01*
X69571833Y-84238564D01*
X69212000Y-84179116D01*
X69212000Y-85040667D01*
X68628392Y-85040667D01*
X68365333Y-85036665D01*
X68365333Y-84532667D01*
X69042667Y-84532667D01*
X69042667Y-76658667D01*
X68365333Y-76658667D01*
X68365333Y-84532667D01*
X68365333Y-85036665D01*
X68304025Y-85035732D01*
X68108242Y-84997749D01*
X68000303Y-84891947D01*
X67939466Y-84683557D01*
X67896841Y-84416337D01*
X67876328Y-84109725D01*
X67932526Y-83889452D01*
X67974697Y-83815825D01*
X68012121Y-83740990D01*
X68042158Y-83631051D01*
X68065590Y-83468403D01*
X68083197Y-83235439D01*
X68095763Y-82914552D01*
X68104068Y-82488137D01*
X68108894Y-81938587D01*
X68111024Y-81248296D01*
X68111333Y-80738768D01*
X68110965Y-79965326D01*
X68109198Y-79343509D01*
X68105041Y-78855609D01*
X68097501Y-78483916D01*
X68087518Y-78255040D01*
X68087518Y-77458627D01*
X68109165Y-77322083D01*
X68110037Y-77272500D01*
X68102173Y-77085074D01*
X68081282Y-76998090D01*
X68078875Y-76997333D01*
X68024252Y-77067555D01*
X68000286Y-77223444D01*
X68015119Y-77382839D01*
X68035747Y-77432461D01*
X68087518Y-77458627D01*
X68087518Y-78255040D01*
X68085585Y-78210722D01*
X68068302Y-78018319D01*
X68044659Y-77889000D01*
X68013663Y-77805054D01*
X67974323Y-77748775D01*
X67942000Y-77717000D01*
X67799880Y-77479522D01*
X67794554Y-77159847D01*
X67925989Y-76775542D01*
G36*
X98422000Y-74878788D02*
X98422000Y-79962385D01*
X98421298Y-81062549D01*
X98419046Y-82003935D01*
X98415025Y-82797092D01*
X98409019Y-83452571D01*
X98400808Y-83980922D01*
X98390175Y-84392694D01*
X98376900Y-84698437D01*
X98360767Y-84908701D01*
X98341557Y-85034037D01*
X98319051Y-85084994D01*
X98316026Y-85086647D01*
X98210597Y-85095009D01*
X97954520Y-85101700D01*
X97566471Y-85106623D01*
X97065127Y-85109679D01*
X96469166Y-85110767D01*
X95797264Y-85109791D01*
X95068099Y-85106650D01*
X94823526Y-85105157D01*
X91648667Y-85084385D01*
X91648667Y-84871333D01*
X98252667Y-84871333D01*
X98252667Y-81315333D01*
X97831507Y-81315333D01*
X97572720Y-81325444D01*
X97422722Y-81375049D01*
X97321301Y-81493063D01*
X97271228Y-81584363D01*
X97185642Y-81769237D01*
X97186720Y-81872459D01*
X97277235Y-81959473D01*
X97287439Y-81966974D01*
X97382710Y-82050150D01*
X97395252Y-82140476D01*
X97324920Y-82298779D01*
X97286487Y-82370758D01*
X97124900Y-82620653D01*
X96942942Y-82836575D01*
X96929435Y-82849572D01*
X96770598Y-83081973D01*
X96728667Y-83362092D01*
X96728667Y-83686000D01*
X95041039Y-83686000D01*
X94463085Y-83684857D01*
X94032296Y-83680164D01*
X93726510Y-83670022D01*
X93538378Y-83653812D01*
X93538378Y-83516667D01*
X96559333Y-83516667D01*
X96559333Y-83151507D01*
X96588011Y-82872031D01*
X96699760Y-82663525D01*
X96813333Y-82543000D01*
X96999489Y-82342886D01*
X97056050Y-82203761D01*
X96991261Y-82088267D01*
X96925552Y-82034662D01*
X96851033Y-81961376D01*
X96845938Y-81866912D01*
X96918373Y-81705676D01*
X97013788Y-81538494D01*
X97153109Y-81313314D01*
X97271558Y-81196609D01*
X97432011Y-81152723D01*
X97697343Y-81146000D01*
X98168000Y-81146000D01*
X98168000Y-78690667D01*
X97687833Y-78690667D01*
X97307509Y-78660300D01*
X97064447Y-78556925D01*
X96935620Y-78362130D01*
X96898000Y-78059153D01*
X96873103Y-77807537D01*
X96774179Y-77609065D01*
X96601667Y-77420667D01*
X96396389Y-77180109D01*
X96312135Y-76953900D01*
X96305333Y-76851678D01*
X96305333Y-76569906D01*
X94889917Y-76593120D01*
X93474502Y-76616333D01*
X93363253Y-77010508D01*
X93229841Y-77328842D01*
X93052517Y-77535170D01*
X93043003Y-77541627D01*
X92935166Y-77627124D01*
X92872440Y-77737008D01*
X92842808Y-77915549D01*
X92834254Y-78207014D01*
X92834000Y-78311619D01*
X92834000Y-78944667D01*
X91648667Y-78944667D01*
X91648667Y-78690667D01*
X92664667Y-78690667D01*
X92664667Y-78069974D01*
X92669346Y-77745753D01*
X92691565Y-77547665D01*
X92743596Y-77432590D01*
X92837713Y-77357409D01*
X92873072Y-77337745D01*
X93023057Y-77205645D01*
X93130554Y-76972356D01*
X93182879Y-76773105D01*
X93284279Y-76320000D01*
X96559333Y-76320000D01*
X96559333Y-76684391D01*
X96582266Y-76940890D01*
X96675384Y-77137617D01*
X96855667Y-77336000D01*
X97048021Y-77552366D01*
X97134549Y-77754388D01*
X97152000Y-77970676D01*
X97178835Y-78252410D01*
X97279983Y-78420652D01*
X97486404Y-78501554D01*
X97803933Y-78521333D01*
X98252667Y-78521333D01*
X98252667Y-75050000D01*
X91648667Y-75050000D01*
X91648667Y-78690667D01*
X91648667Y-78944667D01*
X91648667Y-81230667D01*
X92918667Y-81230667D01*
X92918667Y-81779048D01*
X92926133Y-82086486D01*
X92957981Y-82273365D01*
X93028386Y-82388149D01*
X93117060Y-82457422D01*
X93286827Y-82656326D01*
X93416232Y-83008972D01*
X93426916Y-83052041D01*
X93538378Y-83516667D01*
X93538378Y-83653812D01*
X93523566Y-83652535D01*
X93401304Y-83625806D01*
X93337562Y-83587936D01*
X93310411Y-83537833D01*
X93262226Y-83362865D01*
X93196023Y-83112552D01*
X93178157Y-83043629D01*
X93052183Y-82748401D01*
X92876785Y-82600945D01*
X92757840Y-82530027D01*
X92694056Y-82423897D01*
X92668646Y-82234563D01*
X92664667Y-81994482D01*
X92664667Y-81484667D01*
X91648667Y-81484667D01*
X91648667Y-84871333D01*
X91648667Y-85084385D01*
X91437000Y-85083000D01*
X91437000Y-74923000D01*
X98422000Y-74878788D01*
X98422000Y-74878788D01*
G37*
X98422000Y-74878788D02*
X98422000Y-79962385D01*
X98421298Y-81062549D01*
X98419046Y-82003935D01*
X98415025Y-82797092D01*
X98409019Y-83452571D01*
X98400808Y-83980922D01*
X98390175Y-84392694D01*
X98376900Y-84698437D01*
X98360767Y-84908701D01*
X98341557Y-85034037D01*
X98319051Y-85084994D01*
X98316026Y-85086647D01*
X98210597Y-85095009D01*
X97954520Y-85101700D01*
X97566471Y-85106623D01*
X97065127Y-85109679D01*
X96469166Y-85110767D01*
X95797264Y-85109791D01*
X95068099Y-85106650D01*
X94823526Y-85105157D01*
X91648667Y-85084385D01*
X91648667Y-84871333D01*
X98252667Y-84871333D01*
X98252667Y-81315333D01*
X97831507Y-81315333D01*
X97572720Y-81325444D01*
X97422722Y-81375049D01*
X97321301Y-81493063D01*
X97271228Y-81584363D01*
X97185642Y-81769237D01*
X97186720Y-81872459D01*
X97277235Y-81959473D01*
X97287439Y-81966974D01*
X97382710Y-82050150D01*
X97395252Y-82140476D01*
X97324920Y-82298779D01*
X97286487Y-82370758D01*
X97124900Y-82620653D01*
X96942942Y-82836575D01*
X96929435Y-82849572D01*
X96770598Y-83081973D01*
X96728667Y-83362092D01*
X96728667Y-83686000D01*
X95041039Y-83686000D01*
X94463085Y-83684857D01*
X94032296Y-83680164D01*
X93726510Y-83670022D01*
X93538378Y-83653812D01*
X93538378Y-83516667D01*
X96559333Y-83516667D01*
X96559333Y-83151507D01*
X96588011Y-82872031D01*
X96699760Y-82663525D01*
X96813333Y-82543000D01*
X96999489Y-82342886D01*
X97056050Y-82203761D01*
X96991261Y-82088267D01*
X96925552Y-82034662D01*
X96851033Y-81961376D01*
X96845938Y-81866912D01*
X96918373Y-81705676D01*
X97013788Y-81538494D01*
X97153109Y-81313314D01*
X97271558Y-81196609D01*
X97432011Y-81152723D01*
X97697343Y-81146000D01*
X98168000Y-81146000D01*
X98168000Y-78690667D01*
X97687833Y-78690667D01*
X97307509Y-78660300D01*
X97064447Y-78556925D01*
X96935620Y-78362130D01*
X96898000Y-78059153D01*
X96873103Y-77807537D01*
X96774179Y-77609065D01*
X96601667Y-77420667D01*
X96396389Y-77180109D01*
X96312135Y-76953900D01*
X96305333Y-76851678D01*
X96305333Y-76569906D01*
X94889917Y-76593120D01*
X93474502Y-76616333D01*
X93363253Y-77010508D01*
X93229841Y-77328842D01*
X93052517Y-77535170D01*
X93043003Y-77541627D01*
X92935166Y-77627124D01*
X92872440Y-77737008D01*
X92842808Y-77915549D01*
X92834254Y-78207014D01*
X92834000Y-78311619D01*
X92834000Y-78944667D01*
X91648667Y-78944667D01*
X91648667Y-78690667D01*
X92664667Y-78690667D01*
X92664667Y-78069974D01*
X92669346Y-77745753D01*
X92691565Y-77547665D01*
X92743596Y-77432590D01*
X92837713Y-77357409D01*
X92873072Y-77337745D01*
X93023057Y-77205645D01*
X93130554Y-76972356D01*
X93182879Y-76773105D01*
X93284279Y-76320000D01*
X96559333Y-76320000D01*
X96559333Y-76684391D01*
X96582266Y-76940890D01*
X96675384Y-77137617D01*
X96855667Y-77336000D01*
X97048021Y-77552366D01*
X97134549Y-77754388D01*
X97152000Y-77970676D01*
X97178835Y-78252410D01*
X97279983Y-78420652D01*
X97486404Y-78501554D01*
X97803933Y-78521333D01*
X98252667Y-78521333D01*
X98252667Y-75050000D01*
X91648667Y-75050000D01*
X91648667Y-78690667D01*
X91648667Y-78944667D01*
X91648667Y-81230667D01*
X92918667Y-81230667D01*
X92918667Y-81779048D01*
X92926133Y-82086486D01*
X92957981Y-82273365D01*
X93028386Y-82388149D01*
X93117060Y-82457422D01*
X93286827Y-82656326D01*
X93416232Y-83008972D01*
X93426916Y-83052041D01*
X93538378Y-83516667D01*
X93538378Y-83653812D01*
X93523566Y-83652535D01*
X93401304Y-83625806D01*
X93337562Y-83587936D01*
X93310411Y-83537833D01*
X93262226Y-83362865D01*
X93196023Y-83112552D01*
X93178157Y-83043629D01*
X93052183Y-82748401D01*
X92876785Y-82600945D01*
X92757840Y-82530027D01*
X92694056Y-82423897D01*
X92668646Y-82234563D01*
X92664667Y-81994482D01*
X92664667Y-81484667D01*
X91648667Y-81484667D01*
X91648667Y-84871333D01*
X91648667Y-85084385D01*
X91437000Y-85083000D01*
X91437000Y-74923000D01*
X98422000Y-74878788D01*
G36*
X109622532Y-83332188D02*
X109856501Y-83139391D01*
X109937265Y-83105812D01*
X110270080Y-83060979D01*
X110541034Y-83160239D01*
X110721573Y-83383777D01*
X110783333Y-83692977D01*
X110745077Y-83959317D01*
X110606087Y-84149645D01*
X110560248Y-84187855D01*
X110262593Y-84340568D01*
X110068737Y-84330164D01*
X110068737Y-84102736D01*
X110297007Y-84069831D01*
X110482199Y-83921161D01*
X110592184Y-83734777D01*
X110585297Y-83600624D01*
X110455739Y-83443115D01*
X110444667Y-83432000D01*
X110228275Y-83283373D01*
X110028883Y-83298989D01*
X109900381Y-83395714D01*
X109787619Y-83603440D01*
X109782738Y-83841163D01*
X109868933Y-84007733D01*
X110068737Y-84102736D01*
X110068737Y-84330164D01*
X109976255Y-84325200D01*
X109721151Y-84155515D01*
X109546092Y-83882821D01*
X109516141Y-83594189D01*
X109622532Y-83332188D01*
X109622532Y-83332188D01*
G37*
X109622532Y-83332188D02*
X109856501Y-83139391D01*
X109937265Y-83105812D01*
X110270080Y-83060979D01*
X110541034Y-83160239D01*
X110721573Y-83383777D01*
X110783333Y-83692977D01*
X110745077Y-83959317D01*
X110606087Y-84149645D01*
X110560248Y-84187855D01*
X110262593Y-84340568D01*
X110068737Y-84330164D01*
X110068737Y-84102736D01*
X110297007Y-84069831D01*
X110482199Y-83921161D01*
X110592184Y-83734777D01*
X110585297Y-83600624D01*
X110455739Y-83443115D01*
X110444667Y-83432000D01*
X110228275Y-83283373D01*
X110028883Y-83298989D01*
X109900381Y-83395714D01*
X109787619Y-83603440D01*
X109782738Y-83841163D01*
X109868933Y-84007733D01*
X110068737Y-84102736D01*
X110068737Y-84330164D01*
X109976255Y-84325200D01*
X109721151Y-84155515D01*
X109546092Y-83882821D01*
X109516141Y-83594189D01*
X109622532Y-83332188D01*
G36*
X109616780Y-75369595D02*
X109796551Y-75178612D01*
X110031505Y-75065891D01*
X110293899Y-75059172D01*
X110555993Y-75186197D01*
X110598035Y-75222632D01*
X110748074Y-75466672D01*
X110780760Y-75764072D01*
X110694892Y-76044973D01*
X110614000Y-76150667D01*
X110364669Y-76292218D01*
X110208665Y-76303948D01*
X110208665Y-76106721D01*
X110411983Y-76034861D01*
X110528364Y-75863723D01*
X110538608Y-75633733D01*
X110420437Y-75432197D01*
X110211431Y-75321017D01*
X110197470Y-75318667D01*
X109967754Y-75349043D01*
X109819547Y-75486754D01*
X109768795Y-75683008D01*
X109831444Y-75889015D01*
X109967070Y-76023636D01*
X110208665Y-76106721D01*
X110208665Y-76303948D01*
X110066269Y-76314655D01*
X109788659Y-76219179D01*
X109685965Y-76134702D01*
X109533745Y-75875381D01*
X109519931Y-75611098D01*
X109616780Y-75369595D01*
X109616780Y-75369595D01*
G37*
X109616780Y-75369595D02*
X109796551Y-75178612D01*
X110031505Y-75065891D01*
X110293899Y-75059172D01*
X110555993Y-75186197D01*
X110598035Y-75222632D01*
X110748074Y-75466672D01*
X110780760Y-75764072D01*
X110694892Y-76044973D01*
X110614000Y-76150667D01*
X110364669Y-76292218D01*
X110208665Y-76303948D01*
X110208665Y-76106721D01*
X110411983Y-76034861D01*
X110528364Y-75863723D01*
X110538608Y-75633733D01*
X110420437Y-75432197D01*
X110211431Y-75321017D01*
X110197470Y-75318667D01*
X109967754Y-75349043D01*
X109819547Y-75486754D01*
X109768795Y-75683008D01*
X109831444Y-75889015D01*
X109967070Y-76023636D01*
X110208665Y-76106721D01*
X110208665Y-76303948D01*
X110066269Y-76314655D01*
X109788659Y-76219179D01*
X109685965Y-76134702D01*
X109533745Y-75875381D01*
X109519931Y-75611098D01*
X109616780Y-75369595D01*
G36*
X101066777Y-79854833D02*
X101089000Y-76785667D01*
X102697667Y-76785667D01*
X102719889Y-79854833D01*
X102742112Y-82924000D01*
X101300667Y-82924000D01*
X101300667Y-82670000D01*
X102486000Y-82670000D01*
X102486000Y-76997333D01*
X101300667Y-76997333D01*
X101300667Y-82670000D01*
X101300667Y-82924000D01*
X101044554Y-82924000D01*
X101066777Y-79854833D01*
X101066777Y-79854833D01*
G37*
X101066777Y-79854833D02*
X101089000Y-76785667D01*
X102697667Y-76785667D01*
X102719889Y-79854833D01*
X102742112Y-82924000D01*
X101300667Y-82924000D01*
X101300667Y-82670000D01*
X102486000Y-82670000D01*
X102486000Y-76997333D01*
X101300667Y-76997333D01*
X101300667Y-82670000D01*
X101300667Y-82924000D01*
X101044554Y-82924000D01*
X101066777Y-79854833D01*
G36*
X93155773Y-79890752D02*
X93215000Y-79876000D01*
X93318354Y-79805080D01*
X93342000Y-79703294D01*
X93416134Y-79374519D01*
X93613386Y-79035060D01*
X93896033Y-78727178D01*
X94226351Y-78493137D01*
X94520514Y-78382997D01*
X94722513Y-78313191D01*
X94837398Y-78218890D01*
X94840002Y-78212961D01*
X94945708Y-78108180D01*
X95080222Y-78131404D01*
X95150618Y-78225000D01*
X95265249Y-78328722D01*
X95375547Y-78352000D01*
X95683544Y-78426717D01*
X96005730Y-78627478D01*
X96304229Y-78919194D01*
X96541167Y-79266780D01*
X96653582Y-79535930D01*
X96731821Y-79745949D01*
X96806042Y-79865502D01*
X96826735Y-79876000D01*
X96890016Y-79944768D01*
X96898000Y-80003000D01*
X96862874Y-80115814D01*
X96833206Y-80130000D01*
X96770810Y-80202686D01*
X96681157Y-80388961D01*
X96621565Y-80543458D01*
X96399404Y-80958467D01*
X96068336Y-81317007D01*
X95675115Y-81574297D01*
X95463465Y-81652708D01*
X95251509Y-81727246D01*
X95199155Y-81760325D01*
X95199155Y-81484667D01*
X95481620Y-81415955D01*
X95793276Y-81235091D01*
X96084853Y-80979980D01*
X96307083Y-80688529D01*
X96354664Y-80595667D01*
X96443582Y-80376433D01*
X96456597Y-80239633D01*
X96370510Y-80165882D01*
X96162123Y-80135800D01*
X95808238Y-80130002D01*
X95797333Y-80130000D01*
X95120000Y-80130000D01*
X95120000Y-79876000D01*
X96493024Y-79876000D01*
X96435778Y-79643167D01*
X96346889Y-79393634D01*
X96259008Y-79225471D01*
X96047687Y-78986462D01*
X95755727Y-78758566D01*
X95456580Y-78595635D01*
X95352833Y-78561080D01*
X95120000Y-78502976D01*
X95120000Y-79876000D01*
X95120000Y-80130000D01*
X95120000Y-80807333D01*
X95129111Y-81121867D01*
X95153323Y-81358727D01*
X95187954Y-81477858D01*
X95199155Y-81484667D01*
X95199155Y-81760325D01*
X95130707Y-81803574D01*
X95120000Y-81826597D01*
X95062949Y-81901089D01*
X94945175Y-81891464D01*
X94846751Y-81807685D01*
X94839485Y-81791691D01*
X94769611Y-81731394D01*
X94769611Y-81458856D01*
X94826149Y-81430963D01*
X94854680Y-81322281D01*
X94864772Y-81101456D01*
X94866000Y-80813039D01*
X94866000Y-80130000D01*
X94188667Y-80130000D01*
X94182961Y-80130094D01*
X94182961Y-79876000D01*
X94866000Y-79876000D01*
X94866000Y-79192961D01*
X94863911Y-78856168D01*
X94851268Y-78657353D01*
X94818502Y-78565162D01*
X94756045Y-78548242D01*
X94675500Y-78568687D01*
X94200071Y-78797827D01*
X93828588Y-79149699D01*
X93583170Y-79602236D01*
X93556193Y-79685500D01*
X93535980Y-79779613D01*
X93564907Y-79836153D01*
X93674448Y-79864685D01*
X93896078Y-79874776D01*
X94182961Y-79876000D01*
X94182961Y-80130094D01*
X93874101Y-80135187D01*
X93637231Y-80148970D01*
X93518126Y-80168685D01*
X93511333Y-80175053D01*
X93550685Y-80319705D01*
X93647514Y-80543127D01*
X93769980Y-80780230D01*
X93886244Y-80965922D01*
X93916529Y-81003403D01*
X94198500Y-81225615D01*
X94583977Y-81406867D01*
X94675500Y-81437313D01*
X94769611Y-81458856D01*
X94769611Y-81731394D01*
X94733179Y-81699954D01*
X94530527Y-81626567D01*
X94494252Y-81618989D01*
X94161611Y-81486149D01*
X93841871Y-81239303D01*
X93573437Y-80922320D01*
X93394710Y-80579069D01*
X93342000Y-80302706D01*
X93289849Y-80162156D01*
X93215000Y-80130000D01*
X93102751Y-80062227D01*
X93088000Y-80003000D01*
X93155773Y-79890752D01*
X93155773Y-79890752D01*
G37*
X93155773Y-79890752D02*
X93215000Y-79876000D01*
X93318354Y-79805080D01*
X93342000Y-79703294D01*
X93416134Y-79374519D01*
X93613386Y-79035060D01*
X93896033Y-78727178D01*
X94226351Y-78493137D01*
X94520514Y-78382997D01*
X94722513Y-78313191D01*
X94837398Y-78218890D01*
X94840002Y-78212961D01*
X94945708Y-78108180D01*
X95080222Y-78131404D01*
X95150618Y-78225000D01*
X95265249Y-78328722D01*
X95375547Y-78352000D01*
X95683544Y-78426717D01*
X96005730Y-78627478D01*
X96304229Y-78919194D01*
X96541167Y-79266780D01*
X96653582Y-79535930D01*
X96731821Y-79745949D01*
X96806042Y-79865502D01*
X96826735Y-79876000D01*
X96890016Y-79944768D01*
X96898000Y-80003000D01*
X96862874Y-80115814D01*
X96833206Y-80130000D01*
X96770810Y-80202686D01*
X96681157Y-80388961D01*
X96621565Y-80543458D01*
X96399404Y-80958467D01*
X96068336Y-81317007D01*
X95675115Y-81574297D01*
X95463465Y-81652708D01*
X95251509Y-81727246D01*
X95199155Y-81760325D01*
X95199155Y-81484667D01*
X95481620Y-81415955D01*
X95793276Y-81235091D01*
X96084853Y-80979980D01*
X96307083Y-80688529D01*
X96354664Y-80595667D01*
X96443582Y-80376433D01*
X96456597Y-80239633D01*
X96370510Y-80165882D01*
X96162123Y-80135800D01*
X95808238Y-80130002D01*
X95797333Y-80130000D01*
X95120000Y-80130000D01*
X95120000Y-79876000D01*
X96493024Y-79876000D01*
X96435778Y-79643167D01*
X96346889Y-79393634D01*
X96259008Y-79225471D01*
X96047687Y-78986462D01*
X95755727Y-78758566D01*
X95456580Y-78595635D01*
X95352833Y-78561080D01*
X95120000Y-78502976D01*
X95120000Y-79876000D01*
X95120000Y-80130000D01*
X95120000Y-80807333D01*
X95129111Y-81121867D01*
X95153323Y-81358727D01*
X95187954Y-81477858D01*
X95199155Y-81484667D01*
X95199155Y-81760325D01*
X95130707Y-81803574D01*
X95120000Y-81826597D01*
X95062949Y-81901089D01*
X94945175Y-81891464D01*
X94846751Y-81807685D01*
X94839485Y-81791691D01*
X94769611Y-81731394D01*
X94769611Y-81458856D01*
X94826149Y-81430963D01*
X94854680Y-81322281D01*
X94864772Y-81101456D01*
X94866000Y-80813039D01*
X94866000Y-80130000D01*
X94188667Y-80130000D01*
X94182961Y-80130094D01*
X94182961Y-79876000D01*
X94866000Y-79876000D01*
X94866000Y-79192961D01*
X94863911Y-78856168D01*
X94851268Y-78657353D01*
X94818502Y-78565162D01*
X94756045Y-78548242D01*
X94675500Y-78568687D01*
X94200071Y-78797827D01*
X93828588Y-79149699D01*
X93583170Y-79602236D01*
X93556193Y-79685500D01*
X93535980Y-79779613D01*
X93564907Y-79836153D01*
X93674448Y-79864685D01*
X93896078Y-79874776D01*
X94182961Y-79876000D01*
X94182961Y-80130094D01*
X93874101Y-80135187D01*
X93637231Y-80148970D01*
X93518126Y-80168685D01*
X93511333Y-80175053D01*
X93550685Y-80319705D01*
X93647514Y-80543127D01*
X93769980Y-80780230D01*
X93886244Y-80965922D01*
X93916529Y-81003403D01*
X94198500Y-81225615D01*
X94583977Y-81406867D01*
X94675500Y-81437313D01*
X94769611Y-81458856D01*
X94769611Y-81731394D01*
X94733179Y-81699954D01*
X94530527Y-81626567D01*
X94494252Y-81618989D01*
X94161611Y-81486149D01*
X93841871Y-81239303D01*
X93573437Y-80922320D01*
X93394710Y-80579069D01*
X93342000Y-80302706D01*
X93289849Y-80162156D01*
X93215000Y-80130000D01*
X93102751Y-80062227D01*
X93088000Y-80003000D01*
X93155773Y-79890752D01*
D13*
X151079600Y-67818000D02*
X151079600Y-67310000D01*
X152704400Y-67818000D02*
X152704400Y-67310000D01*
X55067600Y-70866000D02*
X55067600Y-70358000D01*
X56692400Y-70866000D02*
X56692400Y-70358000D01*
D12*
X83534095Y-48982380D02*
X83534095Y-49791904D01*
X83486476Y-49887142D01*
X83438857Y-49934761D01*
X83343619Y-49982380D01*
X83153142Y-49982380D01*
X83057904Y-49934761D01*
X83010285Y-49887142D01*
X82962666Y-49791904D01*
X82962666Y-48982380D01*
X81962666Y-49982380D02*
X82534095Y-49982380D01*
X82248380Y-49982380D02*
X82248380Y-48982380D01*
X82343619Y-49125238D01*
X82438857Y-49220476D01*
X82534095Y-49268095D01*
X81010285Y-49982380D02*
X81581714Y-49982380D01*
X81296000Y-49982380D02*
X81296000Y-48982380D01*
X81391238Y-49125238D01*
X81486476Y-49220476D01*
X81581714Y-49268095D01*
X142961380Y-110783761D02*
X142485190Y-110450428D01*
X142961380Y-110212333D02*
X141961380Y-110212333D01*
X141961380Y-110593285D01*
X142009000Y-110688523D01*
X142056619Y-110736142D01*
X142151857Y-110783761D01*
X142294714Y-110783761D01*
X142389952Y-110736142D01*
X142437571Y-110688523D01*
X142485190Y-110593285D01*
X142485190Y-110212333D01*
X141961380Y-111069476D02*
X142961380Y-111402809D01*
X141961380Y-111736142D01*
X142294714Y-112498047D02*
X142961380Y-112498047D01*
X141913761Y-112259952D02*
X142628047Y-112021857D01*
X142628047Y-112640904D01*
X48192380Y-110604761D02*
X47716190Y-110271428D01*
X48192380Y-110033333D02*
X47192380Y-110033333D01*
X47192380Y-110414285D01*
X47240000Y-110509523D01*
X47287619Y-110557142D01*
X47382857Y-110604761D01*
X47525714Y-110604761D01*
X47620952Y-110557142D01*
X47668571Y-110509523D01*
X47716190Y-110414285D01*
X47716190Y-110033333D01*
X47192380Y-110890476D02*
X48192380Y-111223809D01*
X47192380Y-111557142D01*
X47192380Y-111795238D02*
X47192380Y-112414285D01*
X47573333Y-112080952D01*
X47573333Y-112223809D01*
X47620952Y-112319047D01*
X47668571Y-112366666D01*
X47763809Y-112414285D01*
X48001904Y-112414285D01*
X48097142Y-112366666D01*
X48144761Y-112319047D01*
X48192380Y-112223809D01*
X48192380Y-111938095D01*
X48144761Y-111842857D01*
X48097142Y-111795238D01*
X163595906Y-79546548D02*
X163580610Y-78965485D01*
X164055253Y-79206649D02*
X163460430Y-78402792D01*
X163154199Y-78629391D01*
X163105966Y-78724320D01*
X163096012Y-78790924D01*
X163114383Y-78895807D01*
X163199358Y-79010643D01*
X163294286Y-79058876D01*
X163360890Y-79068830D01*
X163465773Y-79050459D01*
X163772004Y-78823860D01*
X162771410Y-78912640D02*
X163098281Y-79914771D01*
X162235505Y-79309189D01*
X162062482Y-79555696D02*
X161995878Y-79545742D01*
X161890995Y-79564113D01*
X161699601Y-79705737D01*
X161651368Y-79800666D01*
X161641414Y-79867270D01*
X161659785Y-79972153D01*
X161716435Y-80048710D01*
X161839688Y-80135222D01*
X162638934Y-80254670D01*
X162141308Y-80622894D01*
X27039522Y-80016741D02*
X27590723Y-79832226D01*
X27498869Y-80356640D02*
X28093692Y-79552783D01*
X27787461Y-79326184D01*
X27682578Y-79307813D01*
X27615974Y-79317767D01*
X27521045Y-79366000D01*
X27436071Y-79480837D01*
X27417700Y-79585719D01*
X27427654Y-79652323D01*
X27475887Y-79747252D01*
X27782118Y-79973851D01*
X27404672Y-79042935D02*
X26541897Y-79648518D01*
X26868767Y-78646386D01*
X25584924Y-78940395D02*
X26044271Y-79280294D01*
X25814597Y-79110345D02*
X26409420Y-78306488D01*
X26401003Y-78477974D01*
X26420911Y-78611182D01*
X26469144Y-78706110D01*
X101472904Y-110958380D02*
X101472904Y-111767904D01*
X101425285Y-111863142D01*
X101377666Y-111910761D01*
X101282428Y-111958380D01*
X101091952Y-111958380D01*
X100996714Y-111910761D01*
X100949095Y-111863142D01*
X100901476Y-111767904D01*
X100901476Y-110958380D01*
X99901476Y-111958380D02*
X100472904Y-111958380D01*
X100187190Y-111958380D02*
X100187190Y-110958380D01*
X100282428Y-111101238D01*
X100377666Y-111196476D01*
X100472904Y-111244095D01*
X114934904Y-110958380D02*
X114934904Y-111767904D01*
X114887285Y-111863142D01*
X114839666Y-111910761D01*
X114744428Y-111958380D01*
X114553952Y-111958380D01*
X114458714Y-111910761D01*
X114411095Y-111863142D01*
X114363476Y-111767904D01*
X114363476Y-110958380D01*
X113934904Y-111053619D02*
X113887285Y-111006000D01*
X113792047Y-110958380D01*
X113553952Y-110958380D01*
X113458714Y-111006000D01*
X113411095Y-111053619D01*
X113363476Y-111148857D01*
X113363476Y-111244095D01*
X113411095Y-111386952D01*
X113982523Y-111958380D01*
X113363476Y-111958380D01*
X135552857Y-64516114D02*
X136524285Y-64516114D01*
X136638571Y-64573257D01*
X136695714Y-64630400D01*
X136752857Y-64744685D01*
X136752857Y-64973257D01*
X136695714Y-65087542D01*
X136638571Y-65144685D01*
X136524285Y-65201828D01*
X135552857Y-65201828D01*
X135552857Y-65658971D02*
X135552857Y-66401828D01*
X136010000Y-66001828D01*
X136010000Y-66173257D01*
X136067142Y-66287542D01*
X136124285Y-66344685D01*
X136238571Y-66401828D01*
X136524285Y-66401828D01*
X136638571Y-66344685D01*
X136695714Y-66287542D01*
X136752857Y-66173257D01*
X136752857Y-65830400D01*
X136695714Y-65716114D01*
X136638571Y-65658971D01*
X141490000Y-58516114D02*
X141490000Y-59087542D01*
X141832857Y-58401828D02*
X140632857Y-58801828D01*
X141832857Y-59201828D01*
X141832857Y-60287542D02*
X141261428Y-59887542D01*
X141832857Y-59601828D02*
X140632857Y-59601828D01*
X140632857Y-60058971D01*
X140690000Y-60173257D01*
X140747142Y-60230399D01*
X140861428Y-60287542D01*
X141032857Y-60287542D01*
X141147142Y-60230399D01*
X141204285Y-60173257D01*
X141261428Y-60058971D01*
X141261428Y-59601828D01*
X141832857Y-60801828D02*
X140632857Y-60801828D01*
X140632857Y-61087542D01*
X140690000Y-61258971D01*
X140804285Y-61373257D01*
X140918571Y-61430399D01*
X141147142Y-61487542D01*
X141318571Y-61487542D01*
X141547142Y-61430399D01*
X141661428Y-61373257D01*
X141775714Y-61258971D01*
X141832857Y-61087542D01*
X141832857Y-60801828D01*
X140632857Y-62001828D02*
X141604285Y-62001828D01*
X141718571Y-62058971D01*
X141775714Y-62116114D01*
X141832857Y-62230399D01*
X141832857Y-62458971D01*
X141775714Y-62573257D01*
X141718571Y-62630399D01*
X141604285Y-62687542D01*
X140632857Y-62687542D01*
X141832857Y-63258971D02*
X140632857Y-63258971D01*
X141832857Y-63830399D02*
X140632857Y-63830399D01*
X141832857Y-64516114D01*
X140632857Y-64516114D01*
X140632857Y-65316114D02*
X140632857Y-65544685D01*
X140690000Y-65658971D01*
X140804285Y-65773257D01*
X141032857Y-65830399D01*
X141432857Y-65830399D01*
X141661428Y-65773257D01*
X141775714Y-65658971D01*
X141832857Y-65544685D01*
X141832857Y-65316114D01*
X141775714Y-65201828D01*
X141661428Y-65087542D01*
X141432857Y-65030399D01*
X141032857Y-65030399D01*
X140804285Y-65087542D01*
X140690000Y-65201828D01*
X140632857Y-65316114D01*
X141947142Y-66058971D02*
X141947142Y-66973257D01*
X141832857Y-67258971D02*
X140632857Y-67258971D01*
X141490000Y-67658971D01*
X140632857Y-68058971D01*
X141832857Y-68058971D01*
X141832857Y-68630400D02*
X140632857Y-68630400D01*
X141718571Y-69887542D02*
X141775714Y-69830400D01*
X141832857Y-69658971D01*
X141832857Y-69544685D01*
X141775714Y-69373257D01*
X141661428Y-69258971D01*
X141547142Y-69201828D01*
X141318571Y-69144685D01*
X141147142Y-69144685D01*
X140918571Y-69201828D01*
X140804285Y-69258971D01*
X140690000Y-69373257D01*
X140632857Y-69544685D01*
X140632857Y-69658971D01*
X140690000Y-69830399D01*
X140747142Y-69887542D01*
X141832857Y-71087542D02*
X141261428Y-70687542D01*
X141832857Y-70401828D02*
X140632857Y-70401828D01*
X140632857Y-70858971D01*
X140690000Y-70973257D01*
X140747142Y-71030399D01*
X140861428Y-71087542D01*
X141032857Y-71087542D01*
X141147142Y-71030399D01*
X141204285Y-70973257D01*
X141261428Y-70858971D01*
X141261428Y-70401828D01*
X140632857Y-71830399D02*
X140632857Y-72058971D01*
X140690000Y-72173257D01*
X140804285Y-72287542D01*
X141032857Y-72344685D01*
X141432857Y-72344685D01*
X141661428Y-72287542D01*
X141775714Y-72173257D01*
X141832857Y-72058971D01*
X141832857Y-71830400D01*
X141775714Y-71716114D01*
X141661428Y-71601828D01*
X141432857Y-71544685D01*
X141032857Y-71544685D01*
X140804285Y-71601828D01*
X140690000Y-71716114D01*
X140632857Y-71830399D01*
X86145666Y-113387142D02*
X86193285Y-113434761D01*
X86336142Y-113482380D01*
X86431380Y-113482380D01*
X86574238Y-113434761D01*
X86669476Y-113339523D01*
X86717095Y-113244285D01*
X86764714Y-113053809D01*
X86764714Y-112910952D01*
X86717095Y-112720476D01*
X86669476Y-112625238D01*
X86574238Y-112530000D01*
X86431380Y-112482380D01*
X86336142Y-112482380D01*
X86193285Y-112530000D01*
X86145666Y-112577619D01*
X85812333Y-112482380D02*
X85193285Y-112482380D01*
X85526619Y-112863333D01*
X85383761Y-112863333D01*
X85288523Y-112910952D01*
X85240904Y-112958571D01*
X85193285Y-113053809D01*
X85193285Y-113291904D01*
X85240904Y-113387142D01*
X85288523Y-113434761D01*
X85383761Y-113482380D01*
X85669476Y-113482380D01*
X85764714Y-113434761D01*
X85812333Y-113387142D01*
X37504666Y-103068380D02*
X37838000Y-102592190D01*
X38076095Y-103068380D02*
X38076095Y-102068380D01*
X37695142Y-102068380D01*
X37599904Y-102116000D01*
X37552285Y-102163619D01*
X37504666Y-102258857D01*
X37504666Y-102401714D01*
X37552285Y-102496952D01*
X37599904Y-102544571D01*
X37695142Y-102592190D01*
X38076095Y-102592190D01*
X36552285Y-103068380D02*
X37123714Y-103068380D01*
X36838000Y-103068380D02*
X36838000Y-102068380D01*
X36933238Y-102211238D01*
X37028476Y-102306476D01*
X37123714Y-102354095D01*
X49188666Y-106370380D02*
X49522000Y-105894190D01*
X49760095Y-106370380D02*
X49760095Y-105370380D01*
X49379142Y-105370380D01*
X49283904Y-105418000D01*
X49236285Y-105465619D01*
X49188666Y-105560857D01*
X49188666Y-105703714D01*
X49236285Y-105798952D01*
X49283904Y-105846571D01*
X49379142Y-105894190D01*
X49760095Y-105894190D01*
X48807714Y-105465619D02*
X48760095Y-105418000D01*
X48664857Y-105370380D01*
X48426761Y-105370380D01*
X48331523Y-105418000D01*
X48283904Y-105465619D01*
X48236285Y-105560857D01*
X48236285Y-105656095D01*
X48283904Y-105798952D01*
X48855333Y-106370380D01*
X48236285Y-106370380D01*
X66873380Y-101687333D02*
X66397190Y-101354000D01*
X66873380Y-101115904D02*
X65873380Y-101115904D01*
X65873380Y-101496857D01*
X65921000Y-101592095D01*
X65968619Y-101639714D01*
X66063857Y-101687333D01*
X66206714Y-101687333D01*
X66301952Y-101639714D01*
X66349571Y-101592095D01*
X66397190Y-101496857D01*
X66397190Y-101115904D01*
X65873380Y-102020666D02*
X65873380Y-102639714D01*
X66254333Y-102306380D01*
X66254333Y-102449238D01*
X66301952Y-102544476D01*
X66349571Y-102592095D01*
X66444809Y-102639714D01*
X66682904Y-102639714D01*
X66778142Y-102592095D01*
X66825761Y-102544476D01*
X66873380Y-102449238D01*
X66873380Y-102163523D01*
X66825761Y-102068285D01*
X66778142Y-102020666D01*
X65079619Y-92368666D02*
X65555809Y-92702000D01*
X65079619Y-92940095D02*
X66079619Y-92940095D01*
X66079619Y-92559142D01*
X66032000Y-92463904D01*
X65984380Y-92416285D01*
X65889142Y-92368666D01*
X65746285Y-92368666D01*
X65651047Y-92416285D01*
X65603428Y-92463904D01*
X65555809Y-92559142D01*
X65555809Y-92940095D01*
X65746285Y-91511523D02*
X65079619Y-91511523D01*
X66127238Y-91749619D02*
X65412952Y-91987714D01*
X65412952Y-91368666D01*
X34456666Y-84399380D02*
X34790000Y-83923190D01*
X35028095Y-84399380D02*
X35028095Y-83399380D01*
X34647142Y-83399380D01*
X34551904Y-83447000D01*
X34504285Y-83494619D01*
X34456666Y-83589857D01*
X34456666Y-83732714D01*
X34504285Y-83827952D01*
X34551904Y-83875571D01*
X34647142Y-83923190D01*
X35028095Y-83923190D01*
X33551904Y-83399380D02*
X34028095Y-83399380D01*
X34075714Y-83875571D01*
X34028095Y-83827952D01*
X33932857Y-83780333D01*
X33694761Y-83780333D01*
X33599523Y-83827952D01*
X33551904Y-83875571D01*
X33504285Y-83970809D01*
X33504285Y-84208904D01*
X33551904Y-84304142D01*
X33599523Y-84351761D01*
X33694761Y-84399380D01*
X33932857Y-84399380D01*
X34028095Y-84351761D01*
X34075714Y-84304142D01*
X66206666Y-85034380D02*
X66540000Y-84558190D01*
X66778095Y-85034380D02*
X66778095Y-84034380D01*
X66397142Y-84034380D01*
X66301904Y-84082000D01*
X66254285Y-84129619D01*
X66206666Y-84224857D01*
X66206666Y-84367714D01*
X66254285Y-84462952D01*
X66301904Y-84510571D01*
X66397142Y-84558190D01*
X66778095Y-84558190D01*
X65349523Y-84034380D02*
X65540000Y-84034380D01*
X65635238Y-84082000D01*
X65682857Y-84129619D01*
X65778095Y-84272476D01*
X65825714Y-84462952D01*
X65825714Y-84843904D01*
X65778095Y-84939142D01*
X65730476Y-84986761D01*
X65635238Y-85034380D01*
X65444761Y-85034380D01*
X65349523Y-84986761D01*
X65301904Y-84939142D01*
X65254285Y-84843904D01*
X65254285Y-84605809D01*
X65301904Y-84510571D01*
X65349523Y-84462952D01*
X65444761Y-84415333D01*
X65635238Y-84415333D01*
X65730476Y-84462952D01*
X65778095Y-84510571D01*
X65825714Y-84605809D01*
X32932666Y-103195380D02*
X33266000Y-102719190D01*
X33504095Y-103195380D02*
X33504095Y-102195380D01*
X33123142Y-102195380D01*
X33027904Y-102243000D01*
X32980285Y-102290619D01*
X32932666Y-102385857D01*
X32932666Y-102528714D01*
X32980285Y-102623952D01*
X33027904Y-102671571D01*
X33123142Y-102719190D01*
X33504095Y-102719190D01*
X32599333Y-102195380D02*
X31932666Y-102195380D01*
X32361238Y-103195380D01*
X58110380Y-100925333D02*
X57634190Y-100592000D01*
X58110380Y-100353904D02*
X57110380Y-100353904D01*
X57110380Y-100734857D01*
X57158000Y-100830095D01*
X57205619Y-100877714D01*
X57300857Y-100925333D01*
X57443714Y-100925333D01*
X57538952Y-100877714D01*
X57586571Y-100830095D01*
X57634190Y-100734857D01*
X57634190Y-100353904D01*
X57538952Y-101496761D02*
X57491333Y-101401523D01*
X57443714Y-101353904D01*
X57348476Y-101306285D01*
X57300857Y-101306285D01*
X57205619Y-101353904D01*
X57158000Y-101401523D01*
X57110380Y-101496761D01*
X57110380Y-101687238D01*
X57158000Y-101782476D01*
X57205619Y-101830095D01*
X57300857Y-101877714D01*
X57348476Y-101877714D01*
X57443714Y-101830095D01*
X57491333Y-101782476D01*
X57538952Y-101687238D01*
X57538952Y-101496761D01*
X57586571Y-101401523D01*
X57634190Y-101353904D01*
X57729428Y-101306285D01*
X57919904Y-101306285D01*
X58015142Y-101353904D01*
X58062761Y-101401523D01*
X58110380Y-101496761D01*
X58110380Y-101687238D01*
X58062761Y-101782476D01*
X58015142Y-101830095D01*
X57919904Y-101877714D01*
X57729428Y-101877714D01*
X57634190Y-101830095D01*
X57586571Y-101782476D01*
X57538952Y-101687238D01*
X53506666Y-105100380D02*
X53840000Y-104624190D01*
X54078095Y-105100380D02*
X54078095Y-104100380D01*
X53697142Y-104100380D01*
X53601904Y-104148000D01*
X53554285Y-104195619D01*
X53506666Y-104290857D01*
X53506666Y-104433714D01*
X53554285Y-104528952D01*
X53601904Y-104576571D01*
X53697142Y-104624190D01*
X54078095Y-104624190D01*
X53030476Y-105100380D02*
X52840000Y-105100380D01*
X52744761Y-105052761D01*
X52697142Y-105005142D01*
X52601904Y-104862285D01*
X52554285Y-104671809D01*
X52554285Y-104290857D01*
X52601904Y-104195619D01*
X52649523Y-104148000D01*
X52744761Y-104100380D01*
X52935238Y-104100380D01*
X53030476Y-104148000D01*
X53078095Y-104195619D01*
X53125714Y-104290857D01*
X53125714Y-104528952D01*
X53078095Y-104624190D01*
X53030476Y-104671809D01*
X52935238Y-104719428D01*
X52744761Y-104719428D01*
X52649523Y-104671809D01*
X52601904Y-104624190D01*
X52554285Y-104528952D01*
X49410857Y-102814380D02*
X49744190Y-102338190D01*
X49982285Y-102814380D02*
X49982285Y-101814380D01*
X49601333Y-101814380D01*
X49506095Y-101862000D01*
X49458476Y-101909619D01*
X49410857Y-102004857D01*
X49410857Y-102147714D01*
X49458476Y-102242952D01*
X49506095Y-102290571D01*
X49601333Y-102338190D01*
X49982285Y-102338190D01*
X48458476Y-102814380D02*
X49029904Y-102814380D01*
X48744190Y-102814380D02*
X48744190Y-101814380D01*
X48839428Y-101957238D01*
X48934666Y-102052476D01*
X49029904Y-102100095D01*
X47839428Y-101814380D02*
X47744190Y-101814380D01*
X47648952Y-101862000D01*
X47601333Y-101909619D01*
X47553714Y-102004857D01*
X47506095Y-102195333D01*
X47506095Y-102433428D01*
X47553714Y-102623904D01*
X47601333Y-102719142D01*
X47648952Y-102766761D01*
X47744190Y-102814380D01*
X47839428Y-102814380D01*
X47934666Y-102766761D01*
X47982285Y-102719142D01*
X48029904Y-102623904D01*
X48077523Y-102433428D01*
X48077523Y-102195333D01*
X48029904Y-102004857D01*
X47982285Y-101909619D01*
X47934666Y-101862000D01*
X47839428Y-101814380D01*
X86621857Y-108021380D02*
X86955190Y-107545190D01*
X87193285Y-108021380D02*
X87193285Y-107021380D01*
X86812333Y-107021380D01*
X86717095Y-107069000D01*
X86669476Y-107116619D01*
X86621857Y-107211857D01*
X86621857Y-107354714D01*
X86669476Y-107449952D01*
X86717095Y-107497571D01*
X86812333Y-107545190D01*
X87193285Y-107545190D01*
X85669476Y-108021380D02*
X86240904Y-108021380D01*
X85955190Y-108021380D02*
X85955190Y-107021380D01*
X86050428Y-107164238D01*
X86145666Y-107259476D01*
X86240904Y-107307095D01*
X84717095Y-108021380D02*
X85288523Y-108021380D01*
X85002809Y-108021380D02*
X85002809Y-107021380D01*
X85098047Y-107164238D01*
X85193285Y-107259476D01*
X85288523Y-107307095D01*
X51188857Y-79954380D02*
X51522190Y-79478190D01*
X51760285Y-79954380D02*
X51760285Y-78954380D01*
X51379333Y-78954380D01*
X51284095Y-79002000D01*
X51236476Y-79049619D01*
X51188857Y-79144857D01*
X51188857Y-79287714D01*
X51236476Y-79382952D01*
X51284095Y-79430571D01*
X51379333Y-79478190D01*
X51760285Y-79478190D01*
X50236476Y-79954380D02*
X50807904Y-79954380D01*
X50522190Y-79954380D02*
X50522190Y-78954380D01*
X50617428Y-79097238D01*
X50712666Y-79192476D01*
X50807904Y-79240095D01*
X49855523Y-79049619D02*
X49807904Y-79002000D01*
X49712666Y-78954380D01*
X49474571Y-78954380D01*
X49379333Y-79002000D01*
X49331714Y-79049619D01*
X49284095Y-79144857D01*
X49284095Y-79240095D01*
X49331714Y-79382952D01*
X49903142Y-79954380D01*
X49284095Y-79954380D01*
X51188857Y-77922380D02*
X51522190Y-77446190D01*
X51760285Y-77922380D02*
X51760285Y-76922380D01*
X51379333Y-76922380D01*
X51284095Y-76970000D01*
X51236476Y-77017619D01*
X51188857Y-77112857D01*
X51188857Y-77255714D01*
X51236476Y-77350952D01*
X51284095Y-77398571D01*
X51379333Y-77446190D01*
X51760285Y-77446190D01*
X50236476Y-77922380D02*
X50807904Y-77922380D01*
X50522190Y-77922380D02*
X50522190Y-76922380D01*
X50617428Y-77065238D01*
X50712666Y-77160476D01*
X50807904Y-77208095D01*
X49903142Y-76922380D02*
X49284095Y-76922380D01*
X49617428Y-77303333D01*
X49474571Y-77303333D01*
X49379333Y-77350952D01*
X49331714Y-77398571D01*
X49284095Y-77493809D01*
X49284095Y-77731904D01*
X49331714Y-77827142D01*
X49379333Y-77874761D01*
X49474571Y-77922380D01*
X49760285Y-77922380D01*
X49855523Y-77874761D01*
X49903142Y-77827142D01*
X78716142Y-118070333D02*
X78763761Y-118022714D01*
X78811380Y-117879857D01*
X78811380Y-117784619D01*
X78763761Y-117641761D01*
X78668523Y-117546523D01*
X78573285Y-117498904D01*
X78382809Y-117451285D01*
X78239952Y-117451285D01*
X78049476Y-117498904D01*
X77954238Y-117546523D01*
X77859000Y-117641761D01*
X77811380Y-117784619D01*
X77811380Y-117879857D01*
X77859000Y-118022714D01*
X77906619Y-118070333D01*
X78144714Y-118927476D02*
X78811380Y-118927476D01*
X77763761Y-118689380D02*
X78478047Y-118451285D01*
X78478047Y-119070333D01*
X58713619Y-112172761D02*
X58666000Y-112077523D01*
X58570761Y-111982285D01*
X58427904Y-111839428D01*
X58380285Y-111744190D01*
X58380285Y-111648952D01*
X58618380Y-111696571D02*
X58570761Y-111601333D01*
X58475523Y-111506095D01*
X58285047Y-111458476D01*
X57951714Y-111458476D01*
X57761238Y-111506095D01*
X57666000Y-111601333D01*
X57618380Y-111696571D01*
X57618380Y-111887047D01*
X57666000Y-111982285D01*
X57761238Y-112077523D01*
X57951714Y-112125142D01*
X58285047Y-112125142D01*
X58475523Y-112077523D01*
X58570761Y-111982285D01*
X58618380Y-111887047D01*
X58618380Y-111696571D01*
X58618380Y-113077523D02*
X58618380Y-112506095D01*
X58618380Y-112791809D02*
X57618380Y-112791809D01*
X57761238Y-112696571D01*
X57856476Y-112601333D01*
X57904095Y-112506095D01*
X152407857Y-60904380D02*
X152741190Y-60428190D01*
X152979285Y-60904380D02*
X152979285Y-59904380D01*
X152598333Y-59904380D01*
X152503095Y-59952000D01*
X152455476Y-59999619D01*
X152407857Y-60094857D01*
X152407857Y-60237714D01*
X152455476Y-60332952D01*
X152503095Y-60380571D01*
X152598333Y-60428190D01*
X152979285Y-60428190D01*
X151455476Y-60904380D02*
X152026904Y-60904380D01*
X151741190Y-60904380D02*
X151741190Y-59904380D01*
X151836428Y-60047238D01*
X151931666Y-60142476D01*
X152026904Y-60190095D01*
X150598333Y-60237714D02*
X150598333Y-60904380D01*
X150836428Y-59856761D02*
X151074523Y-60571047D01*
X150455476Y-60571047D01*
X82303857Y-114879380D02*
X82637190Y-114403190D01*
X82875285Y-114879380D02*
X82875285Y-113879380D01*
X82494333Y-113879380D01*
X82399095Y-113927000D01*
X82351476Y-113974619D01*
X82303857Y-114069857D01*
X82303857Y-114212714D01*
X82351476Y-114307952D01*
X82399095Y-114355571D01*
X82494333Y-114403190D01*
X82875285Y-114403190D01*
X81351476Y-114879380D02*
X81922904Y-114879380D01*
X81637190Y-114879380D02*
X81637190Y-113879380D01*
X81732428Y-114022238D01*
X81827666Y-114117476D01*
X81922904Y-114165095D01*
X80446714Y-113879380D02*
X80922904Y-113879380D01*
X80970523Y-114355571D01*
X80922904Y-114307952D01*
X80827666Y-114260333D01*
X80589571Y-114260333D01*
X80494333Y-114307952D01*
X80446714Y-114355571D01*
X80399095Y-114450809D01*
X80399095Y-114688904D01*
X80446714Y-114784142D01*
X80494333Y-114831761D01*
X80589571Y-114879380D01*
X80827666Y-114879380D01*
X80922904Y-114831761D01*
X80970523Y-114784142D01*
X82430857Y-111831380D02*
X82764190Y-111355190D01*
X83002285Y-111831380D02*
X83002285Y-110831380D01*
X82621333Y-110831380D01*
X82526095Y-110879000D01*
X82478476Y-110926619D01*
X82430857Y-111021857D01*
X82430857Y-111164714D01*
X82478476Y-111259952D01*
X82526095Y-111307571D01*
X82621333Y-111355190D01*
X83002285Y-111355190D01*
X81478476Y-111831380D02*
X82049904Y-111831380D01*
X81764190Y-111831380D02*
X81764190Y-110831380D01*
X81859428Y-110974238D01*
X81954666Y-111069476D01*
X82049904Y-111117095D01*
X80621333Y-110831380D02*
X80811809Y-110831380D01*
X80907047Y-110879000D01*
X80954666Y-110926619D01*
X81049904Y-111069476D01*
X81097523Y-111259952D01*
X81097523Y-111640904D01*
X81049904Y-111736142D01*
X81002285Y-111783761D01*
X80907047Y-111831380D01*
X80716571Y-111831380D01*
X80621333Y-111783761D01*
X80573714Y-111736142D01*
X80526095Y-111640904D01*
X80526095Y-111402809D01*
X80573714Y-111307571D01*
X80621333Y-111259952D01*
X80716571Y-111212333D01*
X80907047Y-111212333D01*
X81002285Y-111259952D01*
X81049904Y-111307571D01*
X81097523Y-111402809D01*
X84907380Y-117594142D02*
X84431190Y-117260809D01*
X84907380Y-117022714D02*
X83907380Y-117022714D01*
X83907380Y-117403666D01*
X83955000Y-117498904D01*
X84002619Y-117546523D01*
X84097857Y-117594142D01*
X84240714Y-117594142D01*
X84335952Y-117546523D01*
X84383571Y-117498904D01*
X84431190Y-117403666D01*
X84431190Y-117022714D01*
X84907380Y-118546523D02*
X84907380Y-117975095D01*
X84907380Y-118260809D02*
X83907380Y-118260809D01*
X84050238Y-118165571D01*
X84145476Y-118070333D01*
X84193095Y-117975095D01*
X83907380Y-118879857D02*
X83907380Y-119546523D01*
X84907380Y-119117952D01*
X69603857Y-119451380D02*
X69937190Y-118975190D01*
X70175285Y-119451380D02*
X70175285Y-118451380D01*
X69794333Y-118451380D01*
X69699095Y-118499000D01*
X69651476Y-118546619D01*
X69603857Y-118641857D01*
X69603857Y-118784714D01*
X69651476Y-118879952D01*
X69699095Y-118927571D01*
X69794333Y-118975190D01*
X70175285Y-118975190D01*
X68651476Y-119451380D02*
X69222904Y-119451380D01*
X68937190Y-119451380D02*
X68937190Y-118451380D01*
X69032428Y-118594238D01*
X69127666Y-118689476D01*
X69222904Y-118737095D01*
X68080047Y-118879952D02*
X68175285Y-118832333D01*
X68222904Y-118784714D01*
X68270523Y-118689476D01*
X68270523Y-118641857D01*
X68222904Y-118546619D01*
X68175285Y-118499000D01*
X68080047Y-118451380D01*
X67889571Y-118451380D01*
X67794333Y-118499000D01*
X67746714Y-118546619D01*
X67699095Y-118641857D01*
X67699095Y-118689476D01*
X67746714Y-118784714D01*
X67794333Y-118832333D01*
X67889571Y-118879952D01*
X68080047Y-118879952D01*
X68175285Y-118927571D01*
X68222904Y-118975190D01*
X68270523Y-119070428D01*
X68270523Y-119260904D01*
X68222904Y-119356142D01*
X68175285Y-119403761D01*
X68080047Y-119451380D01*
X67889571Y-119451380D01*
X67794333Y-119403761D01*
X67746714Y-119356142D01*
X67699095Y-119260904D01*
X67699095Y-119070428D01*
X67746714Y-118975190D01*
X67794333Y-118927571D01*
X67889571Y-118879952D01*
X156471857Y-60777380D02*
X156805190Y-60301190D01*
X157043285Y-60777380D02*
X157043285Y-59777380D01*
X156662333Y-59777380D01*
X156567095Y-59825000D01*
X156519476Y-59872619D01*
X156471857Y-59967857D01*
X156471857Y-60110714D01*
X156519476Y-60205952D01*
X156567095Y-60253571D01*
X156662333Y-60301190D01*
X157043285Y-60301190D01*
X155519476Y-60777380D02*
X156090904Y-60777380D01*
X155805190Y-60777380D02*
X155805190Y-59777380D01*
X155900428Y-59920238D01*
X155995666Y-60015476D01*
X156090904Y-60063095D01*
X155043285Y-60777380D02*
X154852809Y-60777380D01*
X154757571Y-60729761D01*
X154709952Y-60682142D01*
X154614714Y-60539285D01*
X154567095Y-60348809D01*
X154567095Y-59967857D01*
X154614714Y-59872619D01*
X154662333Y-59825000D01*
X154757571Y-59777380D01*
X154948047Y-59777380D01*
X155043285Y-59825000D01*
X155090904Y-59872619D01*
X155138523Y-59967857D01*
X155138523Y-60205952D01*
X155090904Y-60301190D01*
X155043285Y-60348809D01*
X154948047Y-60396428D01*
X154757571Y-60396428D01*
X154662333Y-60348809D01*
X154614714Y-60301190D01*
X154567095Y-60205952D01*
X62301380Y-116959142D02*
X61825190Y-116625809D01*
X62301380Y-116387714D02*
X61301380Y-116387714D01*
X61301380Y-116768666D01*
X61349000Y-116863904D01*
X61396619Y-116911523D01*
X61491857Y-116959142D01*
X61634714Y-116959142D01*
X61729952Y-116911523D01*
X61777571Y-116863904D01*
X61825190Y-116768666D01*
X61825190Y-116387714D01*
X61396619Y-117340095D02*
X61349000Y-117387714D01*
X61301380Y-117482952D01*
X61301380Y-117721047D01*
X61349000Y-117816285D01*
X61396619Y-117863904D01*
X61491857Y-117911523D01*
X61587095Y-117911523D01*
X61729952Y-117863904D01*
X62301380Y-117292476D01*
X62301380Y-117911523D01*
X61301380Y-118530571D02*
X61301380Y-118625809D01*
X61349000Y-118721047D01*
X61396619Y-118768666D01*
X61491857Y-118816285D01*
X61682333Y-118863904D01*
X61920428Y-118863904D01*
X62110904Y-118816285D01*
X62206142Y-118768666D01*
X62253761Y-118721047D01*
X62301380Y-118625809D01*
X62301380Y-118530571D01*
X62253761Y-118435333D01*
X62206142Y-118387714D01*
X62110904Y-118340095D01*
X61920428Y-118292476D01*
X61682333Y-118292476D01*
X61491857Y-118340095D01*
X61396619Y-118387714D01*
X61349000Y-118435333D01*
X61301380Y-118530571D01*
X76199904Y-107148380D02*
X76199904Y-107957904D01*
X76152285Y-108053142D01*
X76104666Y-108100761D01*
X76009428Y-108148380D01*
X75818952Y-108148380D01*
X75723714Y-108100761D01*
X75676095Y-108053142D01*
X75628476Y-107957904D01*
X75628476Y-107148380D01*
X75247523Y-107148380D02*
X74580857Y-107148380D01*
X75009428Y-108148380D01*
X87463380Y-111887095D02*
X88272904Y-111887095D01*
X88368142Y-111934714D01*
X88415761Y-111982333D01*
X88463380Y-112077571D01*
X88463380Y-112268047D01*
X88415761Y-112363285D01*
X88368142Y-112410904D01*
X88272904Y-112458523D01*
X87463380Y-112458523D01*
X87891952Y-113077571D02*
X87844333Y-112982333D01*
X87796714Y-112934714D01*
X87701476Y-112887095D01*
X87653857Y-112887095D01*
X87558619Y-112934714D01*
X87511000Y-112982333D01*
X87463380Y-113077571D01*
X87463380Y-113268047D01*
X87511000Y-113363285D01*
X87558619Y-113410904D01*
X87653857Y-113458523D01*
X87701476Y-113458523D01*
X87796714Y-113410904D01*
X87844333Y-113363285D01*
X87891952Y-113268047D01*
X87891952Y-113077571D01*
X87939571Y-112982333D01*
X87987190Y-112934714D01*
X88082428Y-112887095D01*
X88272904Y-112887095D01*
X88368142Y-112934714D01*
X88415761Y-112982333D01*
X88463380Y-113077571D01*
X88463380Y-113268047D01*
X88415761Y-113363285D01*
X88368142Y-113410904D01*
X88272904Y-113458523D01*
X88082428Y-113458523D01*
X87987190Y-113410904D01*
X87939571Y-113363285D01*
X87891952Y-113268047D01*
X115482619Y-47950333D02*
X114768333Y-47950333D01*
X114625476Y-47997952D01*
X114530238Y-48093190D01*
X114482619Y-48236047D01*
X114482619Y-48331285D01*
X114482619Y-47474142D02*
X115482619Y-47474142D01*
X115482619Y-47093190D01*
X115435000Y-46997952D01*
X115387380Y-46950333D01*
X115292142Y-46902714D01*
X115149285Y-46902714D01*
X115054047Y-46950333D01*
X115006428Y-46997952D01*
X114958809Y-47093190D01*
X114958809Y-47474142D01*
X114482619Y-45950333D02*
X114482619Y-46521761D01*
X114482619Y-46236047D02*
X115482619Y-46236047D01*
X115339761Y-46331285D01*
X115244523Y-46426523D01*
X115196904Y-46521761D01*
X49410857Y-66111380D02*
X49744190Y-65635190D01*
X49982285Y-66111380D02*
X49982285Y-65111380D01*
X49601333Y-65111380D01*
X49506095Y-65159000D01*
X49458476Y-65206619D01*
X49410857Y-65301857D01*
X49410857Y-65444714D01*
X49458476Y-65539952D01*
X49506095Y-65587571D01*
X49601333Y-65635190D01*
X49982285Y-65635190D01*
X49029904Y-65206619D02*
X48982285Y-65159000D01*
X48887047Y-65111380D01*
X48648952Y-65111380D01*
X48553714Y-65159000D01*
X48506095Y-65206619D01*
X48458476Y-65301857D01*
X48458476Y-65397095D01*
X48506095Y-65539952D01*
X49077523Y-66111380D01*
X48458476Y-66111380D01*
X47506095Y-66111380D02*
X48077523Y-66111380D01*
X47791809Y-66111380D02*
X47791809Y-65111380D01*
X47887047Y-65254238D01*
X47982285Y-65349476D01*
X48077523Y-65397095D01*
X28193904Y-95083380D02*
X28193904Y-95892904D01*
X28146285Y-95988142D01*
X28098666Y-96035761D01*
X28003428Y-96083380D01*
X27812952Y-96083380D01*
X27717714Y-96035761D01*
X27670095Y-95988142D01*
X27622476Y-95892904D01*
X27622476Y-95083380D01*
X26717714Y-95416714D02*
X26717714Y-96083380D01*
X26955809Y-95035761D02*
X27193904Y-95750047D01*
X26574857Y-95750047D01*
X66166904Y-95210380D02*
X66166904Y-96019904D01*
X66119285Y-96115142D01*
X66071666Y-96162761D01*
X65976428Y-96210380D01*
X65785952Y-96210380D01*
X65690714Y-96162761D01*
X65643095Y-96115142D01*
X65595476Y-96019904D01*
X65595476Y-95210380D01*
X64643095Y-95210380D02*
X65119285Y-95210380D01*
X65166904Y-95686571D01*
X65119285Y-95638952D01*
X65024047Y-95591333D01*
X64785952Y-95591333D01*
X64690714Y-95638952D01*
X64643095Y-95686571D01*
X64595476Y-95781809D01*
X64595476Y-96019904D01*
X64643095Y-96115142D01*
X64690714Y-96162761D01*
X64785952Y-96210380D01*
X65024047Y-96210380D01*
X65119285Y-96162761D01*
X65166904Y-96115142D01*
X46862904Y-85177380D02*
X46862904Y-85986904D01*
X46815285Y-86082142D01*
X46767666Y-86129761D01*
X46672428Y-86177380D01*
X46481952Y-86177380D01*
X46386714Y-86129761D01*
X46339095Y-86082142D01*
X46291476Y-85986904D01*
X46291476Y-85177380D01*
X45386714Y-85177380D02*
X45577190Y-85177380D01*
X45672428Y-85225000D01*
X45720047Y-85272619D01*
X45815285Y-85415476D01*
X45862904Y-85605952D01*
X45862904Y-85986904D01*
X45815285Y-86082142D01*
X45767666Y-86129761D01*
X45672428Y-86177380D01*
X45481952Y-86177380D01*
X45386714Y-86129761D01*
X45339095Y-86082142D01*
X45291476Y-85986904D01*
X45291476Y-85748809D01*
X45339095Y-85653571D01*
X45386714Y-85605952D01*
X45481952Y-85558333D01*
X45672428Y-85558333D01*
X45767666Y-85605952D01*
X45815285Y-85653571D01*
X45862904Y-85748809D01*
X97238095Y-46156180D02*
X97238095Y-46965704D01*
X97190476Y-47060942D01*
X97142857Y-47108561D01*
X97047619Y-47156180D01*
X96857142Y-47156180D01*
X96761904Y-47108561D01*
X96714285Y-47060942D01*
X96666666Y-46965704D01*
X96666666Y-46156180D01*
X95666666Y-47156180D02*
X96238095Y-47156180D01*
X95952380Y-47156180D02*
X95952380Y-46156180D01*
X96047619Y-46299038D01*
X96142857Y-46394276D01*
X96238095Y-46441895D01*
X95047619Y-46156180D02*
X94952380Y-46156180D01*
X94857142Y-46203800D01*
X94809523Y-46251419D01*
X94761904Y-46346657D01*
X94714285Y-46537133D01*
X94714285Y-46775228D01*
X94761904Y-46965704D01*
X94809523Y-47060942D01*
X94857142Y-47108561D01*
X94952380Y-47156180D01*
X95047619Y-47156180D01*
X95142857Y-47108561D01*
X95190476Y-47060942D01*
X95238095Y-46965704D01*
X95285714Y-46775228D01*
X95285714Y-46537133D01*
X95238095Y-46346657D01*
X95190476Y-46251419D01*
X95142857Y-46203800D01*
X95047619Y-46156180D01*
X41632142Y-68413333D02*
X41679761Y-68365714D01*
X41727380Y-68222857D01*
X41727380Y-68127619D01*
X41679761Y-67984761D01*
X41584523Y-67889523D01*
X41489285Y-67841904D01*
X41298809Y-67794285D01*
X41155952Y-67794285D01*
X40965476Y-67841904D01*
X40870238Y-67889523D01*
X40775000Y-67984761D01*
X40727380Y-68127619D01*
X40727380Y-68222857D01*
X40775000Y-68365714D01*
X40822619Y-68413333D01*
X41727380Y-69365714D02*
X41727380Y-68794285D01*
X41727380Y-69080000D02*
X40727380Y-69080000D01*
X40870238Y-68984761D01*
X40965476Y-68889523D01*
X41013095Y-68794285D01*
X45188142Y-57491333D02*
X45235761Y-57443714D01*
X45283380Y-57300857D01*
X45283380Y-57205619D01*
X45235761Y-57062761D01*
X45140523Y-56967523D01*
X45045285Y-56919904D01*
X44854809Y-56872285D01*
X44711952Y-56872285D01*
X44521476Y-56919904D01*
X44426238Y-56967523D01*
X44331000Y-57062761D01*
X44283380Y-57205619D01*
X44283380Y-57300857D01*
X44331000Y-57443714D01*
X44378619Y-57491333D01*
X44378619Y-57872285D02*
X44331000Y-57919904D01*
X44283380Y-58015142D01*
X44283380Y-58253238D01*
X44331000Y-58348476D01*
X44378619Y-58396095D01*
X44473857Y-58443714D01*
X44569095Y-58443714D01*
X44711952Y-58396095D01*
X45283380Y-57824666D01*
X45283380Y-58443714D01*
X59031142Y-47331333D02*
X59078761Y-47283714D01*
X59126380Y-47140857D01*
X59126380Y-47045619D01*
X59078761Y-46902761D01*
X58983523Y-46807523D01*
X58888285Y-46759904D01*
X58697809Y-46712285D01*
X58554952Y-46712285D01*
X58364476Y-46759904D01*
X58269238Y-46807523D01*
X58174000Y-46902761D01*
X58126380Y-47045619D01*
X58126380Y-47140857D01*
X58174000Y-47283714D01*
X58221619Y-47331333D01*
X58126380Y-48236095D02*
X58126380Y-47759904D01*
X58602571Y-47712285D01*
X58554952Y-47759904D01*
X58507333Y-47855142D01*
X58507333Y-48093238D01*
X58554952Y-48188476D01*
X58602571Y-48236095D01*
X58697809Y-48283714D01*
X58935904Y-48283714D01*
X59031142Y-48236095D01*
X59078761Y-48188476D01*
X59126380Y-48093238D01*
X59126380Y-47855142D01*
X59078761Y-47759904D01*
X59031142Y-47712285D01*
X44362666Y-60301142D02*
X44410285Y-60348761D01*
X44553142Y-60396380D01*
X44648380Y-60396380D01*
X44791238Y-60348761D01*
X44886476Y-60253523D01*
X44934095Y-60158285D01*
X44981714Y-59967809D01*
X44981714Y-59824952D01*
X44934095Y-59634476D01*
X44886476Y-59539238D01*
X44791238Y-59444000D01*
X44648380Y-59396380D01*
X44553142Y-59396380D01*
X44410285Y-59444000D01*
X44362666Y-59491619D01*
X43791238Y-59824952D02*
X43886476Y-59777333D01*
X43934095Y-59729714D01*
X43981714Y-59634476D01*
X43981714Y-59586857D01*
X43934095Y-59491619D01*
X43886476Y-59444000D01*
X43791238Y-59396380D01*
X43600761Y-59396380D01*
X43505523Y-59444000D01*
X43457904Y-59491619D01*
X43410285Y-59586857D01*
X43410285Y-59634476D01*
X43457904Y-59729714D01*
X43505523Y-59777333D01*
X43600761Y-59824952D01*
X43791238Y-59824952D01*
X43886476Y-59872571D01*
X43934095Y-59920190D01*
X43981714Y-60015428D01*
X43981714Y-60205904D01*
X43934095Y-60301142D01*
X43886476Y-60348761D01*
X43791238Y-60396380D01*
X43600761Y-60396380D01*
X43505523Y-60348761D01*
X43457904Y-60301142D01*
X43410285Y-60205904D01*
X43410285Y-60015428D01*
X43457904Y-59920190D01*
X43505523Y-59872571D01*
X43600761Y-59824952D01*
X45188142Y-51903333D02*
X45235761Y-51855714D01*
X45283380Y-51712857D01*
X45283380Y-51617619D01*
X45235761Y-51474761D01*
X45140523Y-51379523D01*
X45045285Y-51331904D01*
X44854809Y-51284285D01*
X44711952Y-51284285D01*
X44521476Y-51331904D01*
X44426238Y-51379523D01*
X44331000Y-51474761D01*
X44283380Y-51617619D01*
X44283380Y-51712857D01*
X44331000Y-51855714D01*
X44378619Y-51903333D01*
X45283380Y-52379523D02*
X45283380Y-52570000D01*
X45235761Y-52665238D01*
X45188142Y-52712857D01*
X45045285Y-52808095D01*
X44854809Y-52855714D01*
X44473857Y-52855714D01*
X44378619Y-52808095D01*
X44331000Y-52760476D01*
X44283380Y-52665238D01*
X44283380Y-52474761D01*
X44331000Y-52379523D01*
X44378619Y-52331904D01*
X44473857Y-52284285D01*
X44711952Y-52284285D01*
X44807190Y-52331904D01*
X44854809Y-52379523D01*
X44902428Y-52474761D01*
X44902428Y-52665238D01*
X44854809Y-52760476D01*
X44807190Y-52808095D01*
X44711952Y-52855714D01*
X49029857Y-44934142D02*
X49077476Y-44981761D01*
X49220333Y-45029380D01*
X49315571Y-45029380D01*
X49458428Y-44981761D01*
X49553666Y-44886523D01*
X49601285Y-44791285D01*
X49648904Y-44600809D01*
X49648904Y-44457952D01*
X49601285Y-44267476D01*
X49553666Y-44172238D01*
X49458428Y-44077000D01*
X49315571Y-44029380D01*
X49220333Y-44029380D01*
X49077476Y-44077000D01*
X49029857Y-44124619D01*
X48077476Y-45029380D02*
X48648904Y-45029380D01*
X48363190Y-45029380D02*
X48363190Y-44029380D01*
X48458428Y-44172238D01*
X48553666Y-44267476D01*
X48648904Y-44315095D01*
X47458428Y-44029380D02*
X47363190Y-44029380D01*
X47267952Y-44077000D01*
X47220333Y-44124619D01*
X47172714Y-44219857D01*
X47125095Y-44410333D01*
X47125095Y-44648428D01*
X47172714Y-44838904D01*
X47220333Y-44934142D01*
X47267952Y-44981761D01*
X47363190Y-45029380D01*
X47458428Y-45029380D01*
X47553666Y-44981761D01*
X47601285Y-44934142D01*
X47648904Y-44838904D01*
X47696523Y-44648428D01*
X47696523Y-44410333D01*
X47648904Y-44219857D01*
X47601285Y-44124619D01*
X47553666Y-44077000D01*
X47458428Y-44029380D01*
X41282857Y-60269380D02*
X41616190Y-59793190D01*
X41854285Y-60269380D02*
X41854285Y-59269380D01*
X41473333Y-59269380D01*
X41378095Y-59317000D01*
X41330476Y-59364619D01*
X41282857Y-59459857D01*
X41282857Y-59602714D01*
X41330476Y-59697952D01*
X41378095Y-59745571D01*
X41473333Y-59793190D01*
X41854285Y-59793190D01*
X40901904Y-59364619D02*
X40854285Y-59317000D01*
X40759047Y-59269380D01*
X40520952Y-59269380D01*
X40425714Y-59317000D01*
X40378095Y-59364619D01*
X40330476Y-59459857D01*
X40330476Y-59555095D01*
X40378095Y-59697952D01*
X40949523Y-60269380D01*
X40330476Y-60269380D01*
X39949523Y-59364619D02*
X39901904Y-59317000D01*
X39806666Y-59269380D01*
X39568571Y-59269380D01*
X39473333Y-59317000D01*
X39425714Y-59364619D01*
X39378095Y-59459857D01*
X39378095Y-59555095D01*
X39425714Y-59697952D01*
X39997142Y-60269380D01*
X39378095Y-60269380D01*
X36901380Y-56761142D02*
X36425190Y-56427809D01*
X36901380Y-56189714D02*
X35901380Y-56189714D01*
X35901380Y-56570666D01*
X35949000Y-56665904D01*
X35996619Y-56713523D01*
X36091857Y-56761142D01*
X36234714Y-56761142D01*
X36329952Y-56713523D01*
X36377571Y-56665904D01*
X36425190Y-56570666D01*
X36425190Y-56189714D01*
X35996619Y-57142095D02*
X35949000Y-57189714D01*
X35901380Y-57284952D01*
X35901380Y-57523047D01*
X35949000Y-57618285D01*
X35996619Y-57665904D01*
X36091857Y-57713523D01*
X36187095Y-57713523D01*
X36329952Y-57665904D01*
X36901380Y-57094476D01*
X36901380Y-57713523D01*
X35901380Y-58046857D02*
X35901380Y-58665904D01*
X36282333Y-58332571D01*
X36282333Y-58475428D01*
X36329952Y-58570666D01*
X36377571Y-58618285D01*
X36472809Y-58665904D01*
X36710904Y-58665904D01*
X36806142Y-58618285D01*
X36853761Y-58570666D01*
X36901380Y-58475428D01*
X36901380Y-58189714D01*
X36853761Y-58094476D01*
X36806142Y-58046857D01*
X49537857Y-60396380D02*
X49871190Y-59920190D01*
X50109285Y-60396380D02*
X50109285Y-59396380D01*
X49728333Y-59396380D01*
X49633095Y-59444000D01*
X49585476Y-59491619D01*
X49537857Y-59586857D01*
X49537857Y-59729714D01*
X49585476Y-59824952D01*
X49633095Y-59872571D01*
X49728333Y-59920190D01*
X50109285Y-59920190D01*
X49156904Y-59491619D02*
X49109285Y-59444000D01*
X49014047Y-59396380D01*
X48775952Y-59396380D01*
X48680714Y-59444000D01*
X48633095Y-59491619D01*
X48585476Y-59586857D01*
X48585476Y-59682095D01*
X48633095Y-59824952D01*
X49204523Y-60396380D01*
X48585476Y-60396380D01*
X47728333Y-59729714D02*
X47728333Y-60396380D01*
X47966428Y-59348761D02*
X48204523Y-60063047D01*
X47585476Y-60063047D01*
X61983857Y-56459380D02*
X62317190Y-55983190D01*
X62555285Y-56459380D02*
X62555285Y-55459380D01*
X62174333Y-55459380D01*
X62079095Y-55507000D01*
X62031476Y-55554619D01*
X61983857Y-55649857D01*
X61983857Y-55792714D01*
X62031476Y-55887952D01*
X62079095Y-55935571D01*
X62174333Y-55983190D01*
X62555285Y-55983190D01*
X61602904Y-55554619D02*
X61555285Y-55507000D01*
X61460047Y-55459380D01*
X61221952Y-55459380D01*
X61126714Y-55507000D01*
X61079095Y-55554619D01*
X61031476Y-55649857D01*
X61031476Y-55745095D01*
X61079095Y-55887952D01*
X61650523Y-56459380D01*
X61031476Y-56459380D01*
X60126714Y-55459380D02*
X60602904Y-55459380D01*
X60650523Y-55935571D01*
X60602904Y-55887952D01*
X60507666Y-55840333D01*
X60269571Y-55840333D01*
X60174333Y-55887952D01*
X60126714Y-55935571D01*
X60079095Y-56030809D01*
X60079095Y-56268904D01*
X60126714Y-56364142D01*
X60174333Y-56411761D01*
X60269571Y-56459380D01*
X60507666Y-56459380D01*
X60602904Y-56411761D01*
X60650523Y-56364142D01*
X54109857Y-63698380D02*
X54443190Y-63222190D01*
X54681285Y-63698380D02*
X54681285Y-62698380D01*
X54300333Y-62698380D01*
X54205095Y-62746000D01*
X54157476Y-62793619D01*
X54109857Y-62888857D01*
X54109857Y-63031714D01*
X54157476Y-63126952D01*
X54205095Y-63174571D01*
X54300333Y-63222190D01*
X54681285Y-63222190D01*
X53728904Y-62793619D02*
X53681285Y-62746000D01*
X53586047Y-62698380D01*
X53347952Y-62698380D01*
X53252714Y-62746000D01*
X53205095Y-62793619D01*
X53157476Y-62888857D01*
X53157476Y-62984095D01*
X53205095Y-63126952D01*
X53776523Y-63698380D01*
X53157476Y-63698380D01*
X52300333Y-62698380D02*
X52490809Y-62698380D01*
X52586047Y-62746000D01*
X52633666Y-62793619D01*
X52728904Y-62936476D01*
X52776523Y-63126952D01*
X52776523Y-63507904D01*
X52728904Y-63603142D01*
X52681285Y-63650761D01*
X52586047Y-63698380D01*
X52395571Y-63698380D01*
X52300333Y-63650761D01*
X52252714Y-63603142D01*
X52205095Y-63507904D01*
X52205095Y-63269809D01*
X52252714Y-63174571D01*
X52300333Y-63126952D01*
X52395571Y-63079333D01*
X52586047Y-63079333D01*
X52681285Y-63126952D01*
X52728904Y-63174571D01*
X52776523Y-63269809D01*
X61285380Y-60825142D02*
X60809190Y-60491809D01*
X61285380Y-60253714D02*
X60285380Y-60253714D01*
X60285380Y-60634666D01*
X60333000Y-60729904D01*
X60380619Y-60777523D01*
X60475857Y-60825142D01*
X60618714Y-60825142D01*
X60713952Y-60777523D01*
X60761571Y-60729904D01*
X60809190Y-60634666D01*
X60809190Y-60253714D01*
X60380619Y-61206095D02*
X60333000Y-61253714D01*
X60285380Y-61348952D01*
X60285380Y-61587047D01*
X60333000Y-61682285D01*
X60380619Y-61729904D01*
X60475857Y-61777523D01*
X60571095Y-61777523D01*
X60713952Y-61729904D01*
X61285380Y-61158476D01*
X61285380Y-61777523D01*
X60285380Y-62110857D02*
X60285380Y-62777523D01*
X61285380Y-62348952D01*
X61158380Y-57650142D02*
X60682190Y-57316809D01*
X61158380Y-57078714D02*
X60158380Y-57078714D01*
X60158380Y-57459666D01*
X60206000Y-57554904D01*
X60253619Y-57602523D01*
X60348857Y-57650142D01*
X60491714Y-57650142D01*
X60586952Y-57602523D01*
X60634571Y-57554904D01*
X60682190Y-57459666D01*
X60682190Y-57078714D01*
X60253619Y-58031095D02*
X60206000Y-58078714D01*
X60158380Y-58173952D01*
X60158380Y-58412047D01*
X60206000Y-58507285D01*
X60253619Y-58554904D01*
X60348857Y-58602523D01*
X60444095Y-58602523D01*
X60586952Y-58554904D01*
X61158380Y-57983476D01*
X61158380Y-58602523D01*
X60586952Y-59173952D02*
X60539333Y-59078714D01*
X60491714Y-59031095D01*
X60396476Y-58983476D01*
X60348857Y-58983476D01*
X60253619Y-59031095D01*
X60206000Y-59078714D01*
X60158380Y-59173952D01*
X60158380Y-59364428D01*
X60206000Y-59459666D01*
X60253619Y-59507285D01*
X60348857Y-59554904D01*
X60396476Y-59554904D01*
X60491714Y-59507285D01*
X60539333Y-59459666D01*
X60586952Y-59364428D01*
X60586952Y-59173952D01*
X60634571Y-59078714D01*
X60682190Y-59031095D01*
X60777428Y-58983476D01*
X60967904Y-58983476D01*
X61063142Y-59031095D01*
X61110761Y-59078714D01*
X61158380Y-59173952D01*
X61158380Y-59364428D01*
X61110761Y-59459666D01*
X61063142Y-59507285D01*
X60967904Y-59554904D01*
X60777428Y-59554904D01*
X60682190Y-59507285D01*
X60634571Y-59459666D01*
X60586952Y-59364428D01*
X44838857Y-66111380D02*
X45172190Y-65635190D01*
X45410285Y-66111380D02*
X45410285Y-65111380D01*
X45029333Y-65111380D01*
X44934095Y-65159000D01*
X44886476Y-65206619D01*
X44838857Y-65301857D01*
X44838857Y-65444714D01*
X44886476Y-65539952D01*
X44934095Y-65587571D01*
X45029333Y-65635190D01*
X45410285Y-65635190D01*
X44457904Y-65206619D02*
X44410285Y-65159000D01*
X44315047Y-65111380D01*
X44076952Y-65111380D01*
X43981714Y-65159000D01*
X43934095Y-65206619D01*
X43886476Y-65301857D01*
X43886476Y-65397095D01*
X43934095Y-65539952D01*
X44505523Y-66111380D01*
X43886476Y-66111380D01*
X43410285Y-66111380D02*
X43219809Y-66111380D01*
X43124571Y-66063761D01*
X43076952Y-66016142D01*
X42981714Y-65873285D01*
X42934095Y-65682809D01*
X42934095Y-65301857D01*
X42981714Y-65206619D01*
X43029333Y-65159000D01*
X43124571Y-65111380D01*
X43315047Y-65111380D01*
X43410285Y-65159000D01*
X43457904Y-65206619D01*
X43505523Y-65301857D01*
X43505523Y-65539952D01*
X43457904Y-65635190D01*
X43410285Y-65682809D01*
X43315047Y-65730428D01*
X43124571Y-65730428D01*
X43029333Y-65682809D01*
X42981714Y-65635190D01*
X42934095Y-65539952D01*
X39568380Y-61841142D02*
X39092190Y-61507809D01*
X39568380Y-61269714D02*
X38568380Y-61269714D01*
X38568380Y-61650666D01*
X38616000Y-61745904D01*
X38663619Y-61793523D01*
X38758857Y-61841142D01*
X38901714Y-61841142D01*
X38996952Y-61793523D01*
X39044571Y-61745904D01*
X39092190Y-61650666D01*
X39092190Y-61269714D01*
X38568380Y-62174476D02*
X38568380Y-62793523D01*
X38949333Y-62460190D01*
X38949333Y-62603047D01*
X38996952Y-62698285D01*
X39044571Y-62745904D01*
X39139809Y-62793523D01*
X39377904Y-62793523D01*
X39473142Y-62745904D01*
X39520761Y-62698285D01*
X39568380Y-62603047D01*
X39568380Y-62317333D01*
X39520761Y-62222095D01*
X39473142Y-62174476D01*
X38568380Y-63412571D02*
X38568380Y-63507809D01*
X38616000Y-63603047D01*
X38663619Y-63650666D01*
X38758857Y-63698285D01*
X38949333Y-63745904D01*
X39187428Y-63745904D01*
X39377904Y-63698285D01*
X39473142Y-63650666D01*
X39520761Y-63603047D01*
X39568380Y-63507809D01*
X39568380Y-63412571D01*
X39520761Y-63317333D01*
X39473142Y-63269714D01*
X39377904Y-63222095D01*
X39187428Y-63174476D01*
X38949333Y-63174476D01*
X38758857Y-63222095D01*
X38663619Y-63269714D01*
X38616000Y-63317333D01*
X38568380Y-63412571D01*
X39314380Y-52189142D02*
X38838190Y-51855809D01*
X39314380Y-51617714D02*
X38314380Y-51617714D01*
X38314380Y-51998666D01*
X38362000Y-52093904D01*
X38409619Y-52141523D01*
X38504857Y-52189142D01*
X38647714Y-52189142D01*
X38742952Y-52141523D01*
X38790571Y-52093904D01*
X38838190Y-51998666D01*
X38838190Y-51617714D01*
X38314380Y-52522476D02*
X38314380Y-53141523D01*
X38695333Y-52808190D01*
X38695333Y-52951047D01*
X38742952Y-53046285D01*
X38790571Y-53093904D01*
X38885809Y-53141523D01*
X39123904Y-53141523D01*
X39219142Y-53093904D01*
X39266761Y-53046285D01*
X39314380Y-52951047D01*
X39314380Y-52665333D01*
X39266761Y-52570095D01*
X39219142Y-52522476D01*
X39314380Y-54093904D02*
X39314380Y-53522476D01*
X39314380Y-53808190D02*
X38314380Y-53808190D01*
X38457238Y-53712952D01*
X38552476Y-53617714D01*
X38600095Y-53522476D01*
X45791380Y-48125142D02*
X45315190Y-47791809D01*
X45791380Y-47553714D02*
X44791380Y-47553714D01*
X44791380Y-47934666D01*
X44839000Y-48029904D01*
X44886619Y-48077523D01*
X44981857Y-48125142D01*
X45124714Y-48125142D01*
X45219952Y-48077523D01*
X45267571Y-48029904D01*
X45315190Y-47934666D01*
X45315190Y-47553714D01*
X44791380Y-48458476D02*
X44791380Y-49077523D01*
X45172333Y-48744190D01*
X45172333Y-48887047D01*
X45219952Y-48982285D01*
X45267571Y-49029904D01*
X45362809Y-49077523D01*
X45600904Y-49077523D01*
X45696142Y-49029904D01*
X45743761Y-48982285D01*
X45791380Y-48887047D01*
X45791380Y-48601333D01*
X45743761Y-48506095D01*
X45696142Y-48458476D01*
X44886619Y-49458476D02*
X44839000Y-49506095D01*
X44791380Y-49601333D01*
X44791380Y-49839428D01*
X44839000Y-49934666D01*
X44886619Y-49982285D01*
X44981857Y-50029904D01*
X45077095Y-50029904D01*
X45219952Y-49982285D01*
X45791380Y-49410857D01*
X45791380Y-50029904D01*
X55824380Y-47998142D02*
X55348190Y-47664809D01*
X55824380Y-47426714D02*
X54824380Y-47426714D01*
X54824380Y-47807666D01*
X54872000Y-47902904D01*
X54919619Y-47950523D01*
X55014857Y-47998142D01*
X55157714Y-47998142D01*
X55252952Y-47950523D01*
X55300571Y-47902904D01*
X55348190Y-47807666D01*
X55348190Y-47426714D01*
X54824380Y-48331476D02*
X54824380Y-48950523D01*
X55205333Y-48617190D01*
X55205333Y-48760047D01*
X55252952Y-48855285D01*
X55300571Y-48902904D01*
X55395809Y-48950523D01*
X55633904Y-48950523D01*
X55729142Y-48902904D01*
X55776761Y-48855285D01*
X55824380Y-48760047D01*
X55824380Y-48474333D01*
X55776761Y-48379095D01*
X55729142Y-48331476D01*
X54824380Y-49283857D02*
X54824380Y-49902904D01*
X55205333Y-49569571D01*
X55205333Y-49712428D01*
X55252952Y-49807666D01*
X55300571Y-49855285D01*
X55395809Y-49902904D01*
X55633904Y-49902904D01*
X55729142Y-49855285D01*
X55776761Y-49807666D01*
X55824380Y-49712428D01*
X55824380Y-49426714D01*
X55776761Y-49331476D01*
X55729142Y-49283857D01*
X55697380Y-64889142D02*
X55221190Y-64555809D01*
X55697380Y-64317714D02*
X54697380Y-64317714D01*
X54697380Y-64698666D01*
X54745000Y-64793904D01*
X54792619Y-64841523D01*
X54887857Y-64889142D01*
X55030714Y-64889142D01*
X55125952Y-64841523D01*
X55173571Y-64793904D01*
X55221190Y-64698666D01*
X55221190Y-64317714D01*
X54697380Y-65222476D02*
X54697380Y-65841523D01*
X55078333Y-65508190D01*
X55078333Y-65651047D01*
X55125952Y-65746285D01*
X55173571Y-65793904D01*
X55268809Y-65841523D01*
X55506904Y-65841523D01*
X55602142Y-65793904D01*
X55649761Y-65746285D01*
X55697380Y-65651047D01*
X55697380Y-65365333D01*
X55649761Y-65270095D01*
X55602142Y-65222476D01*
X55030714Y-66698666D02*
X55697380Y-66698666D01*
X54649761Y-66460571D02*
X55364047Y-66222476D01*
X55364047Y-66841523D01*
X61666380Y-64889142D02*
X61190190Y-64555809D01*
X61666380Y-64317714D02*
X60666380Y-64317714D01*
X60666380Y-64698666D01*
X60714000Y-64793904D01*
X60761619Y-64841523D01*
X60856857Y-64889142D01*
X60999714Y-64889142D01*
X61094952Y-64841523D01*
X61142571Y-64793904D01*
X61190190Y-64698666D01*
X61190190Y-64317714D01*
X60666380Y-65222476D02*
X60666380Y-65841523D01*
X61047333Y-65508190D01*
X61047333Y-65651047D01*
X61094952Y-65746285D01*
X61142571Y-65793904D01*
X61237809Y-65841523D01*
X61475904Y-65841523D01*
X61571142Y-65793904D01*
X61618761Y-65746285D01*
X61666380Y-65651047D01*
X61666380Y-65365333D01*
X61618761Y-65270095D01*
X61571142Y-65222476D01*
X60666380Y-66746285D02*
X60666380Y-66270095D01*
X61142571Y-66222476D01*
X61094952Y-66270095D01*
X61047333Y-66365333D01*
X61047333Y-66603428D01*
X61094952Y-66698666D01*
X61142571Y-66746285D01*
X61237809Y-66793904D01*
X61475904Y-66793904D01*
X61571142Y-66746285D01*
X61618761Y-66698666D01*
X61666380Y-66603428D01*
X61666380Y-66365333D01*
X61618761Y-66270095D01*
X61571142Y-66222476D01*
X53474857Y-45029380D02*
X53808190Y-44553190D01*
X54046285Y-45029380D02*
X54046285Y-44029380D01*
X53665333Y-44029380D01*
X53570095Y-44077000D01*
X53522476Y-44124619D01*
X53474857Y-44219857D01*
X53474857Y-44362714D01*
X53522476Y-44457952D01*
X53570095Y-44505571D01*
X53665333Y-44553190D01*
X54046285Y-44553190D01*
X53141523Y-44029380D02*
X52522476Y-44029380D01*
X52855809Y-44410333D01*
X52712952Y-44410333D01*
X52617714Y-44457952D01*
X52570095Y-44505571D01*
X52522476Y-44600809D01*
X52522476Y-44838904D01*
X52570095Y-44934142D01*
X52617714Y-44981761D01*
X52712952Y-45029380D01*
X52998666Y-45029380D01*
X53093904Y-44981761D01*
X53141523Y-44934142D01*
X51665333Y-44029380D02*
X51855809Y-44029380D01*
X51951047Y-44077000D01*
X51998666Y-44124619D01*
X52093904Y-44267476D01*
X52141523Y-44457952D01*
X52141523Y-44838904D01*
X52093904Y-44934142D01*
X52046285Y-44981761D01*
X51951047Y-45029380D01*
X51760571Y-45029380D01*
X51665333Y-44981761D01*
X51617714Y-44934142D01*
X51570095Y-44838904D01*
X51570095Y-44600809D01*
X51617714Y-44505571D01*
X51665333Y-44457952D01*
X51760571Y-44410333D01*
X51951047Y-44410333D01*
X52046285Y-44457952D01*
X52093904Y-44505571D01*
X52141523Y-44600809D01*
X61285380Y-53078142D02*
X60809190Y-52744809D01*
X61285380Y-52506714D02*
X60285380Y-52506714D01*
X60285380Y-52887666D01*
X60333000Y-52982904D01*
X60380619Y-53030523D01*
X60475857Y-53078142D01*
X60618714Y-53078142D01*
X60713952Y-53030523D01*
X60761571Y-52982904D01*
X60809190Y-52887666D01*
X60809190Y-52506714D01*
X60285380Y-53411476D02*
X60285380Y-54030523D01*
X60666333Y-53697190D01*
X60666333Y-53840047D01*
X60713952Y-53935285D01*
X60761571Y-53982904D01*
X60856809Y-54030523D01*
X61094904Y-54030523D01*
X61190142Y-53982904D01*
X61237761Y-53935285D01*
X61285380Y-53840047D01*
X61285380Y-53554333D01*
X61237761Y-53459095D01*
X61190142Y-53411476D01*
X60285380Y-54363857D02*
X60285380Y-55030523D01*
X61285380Y-54601952D01*
X61158380Y-49649142D02*
X60682190Y-49315809D01*
X61158380Y-49077714D02*
X60158380Y-49077714D01*
X60158380Y-49458666D01*
X60206000Y-49553904D01*
X60253619Y-49601523D01*
X60348857Y-49649142D01*
X60491714Y-49649142D01*
X60586952Y-49601523D01*
X60634571Y-49553904D01*
X60682190Y-49458666D01*
X60682190Y-49077714D01*
X60158380Y-49982476D02*
X60158380Y-50601523D01*
X60539333Y-50268190D01*
X60539333Y-50411047D01*
X60586952Y-50506285D01*
X60634571Y-50553904D01*
X60729809Y-50601523D01*
X60967904Y-50601523D01*
X61063142Y-50553904D01*
X61110761Y-50506285D01*
X61158380Y-50411047D01*
X61158380Y-50125333D01*
X61110761Y-50030095D01*
X61063142Y-49982476D01*
X60586952Y-51172952D02*
X60539333Y-51077714D01*
X60491714Y-51030095D01*
X60396476Y-50982476D01*
X60348857Y-50982476D01*
X60253619Y-51030095D01*
X60206000Y-51077714D01*
X60158380Y-51172952D01*
X60158380Y-51363428D01*
X60206000Y-51458666D01*
X60253619Y-51506285D01*
X60348857Y-51553904D01*
X60396476Y-51553904D01*
X60491714Y-51506285D01*
X60539333Y-51458666D01*
X60586952Y-51363428D01*
X60586952Y-51172952D01*
X60634571Y-51077714D01*
X60682190Y-51030095D01*
X60777428Y-50982476D01*
X60967904Y-50982476D01*
X61063142Y-51030095D01*
X61110761Y-51077714D01*
X61158380Y-51172952D01*
X61158380Y-51363428D01*
X61110761Y-51458666D01*
X61063142Y-51506285D01*
X60967904Y-51553904D01*
X60777428Y-51553904D01*
X60682190Y-51506285D01*
X60634571Y-51458666D01*
X60586952Y-51363428D01*
X40157142Y-75857142D02*
X40204761Y-75809523D01*
X40252380Y-75666666D01*
X40252380Y-75571428D01*
X40204761Y-75428571D01*
X40109523Y-75333333D01*
X40014285Y-75285714D01*
X39823809Y-75238095D01*
X39680952Y-75238095D01*
X39490476Y-75285714D01*
X39395238Y-75333333D01*
X39300000Y-75428571D01*
X39252380Y-75571428D01*
X39252380Y-75666666D01*
X39300000Y-75809523D01*
X39347619Y-75857142D01*
X40252380Y-76809523D02*
X40252380Y-76238095D01*
X40252380Y-76523809D02*
X39252380Y-76523809D01*
X39395238Y-76428571D01*
X39490476Y-76333333D01*
X39538095Y-76238095D01*
X39347619Y-77190476D02*
X39300000Y-77238095D01*
X39252380Y-77333333D01*
X39252380Y-77571428D01*
X39300000Y-77666666D01*
X39347619Y-77714285D01*
X39442857Y-77761904D01*
X39538095Y-77761904D01*
X39680952Y-77714285D01*
X40252380Y-77142857D01*
X40252380Y-77761904D01*
X44283380Y-54229095D02*
X45092904Y-54229095D01*
X45188142Y-54276714D01*
X45235761Y-54324333D01*
X45283380Y-54419571D01*
X45283380Y-54610047D01*
X45235761Y-54705285D01*
X45188142Y-54752904D01*
X45092904Y-54800523D01*
X44283380Y-54800523D01*
X45283380Y-55324333D02*
X45283380Y-55514809D01*
X45235761Y-55610047D01*
X45188142Y-55657666D01*
X45045285Y-55752904D01*
X44854809Y-55800523D01*
X44473857Y-55800523D01*
X44378619Y-55752904D01*
X44331000Y-55705285D01*
X44283380Y-55610047D01*
X44283380Y-55419571D01*
X44331000Y-55324333D01*
X44378619Y-55276714D01*
X44473857Y-55229095D01*
X44711952Y-55229095D01*
X44807190Y-55276714D01*
X44854809Y-55324333D01*
X44902428Y-55419571D01*
X44902428Y-55610047D01*
X44854809Y-55705285D01*
X44807190Y-55752904D01*
X44711952Y-55800523D01*
X54824380Y-69500904D02*
X55633904Y-69500904D01*
X55729142Y-69548523D01*
X55776761Y-69596142D01*
X55824380Y-69691380D01*
X55824380Y-69881857D01*
X55776761Y-69977095D01*
X55729142Y-70024714D01*
X55633904Y-70072333D01*
X54824380Y-70072333D01*
X55824380Y-71072333D02*
X55824380Y-70500904D01*
X55824380Y-70786619D02*
X54824380Y-70786619D01*
X54967238Y-70691380D01*
X55062476Y-70596142D01*
X55110095Y-70500904D01*
X54824380Y-71405666D02*
X54824380Y-72024714D01*
X55205333Y-71691380D01*
X55205333Y-71834238D01*
X55252952Y-71929476D01*
X55300571Y-71977095D01*
X55395809Y-72024714D01*
X55633904Y-72024714D01*
X55729142Y-71977095D01*
X55776761Y-71929476D01*
X55824380Y-71834238D01*
X55824380Y-71548523D01*
X55776761Y-71453285D01*
X55729142Y-71405666D01*
X54911523Y-81240380D02*
X54244857Y-82240380D01*
X54244857Y-81240380D02*
X54911523Y-82240380D01*
X53387714Y-81240380D02*
X53863904Y-81240380D01*
X53911523Y-81716571D01*
X53863904Y-81668952D01*
X53768666Y-81621333D01*
X53530571Y-81621333D01*
X53435333Y-81668952D01*
X53387714Y-81716571D01*
X53340095Y-81811809D01*
X53340095Y-82049904D01*
X53387714Y-82145142D01*
X53435333Y-82192761D01*
X53530571Y-82240380D01*
X53768666Y-82240380D01*
X53863904Y-82192761D01*
X53911523Y-82145142D01*
X55165523Y-77176380D02*
X54498857Y-78176380D01*
X54498857Y-77176380D02*
X55165523Y-78176380D01*
X53689333Y-77176380D02*
X53879809Y-77176380D01*
X53975047Y-77224000D01*
X54022666Y-77271619D01*
X54117904Y-77414476D01*
X54165523Y-77604952D01*
X54165523Y-77985904D01*
X54117904Y-78081142D01*
X54070285Y-78128761D01*
X53975047Y-78176380D01*
X53784571Y-78176380D01*
X53689333Y-78128761D01*
X53641714Y-78081142D01*
X53594095Y-77985904D01*
X53594095Y-77747809D01*
X53641714Y-77652571D01*
X53689333Y-77604952D01*
X53784571Y-77557333D01*
X53975047Y-77557333D01*
X54070285Y-77604952D01*
X54117904Y-77652571D01*
X54165523Y-77747809D01*
X55165523Y-75398380D02*
X54498857Y-76398380D01*
X54498857Y-75398380D02*
X55165523Y-76398380D01*
X54213142Y-75398380D02*
X53546476Y-75398380D01*
X53975047Y-76398380D01*
X152566666Y-70842142D02*
X152614285Y-70889761D01*
X152757142Y-70937380D01*
X152852380Y-70937380D01*
X152995238Y-70889761D01*
X153090476Y-70794523D01*
X153138095Y-70699285D01*
X153185714Y-70508809D01*
X153185714Y-70365952D01*
X153138095Y-70175476D01*
X153090476Y-70080238D01*
X152995238Y-69985000D01*
X152852380Y-69937380D01*
X152757142Y-69937380D01*
X152614285Y-69985000D01*
X152566666Y-70032619D01*
X151709523Y-69937380D02*
X151900000Y-69937380D01*
X151995238Y-69985000D01*
X152042857Y-70032619D01*
X152138095Y-70175476D01*
X152185714Y-70365952D01*
X152185714Y-70746904D01*
X152138095Y-70842142D01*
X152090476Y-70889761D01*
X151995238Y-70937380D01*
X151804761Y-70937380D01*
X151709523Y-70889761D01*
X151661904Y-70842142D01*
X151614285Y-70746904D01*
X151614285Y-70508809D01*
X151661904Y-70413571D01*
X151709523Y-70365952D01*
X151804761Y-70318333D01*
X151995238Y-70318333D01*
X152090476Y-70365952D01*
X152138095Y-70413571D01*
X152185714Y-70508809D01*
X56554666Y-73890142D02*
X56602285Y-73937761D01*
X56745142Y-73985380D01*
X56840380Y-73985380D01*
X56983238Y-73937761D01*
X57078476Y-73842523D01*
X57126095Y-73747285D01*
X57173714Y-73556809D01*
X57173714Y-73413952D01*
X57126095Y-73223476D01*
X57078476Y-73128238D01*
X56983238Y-73033000D01*
X56840380Y-72985380D01*
X56745142Y-72985380D01*
X56602285Y-73033000D01*
X56554666Y-73080619D01*
X56221333Y-72985380D02*
X55554666Y-72985380D01*
X55983238Y-73985380D01*
X140013333Y-94270380D02*
X140346666Y-93794190D01*
X140584761Y-94270380D02*
X140584761Y-93270380D01*
X140203809Y-93270380D01*
X140108571Y-93318000D01*
X140060952Y-93365619D01*
X140013333Y-93460857D01*
X140013333Y-93603714D01*
X140060952Y-93698952D01*
X140108571Y-93746571D01*
X140203809Y-93794190D01*
X140584761Y-93794190D01*
X139584761Y-93746571D02*
X139251428Y-93746571D01*
X139108571Y-94270380D02*
X139584761Y-94270380D01*
X139584761Y-93270380D01*
X139108571Y-93270380D01*
X138346666Y-93746571D02*
X138680000Y-93746571D01*
X138680000Y-94270380D02*
X138680000Y-93270380D01*
X138203809Y-93270380D01*
X137680000Y-93270380D02*
X137680000Y-93508476D01*
X137918095Y-93413238D02*
X137680000Y-93508476D01*
X137441904Y-93413238D01*
X137822857Y-93698952D02*
X137680000Y-93508476D01*
X137537142Y-93698952D01*
X136918095Y-93270380D02*
X136918095Y-93508476D01*
X137156190Y-93413238D02*
X136918095Y-93508476D01*
X136680000Y-93413238D01*
X137060952Y-93698952D02*
X136918095Y-93508476D01*
X136775238Y-93698952D01*
M02*
