G04 #@! TF.GenerationSoftware,KiCad,Pcbnew,no-vcs-found-ddec803~58~ubuntu14.04.1*
G04 #@! TF.CreationDate,2017-06-12T14:50:18+02:00*
G04 #@! TF.ProjectId,DVDLaserScanner,4456444C617365725363616E6E65722E,rev?*
G04 #@! TF.FileFunction,Soldermask,Bot*
G04 #@! TF.FilePolarity,Negative*
%FSLAX46Y46*%
G04 Gerber Fmt 4.6, Leading zero omitted, Abs format (unit mm)*
G04 Created by KiCad (PCBNEW no-vcs-found-ddec803~58~ubuntu14.04.1) date Mon Jun 12 14:50:18 2017*
%MOMM*%
%LPD*%
G01*
G04 APERTURE LIST*
%ADD10C,0.100000*%
%ADD11R,2.500000X4.400000*%
%ADD12R,0.700000X1.500000*%
%ADD13C,3.500000*%
%ADD14R,2.400000X2.400000*%
%ADD15C,2.400000*%
%ADD16R,1.060400X2.432000*%
%ADD17R,2.300000X1.420000*%
%ADD18C,6.400000*%
%ADD19R,1.900000X1.695400*%
%ADD20R,1.695400X1.900000*%
%ADD21R,3.448000X2.051000*%
%ADD22R,6.496000X6.496000*%
%ADD23R,1.670000X1.365200*%
%ADD24R,0.908000X2.020000*%
%ADD25R,0.980000X2.020000*%
%ADD26R,0.940000X2.700000*%
%ADD27R,2.900000X2.400000*%
%ADD28R,3.400000X3.400000*%
%ADD29R,1.450000X1.450000*%
G04 APERTURE END LIST*
D10*
D11*
X81750000Y-44609000D03*
X108250000Y-44609000D03*
D12*
X95500000Y-46959000D03*
X84000000Y-46959000D03*
X84500000Y-46959000D03*
X85000000Y-46959000D03*
X85500000Y-46959000D03*
X86000000Y-46959000D03*
X86500000Y-46959000D03*
X87000000Y-46959000D03*
X87500000Y-46959000D03*
X88000000Y-46959000D03*
X88500000Y-46959000D03*
X89000000Y-46959000D03*
X94500000Y-46959000D03*
X94000000Y-46959000D03*
X95000000Y-46959000D03*
X93500000Y-46959000D03*
X93000000Y-46959000D03*
X92500000Y-46959000D03*
X92000000Y-46959000D03*
X91500000Y-46959000D03*
X91000000Y-46959000D03*
X90500000Y-46959000D03*
X89500000Y-46959000D03*
X90000000Y-46959000D03*
X102000000Y-46959000D03*
X101500000Y-46959000D03*
X102500000Y-46959000D03*
X103000000Y-46959000D03*
X103500000Y-46959000D03*
X104000000Y-46959000D03*
X104500000Y-46959000D03*
X105000000Y-46959000D03*
X105500000Y-46959000D03*
X106000000Y-46959000D03*
X101000000Y-46959000D03*
X100500000Y-46959000D03*
X100000000Y-46959000D03*
X99500000Y-46959000D03*
X99000000Y-46959000D03*
X98500000Y-46959000D03*
X98000000Y-46959000D03*
X97500000Y-46959000D03*
X97000000Y-46959000D03*
X96500000Y-46959000D03*
X96000000Y-46959000D03*
D13*
X149000000Y-111000000D03*
D14*
X153050000Y-111000000D03*
X144700000Y-113150000D03*
X144650000Y-108850000D03*
D13*
X41000000Y-111000000D03*
D14*
X36950000Y-111000000D03*
X45300000Y-108850000D03*
X45350000Y-113150000D03*
D13*
X159000000Y-74000000D03*
D15*
X156590968Y-70744380D03*
D10*
G36*
X156841809Y-69065964D02*
X158269384Y-70995221D01*
X156340127Y-72422796D01*
X154912552Y-70493539D01*
X156841809Y-69065964D01*
X156841809Y-69065964D01*
G37*
D15*
X163286030Y-76177716D03*
D10*
G36*
X163536871Y-74499300D02*
X164964446Y-76428557D01*
X163035189Y-77856132D01*
X161607614Y-75926875D01*
X163536871Y-74499300D01*
X163536871Y-74499300D01*
G37*
D15*
X159859187Y-78775646D03*
D10*
G36*
X160110028Y-77097230D02*
X161537603Y-79026487D01*
X159608346Y-80454062D01*
X158180771Y-78524805D01*
X160110028Y-77097230D01*
X160110028Y-77097230D01*
G37*
D13*
X31000000Y-74000000D03*
D15*
X33409032Y-70744380D03*
D10*
G36*
X35087448Y-70493539D02*
X33659873Y-72422796D01*
X31730616Y-70995221D01*
X33158191Y-69065964D01*
X35087448Y-70493539D01*
X35087448Y-70493539D01*
G37*
D15*
X30170553Y-78735453D03*
D10*
G36*
X31848969Y-78484612D02*
X30421394Y-80413869D01*
X28492137Y-78986294D01*
X29919712Y-77057037D01*
X31848969Y-78484612D01*
X31848969Y-78484612D01*
G37*
D15*
X26684229Y-76217908D03*
D10*
G36*
X28362645Y-75967067D02*
X26935070Y-77896324D01*
X25005813Y-76468749D01*
X26433388Y-74539492D01*
X28362645Y-75967067D01*
X28362645Y-75967067D01*
G37*
D16*
X102616000Y-109448600D03*
X103886000Y-109448600D03*
X105156000Y-109448600D03*
X106426000Y-109448600D03*
X107696000Y-109448600D03*
X108966000Y-109448600D03*
X110236000Y-109448600D03*
X110236000Y-115595400D03*
X108966000Y-115595400D03*
X106426000Y-115595400D03*
X105156000Y-115595400D03*
X103886000Y-115595400D03*
X102616000Y-115595400D03*
X107696000Y-115595400D03*
X116078000Y-109448600D03*
X117348000Y-109448600D03*
X118618000Y-109448600D03*
X119888000Y-109448600D03*
X121158000Y-109448600D03*
X122428000Y-109448600D03*
X123698000Y-109448600D03*
X123698000Y-115595400D03*
X122428000Y-115595400D03*
X119888000Y-115595400D03*
X118618000Y-115595400D03*
X117348000Y-115595400D03*
X116078000Y-115595400D03*
X121158000Y-115595400D03*
D17*
X144720000Y-45110400D03*
X148020000Y-47650400D03*
X144720000Y-50190400D03*
X148020000Y-52730400D03*
X144720000Y-55270400D03*
X148020000Y-57810400D03*
X144720000Y-60350400D03*
X148020000Y-62890400D03*
X144720000Y-65430400D03*
X148020000Y-67970400D03*
X148020000Y-73050400D03*
X148020000Y-78130400D03*
X148020000Y-83210400D03*
X144720000Y-85750400D03*
X144720000Y-75590400D03*
X144720000Y-80670400D03*
X144720000Y-70510400D03*
X132780000Y-55270400D03*
X132780000Y-50190400D03*
X132780000Y-60350400D03*
X132780000Y-45110400D03*
X129480000Y-47650400D03*
X129480000Y-52730400D03*
X129480000Y-57810400D03*
X129480000Y-62890400D03*
X132780000Y-65430400D03*
X129480000Y-67970400D03*
X132780000Y-70510400D03*
X129480000Y-73050400D03*
X132780000Y-75590400D03*
X129480000Y-78130400D03*
X132780000Y-80670400D03*
X129480000Y-83210400D03*
X132780000Y-85750400D03*
D18*
X28000000Y-110000000D03*
X154000000Y-45000000D03*
X162000000Y-110000000D03*
X36000000Y-45000000D03*
D19*
X86106000Y-114620000D03*
X86106000Y-116520000D03*
D20*
X36261000Y-100838000D03*
X38161000Y-100838000D03*
X47945000Y-104140000D03*
X49845000Y-104140000D03*
D19*
X64389000Y-100904000D03*
X64389000Y-102804000D03*
X67183000Y-91252000D03*
X67183000Y-93152000D03*
D20*
X33721000Y-85852000D03*
X35621000Y-85852000D03*
X65217000Y-86360000D03*
X67117000Y-86360000D03*
X31943000Y-100838000D03*
X33843000Y-100838000D03*
X59629000Y-101092000D03*
X61529000Y-101092000D03*
D19*
X53213000Y-102804000D03*
X53213000Y-100904000D03*
D20*
X49591000Y-100838000D03*
X47691000Y-100838000D03*
D19*
X86106000Y-109286000D03*
X86106000Y-111186000D03*
D20*
X46040000Y-79502000D03*
X47940000Y-79502000D03*
X46040000Y-76962000D03*
X47940000Y-76962000D03*
X76642000Y-118364000D03*
X74742000Y-118364000D03*
D21*
X68580000Y-109982000D03*
D22*
X62230000Y-112268000D03*
D21*
X68580000Y-114554000D03*
D19*
X151892000Y-58328600D03*
X151892000Y-56428600D03*
D20*
X82738000Y-115824000D03*
X80838000Y-115824000D03*
X80838000Y-112776000D03*
X82738000Y-112776000D03*
X82738000Y-118364000D03*
X80838000Y-118364000D03*
X68646000Y-117094000D03*
X70546000Y-117094000D03*
D19*
X155702000Y-58328600D03*
X155702000Y-56428600D03*
D20*
X63820000Y-117094000D03*
X65720000Y-117094000D03*
D16*
X73533000Y-109702600D03*
X74803000Y-109702600D03*
X76073000Y-109702600D03*
X77343000Y-109702600D03*
X77343000Y-115849400D03*
X76073000Y-115849400D03*
X74803000Y-115849400D03*
X73533000Y-115849400D03*
X89408000Y-109448600D03*
X90678000Y-109448600D03*
X91948000Y-109448600D03*
X93218000Y-109448600D03*
X94488000Y-109448600D03*
X95758000Y-109448600D03*
X97028000Y-109448600D03*
X97028000Y-115595400D03*
X95758000Y-115595400D03*
X93218000Y-115595400D03*
X91948000Y-115595400D03*
X90678000Y-115595400D03*
X89408000Y-115595400D03*
X94488000Y-115595400D03*
D23*
X112776000Y-48260000D03*
X112776000Y-46990000D03*
X112776000Y-45720000D03*
D20*
X49718000Y-64008000D03*
X47818000Y-64008000D03*
D24*
X29972000Y-88274000D03*
X31242000Y-88274000D03*
X32512000Y-88274000D03*
X33782000Y-88274000D03*
X35052000Y-88274000D03*
X36322000Y-88274000D03*
X37592000Y-88274000D03*
X38862000Y-88274000D03*
X38862000Y-97654000D03*
X37592000Y-97654000D03*
X36322000Y-97654000D03*
X35052000Y-97654000D03*
X33782000Y-97654000D03*
X32512000Y-97654000D03*
X31242000Y-97654000D03*
D25*
X29972000Y-97654000D03*
D24*
X53848000Y-88274000D03*
X55118000Y-88274000D03*
X56388000Y-88274000D03*
X57658000Y-88274000D03*
X58928000Y-88274000D03*
X60198000Y-88274000D03*
X61468000Y-88274000D03*
X62738000Y-88274000D03*
X62738000Y-97654000D03*
X61468000Y-97654000D03*
X60198000Y-97654000D03*
X58928000Y-97654000D03*
X57658000Y-97654000D03*
X56388000Y-97654000D03*
X55118000Y-97654000D03*
D25*
X53848000Y-97654000D03*
D24*
X41910000Y-88274000D03*
X43180000Y-88274000D03*
X44450000Y-88274000D03*
X45720000Y-88274000D03*
X46990000Y-88274000D03*
X48260000Y-88274000D03*
X49530000Y-88274000D03*
X50800000Y-88274000D03*
X50800000Y-97654000D03*
X49530000Y-97654000D03*
X48260000Y-97654000D03*
X46990000Y-97654000D03*
X45720000Y-97654000D03*
X44450000Y-97654000D03*
X43180000Y-97654000D03*
D25*
X41910000Y-97654000D03*
D26*
X84000000Y-53203800D03*
X84500000Y-50203800D03*
X85000000Y-53203800D03*
X85500000Y-50203800D03*
X86000000Y-53203800D03*
X86500000Y-50203800D03*
X87000000Y-53203800D03*
X87500000Y-50203800D03*
X88000000Y-53203800D03*
X88500000Y-50203800D03*
X89000000Y-53203800D03*
X89500000Y-50203800D03*
X90000000Y-53203800D03*
X90500000Y-50203800D03*
X91000000Y-53203800D03*
X91500000Y-50203800D03*
X92000000Y-53203800D03*
X92500000Y-50203800D03*
X93000000Y-53203800D03*
X93500000Y-50203800D03*
X94000000Y-53203800D03*
X94500000Y-50203800D03*
X95000000Y-53203800D03*
X95500000Y-50203800D03*
X96000000Y-53203800D03*
X96500000Y-50203800D03*
X97000000Y-53203800D03*
X97500000Y-50203800D03*
X98000000Y-53203800D03*
X98500000Y-50203800D03*
X99000000Y-53203800D03*
X99500000Y-50203800D03*
X100000000Y-53203800D03*
X100500000Y-50203800D03*
X101000000Y-53203800D03*
X101500000Y-50203800D03*
X102000000Y-53203800D03*
X102500000Y-50203800D03*
X103000000Y-53203800D03*
X103500000Y-50203800D03*
X104000000Y-53203800D03*
X104500000Y-50203800D03*
X105000000Y-53203800D03*
X105500000Y-50203800D03*
X106000000Y-53203800D03*
D19*
X43180000Y-67630000D03*
X43180000Y-69530000D03*
X43180000Y-56454000D03*
X43180000Y-58354000D03*
X56896000Y-46294000D03*
X56896000Y-48194000D03*
D20*
X45146000Y-61468000D03*
X43246000Y-61468000D03*
D19*
X43180000Y-53782000D03*
X43180000Y-51882000D03*
D20*
X49210000Y-46228000D03*
X47310000Y-46228000D03*
D19*
X40640000Y-56454000D03*
X40640000Y-58354000D03*
X38100000Y-58354000D03*
X38100000Y-56454000D03*
D20*
X47818000Y-61468000D03*
X49718000Y-61468000D03*
X56962000Y-55880000D03*
X58862000Y-55880000D03*
X54290000Y-61468000D03*
X52390000Y-61468000D03*
X58862000Y-61468000D03*
X56962000Y-61468000D03*
X56962000Y-58420000D03*
X58862000Y-58420000D03*
X43246000Y-64008000D03*
X45146000Y-64008000D03*
D19*
X40640000Y-63434000D03*
X40640000Y-61534000D03*
X40640000Y-51882000D03*
X40640000Y-53782000D03*
D20*
X47310000Y-48768000D03*
X49210000Y-48768000D03*
X53782000Y-48768000D03*
X51882000Y-48768000D03*
D19*
X56896000Y-64582000D03*
X56896000Y-66482000D03*
X59436000Y-64582000D03*
X59436000Y-66482000D03*
D20*
X51882000Y-46228000D03*
X53782000Y-46228000D03*
X56962000Y-53340000D03*
X58862000Y-53340000D03*
X58862000Y-50800000D03*
X56962000Y-50800000D03*
D27*
X42500000Y-74500000D03*
X42500000Y-78500000D03*
D16*
X51054000Y-57937400D03*
X45974000Y-57937400D03*
X47244000Y-57937400D03*
X48514000Y-57937400D03*
X49784000Y-57937400D03*
X52324000Y-57937400D03*
X53594000Y-57937400D03*
X53594000Y-51790600D03*
X52324000Y-51790600D03*
X51054000Y-51790600D03*
X49784000Y-51790600D03*
X48514000Y-51790600D03*
X47244000Y-51790600D03*
X45974000Y-51790600D03*
X45974000Y-67538600D03*
X47244000Y-67538600D03*
X48514000Y-67538600D03*
X49784000Y-67538600D03*
X51054000Y-67538600D03*
X52324000Y-67538600D03*
X53594000Y-67538600D03*
X53594000Y-73685400D03*
X52324000Y-73685400D03*
X49784000Y-73685400D03*
X48514000Y-73685400D03*
X47244000Y-73685400D03*
X45974000Y-73685400D03*
X51054000Y-73685400D03*
D28*
X57150000Y-82550000D03*
X57150000Y-78740000D03*
X57150000Y-74930000D03*
D19*
X151892000Y-68514000D03*
X151892000Y-66614000D03*
X55880000Y-71562000D03*
X55880000Y-69662000D03*
D29*
X132080000Y-104648000D03*
X133350000Y-104648000D03*
X134620000Y-104648000D03*
X135890000Y-104648000D03*
X137160000Y-104648000D03*
X138430000Y-104648000D03*
X139700000Y-104648000D03*
X140970000Y-104648000D03*
X142240000Y-104648000D03*
X143510000Y-104648000D03*
X144780000Y-104648000D03*
X146050000Y-104648000D03*
X132080000Y-103378000D03*
X133350000Y-103378000D03*
X134620000Y-103378000D03*
X135890000Y-103378000D03*
X137160000Y-103378000D03*
X138430000Y-103378000D03*
X139700000Y-103378000D03*
X140970000Y-103378000D03*
X142240000Y-103378000D03*
X143510000Y-103378000D03*
X144780000Y-103378000D03*
X146050000Y-103378000D03*
X132080000Y-102108000D03*
X133350000Y-102108000D03*
X134620000Y-102108000D03*
X135890000Y-102108000D03*
X137160000Y-102108000D03*
X138430000Y-102108000D03*
X139700000Y-102108000D03*
X140970000Y-102108000D03*
X142240000Y-102108000D03*
X143510000Y-102108000D03*
X144780000Y-102108000D03*
X146050000Y-102108000D03*
X132080000Y-100838000D03*
X133350000Y-100838000D03*
X134620000Y-100838000D03*
X135890000Y-100838000D03*
X137160000Y-100838000D03*
X138430000Y-100838000D03*
X139700000Y-100838000D03*
X140970000Y-100838000D03*
X142240000Y-100838000D03*
X143510000Y-100838000D03*
X144780000Y-100838000D03*
X146050000Y-100838000D03*
X132080000Y-99568000D03*
X133350000Y-99568000D03*
X134620000Y-99568000D03*
X135890000Y-99568000D03*
X137160000Y-99568000D03*
X138430000Y-99568000D03*
X139700000Y-99568000D03*
X140970000Y-99568000D03*
X142240000Y-99568000D03*
X143510000Y-99568000D03*
X144780000Y-99568000D03*
X146050000Y-99568000D03*
X132080000Y-98298000D03*
X133350000Y-98298000D03*
X134620000Y-98298000D03*
X135890000Y-98298000D03*
X137160000Y-98298000D03*
X138430000Y-98298000D03*
X139700000Y-98298000D03*
X140970000Y-98298000D03*
X142240000Y-98298000D03*
X143510000Y-98298000D03*
X144780000Y-98298000D03*
X146050000Y-98298000D03*
X132080000Y-97028000D03*
X133350000Y-97028000D03*
X134620000Y-97028000D03*
X135890000Y-97028000D03*
X137160000Y-97028000D03*
X138430000Y-97028000D03*
X139700000Y-97028000D03*
X140970000Y-97028000D03*
X142240000Y-97028000D03*
X143510000Y-97028000D03*
X144780000Y-97028000D03*
X146050000Y-97028000D03*
X132080000Y-95758000D03*
X133350000Y-95758000D03*
X134620000Y-95758000D03*
X135890000Y-95758000D03*
X137160000Y-95758000D03*
X138430000Y-95758000D03*
X139700000Y-95758000D03*
X140970000Y-95758000D03*
X142240000Y-95758000D03*
X143510000Y-95758000D03*
X144780000Y-95758000D03*
X146050000Y-95758000D03*
M02*
